<svg width="42" height="42" viewBox="0 0 42 42" fill="none" xmlns="http://www.w3.org/2000/svg">
<path d="M11.055 30.905C11.055 30.905 9.00075 27.5215 9.24242 27.6424C9.4841 27.7632 11.0035 28.4675 14.1969 28.7299C18.3368 29.0702 23.0182 29.3342 27.9725 28.7299C29.8686 28.4987 31.6486 27.8733 31.8253 27.6675L31.8393 27.6424C31.838 27.6499 31.8333 27.6583 31.8253 27.6675L30.0267 30.905C30.0267 30.905 27.5423 31.5907 25.9182 31.8717C24.1877 32.1712 23.2008 32.2609 21.4471 32.3551C19.7036 32.4488 18.7126 32.5377 16.9762 32.3551C15.347 32.1838 14.5224 31.9603 12.8676 31.5092C12.1477 31.313 11.055 30.905 11.055 30.905Z" fill="white"/>
<path d="M11.055 30.905C11.055 30.905 9.00075 27.5215 9.24242 27.6424C9.4841 27.7632 11.0035 28.4675 14.1969 28.7299C18.3368 29.0702 23.0182 29.3342 27.9725 28.7299C29.954 28.4883 31.8087 27.8161 31.8393 27.6424L30.0267 30.905C30.0267 30.905 27.5423 31.5907 25.9182 31.8717C24.1877 32.1712 23.2008 32.2609 21.4471 32.3551C19.7036 32.4488 18.7126 32.5377 16.9762 32.3551C15.347 32.1838 14.5224 31.9603 12.8676 31.5092C12.1477 31.313 11.055 30.905 11.055 30.905Z" stroke="black" stroke-width="1.0875"/>
<path d="M31.6775 27.3147C31.6776 27.3147 31.6769 27.3159 31.6752 27.3182C31.6765 27.3159 31.6774 27.3147 31.6775 27.3147ZM31.0901 27.1541C31.3234 27.2461 31.4816 27.3309 31.5798 27.4008C31.4816 27.4707 31.3234 27.5556 31.0901 27.6475C30.5552 27.8583 29.7491 28.0591 28.714 28.2316C26.6523 28.5752 23.7835 28.7905 20.6005 28.7905C17.4176 28.7905 14.5487 28.5752 12.4871 28.2316C11.4519 28.0591 10.6458 27.8583 10.111 27.6475C9.87766 27.5556 9.71951 27.4707 9.62121 27.4008C9.71951 27.3309 9.87766 27.2461 10.111 27.1541C10.6458 26.9434 11.4519 26.7426 12.4871 26.57C14.5487 26.2264 17.4176 26.0112 20.6005 26.0112C23.7835 26.0112 26.6523 26.2264 28.714 26.57C29.7491 26.7426 30.5552 26.9434 31.0901 27.1541ZM9.52354 27.3147C9.52365 27.3147 9.52455 27.3159 9.5259 27.3182C9.52411 27.3159 9.52344 27.3147 9.52354 27.3147ZM9.52354 27.4869C9.52344 27.4869 9.52411 27.4858 9.5259 27.4834C9.52455 27.4858 9.52365 27.4869 9.52354 27.4869ZM31.6752 27.4834C31.6769 27.4858 31.6776 27.4869 31.6775 27.4869C31.6774 27.4869 31.6765 27.4858 31.6752 27.4834Z" fill="white" stroke="black" stroke-width="1.0875"/>
<path d="M14.7981 23.9959C13.3868 24.5302 11.6558 26.4367 11.6562 26.7621C11.6567 27.0875 13.5678 27.1896 14.7981 27.413C16.5385 27.729 17.5148 27.9524 19.2691 28.0639C20.6361 28.1507 21.4054 28.1115 22.7734 28.0639C24.4272 28.0063 25.4216 28.3936 27.0028 27.7384C27.951 27.3455 29.2987 26.274 29.2987 26.274C29.2987 26.274 28.4756 25.252 27.8487 24.8095C27.148 24.315 26.6888 24.2189 25.9152 23.9959C24.9418 23.7154 24.3724 23.619 23.3776 23.6705C22.3232 23.7251 21.736 23.9417 20.7192 24.3214C20.144 24.5362 19.8573 25.1092 19.2691 24.9722C18.7661 24.8551 18.6461 24.2807 18.1815 23.9959C16.979 23.2587 16.0701 23.5143 14.7981 23.9959Z" fill="white" stroke="black" stroke-width="1.0875"/>
<path d="M14.5576 13.2626C15.7041 12.1714 17.3044 12.7669 18.1827 11.4501C18.5231 10.9397 18.7869 10 18.7869 10C18.7869 10 18.8272 10.7653 18.7869 11.0875C18.7466 11.4098 18.4244 12.4168 18.4244 12.4168C18.4244 12.4168 17.941 13.021 17.6994 13.2626C17.4577 13.5043 16.6118 14.1085 16.3701 14.2294L15.0409 15.3169C14.9201 15.4377 14.3587 16.4244 14.5576 17.1295C14.7298 17.7406 15.4034 18.217 15.6451 18.3379C15.6451 18.3379 16.3701 19.506 16.6118 20.0296C16.8535 20.5533 16.3701 21.6005 16.3701 21.6005C16.3701 21.6005 16.3774 21.453 16.3701 21.3589C16.3207 20.7189 15.8589 20.4818 15.4034 20.0296C14.7715 19.4023 14.0743 19.4752 13.47 18.8212C12.9536 18.2624 12.6723 17.8714 12.5033 17.1295C12.1234 15.4623 13.3189 14.4416 14.5576 13.2626Z" fill="white"/>
<path d="M18.1827 18.3379C18.3948 19.4312 20.4787 20.0296 20.4787 20.0296C20.1161 19.4657 19.2703 18.217 19.2703 18.217L19.3911 17.1295L20.962 16.0419L22.5329 14.8336C22.5329 14.8336 22.9209 14.2009 23.0163 13.746C23.2809 12.4845 21.687 10.3625 21.687 10.725V12.4168C21.687 12.4168 21.2037 13.1418 21.0829 13.2626C21.0829 13.2626 20.4333 14.0115 19.9953 14.471C19.627 14.8575 19.2703 15.3169 19.0286 15.4377C18.7869 15.5586 18.4244 16.6461 18.4244 16.8878C18.4244 16.8878 18.0734 17.7743 18.1827 18.3379Z" fill="white"/>
<path d="M23.4996 17.7337C23.2737 18.2685 23.4318 19.0367 23.6045 19.5875C23.5464 19.0603 23.5517 18.4488 23.8621 18.3379C24.4261 18.1365 26.0372 17.6128 26.0372 17.6128L27.1248 16.5253C27.1248 16.5253 27.8499 15.4377 27.8498 14.8336C27.8497 14.2294 27.4068 13.5043 27.1248 12.9001C26.8428 12.2959 25.4733 10.725 25.5539 11.0875C25.6345 11.4501 25.7956 12.4168 25.7956 12.4168C25.7956 12.6585 26.1581 13.746 26.1581 13.746C26.1581 13.746 25.9567 14.9544 25.7956 15.3169C25.6345 15.6794 25.0462 16.0408 24.5872 16.5253C24.1505 16.9862 23.7467 17.1489 23.4996 17.7337Z" fill="white"/>
<path d="M23.8621 20.2713C23.8621 20.2713 23.11 18.6558 23.4996 17.7337C23.7467 17.1489 24.1505 16.9862 24.5872 16.5253C25.0462 16.0408 25.6345 15.6794 25.7956 15.3169C25.9567 14.9544 26.1581 13.746 26.1581 13.746C26.1581 13.746 25.7956 12.6585 25.7956 12.4168C25.7956 12.4168 25.6345 11.4501 25.5539 11.0875C25.4733 10.725 26.8428 12.2959 27.1248 12.9001C27.4068 13.5043 27.8497 14.2294 27.8498 14.8336C27.8499 15.4377 27.1248 16.5253 27.1248 16.5253L26.0372 17.6128C26.0372 17.6128 24.4261 18.1365 23.8621 18.3379C23.2982 18.5393 23.7413 20.3921 23.7413 20.3921M18.1827 11.4501C17.3044 12.7669 15.7041 12.1714 14.5576 13.2626C13.3189 14.4416 12.1234 15.4623 12.5033 17.1295C12.6723 17.8714 12.9536 18.2624 13.47 18.8212C14.0743 19.4752 14.7715 19.4023 15.4034 20.0296C15.8589 20.4818 16.3207 20.7189 16.3701 21.3589C16.3774 21.453 16.3701 21.6005 16.3701 21.6005C16.3701 21.6005 16.8535 20.5533 16.6118 20.0296C16.3701 19.506 15.6451 18.3379 15.6451 18.3379C15.4034 18.217 14.7298 17.7406 14.5576 17.1295C14.3587 16.4244 14.9201 15.4377 15.0409 15.3169L16.3701 14.2294C16.6118 14.1085 17.4577 13.5043 17.6994 13.2626C17.941 13.021 18.4244 12.4168 18.4244 12.4168C18.4244 12.4168 18.7466 11.4098 18.7869 11.0875C18.8272 10.7653 18.7869 10 18.7869 10C18.7869 10 18.5231 10.9397 18.1827 11.4501ZM20.4787 20.0296C20.4787 20.0296 18.3948 19.4312 18.1827 18.3379C18.0734 17.7743 18.4244 16.8878 18.4244 16.8878C18.4244 16.6461 18.7869 15.5586 19.0286 15.4377C19.2703 15.3169 19.627 14.8575 19.9953 14.471C20.4333 14.0115 21.0829 13.2626 21.0829 13.2626C21.2037 13.1418 21.687 12.4168 21.687 12.4168C21.687 12.4168 21.687 11.0875 21.687 10.725C21.687 10.3625 23.2809 12.4845 23.0163 13.746C22.9209 14.2009 22.5329 14.8336 22.5329 14.8336L20.962 16.0419L19.3911 17.1295L19.2703 18.217C19.2703 18.217 20.1161 19.4657 20.4787 20.0296Z" stroke="#969696" stroke-width="1.0875"/>
</svg>
