<svg width="42" height="42" viewBox="0 0 42 42" fill="none" xmlns="http://www.w3.org/2000/svg">
<path d="M31.0816 27.8101C31.0816 27.8358 31.0666 27.8957 30.9509 27.99C30.8374 28.0821 30.6596 28.1807 30.4089 28.2792C29.9098 28.4763 29.1729 28.6584 28.2496 28.8126C26.4031 29.1211 23.8454 29.3117 21.0134 29.3117C18.1815 29.3117 15.6238 29.1211 13.7772 28.8126C12.8518 28.6584 12.1171 28.4763 11.6179 28.2792C11.3673 28.1807 11.1874 28.0821 11.076 27.99C10.9603 27.8957 10.9453 27.8358 10.9453 27.8101C10.9453 27.7844 10.9603 27.7244 11.076 27.6301C11.1895 27.538 11.3673 27.4395 11.6179 27.3409C12.1171 27.1439 12.854 26.9618 13.7772 26.8075C15.6238 26.4991 18.1815 26.3084 21.0134 26.3084C23.8454 26.3084 26.4031 26.4991 28.2496 26.8075C29.1751 26.9618 29.9098 27.1439 30.4089 27.3409C30.6596 27.4395 30.8395 27.538 30.9509 27.6301C31.0666 27.7244 31.0816 27.7844 31.0816 27.8101Z" fill="#777777"/>
<path d="M12.5523 32.2014C11.9033 31.5973 10.7315 29.2024 10.9457 29.3095C11.1599 29.4166 12.5073 30.04 15.3371 30.2735C19.0066 30.5755 23.156 30.809 27.5474 30.2735C29.229 30.0678 30.8056 29.5152 30.962 29.3309L30.9749 29.3095C30.9749 29.3095 30.9684 29.3245 30.962 29.3309C30.962 29.3309 30.6107 30.9547 29.3683 32.2014C28.3229 32.9897 27.3611 33.4867 21.7636 33.4867C16.1661 33.4867 13.2014 32.8055 12.5523 32.2014Z" fill="#777777"/>
<path d="M15.8356 24.4469C14.5846 24.9203 13.0508 26.6104 13.0508 26.8996C13.2843 27.9557 19.1666 27.9321 21.5423 27.9429C23.9179 27.9536 29.3762 27.6772 29.6182 27.0389C28.922 24.344 23.8472 21.8227 21.0132 24.0013C19.5458 24.8025 19.2031 23.6307 15.8356 24.449V24.4469Z" fill="#777777"/>
<path d="M22.9938 20.4732C21.3486 17.0779 27.7601 16.0732 25.7143 13.2284C27.3381 12.7164 29.4138 15.1778 25.8257 17.7312C24.8489 18.4253 23.5593 20.2975 24.0756 21.6257C23.5686 21.2301 23.208 20.8466 22.9938 20.4753V20.4732Z" fill="#777777"/>
<path d="M18.9342 19.2586C17.0534 14.5394 23.5098 12.5493 21.2584 8.65274C22.8779 7.78088 25.1379 11.1248 21.6462 15.0878C20.6951 16.1674 19.4997 18.9587 20.106 20.8138C19.5661 20.2911 19.1763 19.7727 18.9363 19.2586H18.9342Z" fill="#777777"/>
<path d="M14.4641 20.1347C11.8743 17.3885 17.6881 14.5073 14.884 12.408C16.2807 11.4312 18.9969 13.1577 16.3407 16.6687C15.6166 17.6241 14.9504 19.7984 15.8415 20.9081C15.2389 20.6824 14.7797 20.4246 14.4641 20.1347Z" fill="#777777"/>
</svg>
