<svg width="42" height="42" viewBox="0 0 42 42" fill="none" xmlns="http://www.w3.org/2000/svg">
<path d="M25.8518 11.5696C24.1573 11.5696 22.0409 12.4158 20.7427 15.1985C19.4424 12.4158 17.326 11.5696 15.6315 11.5696C14.3013 11.5696 13.6351 12.4779 13.9371 13.6861C14.2391 15.5005 17.6259 16.4088 18.7162 16.4088H22.7671C23.8553 16.4088 27.242 15.5005 27.5462 13.6861C27.8483 12.4758 27.1842 11.5696 25.8518 11.5696ZM15.4195 13.8103C15.2759 13.3948 15.5159 12.9149 16.0514 12.8292C17.1225 12.5765 19.2304 14.9285 19.2304 14.9285C19.2304 14.9285 16.2356 15.1106 15.4195 13.8103ZM26.0638 13.8103C25.2477 15.1106 22.2529 14.9285 22.2529 14.9285C22.2529 14.9285 24.3587 12.5765 25.4319 12.8292C25.9696 12.9149 26.2095 13.3948 26.0638 13.8103Z" fill="#777777"/>
<path fill-rule="evenodd" clip-rule="evenodd" d="M19.9201 22.6103H13.6953V30.17H19.9201V22.6103ZM21.681 30.17V22.6103H27.7286V30.17H21.681Z" fill="#777777"/>
<path fill-rule="evenodd" clip-rule="evenodd" d="M12.4238 16.3145H29.0577V20.7895H21.6795V16.8372H19.9187V20.7895H12.4238V16.3145Z" fill="#777777"/>
</svg>
