<svg width="42" height="42" viewBox="0 0 42 42" fill="none" xmlns="http://www.w3.org/2000/svg">
<rect x="12.5438" y="15.6478" width="17.2129" height="2.01425" fill="white" stroke="black" stroke-width="1.0875"/>
<path d="M28.8615 18.1291L29.7196 30.9995L12.5816 30.9995L13.4396 18.1291L28.8615 18.1291Z" fill="white" stroke="black" stroke-width="1.0875"/>
<path d="M15.5662 10.141C14.052 8.9903 16.1865 15.2589 16.1865 15.2589H18.9781L19.2883 14.7937L19.4434 15.2589H21.7697V14.7937L22.235 15.2589L25.3367 15.2589C25.3367 15.2589 27.8181 11.2267 25.1817 10.7615C22.5453 10.2963 23.5383 14.8973 22.235 13.3979C22.0033 13.1314 22.7998 14.049 21.7697 12.6225C20.7396 11.1959 20.3053 11.2745 19.7536 12.6225C19.7536 12.6225 21.1494 15.7242 19.4434 13.0877C17.7374 10.4512 17.0803 11.2918 15.5662 10.141Z" fill="white" stroke="black" stroke-width="1.0875"/>
<rect x="13.4766" y="16.651" width="15.5191" height="2.46336" fill="white"/>
</svg>
