<svg width="42" height="42" viewBox="0 0 42 42" fill="none" xmlns="http://www.w3.org/2000/svg">
<path fill-rule="evenodd" clip-rule="evenodd" d="M27.9806 18.0945C32.3763 18.8999 32.4105 21.7683 32.4105 21.7683L32.4384 29.2894H26.7522L26.7224 23.1307L26.7202 23.1286C26.7202 23.1286 26.536 19.8725 22.6309 19.4548C22.0525 19.0949 22.798 18.0645 22.798 18.0645C24.2627 15.0139 22.9428 12.699 21.3203 11.6951C22.26 10.4594 23.8582 9.76916 24.8787 9.78506C26.9416 9.75293 31.3652 12.6063 27.9377 17.017C27.9377 17.017 27.4557 17.7582 27.9806 18.0945Z" fill="#777777"/>
<path d="M24.9743 23.7198C24.9743 23.7198 24.94 20.8514 20.5443 20.046C20.0195 19.7096 20.5015 18.9685 20.5015 18.9685C23.9289 14.5578 19.5054 11.7044 17.4425 11.7365C15.3796 11.7044 10.956 14.5578 14.3835 18.9685C14.3835 18.9685 14.8655 19.7096 14.3406 20.046C9.94494 20.8493 9.91066 23.7198 9.91066 23.7198L9.88281 31.2409H25.0021L24.9743 23.7198Z" fill="#777777"/>
</svg>
