<svg width="42" height="42" viewBox="0 0 42 42" fill="none" xmlns="http://www.w3.org/2000/svg">
<mask id="path-1-inside-1_2855_8007" fill="white">
<path fill-rule="evenodd" clip-rule="evenodd" d="M19.7137 20.3389C21.1485 19.8132 22.1723 18.4355 22.1723 16.8186C22.1723 14.7488 20.4944 13.0708 18.4245 13.0708C16.3546 13.0708 14.6766 14.7488 14.6766 16.8186C14.6766 18.4356 15.7006 19.8134 17.1355 20.339C14.2051 20.9359 12 23.5277 12 26.6344V28.539C12 29.7541 12.9851 30.7392 14.2002 30.7392H22.6495C23.8647 30.7392 24.8498 29.7541 24.8498 28.539V26.6344C24.8498 23.5275 22.6444 20.9356 19.7137 20.3389Z"/>
</mask>
<path fill-rule="evenodd" clip-rule="evenodd" d="M19.7137 20.3389C21.1485 19.8132 22.1723 18.4355 22.1723 16.8186C22.1723 14.7488 20.4944 13.0708 18.4245 13.0708C16.3546 13.0708 14.6766 14.7488 14.6766 16.8186C14.6766 18.4356 15.7006 19.8134 17.1355 20.339C14.2051 20.9359 12 23.5277 12 26.6344V28.539C12 29.7541 12.9851 30.7392 14.2002 30.7392H22.6495C23.8647 30.7392 24.8498 29.7541 24.8498 28.539V26.6344C24.8498 23.5275 22.6444 20.9356 19.7137 20.3389Z" fill="white"/>
<path d="M19.7137 20.3389L19.3396 19.3177L15.7346 20.6384L19.4967 21.4045L19.7137 20.3389ZM17.1355 20.339L17.3526 21.4046L21.1147 20.6382L17.5095 19.3178L17.1355 20.339ZM21.0848 16.8186C21.0848 17.9646 20.3597 18.944 19.3396 19.3177L20.0878 21.36C21.9373 20.6825 23.2598 18.9064 23.2598 16.8186H21.0848ZM18.4245 14.1583C19.8938 14.1583 21.0848 15.3494 21.0848 16.8186H23.2598C23.2598 14.1482 21.095 11.9833 18.4245 11.9833V14.1583ZM15.7642 16.8186C15.7642 15.3494 16.9552 14.1583 18.4245 14.1583V11.9833C15.754 11.9833 13.5891 14.1482 13.5891 16.8186H15.7642ZM17.5095 19.3178C16.4894 18.9442 15.7642 17.9647 15.7642 16.8186H13.5891C13.5891 18.9065 14.9119 20.6827 16.7615 21.3601L17.5095 19.3178ZM13.0875 26.6344C13.0875 24.0548 14.9186 21.9004 17.3526 21.4046L16.9185 19.2733C13.4915 19.9715 10.9125 23.0005 10.9125 26.6344H13.0875ZM13.0875 28.539V26.6344H10.9125V28.539H13.0875ZM14.2002 29.6517C13.5857 29.6517 13.0875 29.1535 13.0875 28.539H10.9125C10.9125 30.3547 12.3845 31.8267 14.2002 31.8267V29.6517ZM22.6495 29.6517H14.2002V31.8267H22.6495V29.6517ZM23.7623 28.539C23.7623 29.1535 23.2641 29.6517 22.6495 29.6517V31.8267C24.4653 31.8267 25.9373 30.3547 25.9373 28.539H23.7623ZM23.7623 26.6344V28.539H25.9373V26.6344H23.7623ZM19.4967 21.4045C21.9309 21.9002 23.7623 24.0547 23.7623 26.6344H25.9373C25.9373 23.0003 23.3579 19.9711 19.9307 19.2732L19.4967 21.4045Z" fill="black" mask="url(#path-1-inside-1_2855_8007)"/>
<path fill-rule="evenodd" clip-rule="evenodd" d="M24.871 18.2469L23.9559 18.5821L23.4095 18.382C23.1045 18.6907 22.7462 18.9467 22.3497 19.135C22.3638 19.1418 22.378 19.1484 22.3923 19.155C22.482 19.1962 22.5736 19.234 22.6669 19.2682C22.5603 19.2899 22.4546 19.3142 22.35 19.3412C23.0308 19.5164 23.668 19.8004 24.2418 20.1736L25.0281 20.3337C27.4622 20.8294 29.2936 22.9839 29.2936 25.5636L29.2936 27.4682C29.2936 28.0827 28.7954 28.5809 28.1809 28.5809H26.867C26.4864 29.2289 25.7836 29.6648 24.9786 29.6684H28.1809C29.396 29.6684 30.3811 28.6833 30.3811 27.4682V25.5636C30.3811 22.989 28.8667 20.768 26.68 19.743C26.5866 19.6992 26.492 19.6576 26.3962 19.6183C26.0284 19.4672 25.6434 19.3492 25.2451 19.2681C25.3384 19.2339 25.43 19.1961 25.5197 19.1548C25.8833 18.9877 26.2155 18.764 26.5052 18.4951C27.2424 17.8106 27.7037 16.8331 27.7037 15.7478C27.7037 13.678 26.0257 12 23.9558 12C23.381 12 22.8364 12.1294 22.3496 12.3607C22.7568 12.5541 23.1236 12.8188 23.4339 13.1387C23.6027 13.1051 23.7772 13.0875 23.9558 13.0875C25.4251 13.0875 26.6162 14.2786 26.6162 15.7478C26.6162 16.8938 25.891 17.8732 24.871 18.2469Z" fill="black"/>
</svg>
