<svg width="42" height="42" viewBox="0 0 42 42" fill="none" xmlns="http://www.w3.org/2000/svg">
<path d="M31.4862 15.3567L32.544 14.7443L30.4381 11.6741L29.4865 12.4394L29.1447 11.9424C29.0195 11.7595 28.7691 11.713 28.5863 11.8382C28.4034 11.9634 28.3568 12.2138 28.4821 12.3967L28.8578 12.9431L28.3196 13.3746L27.9799 12.8798C27.8547 12.6969 27.6043 12.6504 27.4215 12.7756C27.2386 12.9008 27.192 13.1512 27.3173 13.3341L27.693 13.8805L26.8533 14.5544L27.0826 14.89L23.2186 17.5413C21.7979 16.2364 19.8012 15.924 18.3576 16.9153C17.9531 17.1934 17.6274 17.5491 17.3849 17.9568C16.9129 18.7529 15.9785 19.1583 15.0669 19.0005C13.8322 18.785 12.5755 19.0063 11.5321 19.7238C9.18481 21.335 8.79009 24.8415 10.6518 27.5544C12.5135 30.2674 15.9268 31.1607 18.2741 29.5495C19.3197 28.832 19.9756 27.7414 20.2211 26.5112C20.4003 25.604 21.1161 24.878 22.0296 24.7231C22.4971 24.6446 22.9459 24.4675 23.3526 24.1894C24.794 23.2002 25.2241 21.2256 24.5156 19.4282L28.3796 16.779L28.5643 17.05L29.4953 16.5096L29.8667 17.0518C29.992 17.2346 30.2423 17.2812 30.4252 17.1559C30.6081 17.0307 30.6546 16.7804 30.5294 16.5975L30.1919 16.107L30.7874 15.7615L31.1589 16.3037C31.2841 16.4865 31.5345 16.5331 31.7174 16.4079C31.9002 16.2826 31.9468 16.0323 31.8215 15.8494L31.484 15.3567L31.4862 15.3567ZM16.3254 26.7032C16.2501 26.7541 16.16 26.7707 16.0766 26.7551C15.9931 26.7396 15.9163 26.692 15.8632 26.6167L13.4008 23.0259C13.2967 22.8753 13.3345 22.6678 13.4872 22.5638C13.6378 22.4598 13.8454 22.4975 13.9494 22.6502L16.4118 26.241C16.5158 26.3916 16.4781 26.5991 16.3254 26.7032ZM21.1197 22.2475C20.3882 22.7484 19.3911 22.5622 18.8901 21.8329C18.3892 21.1014 18.5754 20.1043 19.3047 19.6033C20.0362 19.1023 21.0333 19.2885 21.5343 20.0179C22.0352 20.7494 21.849 21.7465 21.1197 22.2475Z" fill="#777777"/>
<path d="M22.4436 18.6954L18.4785 18.6705L18.4504 23.1583L22.4154 23.1831L22.4436 18.6954Z" fill="#777777"/>
<path d="M17.2127 21.8138L12.8984 21.7867L12.8615 27.6818L17.1757 27.7089L17.2127 21.8138Z" fill="#777777"/>
</svg>
