<svg width="42" height="42" viewBox="0 0 42 42" fill="none" xmlns="http://www.w3.org/2000/svg">
<mask id="path-1-inside-1_2855_7980" fill="white">
<path fill-rule="evenodd" clip-rule="evenodd" d="M25.4061 8.8523L25.8114 7.98452L26.2453 8.18717L25.84 9.05495L25.4061 8.8523ZM26.7567 7.45536L24.7791 11.3259L24.919 11.422L24.5232 11.998L24.6647 12.0952L20.2381 18.2024C18.5829 17.5207 16.7652 17.7557 15.6401 18.9544C15.0023 19.6338 14.6877 20.5157 14.6777 21.4453C13.2058 21.3773 11.8035 21.8622 10.8119 22.9186C8.80586 25.0558 9.24075 28.723 11.7833 31.1095C14.3258 33.496 18.0132 33.6981 20.0193 31.5609C21.2527 30.2469 21.5633 28.3544 21.0287 26.5368C21.6513 26.3637 22.2174 26.0371 22.671 25.5539C24.0151 24.1219 23.9242 21.7904 22.5702 20.0093L26.7764 13.5463L26.9163 13.6424L27.3121 13.0664L27.559 13.2361L30.3088 9.89622L26.7567 7.45536ZM24.4037 10.8753L24.8089 10.0076L25.2428 10.2102L24.8375 11.078L24.4037 10.8753ZM29.8024 11.6702L30.4185 10.9369L30.0518 10.6289L29.4358 11.3622L29.8024 11.6702ZM24.9063 9.86342L25.3116 8.99563L25.7455 9.19828L25.3402 10.0661L24.9063 9.86342ZM29.0563 12.5178L29.6724 11.7845L29.3057 11.4764L28.6897 12.2097L29.0563 12.5178ZM28.3102 13.3645L28.9263 12.6312L28.5597 12.3232L27.9436 13.0565L28.3102 13.3645Z"/>
</mask>
<path fill-rule="evenodd" clip-rule="evenodd" d="M25.4061 8.8523L25.8114 7.98452L26.2453 8.18717L25.84 9.05495L25.4061 8.8523ZM26.7567 7.45536L24.7791 11.3259L24.919 11.422L24.5232 11.998L24.6647 12.0952L20.2381 18.2024C18.5829 17.5207 16.7652 17.7557 15.6401 18.9544C15.0023 19.6338 14.6877 20.5157 14.6777 21.4453C13.2058 21.3773 11.8035 21.8622 10.8119 22.9186C8.80586 25.0558 9.24075 28.723 11.7833 31.1095C14.3258 33.496 18.0132 33.6981 20.0193 31.5609C21.2527 30.2469 21.5633 28.3544 21.0287 26.5368C21.6513 26.3637 22.2174 26.0371 22.671 25.5539C24.0151 24.1219 23.9242 21.7904 22.5702 20.0093L26.7764 13.5463L26.9163 13.6424L27.3121 13.0664L27.559 13.2361L30.3088 9.89622L26.7567 7.45536ZM24.4037 10.8753L24.8089 10.0076L25.2428 10.2102L24.8375 11.078L24.4037 10.8753ZM29.8024 11.6702L30.4185 10.9369L30.0518 10.6289L29.4358 11.3622L29.8024 11.6702ZM24.9063 9.86342L25.3116 8.99563L25.7455 9.19828L25.3402 10.0661L24.9063 9.86342ZM29.0563 12.5178L29.6724 11.7845L29.3057 11.4764L28.6897 12.2097L29.0563 12.5178ZM28.3102 13.3645L28.9263 12.6312L28.5597 12.3232L27.9436 13.0565L28.3102 13.3645Z" fill="white"/>
<path d="M25.8114 7.98452L26.2716 6.99919L25.2863 6.53898L24.8261 7.52432L25.8114 7.98452ZM25.4061 8.8523L24.4208 8.3921L23.9606 9.37744L24.9459 9.83764L25.4061 8.8523ZM26.2453 8.18717L27.2306 8.64736L27.6908 7.66203L26.7055 7.20183L26.2453 8.18717ZM25.84 9.05495L25.3798 10.0403L26.3652 10.5005L26.8254 9.51514L25.84 9.05495ZM24.7791 11.3259L23.8107 10.8311L23.3762 11.6814L24.1632 12.2222L24.7791 11.3259ZM26.7567 7.45536L27.3725 6.55906L26.3518 5.85762L25.7882 6.96057L26.7567 7.45536ZM24.919 11.422L25.8153 12.0379L26.4312 11.1416L25.5349 10.5257L24.919 11.422ZM24.5232 11.998L23.6269 11.3821L23.011 12.2784L23.9073 12.8943L24.5232 11.998ZM24.6647 12.0952L25.5452 12.7334L26.1997 11.8305L25.2806 11.1989L24.6647 12.0952ZM20.2381 18.2024L19.824 19.208L20.616 19.5342L21.1187 18.8407L20.2381 18.2024ZM15.6401 18.9544L16.433 19.6986L16.433 19.6986L15.6401 18.9544ZM14.6777 21.4453L14.6275 22.5317L15.753 22.5836L15.7651 21.457L14.6777 21.4453ZM10.8119 22.9186L11.6048 23.6628L11.6048 23.6628L10.8119 22.9186ZM11.7833 31.1095L12.5276 30.3166L12.5276 30.3166L11.7833 31.1095ZM20.0193 31.5609L19.2263 30.8167L19.2263 30.8167L20.0193 31.5609ZM21.0287 26.5368L20.7374 25.489L19.6738 25.7846L19.9854 26.8437L21.0287 26.5368ZM22.671 25.5539L23.4639 26.2981L23.4639 26.2981L22.671 25.5539ZM22.5702 20.0093L21.6587 19.4161L21.241 20.0579L21.7044 20.6675L22.5702 20.0093ZM26.7764 13.5463L27.3923 12.65L26.4732 12.0184L25.8649 12.9531L26.7764 13.5463ZM26.9163 13.6424L26.3004 14.5387L27.1967 15.1546L27.8126 14.2583L26.9163 13.6424ZM27.3121 13.0664L27.928 12.1701L27.0317 11.5542L26.4158 12.4505L27.3121 13.0664ZM27.559 13.2361L26.9432 14.1324L27.7649 14.6971L28.3986 13.9273L27.559 13.2361ZM30.3088 9.89622L31.1484 10.5874L31.9023 9.6717L30.9247 8.99993L30.3088 9.89622ZM24.8089 10.0076L25.2691 9.02223L24.2838 8.56203L23.8236 9.54736L24.8089 10.0076ZM24.4037 10.8753L23.4183 10.4151L22.9581 11.4005L23.9435 11.8607L24.4037 10.8753ZM25.2428 10.2102L26.2282 10.6704L26.6884 9.68507L25.703 9.22487L25.2428 10.2102ZM24.8375 11.078L24.3773 12.0633L25.3627 12.5235L25.8229 11.5382L24.8375 11.078ZM30.4185 10.9369L31.2512 11.6365L31.9507 10.8038L31.118 10.1043L30.4185 10.9369ZM29.8024 11.6702L29.1029 12.5029L29.9355 13.2024L30.6351 12.3698L29.8024 11.6702ZM30.0518 10.6289L30.7514 9.79622L29.9187 9.09668L29.2192 9.92934L30.0518 10.6289ZM29.4358 11.3622L28.6031 10.6627L27.9036 11.4953L28.7362 12.1948L29.4358 11.3622ZM25.3116 8.99563L25.7718 8.0103L24.7865 7.5501L24.3263 8.53544L25.3116 8.99563ZM24.9063 9.86342L23.921 9.40322L23.4608 10.3886L24.4461 10.8488L24.9063 9.86342ZM25.7455 9.19828L26.7309 9.65848L27.191 8.67314L26.2057 8.21295L25.7455 9.19828ZM25.3402 10.0661L24.88 11.0514L25.8654 11.5116L26.3256 10.5263L25.3402 10.0661ZM29.6724 11.7845L30.5051 12.484L31.2046 11.6514L30.3719 10.9518L29.6724 11.7845ZM29.0563 12.5178L28.3568 13.3504L29.1894 14.05L29.889 13.2173L29.0563 12.5178ZM29.3057 11.4764L30.0053 10.6438L29.1726 9.94423L28.4731 10.7769L29.3057 11.4764ZM28.6897 12.2097L27.857 11.5102L27.1575 12.3429L27.9901 13.0424L28.6897 12.2097ZM28.9263 12.6312L29.759 13.3307L30.4585 12.4981L29.6259 11.7986L28.9263 12.6312ZM28.3102 13.3645L27.6107 14.1972L28.4433 14.8967L29.1429 14.0641L28.3102 13.3645ZM28.5597 12.3232L29.2592 11.4905L28.4265 10.791L27.727 11.6236L28.5597 12.3232ZM27.9436 13.0565L27.1109 12.3569L26.4114 13.1896L27.244 13.8891L27.9436 13.0565ZM24.8261 7.52432L24.4208 8.3921L26.3915 9.3125L26.7968 8.44472L24.8261 7.52432ZM26.7055 7.20183L26.2716 6.99919L25.3512 8.96985L25.7851 9.1725L26.7055 7.20183ZM26.8254 9.51514L27.2306 8.64736L25.26 7.72697L24.8547 8.59475L26.8254 9.51514ZM24.9459 9.83764L25.3798 10.0403L26.3002 8.06961L25.8663 7.86697L24.9459 9.83764ZM25.7475 11.8207L27.7251 7.95015L25.7882 6.96057L23.8107 10.8311L25.7475 11.8207ZM25.5349 10.5257L25.395 10.4296L24.1632 12.2222L24.3031 12.3183L25.5349 10.5257ZM25.4195 12.6139L25.8153 12.0379L24.0227 10.8061L23.6269 11.3821L25.4195 12.6139ZM25.2806 11.1989L25.1391 11.1017L23.9073 12.8943L24.0488 12.9915L25.2806 11.1989ZM21.1187 18.8407L25.5452 12.7334L23.7841 11.457L19.3576 17.5642L21.1187 18.8407ZM16.433 19.6986C17.1793 18.9035 18.4835 18.6559 19.824 19.208L20.6523 17.1969C18.6823 16.3855 16.3511 16.6079 14.8472 18.2101L16.433 19.6986ZM15.7651 21.457C15.7725 20.7675 16.0028 20.157 16.433 19.6986L14.8472 18.2101C14.0019 19.1106 13.6028 20.264 13.5902 21.4336L15.7651 21.457ZM11.6048 23.6628C12.3476 22.8715 13.4245 22.4761 14.6275 22.5317L14.7279 20.359C12.9872 20.2786 11.2594 20.8528 10.019 22.1743L11.6048 23.6628ZM12.5276 30.3166C10.2883 28.2148 10.1257 25.2387 11.6048 23.6628L10.019 22.1743C7.48602 24.8729 8.19316 29.2312 11.039 31.9024L12.5276 30.3166ZM19.2263 30.8167C17.7472 32.3925 14.7668 32.4184 12.5276 30.3166L11.039 31.9024C13.8849 34.5737 18.2792 35.0038 20.8122 32.3052L19.2263 30.8167ZM19.9854 26.8437C20.4334 28.3666 20.1462 29.8367 19.2263 30.8167L20.8122 32.3052C22.3593 30.657 22.6933 28.3421 22.072 26.2299L19.9854 26.8437ZM21.8781 24.8096C21.5698 25.1381 21.1813 25.3656 20.7374 25.489L21.3199 27.5846C22.1214 27.3618 22.8651 26.9361 23.4639 26.2981L21.8781 24.8096ZM21.7044 20.6675C22.8286 22.1463 22.7644 23.8653 21.8781 24.8096L23.4639 26.2981C25.2658 24.3784 25.0197 21.4346 23.4359 19.3512L21.7044 20.6675ZM25.8649 12.9531L21.6587 19.4161L23.4816 20.6025L27.6879 14.1395L25.8649 12.9531ZM27.5322 12.7461L27.3923 12.65L26.1605 14.4426L26.3004 14.5387L27.5322 12.7461ZM26.4158 12.4505L26.02 13.0265L27.8126 14.2583L28.2084 13.6823L26.4158 12.4505ZM28.1749 12.3398L27.928 12.1701L26.6962 13.9627L26.9432 14.1324L28.1749 12.3398ZM29.4692 9.205L26.7195 12.5449L28.3986 13.9273L31.1484 10.5874L29.4692 9.205ZM26.1408 8.35165L29.6929 10.7925L30.9247 8.99993L27.3725 6.55906L26.1408 8.35165ZM23.8236 9.54736L23.4183 10.4151L25.389 11.3355L25.7943 10.4678L23.8236 9.54736ZM25.703 9.22487L25.2691 9.02223L24.3488 10.9929L24.7826 11.1955L25.703 9.22487ZM25.8229 11.5382L26.2282 10.6704L24.2575 9.75001L23.8522 10.6178L25.8229 11.5382ZM23.9435 11.8607L24.3773 12.0633L25.2977 10.0927L24.8639 9.89001L23.9435 11.8607ZM29.5858 10.2374L28.9698 10.9707L30.6351 12.3698L31.2512 11.6365L29.5858 10.2374ZM29.3523 11.4615L29.719 11.7696L31.118 10.1043L30.7514 9.79622L29.3523 11.4615ZM30.2684 12.0617L30.8845 11.3284L29.2192 9.92934L28.6031 10.6627L30.2684 12.0617ZM30.502 10.8376L30.1353 10.5295L28.7362 12.1948L29.1029 12.5029L30.502 10.8376ZM24.3263 8.53544L23.921 9.40322L25.8917 10.3236L26.297 9.45583L24.3263 8.53544ZM26.2057 8.21295L25.7718 8.0103L24.8514 9.98097L25.2853 10.1836L26.2057 8.21295ZM26.3256 10.5263L26.7309 9.65848L24.7602 8.73809L24.3549 9.60587L26.3256 10.5263ZM24.4461 10.8488L24.88 11.0514L25.8004 9.08073L25.3665 8.87808L24.4461 10.8488ZM28.8398 11.0849L28.2237 11.8182L29.889 13.2173L30.5051 12.484L28.8398 11.0849ZM28.6062 12.3091L28.9729 12.6171L30.3719 10.9518L30.0053 10.6438L28.6062 12.3091ZM29.5223 12.9093L30.1384 12.176L28.4731 10.7769L27.857 11.5102L29.5223 12.9093ZM29.7559 11.6851L29.3892 11.3771L27.9901 13.0424L28.3568 13.3504L29.7559 11.6851ZM28.0937 11.9317L27.4776 12.665L29.1429 14.0641L29.759 13.3307L28.0937 11.9317ZM27.8601 13.1558L28.2268 13.4639L29.6259 11.7986L29.2592 11.4905L27.8601 13.1558ZM28.7762 13.756L29.3923 13.0227L27.727 11.6236L27.1109 12.3569L28.7762 13.756ZM29.0098 12.5319L28.6431 12.2238L27.244 13.8891L27.6107 14.1972L29.0098 12.5319Z" fill="black" mask="url(#path-1-inside-1_2855_7980)"/>
</svg>
