<svg width="42" height="42" viewBox="0 0 42 42" fill="none" xmlns="http://www.w3.org/2000/svg">
<mask id="path-1-inside-1_2855_8002" fill="white">
<path fill-rule="evenodd" clip-rule="evenodd" d="M22.9777 19.4588C24.6476 18.8472 25.8393 17.2437 25.8393 15.3619C25.8393 12.9529 23.8864 11 21.4774 11C19.0684 11 17.1155 12.9529 17.1155 15.3619C17.1155 17.2437 18.3072 18.8472 19.9771 19.4589C16.5665 20.1536 14 23.17 14 26.7858L14 29.0024C14 30.4166 15.1465 31.5631 16.5607 31.5631L26.3943 31.5631C27.8085 31.5631 28.955 30.4166 28.955 29.0024L28.955 26.7858C28.955 23.1699 26.3884 20.1535 22.9777 19.4588Z"/>
</mask>
<path fill-rule="evenodd" clip-rule="evenodd" d="M22.9777 19.4588C24.6476 18.8472 25.8393 17.2437 25.8393 15.3619C25.8393 12.9529 23.8864 11 21.4774 11C19.0684 11 17.1155 12.9529 17.1155 15.3619C17.1155 17.2437 18.3072 18.8472 19.9771 19.4589C16.5665 20.1536 14 23.17 14 26.7858L14 29.0024C14 30.4166 15.1465 31.5631 16.5607 31.5631L26.3943 31.5631C27.8085 31.5631 28.955 30.4166 28.955 29.0024L28.955 26.7858C28.955 23.1699 26.3884 20.1535 22.9777 19.4588Z" fill="white"/>
<path d="M22.9777 19.4588L22.6037 18.4377L18.9986 19.7583L22.7607 20.5245L22.9777 19.4588ZM19.9771 19.4589L20.1942 20.5245L23.9563 19.7582L20.3512 18.4377L19.9771 19.4589ZM24.7518 15.3619C24.7518 16.7728 23.8588 17.9779 22.6037 18.4377L23.3518 20.48C25.4364 19.7164 26.9268 17.7146 26.9268 15.3619H24.7518ZM21.4774 12.0875C23.2858 12.0875 24.7518 13.5535 24.7518 15.3619H26.9268C26.9268 12.3523 24.487 9.9125 21.4774 9.9125V12.0875ZM18.203 15.3619C18.203 13.5535 19.669 12.0875 21.4774 12.0875V9.9125C18.4678 9.9125 16.028 12.3523 16.028 15.3619H18.203ZM20.3512 18.4377C19.096 17.978 18.203 16.7728 18.203 15.3619H16.028C16.028 17.7146 17.5185 19.7164 19.6031 20.48L20.3512 18.4377ZM15.0875 26.7858C15.0875 23.6971 17.28 21.1181 20.1942 20.5245L19.7601 18.3932C15.8529 19.1891 12.9125 22.6428 12.9125 26.7858H15.0875ZM15.0875 29.0024L15.0875 26.7858H12.9125L12.9125 29.0024H15.0875ZM16.5607 30.4756C15.7471 30.4756 15.0875 29.816 15.0875 29.0024H12.9125C12.9125 31.0172 14.5459 32.6506 16.5607 32.6506V30.4756ZM26.3943 30.4756L16.5607 30.4756V32.6506H26.3943V30.4756ZM27.8675 29.0024C27.8675 29.816 27.2079 30.4756 26.3943 30.4756V32.6506C28.4091 32.6506 30.0425 31.0172 30.0425 29.0024H27.8675ZM27.8675 26.7858L27.8675 29.0024H30.0425V26.7858H27.8675ZM22.7607 20.5245C25.6749 21.118 27.8675 23.6971 27.8675 26.7858H30.0425C30.0425 22.6428 27.102 19.189 23.1948 18.3932L22.7607 20.5245Z" fill="black" mask="url(#path-1-inside-1_2855_8002)"/>
</svg>
