<svg width="765" height="1025" viewBox="0 0 765 1025" fill="none" xmlns="http://www.w3.org/2000/svg">
<g opacity="0.23">
<g clip-path="url(#clip0_2834_8040)">
<path d="M722.831 348.617C718.283 344.25 710.431 342.263 700.396 345.51L692.654 348.016L683.545 358.931L674.437 369.846L677.112 360.425C681.059 346.53 676.935 335.164 668.207 335.882C659.807 336.573 656.984 349.59 661.664 366.058C663.875 373.834 664.47 379.243 663.406 381.896L661.788 385.924L651.464 385.847C639.263 385.756 598.226 388.886 589.295 390.59C581.302 392.114 581.364 391.133 589.747 383.422L596.61 377.11L611.544 378.755C634.638 381.299 650.587 374.96 650.213 363.386C649.845 351.979 631.345 351.728 611.799 362.865C595.268 372.284 596.069 368.157 613.085 356.247C630.501 344.056 642.38 327.175 641.454 315.926L640.944 309.747L636.211 305.734C620.617 292.511 600.876 312.012 598.599 342.886C597.55 357.106 594.198 368.006 588.387 376.092C581.265 386 580.416 384.52 584.13 368.669C593.744 327.636 572.49 293.402 552.232 317.293C542.367 328.927 546.747 345.9 564.333 364.178C576.104 376.412 577.197 379.433 572.91 387.885L569.639 394.335L552.228 401.666C536.709 408.2 523.748 415.4 513.36 423.259L509.894 425.881L509.692 423.414C509.353 419.283 517.08 412.03 529.897 404.448L542.076 397.242L548.841 389.265C562.191 373.521 559.373 361.078 542.767 362.445L534.997 363.086L527.932 368.597L520.865 374.11L516.165 382.295C513.579 386.796 509.924 394.787 508.042 400.052C506.16 405.318 504.413 409.121 504.16 408.504C501.014 400.833 497.105 394.444 491.813 388.323L485.41 380.918L479.257 379.36C472.688 377.695 462.182 380.546 458.311 385.045C449.01 395.857 457.84 408.949 481.622 419.605C501.466 428.495 501.784 429.907 488.062 448.12C483.204 454.567 478.039 461.859 476.583 464.322L473.936 468.801L474.129 462.241C474.663 444.116 470.143 430.094 461.347 422.603L456.519 418.492L450.649 418.977C437.763 420.037 428.293 431.302 429.595 444.019L430.384 451.741L435.479 458.268C438.282 461.858 446.275 469.354 453.243 474.926L465.912 485.055L462.114 496.139C457.685 509.06 456.55 509.854 455.648 500.655C453.44 478.138 428.278 461.212 416.921 474.605C409.488 483.371 415.632 494.163 437.468 510.686L451.977 521.666L452.54 525.785C452.848 528.051 452.512 534.161 451.791 539.362C448.236 565.04 449.052 586.798 455.031 625.644C459.82 656.757 460.922 666.072 459.82 666.163C457.375 666.364 454.875 655.563 454.547 643.388C453.874 618.427 441.353 603.596 426.212 609.825C410.836 616.149 412.414 627.007 430.998 642.766C443.172 653.088 454.763 667.58 449.991 666.514C439.062 664.071 423.839 650.686 413.64 634.551L407.393 624.667L409.685 618.449C411.149 614.482 416.574 606.387 424.666 596.089C442.992 572.766 447.168 562.028 442.959 549.062L441.07 543.248L435.864 539.911C426.058 533.626 412.64 539.464 406.387 552.737C403.475 558.918 403.305 564.938 405.223 594.223C407.122 623.212 406.521 623.144 393.608 592.87L384.018 570.389L384.361 563.801L384.701 557.214L395.417 547.51C412.529 532.013 419.018 517.949 414.167 506.874L411.752 501.359L406.248 498.766C402.85 497.165 398.824 496.662 395.724 497.45L390.706 498.725L385.191 505.28C377.165 514.818 375.589 522.545 377.443 543.256L379.048 561.19L375.427 558.796C373.437 557.478 369.914 554.233 367.599 551.587L363.39 546.776L363.864 530.265C364.578 505.485 357.584 491.161 345.265 492.174C333.493 493.143 329.098 506.625 335.645 521.687L339.782 531.199L348.801 540.586C368.124 560.692 368.154 560.81 352.916 557.446L342.033 555.043L334.749 557.41C330.742 558.712 325.237 561.779 322.516 564.227L317.57 568.679L317.388 573.809L317.207 578.938L323.319 584.12C335.871 594.764 347.283 593.883 365.37 580.873C371.836 576.222 376.66 573.636 377.517 574.363C378.299 575.026 383.686 586.648 389.485 600.189L400.029 624.811L395.95 622.824C393.706 621.731 387.738 618.795 382.688 616.301L373.506 611.766L364.527 612.375C345.976 613.636 337.212 631.286 348.948 643.751C357.341 652.666 365.852 652.333 387.684 642.237C394.759 638.966 401.885 636.695 403.786 637.103L407.197 637.837L412.344 645.142C415.176 649.16 418.803 653.557 420.405 654.915C424.013 657.975 423.799 658.228 416.903 659.052C409.379 659.95 401.194 663.518 395.556 668.353L390.889 672.357L391.252 678.358C391.677 685.36 396.607 693.194 402.81 696.728C408.94 700.22 418.722 697.445 433.951 687.891C447.961 679.101 452.129 677.973 456.598 681.763C461.192 685.659 460.563 689.938 448.116 739.383C441.927 763.971 437.017 785.96 437.205 788.248C437.826 795.784 444.205 795.682 443.961 788.14C443.793 782.923 466.739 690.359 467.947 691.383C468.467 691.824 470.05 695.11 471.466 698.687L474.039 705.191L483.611 713.161L493.185 721.13L499.829 722.664C510.397 725.102 524.627 721.434 530.229 714.827C546.719 695.38 525.553 677.523 487.432 678.721C478.991 678.987 478.934 678.851 485.97 675.261C506.574 664.751 510.375 636.82 491.184 636.951L485.761 636.988L479.755 644.072C476.451 647.968 472.319 653.717 470.57 656.848L467.39 662.54L464.105 640.115C462.299 627.781 461.135 617.318 461.518 616.867C461.9 616.416 465.643 617.864 469.835 620.084C485.947 628.617 502.269 624.538 498.811 612.842L497.636 608.868L493.385 607.346C491.047 606.508 484.76 606.139 479.414 606.525C474.067 606.911 470.011 606.851 470.399 606.393C472.71 603.667 488.617 598.686 498.869 597.477C514.805 595.598 528.589 590.04 536.187 582.427L542.074 576.527L542.857 571C544.515 559.299 533.729 554.761 519.287 561.08L511.199 564.621L500.079 578.032C481.363 600.602 475.202 601.486 491.517 579.26C507.764 557.128 509.938 546.397 499.903 537.887C491.08 530.406 477.776 531.988 469.734 541.473L465.677 546.256L468.159 570.585L470.644 594.913L467.983 599.289C466.519 601.696 463.755 604.498 461.841 605.516L458.36 607.368L456.896 587.843C455.236 565.697 458.086 535.624 463.889 514.034L467.664 499.987L473.803 492.702C480.727 484.485 486.921 481.348 500.397 479.23C512.057 477.398 511.955 478.086 498.139 494.38L485.695 509.056L484.859 514.592C483.329 524.736 490.998 533.079 499.533 530.555L503.577 529.36L509.109 521.294C514.794 513.004 519.476 500.599 518.661 495.983C517.327 488.43 521.169 490.903 522.837 498.671C523.851 503.394 526.599 511.623 528.944 516.958L533.207 526.657L541.645 533.699C547.191 538.326 551.835 541.137 555.194 541.898C570.684 545.406 584.066 530.453 577.938 516.485L575.453 510.82L565.426 502.254C558.691 496.499 553.024 492.77 548.163 490.894C539.45 487.531 528.395 481.353 529.262 480.33C530.27 479.141 575.914 487.327 582.859 489.942L589.208 492.335L589.595 502.074C590.508 525.077 595.663 534.537 610.547 540.527C626.413 546.912 639.174 533.979 632.212 518.572L629.681 512.97L617.836 504.086C611.32 499.198 603.949 494.037 601.456 492.617L596.923 490.034L601.285 489.419C603.685 489.081 610.98 489.495 617.495 490.339C638.35 493.039 652.432 489.074 662.024 477.807L667.083 471.86L666.584 465.823C666.008 458.817 664.278 457.029 655.706 454.593C642.007 450.7 631.042 455.454 617.86 471L608.499 482.039L600.525 482.695C592.12 483.387 569.544 480.311 569.391 478.453C569.342 477.854 573.036 477.401 577.601 477.447C583.606 477.508 589.607 475.9 599.312 471.629L612.725 465.728L617.707 459.852C629.705 445.702 627.913 432.759 613.747 431.253C602.277 430.034 592.125 437.681 579.855 456.783C576 462.784 570.283 470.048 567.152 472.926L561.459 478.16L555.157 476.939C526.867 471.462 499.673 471.092 486.375 476.002C481.708 477.726 477.85 478.395 477.8 477.489C477.697 475.599 487.483 459.362 491.781 454.293L494.666 450.891L504.111 453.161C509.306 454.41 518.183 457.616 523.835 460.287C551.221 473.229 566.666 469.97 572.33 450.055C579.736 424.016 544.673 416.945 512.329 437.956C501.24 445.159 499.268 444.686 507.587 436.818C529.428 416.161 563.227 401.251 601.852 395.232C615.101 393.167 616.105 393.876 618.927 407.298C621.416 419.136 626.812 428.404 635.515 435.784L641.42 440.791L648.312 440.671L655.204 440.552L658.958 436.125C669.747 423.401 655.92 404.237 629.471 395.259C624.342 393.518 629.206 392.646 643.466 392.75C660.363 392.874 661.282 393.542 669.046 411.401C681.925 441.028 703.646 453.661 716.217 438.836L719.779 434.635L719.466 428.124L719.152 421.614L709.369 414.542C703.544 410.333 694.177 405.27 686.221 402.031C678.87 399.039 672.81 396.02 672.753 395.323C672.633 393.864 671.908 393.84 689.851 395.927L703.556 397.521L712.273 405.011L720.988 412.499L728.392 414.69C736.851 417.193 749.001 416.789 754.795 413.81L758.743 411.78L760.717 406.899C766.972 391.442 738.549 380.418 716.278 389.664L710.817 391.931L692.083 389.555C666.4 386.295 666.233 385.651 690.173 382.273C699.15 381.006 709.343 378.669 712.827 377.079C728.81 369.785 730.411 355.894 722.831 348.617ZM716.505 349.739C718.274 350.351 715.399 352.278 707.834 356.095C702.444 358.814 695.478 362.761 692.353 364.866C682.856 371.263 680.631 369.783 687.525 361.653C694.575 353.338 698.874 350.913 708.311 349.933C712.707 349.477 715.443 349.372 716.505 349.739ZM721.215 355.295C722.941 356.874 721.493 362.235 717.862 366.585L713.978 371.239L704.032 374.07C691.856 377.536 678.876 378.65 681.09 376.039C685.589 370.733 716.119 354.236 720.278 354.864C720.657 354.921 720.969 355.069 721.215 355.295ZM751.545 395.875C752.253 397.108 747.454 397.681 738.128 396.956C719.759 395.529 718.517 395.342 719.529 394.148C721.037 392.369 737.957 391.632 744.115 393.078C748.715 394.158 751.121 395.135 751.545 395.875ZM633.606 309.626C634.236 309.947 634.734 311.428 635.319 313.935C637.059 321.401 633.603 328.372 621.819 341.153C607.801 356.359 605.272 355.862 615.991 340.008C620.668 333.091 626.234 323.339 628.359 318.337C631.141 311.783 632.555 309.091 633.606 309.626ZM670.953 342.733C672.883 343.905 673.818 349.504 672.82 355.204C671.421 363.202 668.319 367.381 669.061 360.268C669.303 357.951 669.45 353.023 669.389 349.317C669.328 345.611 669.632 342.549 670.067 342.513C670.381 342.487 670.678 342.565 670.953 342.733ZM627.49 307.947C629.937 310.022 621.857 326.903 611.301 341.769C607.437 347.21 604.1 351.481 603.888 351.258C603.086 350.422 604.642 335.171 606.205 328.539C608.886 317.17 622.656 303.849 627.49 307.947ZM643.741 362.091L646.073 364.09L635.768 364.457C630.1 364.658 622.943 365.711 619.862 366.797C613.478 369.048 614.376 367.076 621.356 363.515C627.468 360.397 640.776 359.55 643.741 362.091ZM711.687 421.427L713.091 424.917C714.782 429.116 714.6 431.598 712.41 434.226L710.77 436.198L695.497 423.056C687.096 415.828 679.271 408.49 678.105 406.75L675.983 403.586L685.773 407.902C691.157 410.276 699.19 414.289 703.624 416.822L711.687 421.427ZM640.756 367.688C640.939 367.827 641.046 367.989 641.062 368.181C641.232 370.251 635.194 372.79 627.733 373.787C620.418 374.764 613.413 374.286 614.596 372.891C617.509 369.456 637.999 365.627 640.756 367.688ZM571.815 318.729C578.417 322.835 583.947 343.694 581.477 355.176C580.121 361.479 579.095 359.436 578.305 348.857C577.888 343.271 575.599 333.797 573.218 327.804L568.889 316.909L571.815 318.729ZM680.251 413.63C682.734 415.662 686.058 418.549 690.338 422.337C707.107 437.182 708.893 439.812 701.601 438.909C696.855 438.321 684.55 430.229 682.575 426.398C681.976 425.236 679.669 421.073 677.45 417.148C672.916 409.126 672.802 407.532 680.251 413.63ZM563.531 315.186L566.681 321.135C572.358 331.859 574.559 339.58 576.261 354.736L577.938 369.675L571.897 364.34C552.188 346.942 546.55 324.555 560.009 317.129L563.531 315.186ZM647.866 411.388C654.469 417.354 658.991 425.474 656.926 430.414L655.595 433.6L653.694 431.723C652.649 430.691 649.031 425.969 645.653 421.23C642.275 416.49 637.803 410.58 635.713 408.096L631.914 403.58L634.706 404.127C639.192 405.004 643.904 407.808 647.866 411.388ZM624.442 400.931L631.04 407.876C637.349 414.517 647.438 427.345 649.933 431.9C651.704 435.133 650.003 436.113 644.725 434.9C638.476 433.462 636.312 431.35 628.814 419.363C626.756 416.072 624.93 410.579 624.756 407.155L624.442 400.931ZM657.428 460.775C658.074 461.795 654.509 463.331 645.776 466.514C638.976 468.993 630.458 472.721 626.846 474.8C617.471 480.197 616.828 478.097 625.347 469.91C633.927 461.665 643.216 457.939 651.922 459.253C655.135 459.737 657.04 460.163 657.428 460.775ZM550.496 371.331C552.105 372.408 550.821 377.654 547.447 382.78C544.36 387.47 540.681 390.926 533.892 395.52C528.768 398.988 522.856 402.521 520.756 403.372L516.937 404.918L518.485 401.649C522.425 393.32 544.647 371.548 549.628 371.138C549.978 371.109 550.267 371.177 550.496 371.331ZM546.044 367.933C546.484 368.767 544.202 370.707 538.663 374.806C533.338 378.747 528.149 384.093 522.557 391.397C514.203 402.309 513.41 403.072 513.912 399.744C515.818 387.109 532.924 367.706 542.427 367.399C544.535 367.331 545.78 367.433 546.044 367.933ZM660.774 466.809L662.465 468.243L657.552 474.036C651.045 481.711 642.331 485.417 629.947 485.776C614.695 486.219 614.74 484.72 630.222 476.444C642.244 470.018 658.509 464.888 660.774 466.809ZM620.183 440.774C621.789 442.551 619.805 448.315 614.081 455.066L608.346 461.829L595.62 467.209C585.172 471.626 577.546 473.231 579.834 470.532C581.528 468.535 609.127 445.541 613.446 442.528C616.962 440.076 619.219 439.707 620.183 440.774ZM613.142 437.179C613.275 438.332 609.17 441.775 598.216 450.974C590.646 457.331 584.093 462.562 583.651 462.599C581.597 462.768 587.111 454.76 594.764 446.459L603.211 437.297L608.89 436.83C611.457 436.619 613.062 436.487 613.142 437.179ZM561.139 435.205C568.927 441.752 568.39 443.703 559.217 442.172C555.338 441.525 543.634 441.516 533.21 442.153L514.256 443.311L517.853 440.659C524.046 436.091 538.311 431.056 546.738 430.463L554.825 429.893L561.139 435.205ZM482.627 386.975C485.218 389.056 488.027 392.155 491.269 396.442L496.069 402.789L484.257 394.993C477.76 390.706 471.554 387.063 470.466 386.899C466.738 386.337 471.286 383.238 475.294 383.609C477.662 383.828 480.036 384.894 482.627 386.975ZM623.286 513.313L625.93 518.516C627.384 521.377 628.32 525.779 628.008 528.299C627.19 534.905 624.859 533.994 617.804 524.312C614.385 519.621 608.197 511.828 604.054 506.994C594.701 496.081 596.558 495.742 611.584 505.62L623.286 513.313ZM564.793 508.397C573.427 516.792 576.722 526.313 571.434 532.549C570.658 533.465 568.266 529.94 565.457 523.738L562.447 517.091L548.313 504.307L534.177 491.524L544.184 495.456C552.51 498.729 559.612 503.36 564.793 508.397ZM458.709 425.993L462.581 432.352C466.862 439.385 469.767 455.815 468.05 463.28C466.487 470.078 466.004 469.548 461.486 456.102C459.258 449.471 455.51 439.893 453.157 434.817C448.48 424.725 448.835 422.5 454.795 424.608L458.709 425.993ZM532.353 493.946C541.572 501.986 559.688 519.133 561.453 521.871C562.552 523.576 564.24 527.325 565.203 530.2L566.953 535.428L563.764 536.447C562.011 537.007 558.348 536.872 555.624 536.147C547.835 534.073 536.814 523.35 533.14 514.27C531.138 509.325 526.461 490.579 527.036 489.812C527.197 489.597 529.281 491.266 532.353 493.946ZM445.248 427.035C450.264 432.536 465.604 472.843 462.664 473.798C458.505 475.148 437.594 453.815 435.226 445.808C433.16 438.819 439.379 425.666 444.392 426.422C444.626 426.457 444.913 426.669 445.248 427.035ZM513.173 489.859C513.632 490.499 513.637 493.17 512.992 497.6C511.694 506.511 508.213 514.182 502.292 521.184C499.82 524.106 497.323 526.097 496.745 525.606C495.132 524.239 495.614 523.015 502.5 510.95C506.022 504.777 509.68 497.287 510.627 494.306C511.8 490.611 512.713 489.22 513.173 489.859ZM507.302 493.251L505.882 497.81C505.101 500.318 501.753 506.807 498.443 512.229C491.634 523.381 490.604 524.086 490.354 517.779C490.118 511.828 493.623 505.673 501.124 498.861L507.302 493.251ZM437.895 479.703C443.335 483.75 448.127 490.465 449.657 497.269C451.006 503.266 449.742 502.673 443.41 494.344C440.341 490.306 434.587 484.725 430.234 481.562L422.507 475.949L427.973 475.859C431.136 475.807 434.632 477.275 437.895 479.703ZM536.786 567.149L537.245 569.741C537.972 573.859 529.87 582.225 521.51 585.988C513.216 589.722 501.136 592.796 502.891 590.727C505.285 587.904 525.722 573.007 531.127 570.145L536.786 567.149ZM533.048 564.345C533.514 564.967 532.212 566.159 529.036 567.779C526.157 569.248 519.799 573.582 514.906 577.411C502.43 587.172 500.515 587.499 506.132 578.906C511.686 570.411 518.212 565.73 526.454 564.332C530.349 563.671 532.582 563.723 533.048 564.345ZM496.956 541.155C502.682 546.01 500.165 557.548 489.97 573.175C484.376 581.748 483.114 580.144 486.885 569.256C488.561 564.413 490.539 555.792 491.281 550.098C492.645 539.625 493.522 538.243 496.956 541.155ZM430.769 485.396C435.775 489.597 441.429 495.774 445.571 502.559C450.375 510.43 449.468 511.564 442.116 506.882C432.589 500.815 424.056 492.779 421.169 487.156C415.889 476.872 422.427 478.392 430.769 485.396ZM487.946 539.278C490.478 541.425 487.911 557.719 482.901 571.301C480.415 578.042 477.772 583.926 477.028 584.378C475.163 585.51 471.552 562.522 472.058 552.735L472.471 544.734L475.63 542.445C480.152 539.171 486.036 537.659 487.946 539.278ZM407.099 505.332C407.675 505.804 408.318 506.757 409.106 508.103C412.524 513.946 410.212 521.751 401.786 532.816C393.576 543.596 390.653 544.337 395.33 534.452C396.985 530.956 399.796 522.829 401.581 516.393C404.234 506.826 405.368 503.917 407.099 505.332ZM401.159 501.779C401.38 501.923 401.509 502.16 401.525 502.506C401.677 505.742 395.542 527.213 392.556 533.894C390.611 538.245 387.7 543.037 386.087 544.543L383.154 547.282L382.365 536.533C381.379 523.083 383.003 516.873 389.509 509.2C393.502 504.491 399.608 500.78 401.159 501.779ZM434.757 545.813C436.562 547.585 438.149 551.836 438.299 556.601C438.61 566.48 436.087 572.059 424.284 587.6C419.037 594.51 414.464 599.928 414.123 599.638C411.393 597.323 425.92 552.357 431.539 545.73C432.513 544.582 433.675 544.75 434.757 545.813ZM427.549 542.499C428.681 543.227 427.395 546.515 423.863 554.184C421.053 560.283 417.276 570.61 415.467 577.133C411.259 592.31 410.148 592.159 409.432 576.318C408.556 556.941 412.254 547.921 422.865 543.556C425.321 542.545 426.87 542.061 427.549 542.499ZM350.611 499.677C355.707 503.997 357.793 509.29 358.477 519.634C359.193 530.468 357.12 528.399 350.46 511.638C344.586 496.856 344.614 494.591 350.611 499.677ZM341.919 499.988C343.66 501.465 356.235 532.825 356.6 536.6L356.888 539.58L350.837 534.336C343.353 527.854 337.865 516.792 337.897 508.252C337.922 501.781 339.706 498.113 341.919 499.988ZM496.041 644.122L497.688 645.519C502.357 649.478 494.337 663.678 484.025 669.714C469.112 678.442 469.186 675.794 484.353 657.907L496.041 644.122ZM493.015 643.158L483.933 653.868C478.938 659.759 474.62 664.382 474.338 664.142C471.595 661.816 487.767 641.031 491.228 642.434L493.015 643.158ZM441.96 618.719C442.96 619.688 443.894 620.783 444.699 621.965C447.498 626.074 450.849 643.041 449.236 644.944C447.928 646.486 447.092 645.206 443.38 635.99C441.508 631.343 437.857 624.696 435.268 621.218L430.56 614.892L432.87 614.484C435.363 614.044 438.959 615.813 441.96 618.719ZM524.148 692.037C527.769 694.554 529.894 697.584 530.354 701.047C531.09 706.591 529.327 706.341 515.566 698.952C508.996 695.424 499.34 691.133 494.109 689.414C480.519 684.951 480.598 683.082 494.337 684.081C507.919 685.068 518.113 687.841 524.148 692.037ZM426.215 615.416L430.858 620.72C436.024 626.623 444.498 643.734 443.082 645.404C442.206 646.437 430.102 636.498 424.816 630.405C421.544 626.634 421.044 618.247 423.994 616.631L426.215 615.416ZM368.207 568.388C370.848 570.627 371.084 570.315 361.726 576.91C349.838 585.289 343.326 587.405 335.916 585.298C327.396 582.874 322.659 578.974 324.952 576.271C329.876 570.463 363.441 564.346 368.207 568.388ZM350.797 562.279C351.583 563.154 347.296 564.984 337.517 568.196C322.057 573.275 321.704 573.304 325.131 569.263C329.031 564.663 336.18 561.776 343.998 561.641C348.029 561.572 350.326 561.754 350.797 562.279ZM390.119 626.389C391.658 627.872 389.517 628.216 383.738 628.034C379.679 627.905 370.538 628.343 363.425 629.006C356.311 629.67 350.298 630.05 350.062 629.85C348.802 628.782 349.781 626.292 352.91 622.601C358.575 615.921 370.657 615.823 383.367 622.358C386.947 624.199 389.196 625.5 390.119 626.389ZM442.499 672C442.863 672.392 442.958 672.74 442.719 673.022C441.855 674.041 431.307 674.643 425.992 673.976C423.332 673.643 415.662 674.646 408.948 676.204C402.235 677.763 396.645 678.954 396.524 678.852C392.238 675.217 407.214 665.04 417.485 664.607C424.229 664.323 439.955 669.252 442.499 672Z" fill="black"/>
<path d="M716.878 349.946C716.794 349.865 716.671 349.796 716.505 349.739C715.443 349.372 712.708 349.477 708.311 349.934C698.874 350.913 694.575 353.338 687.525 361.653C680.632 369.783 682.857 371.263 692.354 364.866C695.479 362.761 702.445 358.814 707.834 356.095C714.453 352.756 717.481 350.862 716.949 350.031C716.931 350.002 716.906 349.973 716.878 349.946ZM721.216 355.295C720.969 355.07 720.657 354.921 720.279 354.864C716.119 354.236 685.589 370.733 681.09 376.039C678.876 378.65 691.857 377.537 704.032 374.07L713.978 371.239L717.862 366.585C721.493 362.235 722.941 356.874 721.216 355.295ZM751.294 395.588C751.178 395.488 751.031 395.385 750.852 395.279C749.781 394.641 747.565 393.888 744.115 393.078C737.957 391.632 721.038 392.369 719.529 394.148C718.517 395.342 719.76 395.529 738.128 396.956C747.455 397.681 752.253 397.108 751.546 395.875C751.493 395.783 751.409 395.687 751.294 395.588ZM755.959 402.811C753.847 401.168 745.782 400.402 725.635 398.749C719.5 398.245 714.08 398.307 713.59 398.886C711.95 400.819 726.571 409.246 733.743 410.501C742.523 412.037 751.741 410.537 754.658 407.097C756.351 405.1 757.226 403.797 755.959 402.811ZM671.131 342.855C671.073 342.81 671.015 342.768 670.954 342.732C670.678 342.565 670.382 342.487 670.068 342.513C669.633 342.548 669.328 345.61 669.39 349.316C669.451 353.023 669.304 357.951 669.062 360.267C668.32 367.381 671.422 363.202 672.821 355.203C673.787 349.682 672.939 344.255 671.131 342.855Z" fill="#515D3C" stroke="#515D3C" stroke-width="0.999999"/>
<path d="M633.835 309.801C633.759 309.726 633.684 309.667 633.604 309.627C632.554 309.092 631.14 311.785 628.357 318.338C626.233 323.34 620.667 333.093 615.99 340.009C605.271 355.862 607.8 356.359 621.818 341.154C633.601 328.373 637.058 321.402 635.318 313.936C634.806 311.743 634.36 310.333 633.835 309.801ZM627.49 307.947C622.656 303.849 608.886 317.17 606.205 328.539C604.642 335.171 603.086 350.422 603.888 351.258C604.1 351.481 607.437 347.21 611.301 341.769C621.857 326.904 629.937 310.022 627.49 307.947ZM643.741 362.091C640.776 359.55 627.468 360.397 621.355 363.516C614.376 367.077 613.478 369.048 619.862 366.797C622.942 365.711 630.1 364.659 635.768 364.457L646.072 364.091L643.741 362.091ZM711.687 421.427L703.624 416.821C699.189 414.288 691.156 410.275 685.772 407.901L675.983 403.585L678.104 406.749C679.27 408.489 687.096 415.827 695.496 423.055L710.769 436.197L712.409 434.225C714.599 431.597 714.781 429.115 713.09 424.915L711.687 421.427ZM640.756 367.688C637.999 365.627 617.509 369.456 614.596 372.891C613.413 374.286 620.419 374.764 627.733 373.787C635.194 372.79 641.232 370.251 641.062 368.181C641.046 367.989 640.94 367.826 640.756 367.688ZM572.431 319.161C572.228 318.999 572.021 318.857 571.815 318.728L568.889 316.909L573.218 327.804C575.599 333.797 577.889 343.271 578.306 348.857C579.096 359.435 580.121 361.479 581.477 355.176C583.793 344.412 579.077 325.405 573.039 319.688C572.839 319.496 572.634 319.322 572.431 319.161ZM684.62 417.326C682.943 415.877 681.492 414.646 680.25 413.631C672.801 407.534 672.915 409.128 677.449 417.149C679.668 421.075 681.974 425.237 682.574 426.4C684.549 430.23 696.854 438.322 701.6 438.91C708.892 439.814 707.105 437.183 690.337 422.339C688.197 420.444 686.296 418.775 684.62 417.326ZM563.531 315.186L560.009 317.13C546.55 324.555 552.188 346.942 571.897 364.341L577.938 369.675L576.261 354.736C574.559 339.581 572.358 331.859 566.681 321.136L563.531 315.186ZM647.116 410.726C643.316 407.466 638.911 404.949 634.706 404.127L631.914 403.58L635.713 408.096C637.803 410.58 642.275 416.49 645.653 421.23C649.03 425.969 652.649 430.691 653.694 431.723L655.595 433.6L656.926 430.414C658.991 425.475 654.469 417.354 647.866 411.388C647.619 411.163 647.367 410.945 647.116 410.726ZM624.442 400.931L624.756 407.155C624.93 410.579 626.756 416.072 628.814 419.363C636.312 431.35 638.476 433.463 644.725 434.9C650.003 436.113 651.704 435.133 649.933 431.9C647.438 427.346 637.349 414.517 631.04 407.876L624.442 400.931ZM657.212 460.555C656.543 460.057 654.733 459.676 651.922 459.253C643.216 457.939 633.927 461.665 625.347 469.91C616.828 478.097 617.473 480.198 626.848 474.801C630.459 472.722 638.977 468.993 645.776 466.514C654.508 463.331 658.074 461.795 657.428 460.775C657.381 460.697 657.308 460.625 657.212 460.555ZM550.64 371.445C550.595 371.403 550.546 371.365 550.495 371.333C550.264 371.181 549.977 371.111 549.627 371.139C544.646 371.549 522.424 393.321 518.484 401.651L516.936 404.92L520.755 403.374C522.855 402.523 528.767 398.989 533.891 395.522C540.68 390.928 544.358 387.471 547.446 382.782C550.715 377.816 552.024 372.736 550.64 371.445ZM545.9 367.764C545.457 367.41 544.272 367.34 542.427 367.399C532.924 367.706 515.818 387.109 513.912 399.744C513.41 403.072 514.203 402.31 522.557 391.397C528.149 384.093 533.338 378.747 538.663 374.806C544.202 370.707 546.484 368.767 546.044 367.933C546.01 367.872 545.962 367.816 545.9 367.764ZM660.774 466.809C658.509 464.888 642.244 470.018 630.222 476.444C614.741 484.72 614.695 486.219 629.947 485.776C642.33 485.417 651.045 481.711 657.552 474.037L662.465 468.243L660.774 466.809ZM619.986 440.59C618.931 439.762 616.742 440.23 613.446 442.528C609.127 445.541 581.528 468.535 579.834 470.532C577.545 473.231 585.172 471.626 595.62 467.209L608.346 461.829L614.08 455.066C619.804 448.315 621.789 442.551 620.182 440.774C620.123 440.707 620.057 440.645 619.986 440.59ZM613.041 436.956C612.986 436.893 612.906 436.844 612.804 436.804C612.199 436.559 610.814 436.672 608.889 436.83L603.211 437.298L594.763 446.46C587.11 454.76 581.596 462.768 583.651 462.599C584.092 462.563 590.646 457.332 598.216 450.975C609.169 441.776 613.274 438.333 613.141 437.179C613.131 437.093 613.097 437.018 613.041 436.956ZM623.286 513.314L611.584 505.62C596.559 495.742 594.701 496.082 604.054 506.994C608.197 511.828 614.385 519.621 617.804 524.312C624.859 533.994 627.19 534.905 628.008 528.299C628.32 525.779 627.384 521.377 625.93 518.516L623.286 513.314ZM596.811 503.943C596.55 503.727 596.313 503.558 596.103 503.43C594.419 502.414 594.301 504.142 594.462 507.838C595.15 523.692 601.853 532.832 615.418 536.416C624.997 538.947 623.376 534.846 607.147 515.49C602.567 510.027 599.592 506.547 597.68 504.719C597.361 504.415 597.074 504.155 596.811 503.943Z" fill="#515D3C" stroke="#515D3C" stroke-width="0.999999"/>
<path d="M561.139 435.205C568.927 441.752 568.389 443.703 559.216 442.172C555.338 441.525 543.634 441.516 533.21 442.153L514.256 443.311L517.853 440.659C524.045 436.091 538.311 431.056 546.738 430.463L554.825 429.894L561.139 435.205ZM566.665 445.871L566.42 449.263C566.094 453.787 560.886 459.716 555.176 462.065C549.702 464.317 539.031 461.719 524.095 454.496C518.542 451.81 512.685 449.123 511.079 448.525C506.541 446.835 542.299 443.948 555.174 444.965L566.665 445.871Z" fill="#515D3C" stroke="#515D3C" stroke-width="0.999999"/>
<path d="M482.627 386.976C480.035 384.894 477.662 383.828 475.294 383.609C471.285 383.238 466.738 386.337 470.466 386.9C471.554 387.064 477.76 390.707 484.257 394.994L496.069 402.789L491.269 396.442C488.027 392.155 485.218 389.057 482.627 386.976Z" fill="#515D3C" stroke="#515D3C" stroke-width="0.999999"/>
<path d="M489.055 402.428C492.939 406.057 495.779 409.906 497.365 413.76C500.17 420.581 498.554 420.845 486.064 415.603C478.877 412.587 472.052 408.608 467.622 404.851L460.588 398.887L460.471 395.276C460.206 387.067 465.213 386.837 478.199 394.461C480.589 395.864 482.806 397.343 484.831 398.88C486.35 400.032 487.761 401.217 489.055 402.428Z" fill="#515D3C" stroke="#515D3C" stroke-width="0.999999"/>
<path d="M458.709 425.993L454.795 424.608C448.836 422.5 448.48 424.725 453.157 434.817C455.51 439.893 459.258 449.471 461.486 456.102C466.004 469.548 466.487 470.078 468.05 463.28C469.767 455.815 466.862 439.386 462.581 432.352L458.709 425.993Z" fill="#515D3C" stroke="#515D3C" stroke-width="0.999999"/>
<path d="M445.247 427.036C444.913 426.669 444.625 426.459 444.391 426.422C439.378 425.666 433.159 438.819 435.226 445.808C437.593 453.816 458.504 475.148 462.663 473.798C465.603 472.843 450.264 432.536 445.247 427.036Z" fill="#515D3C" stroke="#515D3C" stroke-width="0.999999"/>
<path d="M437.896 479.703C434.632 477.275 431.137 475.808 427.973 475.86L422.507 475.95L430.235 481.563C434.588 484.725 440.341 490.306 443.41 494.344C449.742 502.673 451.006 503.266 449.657 497.269C448.127 490.466 443.335 483.75 437.896 479.703Z" fill="#515D3C" stroke="#515D3C" stroke-width="0.999999"/>
<path d="M430.769 485.395C422.427 478.391 415.889 476.871 421.169 487.155C424.056 492.779 432.589 500.814 442.116 506.882C449.468 511.564 450.376 510.43 445.571 502.559C441.429 495.773 435.774 489.598 430.769 485.395Z" fill="#515D3C" stroke="#515D3C" stroke-width="0.999999"/>
<path d="M507.302 493.252L501.123 498.862C493.623 505.674 490.118 511.829 490.354 517.779C490.603 524.087 491.634 523.381 498.442 512.23C501.753 506.807 505.1 500.318 505.881 497.811L507.302 493.252Z" fill="#515D3C" stroke="#515D3C" stroke-width="0.999999"/>
<path d="M513.172 489.86C512.713 489.22 511.8 490.611 510.627 494.306C509.68 497.287 506.022 504.778 502.499 510.95C495.613 523.016 495.132 524.239 496.744 525.607C497.323 526.097 499.82 524.107 502.292 521.184C508.213 514.183 511.694 506.511 512.992 497.6C513.637 493.17 513.632 490.499 513.172 489.86Z" fill="#515D3C" stroke="#515D3C" stroke-width="0.999999"/>
<path d="M560.557 504.71C555.984 501.129 550.428 497.911 544.184 495.456L534.176 491.524L548.313 504.307L562.447 517.091L565.456 523.737C568.265 529.939 570.657 533.465 571.434 532.549C576.722 526.313 573.427 516.792 564.793 508.397C563.497 507.138 562.081 505.904 560.557 504.71Z" fill="#515D3C" stroke="#515D3C" stroke-width="0.999999"/>
<path d="M532.353 493.947C529.28 491.267 527.198 489.597 527.036 489.812C526.461 490.58 531.138 509.325 533.14 514.271C536.814 523.351 547.835 534.073 555.624 536.147C558.348 536.873 562.011 537.008 563.764 536.447L566.953 535.428L565.203 530.201C564.24 527.325 562.552 523.577 561.453 521.872C559.688 519.133 541.572 501.986 532.353 493.947Z" fill="#515D3C" stroke="#515D3C" stroke-width="0.999999"/>
<path d="M536.786 567.149L531.127 570.146C525.722 573.007 505.284 587.904 502.89 590.727C501.136 592.796 513.216 589.722 521.51 585.988C529.869 582.225 537.971 573.859 537.244 569.741L536.786 567.149Z" fill="#515D3C" stroke="#515D3C" stroke-width="0.999999"/>
<path d="M533.048 564.345C532.582 563.723 530.349 563.671 526.454 564.332C518.212 565.73 511.686 570.411 506.132 578.906C500.515 587.498 502.43 587.171 514.906 577.411C519.799 573.582 526.157 569.247 529.036 567.779C532.212 566.159 533.514 564.967 533.048 564.345Z" fill="#515D3C" stroke="#515D3C" stroke-width="0.999999"/>
<path d="M496.956 541.154C493.522 538.243 492.644 539.625 491.28 550.098C490.539 555.792 488.561 564.413 486.884 569.256C483.113 580.144 484.376 581.748 489.969 573.175C500.165 557.548 502.682 546.01 496.956 541.154Z" fill="#515D3C" stroke="#515D3C" stroke-width="0.999999"/>
<path d="M487.946 539.278C486.036 537.659 480.152 539.171 475.63 542.445L472.471 544.734L472.058 552.736C471.552 562.522 475.163 585.51 477.028 584.378C477.772 583.926 480.415 578.042 482.901 571.301C487.911 557.72 490.478 541.425 487.946 539.278Z" fill="#515D3C" stroke="#515D3C" stroke-width="0.999999"/>
<path d="M434.757 545.813C433.675 544.75 432.512 544.581 431.539 545.729C425.919 552.356 411.392 597.322 414.123 599.637C414.465 599.927 419.04 594.512 424.285 587.601C436.088 572.059 438.609 566.479 438.299 556.6C438.149 551.835 436.562 547.584 434.757 545.813Z" fill="#515D3C" stroke="#515D3C" stroke-width="0.999999"/>
<path d="M427.549 542.498C426.87 542.061 425.321 542.545 422.864 543.556C412.254 547.92 408.555 556.941 409.431 576.318C410.147 592.158 411.259 592.309 415.467 577.132C417.275 570.61 421.053 560.283 423.862 554.184C427.395 546.515 428.68 543.227 427.549 542.498Z" fill="#515D3C" stroke="#515D3C" stroke-width="0.999999"/>
<path d="M407.099 505.332C405.367 503.918 404.234 506.827 401.581 516.394C399.796 522.829 396.985 530.956 395.331 534.452C390.653 544.337 393.576 543.597 401.786 532.816C410.212 521.751 412.524 513.946 409.106 508.103C408.318 506.757 407.676 505.804 407.099 505.332Z" fill="#515D3C" stroke="#515D3C" stroke-width="0.999999"/>
<path d="M401.16 501.779C399.608 500.78 393.502 504.491 389.509 509.2C383.003 516.873 381.379 523.083 382.365 536.533L383.154 547.282L386.087 544.543C387.7 543.037 390.611 538.245 392.556 533.894C395.542 527.213 401.678 505.742 401.526 502.506C401.509 502.16 401.381 501.922 401.16 501.779Z" fill="#515D3C" stroke="#515D3C" stroke-width="0.999999"/>
<path d="M350.611 499.676C344.614 494.591 344.586 496.856 350.459 511.638C357.119 528.399 359.192 530.467 358.476 519.634C357.793 509.29 355.706 503.997 350.611 499.676Z" fill="#515D3C" stroke="#515D3C" stroke-width="0.999999"/>
<path d="M341.919 499.989C339.706 498.113 337.922 501.781 337.897 508.252C337.865 516.792 343.353 527.854 350.837 534.336L356.888 539.58L356.6 536.6C356.235 532.825 343.66 501.465 341.919 499.989Z" fill="#515D3C" stroke="#515D3C" stroke-width="0.999999"/>
<path d="M350.797 562.279C350.325 561.754 348.029 561.572 343.998 561.642C336.18 561.777 329.03 564.664 325.13 569.263C321.703 573.304 322.056 573.275 337.516 568.197C347.296 564.984 351.582 563.155 350.797 562.279Z" fill="#515D3C" stroke="#515D3C" stroke-width="0.999999"/>
<path d="M368.207 568.387C363.441 564.346 329.876 570.463 324.952 576.271C322.659 578.974 327.396 582.874 335.917 585.298C343.326 587.405 349.838 585.289 361.727 576.91C371.084 570.315 370.848 570.626 368.207 568.387Z" fill="#515D3C" stroke="#515D3C" stroke-width="0.999999"/>
<path d="M390.119 626.389C391.658 627.871 389.517 628.216 383.738 628.033C379.679 627.905 370.538 628.342 363.424 629.006C356.311 629.67 350.297 630.05 350.062 629.85C348.802 628.782 349.781 626.291 352.91 622.601C358.574 615.921 370.657 615.823 383.367 622.358C386.947 624.198 389.196 625.499 390.119 626.389ZM393.236 631.877C395.101 633.458 372.798 643.56 365.982 644.221L358.773 644.922L354.422 641.233C348.681 636.365 349.282 634.28 356.903 632.608C363.482 631.165 391.726 630.597 393.236 631.877Z" fill="#515D3C" stroke="#515D3C" stroke-width="0.999999"/>
<path d="M441.96 618.719C438.959 615.813 435.362 614.044 432.87 614.484L430.56 614.892L435.268 621.218C437.857 624.696 441.508 631.343 443.379 635.989C447.092 645.206 447.928 646.486 449.236 644.943C450.849 643.041 447.498 626.074 444.699 621.964C443.894 620.783 442.96 619.688 441.96 618.719Z" fill="#515D3C" stroke="#515D3C" stroke-width="0.999999"/>
<path d="M426.215 615.416L423.995 616.631C421.044 618.247 421.544 626.634 424.816 630.405C430.102 636.498 442.207 646.437 443.083 645.404C444.499 643.734 436.025 626.623 430.858 620.72L426.215 615.416Z" fill="#515D3C" stroke="#515D3C" stroke-width="0.999999"/>
<path d="M442.499 672C442.863 672.393 442.958 672.74 442.719 673.022C441.855 674.041 431.308 674.643 425.992 673.977C423.332 673.643 415.662 674.646 408.948 676.205C402.235 677.763 396.645 678.954 396.524 678.852C392.238 675.218 407.214 665.04 417.485 664.607C424.229 664.323 439.955 669.252 442.499 672ZM440.262 676.556L435.875 680.151C428.693 686.034 416.866 691.94 411.353 692.394C406.022 692.832 399.962 689.105 398.522 684.502L397.776 682.123L405.126 680.112C412.242 678.164 426.382 676.514 435.715 676.542L440.262 676.556Z" fill="#515D3C" stroke="#515D3C" stroke-width="0.999999"/>
<path d="M493.015 643.158L491.228 642.434C487.767 641.031 471.595 661.816 474.338 664.142C474.62 664.382 478.938 659.759 483.933 653.868L493.015 643.158Z" fill="#515D3C" stroke="#515D3C" stroke-width="0.999999"/>
<path d="M496.041 644.122L484.353 657.907C469.186 675.794 469.112 678.442 484.025 669.714C494.337 663.678 502.357 649.477 497.688 645.519L496.041 644.122Z" fill="#515D3C" stroke="#515D3C" stroke-width="0.999999"/>
<path d="M526.58 694.02C525.865 693.328 525.053 692.666 524.148 692.037C518.113 687.841 507.919 685.068 494.337 684.081C480.598 683.082 480.519 684.951 494.109 689.415C499.34 691.133 508.996 695.424 515.566 698.952C529.327 706.341 531.089 706.591 530.354 701.047C530.009 698.45 528.727 696.097 526.58 694.02Z" fill="#515D3C" stroke="#515D3C" stroke-width="0.999999"/>
<path d="M526.463 708.341C530.889 712.093 513.159 719.261 503.174 717.754L497.194 716.852L488.387 710.02L479.579 703.185L475.98 695.368C474 691.069 473.061 687.331 473.892 687.061C478.349 685.614 519.126 702.12 526.463 708.341Z" fill="#515D3C" stroke="#515D3C" stroke-width="0.999999"/>
<path d="M468.611 614.775L476.093 619.144L483.216 620.25L492.163 618.623L495.009 616.43L468.611 614.775Z" fill="#515D3C" stroke="#515D3C" stroke-width="0.999999"/>
<path d="M472.646 610.794L482.653 609.08L490.374 609.869L495.544 612.114L472.646 610.794Z" fill="#515D3C" stroke="#515D3C" stroke-width="0.999999"/>
</g>
</g>
<defs>
<clipPath id="clip0_2834_8040">
<rect width="289.018" height="522.532" fill="white" transform="translate(571.008 219.844) rotate(40.2955)"/>
</clipPath>
</defs>
</svg>
