<svg width="576" height="416" viewBox="0 0 576 416" fill="none" xmlns="http://www.w3.org/2000/svg">
<g clip-path="url(#clip0_3034_345)">
<g opacity="0.23">
<g clip-path="url(#clip1_3034_345)">
<path d="M12.1505 279.396C14.2144 286.651 21.0964 293.316 33.3479 295.725L42.8004 297.582L58.6826 291.358L74.5648 285.133L66.1855 293.523C53.8273 305.895 51.2725 320.293 60.6698 324.612C69.7154 328.768 80.3937 316.669 85.4249 296.562C87.8007 287.066 90.4206 281.01 93.0991 278.829L97.1689 275.517L107.731 281.604C120.215 288.797 164.253 309.36 174.448 312.757C183.572 315.797 182.922 316.797 169.701 320.061L158.876 322.732L144.514 312.31C122.303 296.191 102.128 293.606 95.5955 306.043C89.1578 318.298 108.017 329.324 134.757 328.936C157.372 328.608 154.083 332.498 129.481 335.174C104.3 337.914 82.0065 348.826 76.2363 361.239L73.068 368.058L75.5332 375.048C83.6558 398.077 115.593 388.973 136.382 357.704C145.957 343.303 155.915 333.746 166.718 328.591C179.956 322.273 179.944 324.33 166.656 338.902C132.258 376.627 133.642 425.129 168.733 411.691C185.822 405.147 191.464 384.683 184.315 355.159C179.531 335.397 180.213 331.571 189.669 325.142L196.883 320.236L219.155 322.624C239.006 324.753 256.626 324.69 271.997 322.436L277.126 321.685L275.859 324.407C273.739 328.964 261.465 332.127 243.764 332.677L226.943 333.198L215.225 337.686C192.099 346.541 187.56 361.315 205.44 369.531L213.807 373.374L224.36 371.666L234.916 369.956L244.637 364.049C249.984 360.801 258.514 354.492 263.595 350.028C268.675 345.564 272.743 342.565 272.634 343.364C271.282 353.291 271.482 362.31 273.262 371.85L275.416 383.391L280.808 388.615C286.562 394.193 299.063 397.295 305.728 394.797C321.747 388.793 320.496 369.836 302.426 344.755C287.348 323.827 287.865 322.151 312.848 310.906C321.692 306.926 331.357 302.232 334.325 300.478L339.721 297.29L335.603 304.102C324.224 322.927 320.489 340.358 325.051 353.382L327.556 360.53L333.878 363.432C347.752 369.808 364.215 363.424 370.476 349.242L374.279 340.631L372.944 330.778C372.209 325.358 368.476 312.795 364.645 302.861L357.679 284.798L368.205 275.306C380.477 264.242 382.118 264.065 377.548 274.3C366.361 299.354 382.103 331.859 401.776 324.325C414.652 319.394 414.787 304.429 402.223 274.285L393.876 254.255L395.758 249.579C396.795 247.008 400.793 240.753 404.641 235.681C423.638 210.642 435.801 187.198 452.87 142.712C466.54 107.081 470.975 96.6069 472.161 97.1521C474.793 98.3616 470.909 111.219 463.971 124.262C449.746 151.003 453.75 173.943 473.03 176.175C492.609 178.441 497.476 166.061 487.796 138.616C481.455 120.637 478.204 98.5976 482.47 102.499C492.241 111.434 499.885 134.419 500.723 157.384L501.236 171.452L495.166 176.683C491.291 180.02 480.88 185.41 466.411 191.574C433.643 205.536 422.935 214.443 419.513 230.579L417.979 237.816L421.335 244.365C427.656 256.704 444.932 258.346 459.289 247.971C465.974 243.139 469.746 236.884 485.274 204.853C500.646 173.146 501.222 173.567 496.402 213.037L492.822 242.347L488.533 249.102L484.248 255.858L467.438 259.87C440.594 266.276 425.521 277.349 423.888 291.862L423.075 299.089L427.181 305.028C429.716 308.694 433.552 311.566 437.208 312.538L443.126 314.111L452.71 310.399C466.657 304.998 472.894 297.757 483.365 274.815L492.432 254.949L494.722 259.582C495.98 262.131 497.661 267.606 498.458 271.747L499.909 279.273L489.555 296.427C474.014 322.171 472.641 341.361 485.906 347.456C498.58 353.281 511.152 341.605 513.425 321.896L514.859 309.448L511.201 294.293C503.359 261.828 503.399 261.687 517.047 274.101L526.793 282.968L535.693 284.705C540.588 285.662 548.078 285.626 552.336 284.625L560.079 282.802L563.332 277.492L566.582 272.183L563.399 263.157C556.861 244.62 544.608 238.913 518.248 242.126C508.825 243.275 502.323 243.199 501.877 241.933C501.469 240.778 502.879 225.376 505.012 207.708L508.89 175.584L511.894 180.054C513.546 182.512 517.925 189.083 521.624 194.654L528.348 204.782L537.939 209.361C557.755 218.82 577.307 205.285 572.696 185.299C569.399 171.006 560.455 166.408 531.989 164.367C522.763 163.706 514.083 161.958 512.374 160.421L509.308 157.663L508.384 146.957C507.875 141.068 506.775 134.317 505.941 131.951C504.062 126.623 504.434 126.48 512.012 129.622C520.28 133.049 530.822 134.044 539.505 132.219L546.693 130.707L549.906 124.161C553.653 116.521 553.269 105.384 549.007 98.0454C544.795 90.7933 533.085 88.033 511.727 89.2611C492.078 90.391 499.473 86.8074 495.02 84.2816C490.958 81.9772 494.224 79.2171 490.271 76.7305C488.516 75.6268 486.008 73.5639 486.008 73.5639C486.008 73.5639 483.102 71.834 480.872 69.9101C480.872 69.9101 479.51 67.5851 478.881 65.8015C478.61 65.0337 478.947 60.6439 479.629 56.0444L480.872 47.6816L475.798 33.6996L470.723 19.7185L464.812 14.2351C455.41 5.51415 438.596 1.10943 428.891 4.8258C400.326 15.7645 411.405 46.9264 451.293 67.8342C460.125 72.464 460.102 72.6405 450.727 72.3372C423.275 71.4491 402.678 98.7235 422.477 109.747L428.071 112.863L438.477 108.878C444.199 106.687 451.881 103.021 455.548 100.733L462.218 96.5733L452.193 122.158C446.679 136.229 441.623 147.951 440.96 148.204C440.297 148.458 437.317 144.753 434.335 139.97C422.878 121.591 403.669 116.404 400.233 130.762L399.066 135.641L402.525 139.72C404.427 141.964 410.667 146.011 416.391 148.713C422.115 151.416 426.248 153.838 425.574 154.096C421.571 155.629 402.249 151.636 390.993 146.949C373.495 139.663 356.009 137.514 343.652 141.131L334.078 143.935L329.971 149.315C321.275 160.702 329.646 171.767 348.263 173.496L358.689 174.462L378.13 166.773C410.848 153.832 417.707 156.482 387.661 170.456C357.741 184.37 349.095 194.434 354.322 209.254C358.917 222.283 373.534 228.352 387.465 223.017L394.492 220.327L406.479 193.201L418.463 166.073L423.813 163.001C426.755 161.311 431.269 159.961 433.844 159.999L438.528 160.069L428.365 181.532C416.837 205.877 395.939 235.967 377.074 255.383L364.801 268.016L354.141 272.136C342.115 276.783 333.876 276.492 318.763 270.889C305.688 266.042 306.202 265.375 330.137 256.209L351.693 247.955L355.86 242.597C363.494 232.778 360.599 219.51 350.32 217.21L345.451 216.119L334.947 221.417C324.151 226.861 311.928 237.234 310.007 242.582C306.864 251.331 304.394 246.484 307.322 237.314C309.103 231.738 311.196 221.453 311.974 214.457L313.389 201.739L308.927 189.397C305.994 181.286 302.901 175.617 299.904 172.861C286.083 160.148 263.397 168.15 261.347 186.459L260.516 193.885L265.7 208.761C269.182 218.752 272.777 225.985 276.651 230.794C283.595 239.412 291.262 252.364 289.76 252.939C288.014 253.608 246.004 218.417 240.431 211.618L235.336 205.399L240.757 194.892C253.564 170.078 253.921 157.093 242.206 142.112C229.719 126.144 208.877 132.374 206.825 152.689L206.078 160.074L212.941 176.343C216.715 185.292 221.205 195.027 222.919 197.977L226.034 203.341L221.183 201.452C218.515 200.413 211.267 195.733 205.077 191.053C185.26 176.072 168.421 172.067 151.831 178.383L143.08 181.718L139.985 188.381C136.391 196.112 137.1 199.006 144.452 206.563C156.202 218.641 170.311 220.001 193.145 211.256L209.36 205.047L217.947 208.993C226.996 213.151 248.356 229.53 247.403 231.58C247.096 232.241 243.029 230.57 238.366 227.867C232.232 224.31 225.105 222.517 212.58 221.38L195.272 219.808L186.641 223.113C165.857 231.072 159.964 245.778 173.621 255.608C184.679 263.566 199.679 261.398 223.702 248.37C231.249 244.277 241.464 239.934 246.402 238.717L255.379 236.503L261.125 241.457C286.922 263.694 314.644 279.901 331.243 282.453C337.068 283.348 341.432 284.886 340.943 285.87C339.92 287.926 320.16 299.375 312.715 302.226L307.718 304.139L299.37 296.249C294.777 291.91 287.572 283.362 283.359 277.254C262.952 247.663 245.135 242.12 227.415 259.849C204.244 283.03 236.049 310.888 281.839 307.521C297.538 306.366 299.281 308.013 286.031 311.481C251.245 320.584 207.605 316.665 164.319 300.553C149.471 295.026 148.863 293.695 153.984 277.883C158.5 263.938 158.494 251.017 153.96 238.164L150.884 229.443L143.731 225.56L136.578 221.678L130.075 224.168C111.386 231.325 114.142 259.599 135.955 284.46C140.185 289.281 134.666 287.373 120.075 278.969C102.786 269.01 102.241 267.77 104.935 244.401C109.405 205.633 94.6342 179.663 72.8579 188.002L66.6874 190.365L63.119 197.42L59.5506 204.475L65.3781 217.631C68.8481 225.463 75.4483 236.255 81.6884 244.302C87.4531 251.736 91.8762 258.449 91.5185 259.218C90.7701 260.828 91.5008 261.275 74.3099 248.634L61.1796 238.981L56.6983 226.004L52.2178 213.03L45.9197 206.41C38.7227 198.847 25.9968 192.208 18.2628 191.982L12.9929 191.829L8.04803 195.833C-7.61585 208.512 15.0025 236.682 43.4124 239.876L50.3784 240.658L68.2084 254.064C92.6519 272.444 92.4391 273.221 65.82 262.862C55.839 258.978 43.968 255.516 39.4386 255.168C18.6562 253.571 8.7108 267.305 12.1505 279.396ZM19.3221 281.891C17.8692 280.216 21.9762 279.854 32.0298 280.225C39.1927 280.489 48.7092 280.374 53.1782 279.97C66.7598 278.74 68.1614 281.597 56.2197 286.17C44.0067 290.847 38.1405 290.906 27.8582 286.452C23.0673 284.376 20.1939 282.897 19.3221 281.891ZM17.8018 273.286C16.9724 270.616 21.6631 265.798 27.9937 263.318L34.7658 260.664L46.6782 263.46C61.2603 266.883 75.2644 273.257 71.4289 274.726C63.6352 277.71 22.4057 277.368 18.5067 274.286C18.1515 274.005 17.9202 273.667 17.8018 273.286ZM10.8844 212.806C10.8947 211.093 16.1673 213.279 25.3181 219.469C43.3397 231.659 44.5049 232.58 42.7515 233.251C40.1381 234.252 22.3124 225.188 16.8485 220.08C12.767 216.265 10.8782 213.834 10.8844 212.806ZM80.5362 372.455C80.0804 371.749 80.4535 369.896 81.3508 366.909C84.023 358.016 91.7407 352.667 111.487 346.028C134.977 338.13 137.279 340.125 116.791 350.627C107.852 355.208 96.3049 362.266 91.1326 366.311C84.3574 371.611 81.2958 373.63 80.5362 372.455ZM61.9419 315.782C60.6596 313.422 63.0451 306.968 67.4759 301.531C73.6933 293.901 79.3778 291.294 74.3645 298.371C72.7316 300.676 69.6357 305.793 67.484 309.741C65.3322 313.69 63.1897 316.744 62.7214 316.529C62.3836 316.374 62.1253 316.119 61.9419 315.782ZM85.817 377.784C84.5422 374.17 102.932 361.049 122.663 351.496C129.884 347.999 135.865 345.432 135.949 345.79C136.275 347.139 125.563 362.335 119.993 368.427C110.445 378.869 88.3348 384.923 85.817 377.784ZM101.472 311.174L100.271 307.707L111.078 313.314C117.023 316.398 125.007 319.45 128.821 320.095C136.726 321.432 134.626 322.992 125.326 322.691C117.181 322.427 103 315.581 101.472 311.174ZM67.11 209.014L67.7528 204.514C68.525 199.098 70.1944 196.583 74.0151 195.083L76.8788 193.954L84.7203 216.712C89.0329 229.228 92.6891 241.526 92.8476 244.042L93.1369 248.615L85.6565 238.365C81.5423 232.728 75.6863 223.818 72.6434 218.565L67.11 209.014ZM107.884 307.001C107.778 306.748 107.766 306.515 107.864 306.304C108.926 304.019 116.648 304.85 124.91 308.138C133.01 311.361 139.923 315.94 137.874 316.725C132.828 318.657 109.486 310.781 107.884 307.001ZM149.469 398.786C145.139 390.611 151.921 365.374 161.32 354.689C166.48 348.824 166.312 351.578 160.803 363.205C157.893 369.344 154.584 380.678 153.45 388.389L151.388 402.409L149.469 398.786ZM94.7532 235.531C93.4163 231.941 91.7253 226.96 89.5915 220.471C81.231 195.047 80.967 191.231 87.9207 196.426C92.4455 199.807 100.255 215.507 99.9951 220.699C99.9163 222.275 99.7987 228.011 99.7332 233.445C99.5994 244.551 98.7639 246.3 94.7532 235.531ZM155.864 407.344L156.182 399.231C156.757 384.609 159.109 375.177 166.416 358.188L173.62 341.442L176.64 350.587C186.496 380.418 178.911 407.33 160.645 407.341L155.864 407.344ZM126.691 256.734C123.471 246.595 123.677 235.392 128.751 231.379L132.022 228.79L132.854 231.877C133.311 233.574 134.207 240.663 134.846 247.631C135.484 254.6 136.548 263.44 137.211 267.277L138.417 274.255L135.875 272.054C131.789 268.519 128.623 262.818 126.691 256.734ZM144.512 281.397L141.882 270.228C139.368 259.548 136.666 240.137 136.824 233.877C136.936 229.434 139.27 229.389 143.968 233.74C149.531 238.892 150.492 242.381 151.033 259.396C151.181 264.067 149.776 270.929 147.908 274.644L144.512 281.397ZM146.377 199.036C146.322 197.583 150.904 198.035 161.779 199.754C170.248 201.093 181.229 202.112 186.182 202.018C199.04 201.774 198.447 204.364 184.8 208.052C171.057 211.766 159.286 210.295 151.125 203.845C148.113 201.465 146.409 199.908 146.377 199.036ZM202.808 355.655C201.798 353.582 206.252 348.79 212.783 345.342C218.758 342.187 224.603 340.678 234.324 339.777C241.661 339.097 249.847 338.805 252.514 339.129L257.362 339.717L253.818 342.268C244.793 348.77 208.947 358.828 203.585 356.364C203.208 356.191 202.952 355.951 202.808 355.655ZM205.352 361.832C205.398 360.695 208.903 359.975 217.043 358.87C224.87 357.807 233.397 355.18 243.507 350.723C258.613 344.062 259.883 343.718 257.379 346.939C247.87 359.169 218.698 369.703 208.75 364.499C206.543 363.345 205.325 362.514 205.352 361.832ZM146.544 190.72L145.663 188.223L154.174 184.964C165.447 180.647 176.615 181.804 189.555 188.627C205.492 197.031 204.55 198.587 183.695 198.319C167.502 198.11 147.724 194.065 146.544 190.72ZM172.697 241.814C172.108 239.004 177.591 234.073 187.507 230.276L197.441 226.472L213.733 228.194C227.108 229.608 235.904 232.349 231.939 233.868C229.005 234.991 186.906 243.212 180.667 243.88C175.59 244.424 173.05 243.5 172.697 241.814ZM177.784 249.704C178.336 248.41 184.611 247.162 201.364 243.823C212.941 241.515 222.801 239.804 223.276 240.022C225.489 241.039 215.037 246.286 202.214 250.596L188.058 255.355L181.944 252.546C179.18 251.276 177.452 250.481 177.784 249.704ZM230.04 282.035C225.949 270.594 227.668 268.847 236.179 275.798C239.778 278.738 251.798 285.554 262.891 290.945L283.058 300.747L277.778 301.455C268.685 302.675 251.017 299.693 242.004 295.417L233.354 291.315L230.04 282.035ZM281.896 378.616C280.477 374.911 279.442 370.007 278.673 363.596L277.533 354.104L285.012 369.203C289.126 377.508 293.326 384.963 294.346 385.769C297.841 388.531 291.316 389.158 287.419 386.435C285.116 384.826 283.315 382.32 281.896 378.616ZM212.854 163.431L213.246 156.401C213.462 152.535 215.13 147.343 216.957 144.865C221.745 138.367 223.596 140.684 225.06 155.009C225.769 161.95 227.472 173.776 228.84 181.289C231.93 198.249 229.819 197.527 220.281 178.359L212.854 163.431ZM270.022 202.643C266.166 188.759 268.47 176.792 277.629 173.284C278.975 172.769 279.326 177.882 278.506 186.063L277.627 194.83L284.511 216.546L291.399 238.264L283.465 228.291C276.866 219.994 272.335 210.974 270.022 202.643ZM329.788 351.338L329.61 342.372C329.413 332.457 336.246 313.424 342.471 306.542C348.139 300.275 348.318 301.115 344.926 317.937C343.253 326.234 341.381 338.525 340.765 345.252C339.541 358.626 337.846 360.768 332.982 355.076L329.788 351.338ZM294.72 236.767C290.051 222.918 281.682 194.279 281.505 190.362C281.394 187.922 281.9 182.984 282.629 179.388L283.954 172.851L287.84 173.63C289.977 174.059 293.659 176.332 296.025 178.682C302.789 185.402 307.707 203.131 306.057 214.854C305.158 221.239 298.763 243.749 297.713 244.224C297.419 244.358 296.276 241.383 294.72 236.767ZM344.243 358.067C342.375 349.343 350.699 297.869 354.29 298.572C359.371 299.565 368.11 334.248 365.758 344.079C363.705 352.659 349.455 362.927 344.756 359.212C344.536 359.039 344.368 358.648 344.243 358.067ZM311.987 252.238C311.897 251.295 313.488 248.473 316.798 244.171C323.456 235.519 331.618 229.445 341.885 225.498C346.172 223.851 349.927 223.202 350.229 224.056C351.069 226.438 349.843 227.449 335.557 236.181C328.249 240.648 320.015 246.428 317.26 249.025C313.847 252.243 312.077 253.18 311.987 252.238ZM320.046 252.072L324.23 248.085C326.531 245.892 333.848 240.989 340.49 237.19C354.15 229.378 355.63 229.232 352.118 236.036C348.805 242.455 341.525 246.914 329.747 249.743L320.046 252.072ZM383.27 306.744C380.099 299.308 379.188 289.431 381.68 281.359C383.878 274.244 384.823 275.605 386.352 288.08C387.093 294.129 389.67 303.367 392.253 309.237L396.84 319.657L391.169 316.573C387.887 314.788 385.172 311.206 383.27 306.744ZM333.908 156.911L334.985 153.908C336.699 149.138 350.023 145.019 360.862 145.909C371.616 146.791 385.865 150.572 382.826 151.735C378.679 153.323 348.777 157.162 341.513 157.039L333.908 156.911ZM336.073 162.045C335.966 161.118 338.016 160.617 342.248 160.754C346.084 160.878 355.208 160 362.523 158.805C381.175 155.757 383.338 156.525 372.432 162.329C361.649 168.067 352.146 169.213 342.841 165.895C338.444 164.327 336.18 162.973 336.073 162.045ZM359.302 207.519C356.319 199.063 365.8 188.347 385.615 177.78C396.486 171.983 396.824 174.411 386.443 183.712C381.827 187.848 374.643 195.799 370.478 201.379C362.819 211.641 361.091 212.591 359.302 207.519ZM393.994 304.88C391.361 297.533 389.242 287.723 389.041 278.151C388.807 267.048 390.417 266.378 395.174 275.597C401.338 287.543 405.304 300.99 404.911 308.605C404.191 322.533 398.381 317.125 393.994 304.88ZM367.439 214.741C366.121 211.002 378.495 195.293 391.759 183.869C398.341 178.2 404.574 173.525 405.607 173.481C408.201 173.37 398.175 199.738 391.807 209.776L386.6 217.982L381.987 218.561C375.385 219.387 368.434 217.561 367.439 214.741ZM430.23 297.601C429.92 296.767 429.829 295.388 429.824 293.508C429.803 285.353 436.842 278.457 452.113 271.677C466.991 265.072 470.437 265.99 459.723 273.705C455.934 276.434 448.189 283.377 442.51 289.133C434.067 297.69 431.162 300.102 430.23 297.601ZM434.21 304.806C434.069 304.526 434.078 304.201 434.268 303.826C436.046 300.321 455.18 281.224 462.241 275.908C466.84 272.446 472.694 269.081 475.252 268.429L479.902 267.243L474.289 279.05C467.266 293.821 461.886 299.433 450.615 303.749C443.699 306.398 435.207 306.764 434.21 304.806ZM425.999 238.779C425.203 235.86 426.112 230.448 428.806 225.33C434.39 214.721 440.316 210.299 461.731 200.757C471.252 196.515 479.187 193.456 479.365 193.959C480.787 197.991 438.99 237.011 429.256 240.738C427.569 241.384 426.477 240.531 425.999 238.779ZM431.425 246.471C430.698 245.043 433.983 242.32 442.196 236.279C448.727 231.474 458.78 222.77 464.536 216.936C477.929 203.362 478.981 204.168 470.251 221.307C459.572 242.272 450.382 249.643 436.87 248.079C433.742 247.717 431.862 247.327 431.425 246.471ZM484.894 336.427C482.24 328.902 483.26 322.101 488.739 310.783C494.476 298.93 495.37 302.319 492.198 323.888C489.4 342.909 488.018 345.283 484.894 336.427ZM494.013 341.154C493.106 338.582 498.924 298.162 500.805 293.965L502.289 290.652L505.374 299.707C509.19 310.903 508.219 325.773 503.083 334.769C499.191 341.586 495.166 344.421 494.013 341.154ZM421.772 99.3518L420.914 96.9195C418.482 90.0252 435.208 79.6981 449.411 79.3247C469.95 78.7847 468.293 81.5373 442.019 91.5982L421.772 99.3518ZM424.305 102.13L440.036 96.1061C448.689 92.7926 455.889 90.424 456.036 90.8411C457.465 94.8919 428.427 107.428 425.708 103.934L424.305 102.13ZM462.163 157.625C461.714 156.021 461.409 154.321 461.288 152.606C460.867 146.64 467.562 126.779 470.357 125.709C472.623 124.841 472.718 126.679 471.024 138.568C470.171 144.562 469.95 153.701 470.532 158.88L471.591 168.296L468.973 167.383C466.149 166.398 463.51 162.438 462.163 157.625ZM421.521 32.4221C419.305 27.6585 418.932 23.2234 420.529 19.3005C423.086 13.0199 424.747 14.3094 434.472 30.1138C439.115 37.6591 446.472 47.8058 450.821 52.6623C462.119 65.2787 460.92 67.2056 447.4 58.1602C434.034 49.2184 425.216 40.3616 421.521 32.4221ZM476.368 170.27L474.767 161.97C472.986 152.733 474.503 129.741 476.956 128.802C478.473 128.221 484.972 145.754 486.763 155.26C487.871 161.144 483.373 170.289 479.376 170.279L476.368 170.27ZM507.873 253.656C506.497 249.757 506.068 249.949 519.625 248.429C536.848 246.498 544.804 248.052 551.158 254.586C558.465 262.101 561.002 268.973 557.03 270.494C548.5 273.76 510.355 260.695 507.873 253.656ZM522.112 270.232C521.828 268.851 527.326 269.412 539.294 271.709C558.215 275.34 558.595 275.515 552.659 277.788C545.903 280.375 536.831 279.264 528.717 274.859C524.534 272.588 522.283 271.06 522.112 270.232ZM520.016 179.681C519.32 177.221 521.727 178.102 527.556 181.657C531.65 184.153 541.304 189.008 549.01 192.445C556.716 195.882 563.122 198.978 563.245 199.327C563.901 201.187 561.407 203.246 555.987 205.322C546.174 209.08 533.701 202.155 524.545 187.864C521.966 183.838 520.433 181.157 520.016 179.681ZM493.447 101.065C493.308 100.439 493.418 100.017 493.832 99.8582C495.329 99.2849 506.527 104.785 511.59 108.58C514.124 110.479 522.606 113.881 530.435 116.141C538.265 118.4 544.721 120.395 544.783 120.572C547.016 126.902 525.546 128.936 514.734 123.419C507.634 119.796 494.419 105.446 493.447 101.065Z" fill="black"/>
<path d="M19.0622 281.455C19.1001 281.589 19.1864 281.734 19.3223 281.891C20.194 282.896 23.0675 284.376 27.8583 286.451C38.1405 290.906 44.007 290.846 56.2198 286.17C68.1614 281.597 66.7598 278.739 53.1784 279.969C48.7094 280.374 39.1928 280.489 32.03 280.224C23.2332 279.899 18.9906 280.137 19.0403 281.324C19.0419 281.366 19.05 281.41 19.0622 281.455ZM17.8019 273.285C17.9207 273.667 18.1519 274.005 18.507 274.286C22.406 277.367 63.6356 277.71 71.4292 274.726C75.2647 273.257 61.2603 266.882 46.6784 263.46L34.7661 260.664L27.994 263.318C21.6634 265.798 16.9726 270.615 17.8019 273.285ZM10.9722 213.255C11.0314 213.427 11.1208 213.622 11.2407 213.838C11.9606 215.134 13.7876 217.218 16.8487 220.08C22.3126 225.188 40.1383 234.251 42.7517 233.251C44.505 232.579 43.3398 231.658 25.3183 219.468C16.1675 213.278 10.895 211.092 10.8846 212.805C10.8839 212.934 10.9129 213.083 10.9722 213.255ZM10.4946 202.916C11.6835 205.879 19.5121 211.379 39.2264 224.842C45.2297 228.942 50.8363 232.029 51.6858 231.704C54.5258 230.616 44.5375 213.216 37.9174 207.72C29.8138 200.992 19.4449 197.214 14.3927 199.149C11.4588 200.272 9.78128 201.139 10.4946 202.916ZM61.8329 315.549C61.8658 315.631 61.8998 315.709 61.9415 315.782C62.1248 316.119 62.3832 316.374 62.721 316.529C63.1894 316.744 65.3319 313.689 67.4836 309.741C69.6354 305.793 72.7313 300.676 74.3641 298.371C79.3774 291.294 73.6928 293.901 67.4755 301.531C63.1833 306.798 60.8113 313.02 61.8329 315.549Z" fill="#515D3C" stroke="#515D3C" stroke-width="0.999999"/>
<path d="M80.405 372.137C80.4379 372.261 80.4803 372.366 80.5379 372.455C81.2974 373.63 84.3593 371.611 91.1344 366.311C96.3066 362.266 107.854 355.208 116.793 350.627C137.28 340.126 134.978 338.13 111.488 346.028C91.7429 352.667 84.0246 358.016 81.3525 366.909C80.5673 369.523 80.1833 371.269 80.405 372.137ZM85.8169 377.785C88.3346 384.923 110.445 378.869 119.993 368.427C125.563 362.335 136.274 347.14 135.949 345.791C135.865 345.432 129.884 348 122.663 351.496C102.932 361.049 84.5421 374.17 85.8169 377.785ZM101.472 311.175C103 315.581 117.181 322.427 125.326 322.691C134.626 322.992 136.726 321.432 128.821 320.095C125.007 319.45 117.023 316.398 111.079 313.314L100.271 307.708L101.472 311.175ZM67.1099 209.015L72.6436 218.567C75.6864 223.82 81.5425 232.73 85.6567 238.367L93.1371 248.617L92.8478 244.044C92.6893 241.528 89.0328 229.23 84.7205 216.714L76.879 193.956L74.0153 195.085C70.1946 196.585 68.5253 199.1 67.7531 204.516L67.1099 209.015ZM107.883 307.002C109.485 310.782 132.828 318.657 137.874 316.725C139.923 315.94 133.01 311.361 124.91 308.138C116.648 304.851 108.926 304.02 107.864 306.304C107.766 306.515 107.776 306.75 107.883 307.002ZM149.094 397.972C149.207 398.26 149.334 398.531 149.469 398.786L151.388 402.409L153.45 388.39C154.584 380.678 157.893 369.345 160.802 363.206C166.312 351.579 166.479 348.825 161.32 354.69C152.508 364.706 145.995 387.514 148.784 397.062C148.875 397.38 148.982 397.684 149.094 397.972ZM92.4724 229.088C93.3295 231.593 94.0853 233.736 94.7551 235.53C98.7659 246.3 99.6015 244.551 99.7353 233.445C99.8008 228.011 99.9184 222.275 99.9972 220.699C100.257 215.507 92.4475 199.806 87.9228 196.426C80.9692 191.23 81.2332 195.047 89.5936 220.471C90.6602 223.715 91.6158 226.583 92.4724 229.088ZM155.864 407.345L160.645 407.341C178.912 407.33 186.496 380.418 176.641 350.588L173.62 341.442L166.417 358.188C159.109 375.177 156.757 384.609 156.182 399.231L155.864 407.345ZM127.067 257.869C129.023 263.521 132.045 268.74 135.875 272.054L138.417 274.256L137.212 267.278C136.548 263.44 135.485 254.6 134.846 247.632C134.208 240.664 133.311 233.574 132.854 231.877L132.022 228.79L128.751 231.379C123.677 235.393 123.471 246.595 126.691 256.734C126.81 257.115 126.939 257.491 127.067 257.869ZM144.512 281.397L147.908 274.644C149.776 270.929 151.181 264.068 151.033 259.397C150.492 242.381 149.531 238.892 143.968 233.74C139.27 229.389 136.936 229.434 136.824 233.878C136.666 240.137 139.368 259.549 141.883 270.228L144.512 281.397ZM146.468 199.394C146.857 200.309 148.489 201.763 151.125 203.846C159.286 210.296 171.058 211.766 184.801 208.052C198.446 204.364 199.039 201.772 186.182 202.016C181.228 202.11 170.247 201.093 161.779 199.755C150.904 198.036 146.323 197.584 146.377 199.036C146.379 199.146 146.411 199.264 146.468 199.394ZM202.728 355.452C202.749 355.522 202.777 355.59 202.81 355.654C202.957 355.949 203.21 356.19 203.587 356.363C208.949 358.828 244.795 348.769 253.82 342.268L257.364 339.717L252.516 339.128C249.849 338.805 241.663 339.097 234.326 339.777C224.605 340.677 218.76 342.186 212.785 345.341C206.458 348.682 202.077 353.283 202.728 355.452ZM205.399 362.094C205.643 362.726 206.819 363.489 208.75 364.499C218.699 369.703 247.87 359.169 257.379 346.94C259.883 343.718 258.613 344.062 243.507 350.723C233.397 355.181 224.87 357.806 217.044 358.87C208.903 359.975 205.398 360.696 205.353 361.832C205.351 361.917 205.366 362.003 205.399 362.094ZM146.544 190.72C147.724 194.065 167.503 198.11 183.696 198.319C204.549 198.587 205.492 197.031 189.555 188.627C176.616 181.804 165.447 180.647 154.174 184.964L145.664 188.223L146.544 190.72ZM172.789 242.122C173.378 243.611 175.907 244.39 180.667 243.881C186.906 243.213 229.006 234.991 231.939 233.868C235.904 232.35 227.108 229.608 213.733 228.194L197.442 226.472L187.508 230.276C177.592 234.073 172.108 239.004 172.697 241.814C172.718 241.92 172.749 242.023 172.789 242.122ZM177.754 249.999C177.773 250.098 177.826 250.196 177.907 250.297C178.382 250.908 179.872 251.593 181.945 252.546L188.06 255.356L202.215 250.596C215.038 246.286 225.49 241.039 223.278 240.023C222.802 239.804 212.942 241.515 201.365 243.822C184.613 247.162 178.337 248.41 177.785 249.705C177.744 249.802 177.733 249.901 177.754 249.999ZM212.855 163.431L220.282 178.359C229.819 197.527 231.93 198.249 228.84 181.289C227.472 173.777 225.77 161.95 225.06 155.009C223.596 140.685 221.745 138.368 216.957 144.866C215.131 147.344 213.462 152.535 213.247 156.402L212.855 163.431ZM234.46 188.723C234.599 189.103 234.742 189.419 234.88 189.676C236.004 191.729 237.157 189.973 239.201 185.977C247.968 168.84 246.542 155.293 234.745 143.619C226.414 135.375 225.629 140.648 230.739 170.521C232.181 178.952 233.158 184.356 234.03 187.398C234.177 187.904 234.316 188.345 234.46 188.723Z" fill="#515D3C" stroke="#515D3C" stroke-width="0.999999"/>
<path d="M230.04 282.035C225.95 270.595 227.668 268.847 236.179 275.799C239.778 278.738 251.799 285.555 262.891 290.946L283.059 300.748L277.778 301.455C268.686 302.675 251.018 299.694 242.005 295.418L233.355 291.315L230.04 282.035ZM230.736 267.562L233.014 264.124C236.053 259.538 244.947 256.307 252.218 257.149C259.189 257.955 268.601 266.905 279.633 283.218C283.734 289.283 288.146 295.526 289.439 297.092C293.092 301.515 254.624 283.764 242.001 275.202L230.736 267.562Z" fill="#515D3C" stroke="#515D3C" stroke-width="0.999999"/>
<path d="M281.896 378.615C283.315 382.319 285.117 384.826 287.419 386.434C291.316 389.157 297.841 388.53 294.346 385.768C293.326 384.962 289.126 377.507 285.012 369.203L277.533 354.103L278.673 363.595C279.442 370.006 280.477 374.911 281.896 378.615Z" fill="#515D3C" stroke="#515D3C" stroke-width="0.999999"/>
<path d="M284.525 358.563C282.703 352.473 282.084 346.758 282.758 341.768C283.951 332.935 285.769 333.597 295.471 346.394C301.055 353.758 305.689 361.928 307.997 368.472L311.66 378.858L309.623 382.74C304.99 391.559 299.707 388.89 290.919 373.288C289.302 370.417 287.907 367.566 286.745 364.766C285.873 362.666 285.131 360.594 284.525 358.563Z" fill="#515D3C" stroke="#515D3C" stroke-width="0.999999"/>
<path d="M329.789 351.338L332.983 355.076C337.847 360.768 339.542 358.626 340.766 345.252C341.381 338.525 343.253 326.234 344.926 317.937C348.319 301.115 348.139 300.275 342.471 306.541C336.246 313.424 329.413 332.457 329.61 342.372L329.789 351.338Z" fill="#515D3C" stroke="#515D3C" stroke-width="0.999999"/>
<path d="M344.243 358.066C344.368 358.648 344.539 359.038 344.757 359.212C349.456 362.926 363.706 352.658 365.759 344.078C368.111 334.248 359.371 299.565 354.291 298.571C350.699 297.869 342.376 349.342 344.243 358.066Z" fill="#515D3C" stroke="#515D3C" stroke-width="0.999999"/>
<path d="M383.269 306.744C385.172 311.205 387.887 314.787 391.169 316.573L396.84 319.657L392.253 309.237C389.67 303.366 387.093 294.128 386.352 288.08C384.823 275.604 383.878 274.243 381.68 281.359C379.187 289.431 380.099 299.308 383.269 306.744Z" fill="#515D3C" stroke="#515D3C" stroke-width="0.999999"/>
<path d="M393.994 304.88C398.381 317.126 404.191 322.534 404.911 308.606C405.304 300.99 401.338 287.544 395.174 275.597C390.417 266.379 388.807 267.048 389.041 278.152C389.242 287.724 391.362 297.533 393.994 304.88Z" fill="#515D3C" stroke="#515D3C" stroke-width="0.999999"/>
<path d="M320.046 252.071L329.747 249.742C341.525 246.914 348.805 242.455 352.118 236.036C355.63 229.232 354.15 229.377 340.49 237.19C333.848 240.988 326.531 245.892 324.23 248.084L320.046 252.071Z" fill="#515D3C" stroke="#515D3C" stroke-width="0.999999"/>
<path d="M311.987 252.237C312.078 253.179 313.847 252.242 317.26 249.024C320.015 246.427 328.249 240.647 335.557 236.18C349.843 227.448 351.069 226.436 350.229 224.055C349.928 223.201 346.173 223.849 341.886 225.497C331.618 229.444 323.457 235.518 316.799 244.17C313.489 248.472 311.898 251.294 311.987 252.237Z" fill="#515D3C" stroke="#515D3C" stroke-width="0.999999"/>
<path d="M272.171 209C274.73 215.44 278.516 222.069 283.465 228.292L291.399 238.264L284.512 216.547L277.627 194.83L278.506 186.063C279.326 177.883 278.975 172.769 277.629 173.285C268.47 176.792 266.166 188.76 270.022 202.644C270.6 204.727 271.318 206.853 272.171 209Z" fill="#515D3C" stroke="#515D3C" stroke-width="0.999999"/>
<path d="M294.721 236.766C296.277 241.383 297.419 244.357 297.714 244.223C298.763 243.748 305.159 221.238 306.057 214.854C307.708 203.131 302.79 185.401 296.026 178.681C293.66 176.331 289.977 174.058 287.841 173.63L283.955 172.851L282.63 179.387C281.901 182.983 281.395 187.922 281.505 190.361C281.683 194.279 290.052 222.917 294.721 236.766Z" fill="#515D3C" stroke="#515D3C" stroke-width="0.999999"/>
<path d="M333.907 156.912L341.513 157.04C348.777 157.163 378.679 153.324 382.826 151.736C385.865 150.572 371.616 146.792 360.862 145.909C350.023 145.02 336.699 149.139 334.985 153.909L333.907 156.912Z" fill="#515D3C" stroke="#515D3C" stroke-width="0.999999"/>
<path d="M336.073 162.045C336.18 162.972 338.444 164.326 342.841 165.894C352.146 169.213 361.649 168.067 372.432 162.329C383.338 156.525 381.175 155.757 362.523 158.805C355.207 160 346.084 160.878 342.248 160.754C338.016 160.617 335.966 161.117 336.073 162.045Z" fill="#515D3C" stroke="#515D3C" stroke-width="0.999999"/>
<path d="M359.303 207.52C361.092 212.591 362.819 211.642 370.479 201.38C374.643 195.8 381.827 187.849 386.444 183.713C396.825 174.411 396.486 171.984 385.616 177.781C365.801 188.348 356.32 199.064 359.303 207.52Z" fill="#515D3C" stroke="#515D3C" stroke-width="0.999999"/>
<path d="M367.439 214.74C368.434 217.561 375.384 219.387 381.987 218.56L386.6 217.982L391.807 209.775C398.174 199.738 408.201 173.37 405.607 173.481C404.574 173.525 398.341 178.199 391.759 183.869C378.495 195.293 366.12 211.001 367.439 214.74Z" fill="#515D3C" stroke="#515D3C" stroke-width="0.999999"/>
<path d="M425.999 238.78C426.477 240.531 427.57 241.386 429.257 240.74C438.991 237.013 480.788 197.993 479.366 193.961C479.188 193.456 471.251 196.512 461.731 200.757C440.316 210.299 434.39 214.723 428.806 225.332C426.113 230.45 425.204 235.86 425.999 238.78Z" fill="#515D3C" stroke="#515D3C" stroke-width="0.999999"/>
<path d="M431.426 246.47C431.862 247.326 433.742 247.716 436.871 248.079C450.382 249.643 459.572 242.271 470.251 221.306C478.981 204.167 477.929 203.361 464.536 216.936C458.78 222.769 448.728 231.473 442.196 236.278C433.983 242.319 430.698 245.043 431.426 246.47Z" fill="#515D3C" stroke="#515D3C" stroke-width="0.999999"/>
<path d="M430.23 297.601C431.165 300.101 434.068 297.69 442.51 289.134C448.189 283.378 455.935 276.434 459.723 273.706C470.437 265.991 466.991 265.072 452.113 271.678C436.842 278.458 429.803 285.353 429.824 293.509C429.829 295.389 429.92 296.768 430.23 297.601Z" fill="#515D3C" stroke="#515D3C" stroke-width="0.999999"/>
<path d="M434.21 304.806C435.207 306.763 443.699 306.397 450.616 303.749C461.886 299.433 467.266 293.821 474.29 279.049L479.902 267.243L475.252 268.428C472.694 269.08 466.84 272.446 462.242 275.907C455.18 281.223 436.046 300.321 434.268 303.826C434.078 304.2 434.068 304.526 434.21 304.806Z" fill="#515D3C" stroke="#515D3C" stroke-width="0.999999"/>
<path d="M484.895 336.427C488.018 345.283 489.4 342.909 492.198 323.888C495.37 302.32 494.476 298.931 488.739 310.783C483.26 322.101 482.241 328.902 484.895 336.427Z" fill="#515D3C" stroke="#515D3C" stroke-width="0.999999"/>
<path d="M494.013 341.153C495.165 344.42 499.191 341.586 503.083 334.768C508.219 325.772 509.19 310.902 505.374 299.706L502.289 290.651L500.805 293.964C498.924 298.161 493.106 338.582 494.013 341.153Z" fill="#515D3C" stroke="#515D3C" stroke-width="0.999999"/>
<path d="M522.112 270.231C522.283 271.059 524.534 272.587 528.718 274.858C536.831 279.263 545.903 280.374 552.66 277.787C558.595 275.514 558.215 275.339 539.294 271.708C527.326 269.411 521.828 268.85 522.112 270.231Z" fill="#515D3C" stroke="#515D3C" stroke-width="0.999999"/>
<path d="M507.872 253.655C510.355 260.694 548.5 273.759 557.03 270.493C561.002 268.972 558.465 262.1 551.158 254.586C544.804 248.051 536.848 246.497 519.624 248.428C506.068 249.948 506.497 249.756 507.872 253.655Z" fill="#515D3C" stroke="#515D3C" stroke-width="0.999999"/>
<path d="M520.016 179.681C519.321 177.221 521.727 178.102 527.556 181.656C531.65 184.153 541.304 189.007 549.01 192.445C556.717 195.882 563.123 198.978 563.245 199.326C563.901 201.186 561.408 203.246 555.987 205.322C546.175 209.079 533.701 202.155 524.546 187.864C521.966 183.838 520.433 181.157 520.016 179.681ZM520.093 172.074C519.121 169.32 548.075 171.629 555.474 174.895L563.3 178.347L565.567 184.774C568.557 193.251 566.693 195.103 557.864 192.435C550.242 190.132 520.879 174.303 520.093 172.074Z" fill="#515D3C" stroke="#515D3C" stroke-width="0.999999"/>
<path d="M462.164 157.625C463.51 162.438 466.149 166.398 468.973 167.383L471.591 168.296L470.533 158.88C469.951 153.702 470.171 144.562 471.025 138.568C472.718 126.679 472.623 124.841 470.357 125.709C467.563 126.779 460.867 146.64 461.289 152.606C461.41 154.321 461.715 156.021 462.164 157.625Z" fill="#515D3C" stroke="#515D3C" stroke-width="0.999999"/>
<path d="M476.367 170.271L479.376 170.28C483.373 170.29 487.871 161.145 486.763 155.261C484.971 145.754 478.473 128.221 476.955 128.802C474.502 129.742 472.985 152.734 474.766 161.971L476.367 170.271Z" fill="#515D3C" stroke="#515D3C" stroke-width="0.999999"/>
<path d="M493.448 101.065C493.309 100.439 493.419 100.017 493.833 99.8585C495.33 99.2852 506.527 104.785 511.591 108.58C514.125 110.479 522.606 113.882 530.436 116.141C538.266 118.401 544.721 120.395 544.784 120.573C547.017 126.903 525.546 128.936 514.734 123.419C507.635 119.796 494.42 105.446 493.448 101.065ZM498.469 97.5564L505.125 96.3139C516.02 94.28 531.703 94.9253 537.639 97.6529C543.378 100.29 547.378 107.749 546.108 113.446L545.452 116.392L536.698 114.24C528.222 112.157 512.706 105.675 503.133 100.216L498.469 97.5564Z" fill="#515D3C" stroke="#515D3C" stroke-width="0.999999"/>
<path d="M424.304 102.13L425.708 103.934C428.426 107.427 457.464 94.8917 456.036 90.8409C455.889 90.4236 448.689 92.7924 440.036 96.1058L424.304 102.13Z" fill="#515D3C" stroke="#515D3C" stroke-width="0.999999"/>
<path d="M421.771 99.3516L442.019 91.598C468.293 81.537 469.95 78.7845 449.411 79.3244C435.208 79.6979 418.482 90.0249 420.914 96.9192L421.771 99.3516Z" fill="#515D3C" stroke="#515D3C" stroke-width="0.999999"/>
<path d="M420.207 28.9132C420.529 30.0602 420.967 31.2311 421.521 32.422C425.216 40.3615 434.034 49.2183 447.4 58.16C460.92 67.2054 462.119 65.2786 450.821 52.6621C446.472 47.8056 439.115 37.659 434.472 30.1136C424.747 14.3092 423.086 13.0198 420.529 19.3003C419.331 22.2425 419.242 25.4723 420.207 28.9132Z" fill="#515D3C" stroke="#515D3C" stroke-width="0.999999"/>
<path d="M428.885 13.863C426.58 7.32718 449.081 10.0736 458.441 17.4709L464.046 21.9022L469.014 34.2371L473.98 46.5755L473.007 56.9204C472.473 62.6108 471.204 67.1035 470.188 66.9049C464.744 65.8402 432.706 24.6977 428.885 13.863Z" fill="#515D3C" stroke="#515D3C" stroke-width="0.999999"/>
<path d="M432.421 146.286L427.344 137.322L420.685 132.012L410.52 128.525L406.285 129.184L432.421 146.286Z" fill="#515D3C" stroke="#515D3C" stroke-width="0.999999"/>
<path d="M425.895 148.143L414.588 144.132L407.126 138.808L403.155 133.431L425.895 148.143Z" fill="#515D3C" stroke="#515D3C" stroke-width="0.999999"/>
</g>
</g>
</g>
<defs>
<clipPath id="clip0_3034_345">
<rect width="575" height="415" fill="white" transform="translate(0.5 0.789062)"/>
</clipPath>
<clipPath id="clip1_3034_345">
<rect width="345.959" height="625.478" fill="white" transform="matrix(-0.331893 -0.940976 0.935928 -0.3584 91.209 503.645)"/>
</clipPath>
</defs>
</svg>
