<svg width="823" height="823" viewBox="0 0 823 823" fill="none" xmlns="http://www.w3.org/2000/svg">
<g opacity="0.23">
<g clip-path="url(#clip0_2835_8044)">
<path d="M124.836 363.2C126.942 356.67 133.442 350.717 144.732 348.654L153.442 347.062L167.799 352.824L182.156 358.586L174.733 350.938C163.787 339.659 161.876 326.641 170.61 322.828C179.016 319.158 188.433 330.175 192.441 348.369C194.333 356.961 196.551 362.45 198.939 364.443L202.567 367.469L212.419 362.071C224.064 355.691 265 337.53 274.437 334.556C282.882 331.894 282.316 330.987 270.307 327.921L260.476 325.412L247.014 334.689C226.197 349.037 207.646 351.187 202.036 339.904C196.506 328.784 214.104 319.003 238.576 319.595C259.274 320.095 256.378 316.554 233.931 313.917C210.956 311.217 190.868 301.166 185.955 289.91L183.257 283.726L185.722 277.44C193.846 256.728 222.818 265.234 240.922 293.644C249.259 306.729 258.093 315.445 267.83 320.195C279.764 326.017 279.814 324.161 268.082 310.888C237.709 276.528 240.421 232.764 272.152 245.209C287.605 251.27 292.161 269.792 284.735 296.375C279.765 314.168 280.276 317.627 288.743 323.515L295.202 328.008L315.666 326.054C333.906 324.312 350.039 324.528 364.046 326.702L368.719 327.426L367.64 324.958C365.835 320.825 354.691 317.859 338.499 317.204L323.113 316.581L312.517 312.425C291.606 304.223 287.889 290.848 304.506 283.593L312.283 280.201L321.894 281.838L331.508 283.476L340.234 288.896C345.032 291.875 352.655 297.647 357.174 301.722C361.693 305.797 365.328 308.54 365.253 307.819C364.311 298.846 364.762 290.708 366.676 282.114L368.993 271.717L374.085 267.05C379.521 262.067 391.059 259.381 397.087 261.696C411.576 267.259 409.866 284.359 392.573 306.833C378.143 325.585 378.566 327.102 401.107 337.477C409.086 341.15 417.796 345.473 420.461 347.083L425.307 350.01L421.74 343.824C411.881 326.731 408.981 310.964 413.546 299.25L416.053 292.822L421.928 290.259C434.822 284.63 449.706 290.541 455.016 303.398L458.242 311.204L456.725 320.085C455.891 324.97 452.098 336.275 448.294 345.207L441.378 361.447L450.733 370.109C461.641 380.206 463.138 380.381 459.258 371.102C449.762 348.388 465.145 319.192 482.933 326.17C494.576 330.736 494.254 344.245 481.852 371.338L473.611 389.341L475.196 393.578C476.068 395.909 479.542 401.591 482.914 406.203C499.563 428.974 510.002 450.244 524.304 490.55C535.76 522.832 539.508 532.326 540.611 531.845C543.057 530.777 539.883 519.137 533.919 507.302C521.692 483.038 526.041 462.37 543.762 460.529C561.756 458.661 565.844 469.878 556.162 494.562C549.82 510.732 546.187 530.595 550.21 527.112C559.423 519.136 567.107 498.46 568.559 477.74L569.448 465.047L564.045 460.271C560.596 457.224 551.224 452.265 538.16 446.57C508.572 433.673 499.033 425.537 496.38 410.942L495.191 404.397L498.459 398.515C504.614 387.436 520.483 386.11 533.319 395.604C539.297 400.025 542.564 405.706 555.828 434.756C568.958 463.513 569.498 463.138 566.26 427.47L563.856 400.983L560.13 394.848L556.408 388.711L541.135 384.939C516.746 378.913 503.276 368.783 502.213 355.67L501.683 349.139L505.62 343.816C508.05 340.531 511.649 337.972 515.025 337.128L520.491 335.762L529.156 339.2C541.765 344.2 547.26 350.792 556.164 371.593L563.875 389.606L566.109 385.444C567.337 383.155 569.039 378.229 569.893 374.499L571.445 367.719L562.476 352.143C549.013 328.766 548.328 311.434 560.656 306.052C572.435 300.91 583.598 311.562 585.092 329.371L586.034 340.619L582.232 354.265C574.085 383.496 574.117 383.623 586.984 372.542L596.172 364.627L604.373 363.139C608.884 362.321 615.741 362.42 619.61 363.363L626.645 365.078L629.465 369.9L632.283 374.721L629.1 382.838C622.56 399.511 611.171 404.551 587.131 401.412C578.536 400.29 572.581 400.3 572.134 401.439C571.727 402.478 572.559 416.391 573.985 432.357L576.579 461.387L579.462 457.38C581.049 455.176 585.254 449.285 588.807 444.29L595.266 435.21L604.184 431.163C622.61 422.805 640.109 435.198 635.292 453.195C631.847 466.065 623.52 470.134 597.395 471.719C588.928 472.233 580.928 473.732 579.317 475.104L576.427 477.566L575.263 487.22C574.621 492.53 573.413 498.614 572.578 500.742C570.699 505.534 571.035 505.666 578.067 502.899C585.74 499.88 595.423 499.077 603.319 500.803L609.856 502.233L612.603 508.17C615.806 515.099 615.122 525.149 611.001 531.733C606.928 538.241 596.124 540.626 576.604 539.325C558.646 538.127 554.071 539.196 551.743 545.132C549.349 551.234 552.16 555.009 589.584 595.97C608.194 616.338 624.239 634.877 625.238 637.166C628.53 644.707 622.365 647.899 618.709 640.546C616.18 635.461 546.459 558.598 545.829 560.202C545.559 560.892 545.736 564.857 546.224 569.015L547.113 576.574L542.05 589.148L536.986 601.721L531.41 606.617C522.541 614.403 507.015 618.227 498.239 614.785C472.41 604.654 483.483 576.628 520.629 558.118C528.854 554.019 528.838 553.859 520.245 554.048C495.082 554.602 477.036 529.799 495.493 520.028L500.708 517.267L510.117 520.957C515.291 522.987 522.216 526.365 525.506 528.463L531.489 532.277L523.072 509.095C518.442 496.345 514.162 485.72 513.563 485.485C512.964 485.25 510.124 488.567 507.252 492.857C496.214 509.341 478.47 513.85 475.752 500.859L474.829 496.445L478.117 492.795C479.925 490.787 485.76 487.191 491.082 484.803C496.404 482.416 500.26 480.267 499.651 480.028C496.031 478.608 478.22 482.038 467.773 486.166C451.535 492.584 435.46 494.366 424.253 490.99L415.57 488.372L411.969 483.479C404.347 473.123 412.341 463.212 429.439 461.82L439.015 461.042L456.587 468.158C486.159 480.133 492.519 477.803 465.424 464.92C438.442 452.09 430.825 442.929 436.053 429.6C440.649 417.882 454.213 412.536 466.81 417.477L473.164 419.969L483.332 444.561L493.496 469.154L498.304 471.975C500.947 473.526 505.04 474.786 507.399 474.775L511.69 474.754L503.024 455.29C493.194 433.213 474.955 405.866 458.261 388.172L447.399 376.658L437.761 372.843C426.888 368.54 419.335 368.729 405.33 373.649C393.213 377.906 393.665 378.512 415.307 387.001L434.799 394.646L438.455 399.52C445.152 408.451 442.106 420.4 432.626 422.383L428.135 423.324L418.675 418.447C408.952 413.436 398.069 403.963 396.469 399.119C393.852 391.194 391.446 395.546 393.854 403.849C395.318 408.898 396.928 418.2 397.432 424.521L398.349 436.013L393.896 447.112C390.968 454.406 387.967 459.495 385.14 461.956C372.107 473.305 351.572 465.878 350.241 449.334L349.702 442.624L354.892 429.245C358.378 420.258 361.885 413.762 365.576 409.457C372.19 401.742 379.597 390.121 378.239 389.588C376.66 388.969 337.145 420.351 331.839 426.438L326.989 432.004L331.64 441.536C342.627 464.049 342.567 475.772 331.393 489.187C319.484 503.487 300.586 497.675 299.312 479.321L298.848 472.649L305.617 458.027C309.34 449.984 313.741 441.238 315.398 438.591L318.41 433.778L313.912 435.439C311.438 436.352 304.663 440.511 298.855 444.679C280.264 458.021 264.725 461.484 249.723 455.634L241.81 452.544L239.174 446.503C236.114 439.492 236.849 436.887 243.806 430.132C254.925 419.337 267.884 418.238 288.532 426.336L303.194 432.087L311.174 428.604C319.584 424.932 339.63 410.342 338.819 408.484C338.557 407.884 334.783 409.355 330.433 411.753C324.71 414.908 318.131 416.462 306.629 417.375L290.734 418.637L282.93 415.576C264.136 408.205 259.179 394.878 271.976 386.13C282.338 379.047 296.009 381.139 317.617 393.115C324.406 396.877 333.629 400.89 338.115 402.033L346.269 404.112L351.678 399.693C375.961 379.855 401.828 365.478 417.102 363.325C422.462 362.57 426.505 361.221 426.085 360.328C425.21 358.463 407.459 347.951 400.726 345.311L396.208 343.538L388.329 350.584C383.994 354.46 377.142 362.109 373.103 367.584C353.535 394.107 337.056 398.95 321.359 382.788C300.834 361.656 330.785 336.799 372.613 340.253C386.953 341.437 388.598 339.966 376.569 336.716C344.989 328.186 304.913 331.328 264.798 345.48C251.038 350.334 250.442 351.53 254.659 365.847C258.379 378.474 257.988 390.137 253.454 401.697L250.378 409.54L243.712 412.979L237.047 416.419L231.167 414.113C214.267 407.484 217.634 381.99 238.347 359.748C242.364 355.435 237.254 357.107 223.644 364.561C207.516 373.394 206.98 374.508 208.751 395.624C211.688 430.655 197.389 453.961 177.698 446.238L172.119 444.05L169.062 437.649L166.005 431.249L171.732 419.428C175.143 412.39 181.508 402.709 187.462 395.503C192.962 388.845 197.212 382.827 196.907 382.129C196.27 380.669 196.952 380.273 180.835 391.526L168.524 400.121L164.034 411.792L159.545 423.462L153.581 429.38C146.766 436.141 134.916 442.019 127.827 442.153L122.997 442.243L118.589 438.584C104.624 426.998 126.174 401.778 152.283 399.152L158.684 398.509L175.41 386.571C198.339 370.202 198.167 369.499 173.485 378.608C164.23 382.023 153.258 385.041 149.1 385.314C130.023 386.567 121.326 374.082 124.836 363.2ZM131.477 361.012C130.096 362.512 133.846 362.876 143.063 362.631C149.629 362.457 158.34 362.647 162.42 363.053C174.819 364.285 176.187 361.719 165.389 357.484C154.346 353.152 148.976 353.046 139.429 356.973C134.98 358.803 132.305 360.113 131.477 361.012ZM129.828 368.766C128.989 371.168 133.141 375.559 138.863 377.854L144.985 380.311L155.976 377.895C169.43 374.938 182.443 369.311 178.974 367.951C171.927 365.187 134.165 365.123 130.503 367.869C130.17 368.119 129.948 368.422 129.828 368.766ZM121.692 423.291C121.65 424.837 126.543 422.911 135.107 417.407C151.971 406.568 153.066 405.747 151.48 405.125C149.117 404.198 132.525 412.218 127.37 416.779C123.519 420.186 121.717 422.363 121.692 423.291ZM190.226 279.826C189.788 280.459 190.074 282.135 190.807 284.838C192.988 292.89 199.896 297.787 217.778 303.958C239.051 311.299 241.219 309.518 222.772 299.855C214.724 295.639 204.361 289.165 199.745 285.467C193.7 280.622 190.957 278.772 190.226 279.826ZM171.511 330.809C170.267 332.927 172.259 338.774 176.154 343.722C181.619 350.664 186.747 353.069 182.367 346.636C180.941 344.54 178.258 339.894 176.406 336.311C174.553 332.728 172.682 329.952 172.247 330.142C171.933 330.278 171.689 330.506 171.511 330.809ZM195.22 275.063C193.945 278.314 210.393 290.323 228.174 299.124C234.683 302.345 240.082 304.716 240.17 304.393C240.508 303.179 231.153 289.367 226.234 283.818C217.803 274.307 197.738 268.643 195.22 275.063ZM207.57 335.325L206.366 338.443L216.429 333.481C221.964 330.751 229.365 328.068 232.877 327.521C240.155 326.386 238.279 324.959 229.754 325.146C222.288 325.311 209.1 331.361 207.57 335.325ZM173.061 427.221L173.516 431.288C174.062 436.184 175.515 438.469 178.969 439.857L181.557 440.902L189.416 420.432C193.738 409.175 197.452 398.108 197.672 395.839L198.073 391.714L190.918 400.898C186.983 405.948 181.356 413.937 178.413 418.651L173.061 427.221ZM213.316 339.149C213.212 339.377 213.194 339.587 213.277 339.779C214.181 341.85 221.277 341.17 228.94 338.277C236.453 335.442 242.919 331.371 241.066 330.645C236.504 328.855 214.895 335.752 213.316 339.149ZM254.129 256.683C249.92 264.023 255.378 286.862 263.666 296.591C268.215 301.931 268.144 299.444 263.446 288.9C260.965 283.332 258.273 273.073 257.464 266.103L255.994 253.431L254.129 256.683ZM199.163 403.538C197.832 406.766 196.135 411.246 193.988 417.084C185.575 439.955 185.22 443.397 191.742 438.771C195.985 435.76 203.604 421.66 203.521 416.971C203.496 415.549 203.559 410.371 203.661 405.465C203.869 395.44 203.156 393.854 199.163 403.538ZM260.239 249.017L260.289 256.342C260.379 269.545 262.252 278.079 268.436 293.479L274.533 308.658L277.572 300.431C287.485 273.596 281.342 249.238 264.617 249.063L260.239 249.017ZM229.039 384.689C225.788 393.811 225.643 403.924 230.169 407.593L233.087 409.959L233.941 407.18C234.41 405.652 235.442 399.262 236.234 392.978C237.027 386.695 238.264 378.726 238.986 375.268L240.298 368.981L237.904 370.945C234.058 374.099 230.989 379.216 229.039 384.689ZM246.091 362.59L243.351 372.647C240.73 382.264 237.677 399.76 237.636 405.41C237.606 409.422 239.741 409.484 244.173 405.599C249.42 400.999 250.404 397.859 251.407 382.506C251.682 378.291 250.599 372.086 249 368.716L246.091 362.59ZM245.344 436.943C245.251 438.254 249.46 437.887 259.469 436.434C267.263 435.302 277.348 434.482 281.881 434.612C293.647 434.948 293.181 432.605 280.795 429.153C268.322 425.677 257.5 426.898 249.835 432.646C247.006 434.766 245.4 436.157 245.344 436.943ZM301.683 296.094C300.696 297.956 304.632 302.321 310.509 305.492C315.886 308.394 321.193 309.809 330.067 310.71C336.765 311.39 344.252 311.727 346.703 311.459L351.16 310.972L347.991 308.637C339.921 302.688 307.399 293.285 302.415 295.461C302.065 295.614 301.824 295.828 301.683 296.094ZM304.197 290.542C304.205 291.568 307.392 292.25 314.813 293.321C321.948 294.351 329.677 296.799 338.802 300.914C352.435 307.062 353.588 307.384 351.39 304.454C343.048 293.329 316.651 283.558 307.387 288.165C305.332 289.187 304.192 289.926 304.197 290.542ZM245.25 444.451L244.369 446.697L252.064 449.715C262.258 453.713 272.519 452.77 284.57 446.729C299.413 439.287 298.597 437.874 279.494 437.928C264.66 437.97 246.43 441.442 245.25 444.451ZM270.719 398.571C270.096 401.102 274.97 405.602 283.936 409.119L292.919 412.642L307.887 411.235C320.176 410.08 328.312 407.685 324.727 406.279C322.074 405.238 283.771 397.437 278.079 396.778C273.446 396.242 271.093 397.052 270.719 398.571ZM275.612 391.496C276.079 392.669 281.788 393.852 297.028 397.017C307.559 399.205 316.537 400.838 316.978 400.645C319.035 399.748 309.621 394.918 298.008 390.911L285.188 386.488L279.506 388.969C276.937 390.09 275.332 390.791 275.612 391.496ZM324.423 362.787C320.337 373.077 321.858 374.669 329.859 368.472C333.242 365.851 344.451 359.807 354.769 355.042L373.527 346.377L368.713 345.691C360.424 344.508 344.157 347.039 335.777 350.817L327.734 354.442L324.423 362.787ZM374.784 276.085C373.374 279.416 372.28 283.833 371.385 289.613L370.058 298.17L377.356 284.609C381.371 277.15 385.439 270.46 386.397 269.741C389.679 267.28 383.723 266.655 380.074 269.078C377.918 270.509 376.193 272.755 374.784 276.085ZM305.153 469.68L305.303 476.029C305.384 479.52 306.758 484.221 308.356 486.474C312.547 492.382 314.311 490.308 316.078 477.392C316.935 471.134 318.846 460.475 320.323 453.707C323.657 438.427 321.702 439.06 312.399 456.274L305.153 469.68ZM358.667 434.805C354.722 447.301 356.475 458.124 364.758 461.373C365.974 461.85 366.448 457.238 365.941 449.847L365.398 441.926L372.348 422.388L379.302 402.848L371.741 411.777C365.45 419.207 361.033 427.307 358.667 434.805ZM417.823 301.138L417.392 309.229C416.917 318.176 422.606 335.416 428.101 341.684C433.104 347.392 433.293 346.635 430.688 331.422C429.404 323.918 428.056 312.807 427.693 306.73C426.971 294.648 425.482 292.7 420.859 297.793L417.823 301.138ZM382.298 404.229C377.611 416.687 369.094 442.46 368.815 445.994C368.641 448.194 368.958 452.656 369.517 455.909L370.536 461.82L374.117 461.152C376.087 460.785 379.526 458.767 381.762 456.667C388.156 450.663 393.188 434.705 392.026 424.109C391.393 418.339 386.208 397.964 385.261 397.526C384.996 397.403 383.861 400.077 382.298 404.229ZM431.259 295.195C429.289 303.053 435.376 349.586 438.685 348.985C443.367 348.134 452.403 316.909 450.542 308.015C448.918 300.253 436.177 290.856 431.763 294.166C431.556 294.321 431.39 294.672 431.259 295.195ZM398.57 390.422C398.46 391.272 399.832 393.834 402.735 397.746C408.574 405.615 415.866 411.171 425.149 414.827C429.026 416.352 432.445 416.972 432.746 416.203C433.586 414.062 432.494 413.137 419.673 405.127C413.115 401.029 405.747 395.738 403.303 393.369C400.273 390.434 398.681 389.572 398.57 390.422ZM405.944 390.645L409.656 394.281C411.698 396.281 418.252 400.772 424.22 404.261C436.495 411.436 437.846 411.58 434.833 405.408C431.99 399.584 425.458 395.494 414.757 392.835L405.944 390.645ZM465.464 341.87C462.339 348.553 461.21 357.459 463.252 364.767C465.052 371.21 465.958 369.99 467.73 358.743C468.589 353.291 471.224 344.977 473.764 339.701L478.274 330.338L472.99 333.07C469.932 334.652 467.339 337.861 465.464 341.87ZM415.8 476.659L416.698 479.379C418.125 483.7 430.203 487.538 440.154 486.833C450.026 486.133 463.186 482.85 460.439 481.773C456.689 480.302 429.423 476.567 422.769 476.612L415.8 476.659ZM417.937 472.045C417.811 472.881 419.673 473.351 423.552 473.266C427.068 473.189 435.396 474.063 442.059 475.208C459.046 478.128 461.05 477.454 451.237 472.117C441.534 466.841 432.867 465.72 424.248 468.631C420.176 470.007 418.062 471.208 417.937 472.045ZM440.561 431.211C437.578 438.816 445.94 448.574 463.768 458.29C473.549 463.621 473.932 461.433 464.703 452.944C460.6 449.169 454.258 441.928 450.611 436.854C443.904 427.522 442.35 426.65 440.561 431.211ZM475.228 343.65C472.598 350.257 470.366 359.092 469.896 367.73C469.351 377.749 470.806 378.368 475.436 370.091C481.436 359.364 485.469 347.263 485.335 340.386C485.091 327.809 479.61 332.637 475.228 343.65ZM448.227 424.767C446.908 428.13 457.771 442.419 469.575 452.85C475.433 458.027 481.001 462.302 481.946 462.351C484.317 462.475 475.923 438.585 470.391 429.468L465.868 422.014L461.661 421.45C455.641 420.645 449.222 422.23 448.227 424.767ZM508.191 350.547C507.882 351.297 507.757 352.541 507.697 354.237C507.434 361.598 513.674 367.886 527.455 374.143C540.881 380.239 544.063 379.441 534.484 372.381C531.096 369.884 524.211 363.547 519.182 358.301C511.707 350.502 509.119 348.299 508.191 350.547ZM512.049 344.08C511.912 344.331 511.911 344.625 512.074 344.965C513.597 348.145 530.548 365.554 536.855 370.416C540.963 373.582 546.223 376.672 548.545 377.284L552.768 378.396L547.98 367.689C541.99 354.293 537.231 349.18 527.04 345.182C520.785 342.729 513.021 342.322 512.049 344.08ZM502.564 403.6C501.748 406.228 502.419 411.12 504.733 415.763C509.529 425.39 514.824 429.434 534.148 438.24C542.739 442.155 549.914 444.988 550.092 444.535C551.514 440.909 514.406 405.313 505.604 401.861C504.079 401.262 503.053 402.023 502.564 403.6ZM507.761 396.707C507.053 397.988 509.98 400.476 517.32 406.003C523.157 410.398 532.102 418.345 537.199 423.663C549.057 436.035 550.044 435.318 542.562 419.77C533.408 400.751 525.213 394.014 512.795 395.304C509.92 395.602 508.186 395.938 507.761 396.707ZM559.401 315.998C556.746 322.766 557.477 328.914 562.156 339.178C567.057 349.928 567.976 346.877 565.715 327.381C563.72 310.188 562.525 308.033 559.401 315.998ZM567.891 311.814C566.984 314.127 571.106 350.662 572.704 354.467L573.964 357.471L577.058 349.326C580.887 339.255 580.441 325.825 576.006 317.659C572.645 311.47 569.044 308.876 567.891 311.814ZM494.537 529.404L493.679 531.592C491.247 537.792 506.255 547.264 519.248 547.73C538.039 548.403 536.603 545.903 512.846 536.585L494.537 529.404ZM496.94 526.919L511.165 532.499C518.989 535.568 525.511 537.77 525.658 537.395C527.087 533.752 500.872 522.175 498.278 525.304L496.94 526.919ZM533.259 477.174C532.8 478.617 532.47 480.149 532.308 481.696C531.744 487.077 537.283 505.063 539.81 506.054C541.859 506.858 542 505.2 540.804 494.454C540.201 489.037 540.272 480.785 540.959 476.117L542.209 467.628L539.785 468.428C537.169 469.292 534.635 472.842 533.259 477.174ZM492.314 589.811C490.142 594.09 489.668 598.09 491.014 601.645C493.168 607.336 494.727 606.188 504.103 592.011C508.579 585.243 515.618 576.151 519.745 571.807C530.465 560.522 529.426 558.772 516.776 566.814C504.271 574.764 495.933 582.678 492.314 589.811ZM546.642 465.889L544.928 473.366C543.022 481.686 543.726 502.452 545.944 503.322C547.316 503.861 553.789 488.095 555.713 479.53C556.903 474.23 553.057 465.935 549.396 465.908L546.642 465.889ZM577.974 390.912C576.598 394.419 576.211 394.242 588.579 395.736C604.291 397.635 611.623 396.304 617.636 390.464C624.55 383.747 627.078 377.568 623.487 376.159C615.773 373.134 580.457 384.582 577.974 390.912ZM591.506 376.08C591.205 377.324 596.255 376.867 607.283 374.902C624.716 371.796 625.069 371.642 619.702 369.536C613.593 367.14 605.253 368.061 597.692 371.963C593.794 373.975 591.687 375.334 591.506 376.08ZM586.888 457.789C586.178 460.003 588.408 459.23 593.851 456.074C597.674 453.858 606.658 449.564 613.817 446.531C620.976 443.499 626.933 440.762 627.056 440.449C627.712 438.776 625.49 436.894 620.589 434.971C611.716 431.491 600.088 437.629 591.279 450.444C588.798 454.055 587.314 456.461 586.888 457.789ZM560.218 528.506C560.072 529.069 560.16 529.451 560.534 529.598C561.888 530.129 572.305 525.267 577.055 521.887C579.431 520.196 587.298 517.202 594.535 515.233C601.772 513.264 607.742 511.523 607.805 511.363C610.038 505.67 590.439 503.64 580.375 508.522C573.766 511.728 561.238 524.561 560.218 528.506Z" fill="black"/>
<path d="M131.226 361.404C131.265 361.283 131.348 361.153 131.477 361.013C132.305 360.113 134.98 358.804 139.429 356.974C148.976 353.047 154.346 353.153 165.39 357.484C176.187 361.72 174.819 364.286 162.42 363.053C158.34 362.648 149.63 362.458 143.063 362.632C134.999 362.846 131.121 362.593 131.202 361.522C131.205 361.484 131.213 361.444 131.226 361.404ZM129.828 368.766C129.948 368.423 130.17 368.119 130.504 367.869C134.166 365.123 171.928 365.187 178.975 367.951C182.443 369.311 169.43 374.938 155.976 377.896L144.985 380.311L138.864 377.855C133.141 375.559 128.989 371.169 129.828 368.766ZM121.786 422.886C121.845 422.731 121.933 422.556 122.049 422.362C122.747 421.199 124.482 419.334 127.37 416.779C132.525 412.218 149.117 404.199 151.48 405.126C153.066 405.748 151.971 406.568 135.107 417.408C126.544 422.912 121.651 424.837 121.692 423.291C121.695 423.175 121.726 423.041 121.786 422.886ZM121.04 432.213C122.217 429.55 129.549 424.656 148.002 412.683C153.621 409.037 158.847 406.301 159.615 406.602C162.183 407.61 152.518 423.224 146.293 428.125C138.672 434.125 129.066 437.441 124.497 435.649C121.844 434.608 120.334 433.811 121.04 432.213ZM171.405 331.018C171.437 330.945 171.471 330.875 171.511 330.809C171.689 330.506 171.933 330.278 172.247 330.142C172.682 329.952 174.553 332.728 176.406 336.311C178.258 339.894 180.941 344.54 182.367 346.636C186.746 353.069 181.619 350.664 176.154 343.722C172.38 338.929 170.394 333.292 171.405 331.018Z" fill="#515D3C" stroke="#515D3C" stroke-width="0.999999"/>
<path d="M190.097 280.112C190.131 280.001 190.173 279.906 190.228 279.827C190.959 278.773 193.702 280.623 199.748 285.467C204.363 289.165 214.726 295.639 222.774 299.855C241.22 309.518 239.053 311.299 217.78 303.958C199.898 297.787 192.99 292.89 190.809 284.839C190.168 282.473 189.868 280.893 190.097 280.112ZM195.221 275.063C197.739 268.644 217.804 274.307 226.235 283.818C231.153 289.367 240.508 303.179 240.171 304.393C240.083 304.716 234.683 302.345 228.175 299.124C210.394 290.323 193.946 278.314 195.221 275.063ZM207.57 335.325C209.101 331.362 222.29 325.311 229.755 325.147C238.279 324.959 240.156 326.386 232.878 327.521C229.366 328.068 221.965 330.751 216.43 333.481L206.367 338.444L207.57 335.325ZM173.062 427.221L178.414 418.649C181.356 413.936 186.984 405.947 190.919 400.896L198.074 391.712L197.673 395.838C197.453 398.106 193.738 409.173 189.416 420.431L181.558 440.901L178.97 439.856C175.516 438.467 174.063 436.183 173.517 431.287L173.062 427.221ZM213.316 339.149C214.896 335.752 236.504 328.855 241.067 330.645C242.92 331.371 236.453 335.442 228.94 338.277C221.278 341.17 214.182 341.85 213.278 339.779C213.194 339.587 213.211 339.376 213.316 339.149ZM253.762 257.415C253.873 257.156 253.998 256.913 254.129 256.683L255.994 253.431L257.464 266.103C258.273 273.073 260.965 283.332 263.446 288.9C268.145 299.444 268.216 301.931 263.666 296.591C255.896 287.47 250.613 266.826 253.451 258.234C253.544 257.947 253.651 257.674 253.762 257.415ZM196.883 409.332C197.743 407.079 198.499 405.152 199.165 403.539C203.159 393.855 203.872 395.441 203.663 405.466C203.561 410.371 203.498 415.549 203.523 416.972C203.606 421.661 195.988 435.761 191.744 438.771C185.222 443.398 185.578 439.955 193.99 417.084C195.064 414.166 196.024 411.586 196.883 409.332ZM260.24 249.017L264.617 249.063C281.343 249.238 287.486 273.597 277.572 300.432L274.534 308.659L268.437 293.479C262.253 278.079 260.38 269.545 260.29 256.342L260.24 249.017ZM229.417 383.668C231.377 378.585 234.299 373.902 237.905 370.945L240.299 368.981L238.987 375.268C238.265 378.726 237.027 386.695 236.235 392.979C235.443 399.262 234.411 405.652 233.942 407.18L233.088 409.959L230.17 407.593C225.643 403.924 225.789 393.811 229.039 384.689C229.159 384.346 229.289 384.008 229.417 383.668ZM246.092 362.59L249.001 368.716C250.6 372.086 251.682 378.292 251.407 382.506C250.405 397.859 249.421 400.999 244.174 405.599C239.742 409.484 237.607 409.422 237.636 405.411C237.678 399.76 240.731 382.264 243.351 372.648L246.092 362.59ZM245.439 436.621C245.822 435.799 247.361 434.501 249.836 432.646C257.5 426.898 268.323 425.677 280.796 429.153C293.181 432.605 293.647 434.951 281.881 434.614C277.348 434.484 267.263 435.303 259.469 436.434C249.461 437.887 245.252 438.254 245.345 436.943C245.35 436.844 245.383 436.738 245.439 436.621ZM301.605 296.277C301.626 296.214 301.653 296.152 301.685 296.095C301.828 295.83 302.067 295.615 302.418 295.462C307.401 293.286 339.923 302.689 347.993 308.638L351.162 310.973L346.706 311.46C344.254 311.728 336.768 311.391 330.069 310.711C321.195 309.81 315.888 308.395 310.511 305.493C304.818 302.421 300.944 298.228 301.605 296.277ZM304.247 290.306C304.49 289.738 305.589 289.06 307.388 288.166C316.652 283.559 343.049 293.33 351.391 304.454C353.588 307.384 352.436 307.062 338.802 300.914C329.678 296.799 321.949 294.352 314.814 293.321C307.393 292.25 304.206 291.568 304.197 290.542C304.198 290.466 304.215 290.388 304.247 290.306ZM245.251 444.451C246.431 441.443 264.661 437.97 279.494 437.928C298.597 437.874 299.413 439.288 284.571 446.729C272.52 452.77 262.258 453.713 252.065 449.715L244.37 446.697L245.251 444.451ZM270.813 398.294C271.397 396.956 273.736 396.276 278.079 396.778C283.772 397.438 322.075 405.238 324.728 406.279C328.313 407.685 320.177 410.08 307.888 411.235L292.92 412.643L283.937 409.119C274.971 405.603 270.097 401.103 270.72 398.571C270.743 398.476 270.774 398.383 270.813 398.294ZM275.594 391.23C275.614 391.141 275.666 391.053 275.743 390.962C276.197 390.415 277.581 389.81 279.508 388.969L285.19 386.488L298.009 390.912C309.623 394.918 319.036 399.748 316.98 400.646C316.539 400.838 307.561 399.205 297.029 397.018C281.79 393.853 276.081 392.669 275.614 391.496C275.579 391.408 275.572 391.318 275.594 391.23ZM305.154 469.68L312.399 456.274C321.703 439.06 323.658 438.428 320.323 453.707C318.846 460.475 316.935 471.134 316.079 477.392C314.311 490.307 312.548 492.382 308.357 486.474C306.759 484.221 305.385 479.52 305.303 476.029L305.154 469.68ZM325.69 447.048C325.829 446.707 325.969 446.423 326.104 446.192C327.194 444.349 328.197 445.945 329.95 449.569C337.466 465.116 335.757 477.33 324.607 487.76C316.733 495.125 316.171 490.359 321.741 463.443C323.313 455.847 324.368 450.977 325.257 448.24C325.407 447.785 325.547 447.387 325.69 447.048Z" fill="#515D3C" stroke="#515D3C" stroke-width="0.999999"/>
<path d="M324.423 362.787C320.337 373.076 321.858 374.669 329.859 368.472C333.242 365.851 344.451 359.807 354.769 355.042L373.527 346.377L368.713 345.691C360.424 344.508 344.158 347.039 335.777 350.817L327.735 354.442L324.423 362.787ZM324.629 375.857L326.613 378.98C329.258 383.147 337.306 386.143 343.989 385.45C350.395 384.785 359.28 376.792 369.867 362.168C373.804 356.731 378.03 351.136 379.26 349.735C382.737 345.775 346.985 361.449 335.172 369.063L324.629 375.857Z" fill="#515D3C" stroke="#515D3C" stroke-width="0.999999"/>
<path d="M374.784 276.085C376.194 272.755 377.918 270.509 380.074 269.078C383.724 266.655 389.679 267.28 386.397 269.741C385.439 270.46 381.371 277.151 377.357 284.609L370.058 298.17L371.385 289.613C372.281 283.833 373.374 279.416 374.784 276.085Z" fill="#515D3C" stroke="#515D3C" stroke-width="0.999999"/>
<path d="M376.593 294.207C374.743 299.687 374.006 304.84 374.475 309.351C375.304 317.333 376.989 316.753 386.254 305.29C391.585 298.693 396.072 291.361 398.381 285.476L402.045 276.135L400.295 272.613C396.315 264.611 391.399 266.973 382.887 280.975C381.321 283.552 379.959 286.112 378.811 288.629C377.95 290.517 377.209 292.38 376.593 294.207Z" fill="#515D3C" stroke="#515D3C" stroke-width="0.999999"/>
<path d="M417.823 301.138L420.859 297.793C425.483 292.7 426.971 294.648 427.693 306.731C428.056 312.808 429.404 323.918 430.689 331.422C433.294 346.636 433.104 347.392 428.101 341.685C422.606 335.417 416.917 318.176 417.392 309.229L417.823 301.138Z" fill="#515D3C" stroke="#515D3C" stroke-width="0.999999"/>
<path d="M431.259 295.195C431.39 294.671 431.558 294.321 431.763 294.166C436.177 290.856 448.919 300.253 450.543 308.015C452.404 316.909 443.368 348.134 438.686 348.985C435.377 349.586 429.289 303.052 431.259 295.195Z" fill="#515D3C" stroke="#515D3C" stroke-width="0.999999"/>
<path d="M465.465 341.87C467.34 337.86 469.933 334.652 472.991 333.07L478.275 330.338L473.765 339.701C471.224 344.976 468.59 353.291 467.731 358.743C465.959 369.989 465.053 371.209 463.253 364.767C461.211 357.459 462.34 348.553 465.465 341.87Z" fill="#515D3C" stroke="#515D3C" stroke-width="0.999999"/>
<path d="M475.229 343.65C479.611 332.637 485.092 327.809 485.336 340.386C485.469 347.263 481.436 359.364 475.436 370.091C470.806 378.368 469.351 377.75 469.897 367.73C470.366 359.092 472.6 350.258 475.229 343.65Z" fill="#515D3C" stroke="#515D3C" stroke-width="0.999999"/>
<path d="M405.945 390.645L414.758 392.834C425.458 395.494 431.99 399.584 434.833 405.408C437.846 411.58 436.495 411.436 424.221 404.261C418.252 400.772 411.698 396.281 409.657 394.281L405.945 390.645Z" fill="#515D3C" stroke="#515D3C" stroke-width="0.999999"/>
<path d="M398.571 390.422C398.681 389.572 400.274 390.434 403.303 393.369C405.748 395.738 413.115 401.029 419.674 405.127C432.494 413.137 433.587 414.061 432.747 416.203C432.445 416.971 429.026 416.352 425.15 414.827C415.866 411.171 408.574 405.615 402.736 397.746C399.833 393.833 398.46 391.272 398.571 390.422Z" fill="#515D3C" stroke="#515D3C" stroke-width="0.999999"/>
<path d="M360.824 429.088C363.359 423.298 367.023 417.349 371.741 411.778L379.302 402.849L372.348 422.388L365.398 441.926L365.941 449.847C366.448 457.238 365.974 461.85 364.758 461.373C356.475 458.124 354.722 447.302 358.667 434.805C359.258 432.93 359.979 431.018 360.824 429.088Z" fill="#515D3C" stroke="#515D3C" stroke-width="0.999999"/>
<path d="M382.298 404.229C383.861 400.077 384.995 397.403 385.261 397.526C386.208 397.964 391.393 418.339 392.026 424.109C393.188 434.705 388.156 450.663 381.762 456.667C379.526 458.767 376.087 460.785 374.117 461.152L370.536 461.82L369.518 455.909C368.958 452.656 368.641 448.194 368.815 445.994C369.094 442.46 377.611 416.687 382.298 404.229Z" fill="#515D3C" stroke="#515D3C" stroke-width="0.999999"/>
<path d="M415.8 476.659L422.769 476.612C429.423 476.567 456.689 480.302 460.439 481.773C463.186 482.85 450.026 486.134 440.153 486.833C430.203 487.538 418.125 483.7 416.698 479.379L415.8 476.659Z" fill="#515D3C" stroke="#515D3C" stroke-width="0.999999"/>
<path d="M417.937 472.045C418.063 471.209 420.176 470.007 424.249 468.632C432.868 465.721 441.535 466.841 451.238 472.118C461.051 477.454 459.047 478.128 442.059 475.209C435.396 474.064 427.068 473.189 423.552 473.266C419.674 473.352 417.812 472.881 417.937 472.045Z" fill="#515D3C" stroke="#515D3C" stroke-width="0.999999"/>
<path d="M440.561 431.212C442.35 426.65 443.904 427.523 450.612 436.855C454.259 441.928 460.6 449.169 464.704 452.945C473.932 461.433 473.549 463.621 463.768 458.291C445.94 448.574 437.578 438.817 440.561 431.212Z" fill="#515D3C" stroke="#515D3C" stroke-width="0.999999"/>
<path d="M448.227 424.767C449.222 422.231 455.64 420.645 461.661 421.451L465.868 422.015L470.391 429.469C475.922 438.586 484.317 462.475 481.946 462.352C481 462.303 475.433 458.027 469.575 452.851C457.771 442.42 446.908 428.13 448.227 424.767Z" fill="#515D3C" stroke="#515D3C" stroke-width="0.999999"/>
<path d="M502.563 403.6C503.053 402.023 504.079 401.261 505.604 401.859C514.406 405.312 551.515 440.907 550.092 444.534C549.914 444.988 542.738 442.158 534.147 438.241C514.824 429.435 509.53 425.388 504.733 415.762C502.419 411.119 501.748 406.227 502.563 403.6Z" fill="#515D3C" stroke="#515D3C" stroke-width="0.999999"/>
<path d="M507.761 396.706C508.186 395.937 509.92 395.602 512.795 395.304C525.213 394.014 533.409 400.75 542.562 419.769C550.045 435.317 549.058 436.035 537.199 423.662C532.102 418.345 523.157 410.398 517.32 406.003C509.98 400.476 507.053 397.988 507.761 396.706Z" fill="#515D3C" stroke="#515D3C" stroke-width="0.999999"/>
<path d="M508.19 350.547C509.12 348.299 511.706 350.501 519.182 358.3C524.21 363.547 531.095 369.884 534.483 372.381C544.063 379.441 540.88 380.239 527.455 374.143C513.674 367.885 507.434 361.598 507.696 354.237C507.757 352.54 507.881 351.296 508.19 350.547Z" fill="#515D3C" stroke="#515D3C" stroke-width="0.999999"/>
<path d="M512.049 344.079C513.02 342.322 520.785 342.729 527.039 345.182C537.23 349.179 541.989 354.293 547.98 367.689L552.767 378.396L548.545 377.284C546.222 376.672 540.962 373.582 536.855 370.415C530.547 365.554 513.597 348.144 512.073 344.964C511.91 344.625 511.91 344.331 512.049 344.079Z" fill="#515D3C" stroke="#515D3C" stroke-width="0.999999"/>
<path d="M559.401 315.999C562.525 308.033 563.72 310.189 565.715 327.382C567.977 346.877 567.057 349.928 562.157 339.178C557.478 328.914 556.747 322.766 559.401 315.999Z" fill="#515D3C" stroke="#515D3C" stroke-width="0.999999"/>
<path d="M567.892 311.814C569.044 308.876 572.646 311.47 576.006 317.659C580.441 325.825 580.887 339.255 577.059 349.326L573.965 357.47L572.704 354.467C571.107 350.662 566.985 314.127 567.892 311.814Z" fill="#515D3C" stroke="#515D3C" stroke-width="0.999999"/>
<path d="M591.506 376.08C591.687 375.334 593.794 373.975 597.693 371.963C605.253 368.061 613.593 367.14 619.702 369.536C625.069 371.641 624.716 371.796 607.283 374.902C596.256 376.867 591.205 377.324 591.506 376.08Z" fill="#515D3C" stroke="#515D3C" stroke-width="0.999999"/>
<path d="M577.974 390.912C580.457 384.581 615.774 373.134 623.487 376.159C627.078 377.568 624.551 383.747 617.636 390.463C611.623 396.304 604.292 397.634 588.579 395.736C576.212 394.242 576.599 394.419 577.974 390.912Z" fill="#515D3C" stroke="#515D3C" stroke-width="0.999999"/>
<path d="M586.888 457.79C586.178 460.004 588.408 459.23 593.851 456.075C597.674 453.859 606.658 449.564 613.817 446.532C620.976 443.499 626.934 440.762 627.056 440.449C627.713 438.776 625.491 436.894 620.589 434.972C611.717 431.492 600.089 437.629 591.28 450.445C588.798 454.055 587.314 456.461 586.888 457.79ZM586.732 464.656C585.76 467.133 612.34 465.311 619.213 462.43L626.481 459.384L628.748 453.605C631.739 445.98 630.088 444.292 621.924 446.62C614.876 448.63 587.518 462.651 586.732 464.656Z" fill="#515D3C" stroke="#515D3C" stroke-width="0.999999"/>
<path d="M533.259 477.174C534.635 472.842 537.169 469.292 539.785 468.428L542.209 467.628L540.959 476.117C540.272 480.786 540.201 489.037 540.804 494.454C542 505.2 541.859 506.858 539.81 506.055C537.283 505.064 531.744 487.077 532.308 481.696C532.47 480.149 532.8 478.618 533.259 477.174Z" fill="#515D3C" stroke="#515D3C" stroke-width="0.999999"/>
<path d="M546.642 465.889L549.397 465.909C553.057 465.936 556.903 474.23 555.713 479.531C553.789 488.095 547.316 503.861 545.944 503.323C543.726 502.453 543.022 481.687 544.928 473.366L546.642 465.889Z" fill="#515D3C" stroke="#515D3C" stroke-width="0.999999"/>
<path d="M560.218 528.506C560.072 529.069 560.16 529.451 560.534 529.598C561.888 530.129 572.305 525.267 577.055 521.887C579.431 520.196 587.299 517.201 594.535 515.233C601.772 513.264 607.742 511.523 607.805 511.363C610.038 505.67 590.439 503.64 580.375 508.522C573.766 511.728 561.238 524.56 560.218 528.506ZM564.711 531.718L570.768 532.9C580.684 534.834 595.063 534.393 600.58 531.985C605.914 529.656 609.798 522.96 608.805 517.807L608.292 515.142L600.212 517.006C592.39 518.809 577.989 524.519 569.061 529.36L564.711 531.718Z" fill="#515D3C" stroke="#515D3C" stroke-width="0.999999"/>
<path d="M496.94 526.92L498.278 525.305C500.872 522.176 527.087 533.753 525.658 537.396C525.511 537.771 518.989 535.568 511.165 532.499L496.94 526.92Z" fill="#515D3C" stroke="#515D3C" stroke-width="0.999999"/>
<path d="M494.537 529.404L512.846 536.585C536.603 545.904 538.039 548.403 519.248 547.73C506.254 547.265 491.247 537.793 493.679 531.592L494.537 529.404Z" fill="#515D3C" stroke="#515D3C" stroke-width="0.999999"/>
<path d="M491.006 592.966C491.334 591.934 491.771 590.881 492.314 589.811C495.933 582.678 504.271 574.764 516.776 566.814C529.426 558.772 530.466 560.522 519.745 571.808C515.618 576.152 508.579 585.243 504.103 592.011C494.727 606.188 493.168 607.337 491.014 601.645C490.005 598.979 490.019 596.063 491.006 592.966Z" fill="#515D3C" stroke="#515D3C" stroke-width="0.999999"/>
<path d="M498.503 606.628C496.197 612.506 516.883 610.23 525.673 603.638L530.938 599.689L535.854 588.601L540.769 577.51L540.187 568.164C539.867 563.023 538.839 558.957 537.903 559.127C532.887 560.039 502.325 596.883 498.503 606.628Z" fill="#515D3C" stroke="#515D3C" stroke-width="0.999999"/>
<path d="M505.686 487.138L500.771 495.183L494.515 499.916L485.104 502.971L481.246 502.337L505.686 487.138Z" fill="#515D3C" stroke="#515D3C" stroke-width="0.999999"/>
<path d="M499.768 485.403L489.295 488.921L482.304 493.659L478.507 498.476L499.768 485.403Z" fill="#515D3C" stroke="#515D3C" stroke-width="0.999999"/>
</g>
</g>
<defs>
<clipPath id="clip0_2835_8044">
<rect width="314.5" height="568.601" fill="white" transform="matrix(-0.365143 0.930952 0.930952 0.365143 203.908 161.515)"/>
</clipPath>
</defs>
</svg>
