<svg width="527" height="384" viewBox="0 0 527 384" fill="none" xmlns="http://www.w3.org/2000/svg">
<g clip-path="url(#clip0_3034_388)">
<g opacity="0.23">
<g clip-path="url(#clip1_3034_388)">
<path d="M12.3737 127.771C14.4797 121.241 20.9798 115.289 32.2697 113.225L40.9801 111.634L55.337 117.395L69.694 123.157L62.2716 115.509C51.3246 104.23 49.4144 91.2121 58.1477 87.3995C66.5541 83.7297 75.9711 94.7467 79.9786 112.94C81.8711 121.532 84.0895 127.022 86.477 129.015L90.1048 132.041L99.9573 126.642C111.602 120.263 152.538 102.101 161.975 99.1271C170.42 96.4656 169.854 95.5579 157.846 92.4921L148.014 89.9831L134.552 99.2601C113.735 113.608 95.1846 115.758 89.5738 104.475C84.0444 93.355 101.642 83.574 126.114 84.1658C146.812 84.6664 143.916 81.1256 121.469 78.4878C98.4939 75.7878 78.4062 65.7371 73.4926 54.4817L70.7948 48.2978L73.2604 42.0115C81.3841 21.2997 110.356 29.8049 128.46 58.2151C136.798 71.3 145.631 80.016 155.369 84.7666C167.302 90.5883 167.352 88.732 155.62 75.459C125.247 41.0991 127.96 -2.66507 159.69 9.78062C175.143 15.8415 179.699 34.363 172.274 60.946C167.303 78.7393 167.814 82.1982 176.281 88.0863L182.74 92.5794L203.204 90.6254C221.444 88.8836 237.577 89.0993 251.584 91.2731L256.257 91.9974L255.178 89.5292C253.373 85.3964 242.229 82.4308 226.037 81.775L210.651 81.152L200.055 76.9959C179.144 68.7942 175.428 55.4188 192.044 48.1648L199.821 44.7718L209.432 46.4092L219.046 48.0475L227.772 53.467C232.571 56.4468 240.193 62.2184 244.712 66.2933C249.231 70.3684 252.866 73.1118 252.791 72.39C251.849 63.4174 252.3 55.2789 254.215 46.6848L256.531 36.2881L261.623 31.6215C267.059 26.6387 278.597 23.9523 284.625 26.2672C299.114 31.8307 297.404 48.93 280.111 71.404C265.681 90.1565 266.104 91.6733 288.645 102.048C296.624 105.721 305.334 110.045 308 111.655L312.845 114.581L309.278 108.395C299.419 91.3021 296.519 75.5353 301.084 63.8214L303.591 57.393L309.466 54.8301C322.36 49.2013 337.244 55.112 342.554 67.9689L345.78 75.7749L344.263 84.6563C343.429 89.5413 339.636 100.847 335.833 109.778L328.916 126.018L338.271 134.68C349.179 144.778 350.676 144.952 346.796 135.673C337.3 112.959 352.683 83.7637 370.471 90.7409C382.115 95.3076 381.792 108.816 369.39 135.909L361.149 153.913L362.734 158.15C363.606 160.48 367.08 166.162 370.452 170.774C387.102 193.545 397.54 214.815 411.843 255.121C423.298 287.404 427.046 296.898 428.149 296.416C430.595 295.348 427.421 283.709 421.457 271.873C409.23 247.609 413.579 226.941 431.3 225.101C449.294 223.232 453.382 234.45 443.7 259.134C437.358 275.303 433.725 295.166 437.748 291.684C446.961 283.707 454.645 263.031 456.097 242.311L456.986 229.618L451.583 224.842C448.135 221.796 438.763 216.837 425.698 211.142C396.11 198.244 386.571 190.108 383.918 175.513L382.729 168.968L385.997 163.087C392.153 152.007 408.021 150.682 420.857 160.175C426.835 164.597 430.102 170.277 443.366 199.327C456.496 228.084 457.036 227.709 453.798 192.041L451.394 165.554L447.668 159.419L443.946 153.282L428.673 149.51C404.284 143.485 390.814 133.355 389.751 120.241L389.221 113.711L393.158 108.388C395.588 105.102 399.187 102.544 402.563 101.7L408.029 100.333L416.694 103.771C429.303 108.772 434.798 115.363 443.702 136.165L451.413 154.177L453.647 150.016C454.875 147.727 456.577 142.8 457.431 139.07L458.984 132.291L450.014 116.714C436.552 93.3378 435.866 76.005 448.194 70.6236C459.973 65.4814 471.136 76.1333 472.63 93.942L473.572 105.19L469.77 118.836C461.623 148.067 461.655 148.194 474.522 137.113L483.71 129.198L491.911 127.711C496.422 126.892 503.279 126.992 507.148 127.934L514.183 129.649L517.003 134.471L519.822 139.293L516.638 147.41C510.098 164.082 498.709 169.122 474.669 165.983C466.074 164.861 460.119 164.871 459.673 166.01C459.265 167.049 460.097 180.963 461.523 196.929L464.117 225.958L467.001 221.951C468.587 219.747 472.792 213.856 476.345 208.861L482.804 199.781L491.722 195.734C510.148 187.376 527.648 199.77 522.83 217.766C519.385 230.636 511.058 234.706 484.933 236.291C476.466 236.804 468.466 238.303 466.855 239.675L463.965 242.137L462.801 251.791C462.159 257.102 460.951 263.186 460.116 265.313C458.237 270.105 458.573 270.237 465.605 267.471C473.278 264.451 482.961 263.649 490.857 265.375L497.394 266.805L500.141 272.742C503.344 279.671 502.66 289.72 498.539 296.304C494.466 302.812 483.662 305.197 464.142 303.896C446.184 302.699 444.036 304.921 444.036 304.921L442.776 308.865L442.776 311.738L436.247 315.118C436.247 315.118 433.997 323.169 433.368 324.773C433.097 325.464 433.274 329.429 433.762 333.586L434.651 341.146L429.588 353.719L424.524 366.292L418.948 371.188C410.079 378.974 394.553 382.798 385.778 379.356C359.948 369.225 371.021 341.199 408.167 322.689C416.392 318.59 416.376 318.431 407.783 318.62C382.62 319.173 364.574 294.37 383.031 284.599L388.247 281.838L397.655 285.528C402.83 287.558 409.754 290.936 413.044 293.034L419.027 296.849L410.61 273.667C405.98 260.916 401.7 250.291 401.101 250.056C400.502 249.821 397.662 253.138 394.79 257.428C383.752 273.913 366.008 278.421 363.29 265.431L362.367 261.017L365.655 257.366C367.464 255.358 373.298 251.762 378.62 249.375C383.942 246.987 387.798 244.838 387.189 244.599C383.569 243.18 365.758 246.609 355.311 250.738C339.073 257.155 322.998 258.938 311.791 255.561L303.108 252.943L299.507 248.051C291.885 237.694 299.879 227.783 316.977 226.391L326.553 225.613L344.125 232.729C373.697 244.704 380.057 242.374 352.962 229.491C325.98 216.662 318.363 207.5 323.591 194.171C328.187 182.453 341.751 177.108 354.348 182.049L360.702 184.541L370.87 209.132L381.035 233.725L385.842 236.546C388.485 238.098 392.578 239.357 394.937 239.346L399.228 239.326L390.562 219.862C380.732 197.784 362.493 170.438 345.799 152.743L334.937 141.229L325.299 137.415C314.426 133.112 306.873 133.3 292.868 138.22C280.751 142.477 281.203 143.084 302.846 151.572L322.337 159.218L325.993 164.091C332.69 173.022 329.644 184.971 320.164 186.955L315.673 187.895L306.213 183.018C296.49 178.007 285.607 168.534 284.007 163.691C281.39 155.765 278.984 160.117 281.392 168.42C282.856 173.469 284.466 182.772 284.97 189.093L285.887 200.585L281.434 211.683C278.506 218.977 275.505 224.066 272.678 226.527C259.645 237.876 239.111 230.449 237.78 213.905L237.24 207.196L242.43 193.816C245.916 184.829 249.424 178.333 253.114 174.029C259.729 166.313 267.135 154.692 265.777 154.159C264.198 153.54 224.683 184.922 219.377 191.009L214.527 196.576L219.178 206.108C230.165 228.62 230.105 240.343 218.931 253.759C207.022 268.058 188.124 262.246 186.85 243.893L186.387 237.22L193.155 222.599C196.878 214.556 201.279 205.809 202.936 203.162L205.948 198.349L201.451 200.01C198.976 200.924 192.201 205.082 186.393 209.25C167.802 222.593 152.263 226.055 137.261 220.205L129.348 217.116L126.712 211.074C123.652 204.063 124.387 201.458 131.344 194.704C142.463 183.908 155.422 182.809 176.07 190.908L190.732 196.658L198.712 193.175C207.122 189.504 227.168 174.914 226.357 173.055C226.095 172.455 222.321 173.926 217.971 176.324C212.249 179.479 205.669 181.033 194.167 181.946L178.272 183.208L170.468 180.147C151.674 172.776 146.717 159.45 159.515 150.701C169.876 143.618 183.547 145.711 205.155 157.686C211.944 161.449 221.168 165.461 225.653 166.604L233.807 168.683L239.216 164.264C263.499 144.427 289.366 130.049 304.64 127.896C310 127.141 314.043 125.792 313.623 124.899C312.748 123.035 294.997 112.523 288.265 109.882L283.746 108.11L275.867 115.156C271.532 119.031 264.68 126.681 260.641 132.155C241.073 158.679 224.594 163.521 208.897 147.359C188.372 126.227 218.323 101.371 260.151 104.824C274.491 106.008 276.136 104.537 264.107 101.288C232.527 92.7571 192.451 95.8997 152.336 110.051C138.576 114.905 137.98 116.101 142.197 130.418C145.917 143.046 145.526 154.708 140.992 166.268L137.916 174.111L131.25 177.551L124.585 180.99L118.705 178.684C101.805 172.056 105.172 146.561 125.885 124.319C129.902 120.006 124.792 121.679 111.182 129.132C95.0541 137.965 94.5183 139.079 96.2886 160.195C99.2258 195.226 84.9273 218.532 65.2364 210.809L59.6568 208.621L56.5997 202.221L53.5426 195.821L59.2705 184C62.6813 176.962 69.0463 167.281 74.9999 160.074C80.4998 153.417 84.7499 147.398 84.4453 146.701C83.808 145.241 84.4904 144.844 68.3729 156.097L56.0625 164.692L51.5725 176.364L47.0833 188.033L41.1192 193.951C34.3039 200.712 22.4537 206.59 15.3653 206.724L10.5354 206.814L6.12696 203.156C-7.8377 191.57 13.7122 166.349 39.8208 163.723L46.2224 163.08L62.9479 151.142C85.8773 134.773 85.7055 134.071 61.0232 143.179C51.7684 146.594 40.7956 149.612 36.6379 149.885C17.561 151.139 8.86384 138.653 12.3737 127.771ZM19.0147 125.584C17.6344 127.083 21.3842 127.447 30.6008 127.203C37.1674 127.029 45.8776 127.219 49.9577 127.624C62.3569 128.857 63.7254 126.29 52.9273 122.055C41.8839 117.724 36.5143 117.617 26.9667 121.545C22.5181 123.375 19.8429 124.684 19.0147 125.584ZM17.3662 133.337C16.5272 135.74 20.6787 140.13 26.4013 142.426L32.5231 144.882L43.5139 142.466C56.9679 139.509 69.9807 133.882 66.5125 132.522C59.4652 129.758 21.7034 129.694 18.0415 132.44C17.7078 132.691 17.486 132.994 17.3662 133.337ZM9.22993 187.862C9.18832 189.408 14.0812 187.483 22.6446 181.979C39.5093 171.139 40.6036 170.318 39.0182 169.697C36.655 168.77 20.0629 176.789 14.9077 181.35C11.0568 184.757 9.25491 186.934 9.22993 187.862ZM77.7641 44.3974C77.3257 45.0298 77.6121 46.7059 78.3447 49.4096C80.5264 57.4609 87.4337 62.3582 105.316 68.5291C126.589 75.8701 128.757 74.0896 110.31 64.4261C102.262 60.2102 91.899 53.7362 87.2836 50.038C81.2378 45.1937 78.4946 43.3434 77.7641 44.3974ZM59.0494 95.3802C57.8048 97.4986 59.7968 103.346 63.6918 108.293C69.1573 115.236 74.2846 117.64 69.9051 111.207C68.4787 109.112 65.7965 104.466 63.9439 100.883C62.0913 97.2995 60.2206 94.5229 59.7853 94.7129C59.4715 94.8495 59.2273 95.0776 59.0494 95.3802ZM82.7583 39.6347C81.4832 42.8855 97.9308 54.8942 115.712 63.6949C122.221 66.916 127.62 69.2874 127.708 68.9645C128.046 67.75 118.691 53.9383 113.772 48.3896C105.341 38.8784 85.2764 33.2147 82.7583 39.6347ZM95.108 99.8964L93.9044 103.015L103.967 98.0521C109.502 95.3221 116.904 92.6395 120.415 92.0918C127.693 90.9568 125.817 89.5301 117.292 89.7176C109.827 89.8818 96.6384 95.9327 95.108 99.8964ZM60.5996 191.792L61.054 195.86C61.5997 200.756 63.0533 203.04 66.5071 204.429L69.0955 205.473L76.9538 185.004C81.2756 173.746 84.9899 162.679 85.21 160.41L85.6112 156.285L78.4564 165.469C74.5211 170.519 68.8936 178.508 65.9508 183.222L60.5996 191.792ZM100.854 103.721C100.75 103.948 100.732 104.159 100.815 104.35C101.72 106.422 108.815 105.741 116.478 102.849C123.991 100.013 130.457 95.9426 128.604 95.2158C124.042 93.4264 102.433 100.323 100.854 103.721ZM141.667 21.2547C137.458 28.5938 142.916 51.4337 151.204 61.162C155.753 66.5022 155.682 64.0151 150.984 53.4711C148.503 47.9037 145.811 37.6448 145.002 30.6744L143.532 18.0021L141.667 21.2547ZM86.7012 168.109C85.37 171.337 83.6733 175.818 81.5261 181.655C73.1131 204.526 72.7577 207.968 79.2797 203.342C83.5235 200.331 91.1418 186.231 91.0589 181.543C91.0338 180.12 91.097 174.942 91.1989 170.036C91.4074 160.011 90.6946 158.425 86.7012 168.109ZM147.777 13.588L147.827 20.9135C147.917 34.1165 149.79 42.6503 155.974 58.0503L162.071 73.2297L165.11 65.0028C175.023 38.1677 168.88 13.8091 152.155 13.634L147.777 13.588ZM116.577 149.26C113.326 158.383 113.181 168.495 117.707 172.164L120.625 174.53L121.479 171.752C121.948 170.224 122.98 163.833 123.773 157.55C124.565 151.266 125.802 143.297 126.524 139.839L127.836 133.552L125.442 135.516C121.596 138.67 118.527 143.787 116.577 149.26ZM133.629 127.161L130.889 137.219C128.268 146.835 125.216 164.331 125.174 169.982C125.144 173.993 127.279 174.055 131.711 170.17C136.958 165.57 137.942 162.43 138.945 147.077C139.22 142.863 138.137 136.657 136.538 133.287L133.629 127.161ZM132.883 201.515C132.789 202.825 136.998 202.459 147.007 201.005C154.801 199.874 164.886 199.054 169.419 199.183C181.185 199.52 180.719 197.176 168.334 193.725C155.861 190.248 145.038 191.469 137.373 197.217C134.544 199.338 132.938 200.728 132.883 201.515ZM189.221 60.6657C188.234 62.5274 192.17 66.8922 198.047 70.0636C203.424 72.9652 208.731 74.3799 217.605 75.281C224.303 75.9611 231.79 76.2985 234.241 76.0307L238.698 75.5431L235.529 73.2087C227.459 67.2591 194.937 57.8568 189.954 60.0323C189.603 60.1853 189.362 60.3997 189.221 60.6657ZM191.735 55.1133C191.743 56.1394 194.93 56.8212 202.351 57.8926C209.486 58.9224 217.215 61.37 226.34 65.4849C239.973 71.633 241.126 71.9551 238.928 69.025C230.586 57.9008 204.19 48.1298 194.925 52.7366C192.87 53.7586 191.73 54.4977 191.735 55.1133ZM132.788 209.022L131.907 211.268L139.602 214.286C149.796 218.284 160.057 217.341 172.108 211.3C186.951 203.859 186.135 202.445 167.032 202.499C152.198 202.541 133.968 206.014 132.788 209.022ZM158.257 163.142C157.634 165.674 162.508 170.174 171.474 173.69L180.457 177.214L195.425 175.806C207.714 174.651 215.85 172.256 212.265 170.85C209.613 169.81 171.309 162.009 165.617 161.35C160.984 160.813 158.631 161.623 158.257 163.142ZM163.15 156.067C163.617 157.24 169.326 158.423 184.566 161.589C195.097 163.776 204.075 165.409 204.517 165.217C206.573 164.319 197.159 159.489 185.546 155.483L172.726 151.059L167.044 153.54C164.476 154.661 162.87 155.363 163.15 156.067ZM211.961 127.359C207.875 137.648 209.396 139.241 217.397 133.043C220.78 130.423 231.989 124.379 242.307 119.613L261.065 110.949L256.251 110.262C247.962 109.079 231.696 111.611 223.315 115.388L215.273 119.013L211.961 127.359ZM262.322 40.6564C260.912 43.9869 259.818 48.404 258.923 54.1838L257.596 62.7408L264.895 49.1799C268.909 41.7218 272.977 35.0309 273.935 34.3126C277.217 31.8514 271.261 31.2264 267.612 33.649C265.456 35.0801 263.731 37.3258 262.322 40.6564ZM192.691 234.251L192.841 240.6C192.923 244.091 194.296 248.792 195.894 251.045C200.085 256.954 201.849 254.879 203.616 241.963C204.473 235.705 206.384 225.046 207.861 218.278C211.195 202.998 209.241 203.631 199.937 220.845L192.691 234.251ZM246.205 199.376C242.26 211.873 244.013 222.695 252.296 225.944C253.512 226.421 253.986 221.809 253.479 214.418L252.936 206.497L259.887 186.959L266.84 167.42L259.279 176.349C252.989 183.778 248.572 191.878 246.205 199.376ZM305.361 65.7093L304.93 73.7998C304.455 82.7468 310.144 99.9875 315.639 106.256C320.642 111.963 320.831 111.206 318.227 95.993C316.942 88.4892 315.594 77.3786 315.231 71.3017C314.509 59.2192 313.021 57.2709 308.397 62.3639L305.361 65.7093ZM269.836 168.801C265.149 181.258 256.632 207.031 256.353 210.565C256.179 212.766 256.496 217.228 257.056 220.48L258.074 226.391L261.655 225.724C263.625 225.356 267.064 223.338 269.301 221.238C275.694 215.234 280.726 199.276 279.564 188.681C278.931 182.91 273.746 162.536 272.799 162.097C272.535 161.974 271.399 164.648 269.836 168.801ZM318.797 59.7666C316.827 67.6239 322.914 114.157 326.224 113.556C330.905 112.705 339.941 81.4804 338.08 72.5864C336.456 64.8239 323.715 55.4276 319.301 58.7374C319.095 58.892 318.928 59.2429 318.797 59.7666ZM286.108 154.993C285.998 155.843 287.37 158.405 290.273 162.317C296.112 170.186 303.404 175.742 312.687 179.398C316.564 180.923 319.983 181.543 320.284 180.775C321.124 178.633 320.032 177.709 307.211 169.698C300.653 165.601 293.285 160.309 290.841 157.941C287.811 155.006 286.219 154.143 286.108 154.993ZM293.482 155.216L297.194 158.852C299.236 160.852 305.79 165.344 311.758 168.832C324.033 176.007 325.384 176.152 322.371 169.979C319.528 164.155 312.996 160.065 302.296 157.406L293.482 155.216ZM353.002 106.441C349.877 113.124 348.748 122.031 350.79 129.339C352.59 135.781 353.496 134.561 355.268 123.315C356.127 117.862 358.762 109.548 361.302 104.273L365.812 94.9093L360.528 97.6415C357.47 99.2233 354.877 102.432 353.002 106.441ZM303.339 241.23L304.236 243.95C305.663 248.271 317.741 252.109 327.692 251.404C337.564 250.705 350.725 247.422 347.977 246.344C344.227 244.873 316.961 241.138 310.307 241.183L303.339 241.23ZM305.475 236.616C305.349 237.452 307.211 237.922 311.09 237.837C314.606 237.76 322.934 238.634 329.597 239.78C346.585 242.699 348.588 242.025 338.775 236.688C329.072 231.412 320.405 230.292 311.786 233.203C307.714 234.578 305.6 235.78 305.475 236.616ZM328.099 195.782C325.116 203.388 333.478 213.145 351.306 222.862C361.087 228.192 361.47 226.004 352.241 217.515C348.138 213.74 341.796 206.499 338.15 201.425C331.442 192.094 329.888 191.221 328.099 195.782ZM362.767 108.221C360.136 114.829 357.904 123.663 357.434 132.301C356.889 142.32 358.344 142.939 362.974 134.662C368.974 123.935 373.007 111.835 372.873 104.958C372.629 92.3805 367.148 97.2084 362.767 108.221ZM335.765 189.338C334.446 192.701 345.309 206.99 357.113 217.421C362.972 222.598 368.539 226.873 369.484 226.923C371.855 227.046 363.461 203.156 357.929 194.04L353.407 186.585L349.199 186.022C343.179 185.216 336.76 186.801 335.765 189.338ZM395.729 115.118C395.42 115.868 395.295 117.112 395.235 118.809C394.972 126.17 401.212 132.457 414.993 138.714C428.419 144.81 431.601 144.013 422.022 136.952C418.634 134.456 411.749 128.118 406.72 122.872C399.245 115.073 396.657 112.87 395.729 115.118ZM399.587 108.651C399.45 108.903 399.449 109.196 399.612 109.536C401.135 112.716 418.086 130.126 424.393 134.987C428.501 138.153 433.761 141.244 436.083 141.855L440.306 142.967L435.519 132.261C429.528 118.864 424.769 113.751 414.578 109.754C408.323 107.3 400.559 106.893 399.587 108.651ZM390.102 168.171C389.286 170.799 389.957 175.691 392.271 180.335C397.068 189.961 402.362 194.006 421.686 202.811C430.277 206.726 437.453 209.559 437.63 209.106C439.053 205.48 401.944 169.884 393.142 166.432C391.617 165.834 390.591 166.594 390.102 168.171ZM395.299 161.278C394.591 162.56 397.518 165.047 404.858 170.574C410.695 174.97 419.64 182.916 424.737 188.234C436.596 200.607 437.582 199.889 430.1 184.341C420.946 165.322 412.751 158.586 400.333 159.875C397.458 160.174 395.724 160.509 395.299 161.278ZM446.939 80.5696C444.285 87.337 445.015 93.485 449.694 103.749C454.595 114.499 455.514 111.448 453.253 91.9527C451.258 74.7596 450.063 72.6041 446.939 80.5696ZM455.429 76.3855C454.522 78.698 458.645 115.233 460.242 119.038L461.502 122.042L464.597 113.897C468.425 103.826 467.979 90.3965 463.544 82.2302C460.183 76.0417 456.582 73.4472 455.429 76.3855ZM382.075 293.975L381.217 296.163C378.785 302.364 393.793 311.836 406.786 312.301C425.577 312.974 424.141 310.475 400.384 301.157L382.075 293.975ZM384.478 291.491L398.703 297.07C406.527 300.139 413.049 302.342 413.196 301.967C414.625 298.323 388.41 286.747 385.816 289.875L384.478 291.491ZM420.797 241.745C420.338 243.189 420.008 244.72 419.846 246.267C419.282 251.648 424.821 269.635 427.348 270.626C429.397 271.429 429.538 269.772 428.342 259.026C427.739 253.608 427.81 245.357 428.497 240.688L429.747 232.199L427.323 232.999C424.707 233.863 422.173 237.413 420.797 241.745ZM379.852 354.382C377.68 358.661 377.206 362.661 378.552 366.216C380.706 371.908 382.265 370.759 391.641 356.582C396.117 349.814 403.156 340.723 407.283 336.379C418.004 325.093 416.964 323.343 404.314 331.385C391.809 339.335 383.471 347.249 379.852 354.382ZM434.18 230.46L432.466 237.937C430.56 246.258 431.264 267.024 433.482 267.894C434.854 268.432 441.327 252.666 443.251 244.102C444.441 238.801 440.595 230.506 436.934 230.479L434.18 230.46ZM465.512 155.483C464.137 158.99 463.749 158.813 476.117 160.307C491.83 162.206 499.161 160.875 505.174 155.035C512.088 148.318 514.616 142.139 511.025 140.731C503.311 137.705 467.995 149.153 465.512 155.483ZM479.044 140.652C478.743 141.895 483.794 141.438 494.821 139.473C512.254 136.367 512.607 136.213 507.24 134.108C501.131 131.712 492.791 132.632 485.23 136.535C481.332 138.547 479.225 139.905 479.044 140.652ZM474.426 222.361C473.716 224.575 475.946 223.801 481.389 220.646C485.212 218.43 494.196 214.135 501.355 211.102C508.514 208.07 514.472 205.333 514.594 205.02C515.25 203.347 513.029 201.465 508.127 199.543C499.254 196.063 487.627 202.2 478.818 215.016C476.336 218.626 474.852 221.032 474.426 222.361ZM447.756 293.077C447.61 293.641 447.698 294.023 448.072 294.17C449.426 294.701 459.843 289.838 464.593 286.459C466.969 284.767 474.837 281.773 482.073 279.804C489.31 277.836 495.28 276.094 495.343 275.934C497.576 270.241 477.977 268.212 467.913 273.094C461.304 276.299 448.776 289.132 447.756 293.077Z" fill="black"/>
<path d="M18.764 125.975C18.8026 125.854 18.8859 125.725 19.0151 125.584C19.8432 124.685 22.5184 123.375 26.967 121.545C36.5145 117.618 41.8843 117.724 52.9276 122.056C63.7256 126.291 62.3571 128.857 49.958 127.625C45.878 127.219 37.1676 127.029 30.6012 127.203C22.5367 127.417 18.6591 127.164 18.74 126.094C18.7427 126.056 18.7514 126.016 18.764 125.975ZM17.3665 133.337C17.4866 132.994 17.7084 132.691 18.0419 132.441C21.7038 129.695 59.4657 129.758 66.513 132.522C69.9811 133.883 56.9681 139.509 43.5143 142.467L32.5235 144.882L26.4017 142.426C20.6791 140.13 16.5275 135.74 17.3665 133.337ZM9.32381 187.457C9.3832 187.303 9.47086 187.127 9.58711 186.933C10.2849 185.77 12.0199 183.906 14.9081 181.35C20.0632 176.79 36.6553 168.77 39.0185 169.697C40.6039 170.319 39.5096 171.14 22.6449 181.979C14.0816 187.483 9.18869 189.409 9.23028 187.862C9.23345 187.747 9.26442 187.612 9.32381 187.457ZM8.57844 196.784C9.75531 194.121 17.0875 189.228 35.54 177.254C41.1591 173.608 46.3847 170.873 47.1528 171.174C49.7209 172.181 40.0566 187.796 33.8312 192.697C26.2106 198.696 16.6038 202.012 12.0354 200.22C9.38249 199.18 7.8723 198.382 8.57844 196.784ZM58.9428 95.5894C58.9753 95.5162 59.0088 95.4459 59.0491 95.3801C59.227 95.0775 59.4713 94.8497 59.7852 94.7129C60.2205 94.5229 62.0911 97.2995 63.9437 100.883C65.7963 104.466 68.4786 109.112 69.905 111.207C74.2844 117.64 69.1571 115.236 63.6916 108.293C59.9184 103.5 57.932 97.863 58.9428 95.5894Z" fill="#515D3C" stroke="#515D3C" stroke-width="0.999999"/>
<path d="M77.635 44.6819C77.6689 44.5709 77.7109 44.4761 77.7662 44.3969C78.4967 43.3429 81.2401 45.1933 87.2857 50.0374C91.901 53.7356 102.264 60.2097 110.312 64.4256C128.759 74.0888 126.591 75.8693 105.318 68.5285C87.4363 62.3577 80.5285 57.4603 78.3468 49.4092C77.7058 47.0434 77.4062 45.4633 77.635 44.6819ZM82.7587 39.6338C85.2768 33.2139 105.342 38.8776 113.773 48.3886C118.691 53.9372 128.047 67.749 127.709 68.9635C127.621 69.2864 122.221 66.915 115.713 63.6939C97.9317 54.8934 81.4837 42.8845 82.7587 39.6338ZM95.1085 99.8954C96.6388 95.9319 109.828 89.8811 117.293 89.7168C125.818 89.5294 127.694 90.9561 120.416 92.0911C116.905 92.6387 109.503 95.3214 103.968 98.0514L93.9054 103.014L95.1085 99.8954ZM60.6 191.791L65.9516 183.22C68.8944 178.506 74.522 170.517 78.4571 165.467L85.612 156.283L85.2108 160.408C84.9907 162.677 81.2762 173.744 76.9545 185.001L69.0963 205.471L66.5079 204.426C63.0541 203.038 61.6006 200.753 61.0549 195.857L60.6 191.791ZM100.854 103.72C102.434 100.323 124.042 93.4254 128.605 95.2149C130.458 95.9416 123.991 100.012 116.478 102.848C108.816 105.74 101.72 106.421 100.816 104.349C100.732 104.158 100.749 103.946 100.854 103.72ZM141.3 21.9853C141.411 21.726 141.536 21.4832 141.667 21.2537L143.532 18.001L145.003 30.6734C145.811 37.6437 148.504 47.9027 150.984 53.4701C155.683 64.014 155.754 66.5011 151.204 61.161C143.434 52.0407 138.151 31.396 140.989 22.804C141.082 22.5172 141.189 22.2446 141.3 21.9853ZM84.4214 173.903C85.2808 171.65 86.0367 169.722 86.7035 168.109C90.6969 158.425 91.4099 160.011 91.2014 170.036C91.0995 174.942 91.0362 180.12 91.0613 181.543C91.1442 186.231 83.5259 200.331 79.2821 203.342C72.7603 207.968 73.1157 204.526 81.5285 181.655C82.6019 178.736 83.5624 176.156 84.4214 173.903ZM147.778 13.5871L152.156 13.6332C168.881 13.8083 175.024 38.1671 165.111 65.002L162.072 73.2289L155.975 58.0495C149.791 42.6496 147.918 34.1156 147.828 20.9127L147.778 13.5871ZM116.955 148.239C118.915 143.155 121.837 138.472 125.443 135.515L127.837 133.551L126.525 139.839C125.803 143.296 124.566 151.266 123.773 157.549C122.981 163.832 121.949 170.223 121.48 171.751L120.626 174.529L117.708 172.163C113.182 168.495 113.327 158.382 116.577 149.259C116.697 148.917 116.827 148.578 116.955 148.239ZM133.63 127.16L136.539 133.286C138.138 136.656 139.22 142.862 138.945 147.076C137.943 162.429 136.959 165.569 131.712 170.169C127.28 174.054 125.145 173.992 125.175 169.981C125.216 164.33 128.269 146.834 130.89 137.218L133.63 127.16ZM132.977 201.192C133.36 200.37 134.899 199.072 137.374 197.216C145.039 191.468 155.862 190.247 168.334 193.724C180.719 197.176 181.185 199.521 169.419 199.184C164.886 199.055 154.801 199.873 147.008 201.005C136.999 202.458 132.79 202.824 132.883 201.514C132.888 201.415 132.921 201.309 132.977 201.192ZM189.143 60.847C189.164 60.784 189.191 60.7228 189.223 60.6657C189.366 60.4003 189.606 60.1854 189.956 60.0323C194.939 57.8567 227.461 67.2591 235.531 73.2087L238.7 75.5431L234.244 76.0306C231.793 76.2985 224.306 75.961 217.607 75.281C208.733 74.38 203.426 72.9651 198.049 70.0635C192.356 66.9913 188.482 62.7986 189.143 60.847ZM191.786 54.8761C192.028 54.308 193.127 53.6301 194.926 52.7358C204.19 48.129 230.587 57.9 238.929 69.0242C241.127 71.9543 239.974 71.6322 226.34 65.484C217.216 61.3692 209.487 58.9222 202.352 57.8917C194.931 56.8205 191.744 56.1385 191.735 55.1125C191.736 55.0361 191.753 54.9582 191.786 54.8761ZM132.789 209.021C133.969 206.013 152.199 202.541 167.032 202.499C186.135 202.445 186.952 203.858 172.109 211.299C160.058 217.34 149.796 218.283 139.603 214.285L131.908 211.267L132.789 209.021ZM158.352 162.864C158.935 161.526 161.274 160.846 165.617 161.349C171.31 162.008 209.613 169.809 212.266 170.849C215.851 172.255 207.715 174.65 195.426 175.806L180.458 177.213L171.475 173.69C162.509 170.173 157.635 165.673 158.258 163.142C158.281 163.047 158.312 162.953 158.352 162.864ZM163.132 155.8C163.152 155.711 163.204 155.623 163.281 155.532C163.735 154.986 165.119 154.38 167.046 153.539L172.728 151.058L185.547 155.482C197.161 159.489 206.574 164.318 204.518 165.216C204.077 165.409 195.099 163.776 184.567 161.588C169.328 158.423 163.619 157.24 163.152 156.066C163.117 155.978 163.11 155.889 163.132 155.8ZM192.692 234.25L199.937 220.844C209.241 203.631 211.196 202.998 207.862 218.277C206.384 225.045 204.473 235.704 203.617 241.963C201.85 254.878 200.086 256.953 195.895 251.045C194.297 248.791 192.923 244.09 192.841 240.599L192.692 234.25ZM213.228 211.618C213.367 211.277 213.507 210.993 213.642 210.762C214.732 208.919 215.736 210.515 217.488 214.139C225.004 229.686 223.295 241.901 212.145 252.33C204.271 259.696 203.709 254.929 209.279 228.013C210.851 220.417 211.906 215.548 212.795 212.811C212.945 212.355 213.085 211.958 213.228 211.618Z" fill="#515D3C" stroke="#515D3C" stroke-width="0.999999"/>
<path d="M211.961 127.36C207.875 137.649 209.396 139.241 217.397 133.044C220.78 130.423 231.989 124.379 242.307 119.614L261.065 110.949L256.251 110.263C247.962 109.08 231.696 111.611 223.315 115.389L215.273 119.014L211.961 127.36ZM212.167 140.429L214.151 143.553C216.796 147.72 224.844 150.716 231.527 150.022C237.933 149.357 246.819 141.364 257.405 126.741C261.342 121.304 265.568 115.709 266.798 114.307C270.275 110.348 234.523 126.021 222.71 133.635L212.167 140.429Z" fill="#515D3C" stroke="#515D3C" stroke-width="0.999999"/>
<path d="M262.322 40.6564C263.732 37.3259 265.456 35.0801 267.612 33.649C271.262 31.2264 277.217 31.8514 273.935 34.3126C272.977 35.031 268.909 41.7218 264.895 49.18L257.597 62.7408L258.923 54.1839C259.819 48.4041 260.913 43.987 262.322 40.6564Z" fill="#515D3C" stroke="#515D3C" stroke-width="0.999999"/>
<path d="M264.131 58.7775C262.281 64.2578 261.544 69.4104 262.013 73.921C262.842 81.9037 264.527 81.323 273.792 69.8602C279.123 63.2638 283.61 55.9317 285.919 50.0465L289.583 40.7051L287.833 37.1837C283.853 29.1815 278.937 31.5432 270.425 45.5452C268.859 48.1222 267.497 50.6825 266.349 53.1995C265.488 55.0872 264.747 56.9504 264.131 58.7775Z" fill="#515D3C" stroke="#515D3C" stroke-width="0.999999"/>
<path d="M305.362 65.7097L308.397 62.3643C313.021 57.2713 314.509 59.2197 315.231 71.302C315.594 77.379 316.942 88.4896 318.227 95.9934C320.832 111.207 320.642 111.963 315.639 106.256C310.144 99.9878 304.455 82.7472 304.931 73.8002L305.362 65.7097Z" fill="#515D3C" stroke="#515D3C" stroke-width="0.999999"/>
<path d="M318.797 59.7673C318.929 59.2434 319.096 58.8933 319.301 58.7382C323.715 55.4283 336.457 64.8248 338.081 72.5872C339.942 81.4812 330.906 112.706 326.224 113.557C322.915 114.158 316.827 67.6247 318.797 59.7673Z" fill="#515D3C" stroke="#515D3C" stroke-width="0.999999"/>
<path d="M353.003 106.442C354.878 102.433 357.471 99.224 360.529 97.6421L365.813 94.9099L361.303 104.273C358.763 109.549 356.128 117.863 355.269 123.315C353.497 134.562 352.591 135.782 350.791 129.339C348.749 122.031 349.878 113.125 353.003 106.442Z" fill="#515D3C" stroke="#515D3C" stroke-width="0.999999"/>
<path d="M362.767 108.221C367.149 97.2077 372.63 92.3795 372.874 104.957C373.007 111.834 368.974 123.934 362.974 134.661C358.344 142.939 356.889 142.32 357.435 132.3C357.904 123.662 360.138 114.829 362.767 108.221Z" fill="#515D3C" stroke="#515D3C" stroke-width="0.999999"/>
<path d="M293.483 155.217L302.296 157.407C312.996 160.066 319.529 164.156 322.371 169.98C325.384 176.153 324.033 176.008 311.759 168.833C305.79 165.345 299.236 160.853 297.195 158.853L293.483 155.217Z" fill="#515D3C" stroke="#515D3C" stroke-width="0.999999"/>
<path d="M286.109 154.993C286.219 154.143 287.812 155.005 290.841 157.941C293.286 160.309 300.653 165.6 307.212 169.698C320.032 177.708 321.125 178.633 320.285 180.774C319.983 181.543 316.564 180.924 312.688 179.398C303.404 175.742 296.112 170.186 290.274 162.317C287.371 158.405 285.998 155.843 286.109 154.993Z" fill="#515D3C" stroke="#515D3C" stroke-width="0.999999"/>
<path d="M248.362 193.66C250.897 187.87 254.561 181.922 259.279 176.35L266.84 167.421L259.887 186.96L252.936 206.498L253.48 214.419C253.986 221.81 253.512 226.422 252.296 225.945C244.013 222.696 242.26 211.874 246.205 199.377C246.796 197.503 247.517 195.59 248.362 193.66Z" fill="#515D3C" stroke="#515D3C" stroke-width="0.999999"/>
<path d="M269.836 168.801C271.399 164.648 272.533 161.974 272.799 162.097C273.746 162.536 278.931 182.91 279.564 188.681C280.726 199.276 275.694 215.234 269.3 221.238C267.064 223.338 263.625 225.356 261.655 225.723L258.074 226.391L257.056 220.48C256.496 217.228 256.179 212.766 256.353 210.565C256.632 207.031 265.149 181.258 269.836 168.801Z" fill="#515D3C" stroke="#515D3C" stroke-width="0.999999"/>
<path d="M303.339 241.23L310.307 241.183C316.961 241.138 344.227 244.873 347.977 246.344C350.725 247.422 337.564 250.705 327.692 251.404C317.741 252.109 305.663 248.271 304.236 243.95L303.339 241.23Z" fill="#515D3C" stroke="#515D3C" stroke-width="0.999999"/>
<path d="M305.475 236.616C305.601 235.78 307.714 234.579 311.787 233.203C320.406 230.292 329.073 231.412 338.776 236.689C348.589 242.025 346.585 242.7 329.597 239.78C322.934 238.635 314.607 237.76 311.09 237.838C307.212 237.923 305.35 237.453 305.475 236.616Z" fill="#515D3C" stroke="#515D3C" stroke-width="0.999999"/>
<path d="M328.099 195.783C329.888 191.222 331.442 192.094 338.15 201.426C341.797 206.5 348.138 213.741 352.242 217.516C361.47 226.005 361.087 228.193 351.306 222.862C333.478 213.146 325.116 203.388 328.099 195.783Z" fill="#515D3C" stroke="#515D3C" stroke-width="0.999999"/>
<path d="M335.765 189.338C336.76 186.801 343.178 185.215 349.199 186.021L353.406 186.585L357.929 194.039C363.46 203.156 371.855 227.046 369.484 226.922C368.538 226.873 362.971 222.598 357.113 217.421C345.309 206.99 334.446 192.7 335.765 189.338Z" fill="#515D3C" stroke="#515D3C" stroke-width="0.999999"/>
<path d="M390.102 168.172C390.591 166.595 391.617 165.833 393.143 166.432C401.945 169.884 439.053 205.48 437.63 209.106C437.452 209.56 430.276 206.73 421.686 202.813C402.362 194.007 397.068 189.961 392.271 180.334C389.957 175.691 389.286 170.8 390.102 168.172Z" fill="#515D3C" stroke="#515D3C" stroke-width="0.999999"/>
<path d="M395.3 161.277C395.725 160.508 397.458 160.173 400.333 159.875C412.751 158.585 420.947 165.322 430.1 184.341C437.583 199.889 436.596 200.606 424.737 188.234C419.64 182.916 410.695 174.969 404.858 170.574C397.518 165.047 394.591 162.559 395.3 161.277Z" fill="#515D3C" stroke="#515D3C" stroke-width="0.999999"/>
<path d="M395.728 115.119C396.659 112.871 399.244 115.074 406.72 122.873C411.748 128.119 418.633 134.456 422.021 136.953C431.601 144.013 428.418 144.811 414.993 138.715C401.212 132.457 394.972 126.17 395.234 118.809C395.295 117.113 395.419 115.869 395.728 115.119Z" fill="#515D3C" stroke="#515D3C" stroke-width="0.999999"/>
<path d="M399.587 108.651C400.558 106.893 408.323 107.3 414.577 109.753C424.769 113.75 429.527 118.864 435.518 132.26L440.306 142.967L436.083 141.855C433.76 141.243 428.5 138.153 424.393 134.987C418.086 130.125 401.135 112.715 399.611 109.536C399.448 109.196 399.448 108.902 399.587 108.651Z" fill="#515D3C" stroke="#515D3C" stroke-width="0.999999"/>
<path d="M446.939 80.5689C450.063 72.6035 451.258 74.7589 453.253 91.952C455.515 111.448 454.595 114.498 449.695 103.749C445.016 93.4844 444.285 87.3364 446.939 80.5689Z" fill="#515D3C" stroke="#515D3C" stroke-width="0.999999"/>
<path d="M455.43 76.3863C456.582 73.448 460.184 76.0425 463.544 82.231C467.979 90.3973 468.425 103.827 464.597 113.898L461.503 122.043L460.242 119.039C458.645 115.234 454.523 78.6988 455.43 76.3863Z" fill="#515D3C" stroke="#515D3C" stroke-width="0.999999"/>
<path d="M479.045 140.652C479.225 139.906 481.332 138.547 485.231 136.535C492.791 132.633 501.131 131.712 507.24 134.108C512.608 136.214 512.254 136.368 494.821 139.474C483.794 141.439 478.743 141.896 479.045 140.652Z" fill="#515D3C" stroke="#515D3C" stroke-width="0.999999"/>
<path d="M465.512 155.484C467.995 149.154 503.312 137.706 511.025 140.732C514.616 142.14 512.089 148.319 505.174 155.036C499.161 160.876 491.83 162.207 476.117 160.308C463.75 158.814 464.137 158.991 465.512 155.484Z" fill="#515D3C" stroke="#515D3C" stroke-width="0.999999"/>
<path d="M474.427 222.36C473.716 224.574 475.946 223.8 481.389 220.645C485.212 218.429 494.196 214.135 501.355 211.102C508.514 208.069 514.472 205.332 514.595 205.019C515.251 203.346 513.029 201.465 508.127 199.542C499.255 196.062 487.627 202.199 478.818 215.015C476.336 218.626 474.852 221.032 474.427 222.36ZM474.27 229.226C473.298 231.703 499.879 229.881 506.751 227L514.02 223.955L516.287 218.175C519.277 210.551 517.626 208.862 509.462 211.191C502.414 213.201 475.056 227.221 474.27 229.226Z" fill="#515D3C" stroke="#515D3C" stroke-width="0.999999"/>
<path d="M420.797 241.744C422.173 237.412 424.708 233.862 427.323 232.999L429.747 232.198L428.497 240.687C427.81 245.356 427.739 253.607 428.342 259.025C429.538 269.771 429.397 271.429 427.348 270.625C424.821 269.634 419.282 251.648 419.846 246.266C420.008 244.719 420.338 243.188 420.797 241.744Z" fill="#515D3C" stroke="#515D3C" stroke-width="0.999999"/>
<path d="M434.18 230.46L436.935 230.479C440.595 230.506 444.441 238.8 443.251 244.101C441.327 252.665 434.854 268.431 433.482 267.893C431.264 267.023 430.56 246.257 432.467 237.937L434.18 230.46Z" fill="#515D3C" stroke="#515D3C" stroke-width="0.999999"/>
<path d="M447.756 293.078C447.61 293.642 447.698 294.024 448.072 294.171C449.426 294.701 459.843 289.839 464.593 286.459C466.969 284.768 474.837 281.774 482.073 279.805C489.31 277.836 495.28 276.095 495.343 275.935C497.576 270.242 477.977 268.212 467.913 273.094C461.304 276.3 448.776 289.133 447.756 293.078ZM452.249 296.29L458.306 297.472C468.222 299.406 482.601 298.965 488.118 296.557C493.452 294.229 497.336 287.533 496.343 282.379L495.83 279.714L487.751 281.578C479.928 283.381 465.527 289.092 456.599 293.932L452.249 296.29Z" fill="#515D3C" stroke="#515D3C" stroke-width="0.999999"/>
<path d="M384.478 291.491L385.817 289.876C388.41 286.747 414.625 298.324 413.196 301.967C413.049 302.342 406.527 300.139 398.703 297.071L384.478 291.491Z" fill="#515D3C" stroke="#515D3C" stroke-width="0.999999"/>
<path d="M382.075 293.975L400.384 301.156C424.141 310.474 425.577 312.973 406.786 312.3C393.792 311.835 378.785 302.363 381.217 296.162L382.075 293.975Z" fill="#515D3C" stroke="#515D3C" stroke-width="0.999999"/>
<path d="M378.544 357.537C378.872 356.505 379.309 355.452 379.852 354.382C383.471 347.25 391.809 339.335 404.314 331.386C416.964 323.344 418.004 325.094 407.283 336.379C403.156 340.723 396.117 349.814 391.641 356.583C382.265 370.759 380.706 371.908 378.552 366.216C377.543 363.55 377.558 360.634 378.544 357.537Z" fill="#515D3C" stroke="#515D3C" stroke-width="0.999999"/>
<path d="M386.041 371.198C383.736 377.076 404.421 374.801 413.211 368.209L418.476 364.26L423.392 353.172L428.307 342.08L427.725 332.734C427.405 327.594 426.377 323.527 425.441 323.697C420.425 324.609 389.863 361.453 386.041 371.198Z" fill="#515D3C" stroke="#515D3C" stroke-width="0.999999"/>
<path d="M393.224 251.709L388.309 259.754L382.053 264.487L372.642 267.542L368.784 266.909L393.224 251.709Z" fill="#515D3C" stroke="#515D3C" stroke-width="0.999999"/>
<path d="M387.306 249.974L376.833 253.493L369.842 258.23L366.045 263.048L387.306 249.974Z" fill="#515D3C" stroke="#515D3C" stroke-width="0.999999"/>
</g>
</g>
</g>
<defs>
<clipPath id="clip0_3034_388">
<rect width="526" height="383" fill="white" transform="translate(0.5 0.789062)"/>
</clipPath>
<clipPath id="clip1_3034_388">
<rect width="314.5" height="568.601" fill="white" transform="matrix(-0.365143 0.930952 0.930952 0.365143 91.4463 -73.9141)"/>
</clipPath>
</defs>
</svg>
