<?xml version="1.0" encoding="UTF-8" standalone="no"?>
<!-- Created with Inkscape (http://www.inkscape.org/) -->

<svg
   width="69.581444mm"
   height="125.80013mm"
   viewBox="0 0 69.581444 125.80013"
   version="1.1"
   id="decoration"
   xml:space="preserve"
   xmlns:inkscape="http://www.inkscape.org/namespaces/inkscape"
   xmlns:sodipodi="http://sodipodi.sourceforge.net/DTD/sodipodi-0.dtd"
   xmlns="http://www.w3.org/2000/svg"
   xmlns:svg="http://www.w3.org/2000/svg"><sodipodi:namedview
     id="namedview1"
     pagecolor="#505050"
     bordercolor="#ffffff"
     borderopacity="1"
     inkscape:showpageshadow="0"
     inkscape:pageopacity="0"
     inkscape:pagecheckerboard="1"
     inkscape:deskcolor="#505050"
     inkscape:document-units="mm" /><defs
     id="defs1" /><g
     inkscape:label="Layer 1"
     inkscape:groupmode="layer"
     id="layer1"
     transform="translate(-477.54466,-94.775968)"><g
       id="g95"
       inkscape:export-filename="decoration.svg"
       inkscape:export-xdpi="96"
       inkscape:export-ydpi="96"><path
         d="m 525.47335,94.782845 c -1.515,-0.09372 -3.26622,0.764182 -4.60333,2.922819 l -1.03147,1.665531 0.0269,3.422535 0.0269,3.42253 -0.97565,-2.14664 c -1.43869,-3.16589 -3.96574,-4.611006 -5.45652,-3.12023 -1.43499,1.43499 0.0734,4.2646 3.49695,6.55981 1.61671,1.08386 2.56828,1.98429 2.78587,2.63705 l 0.33021,0.99167 -1.90789,1.59318 c -2.25475,1.88315 -9.30252,8.84741 -10.67738,10.55078 -1.23047,1.52449 -1.37172,1.33463 -1.03302,-1.38648 l 0.27751,-2.22777 2.99826,-2.02313 c 4.63693,-3.12859 6.57849,-6.77569 4.70773,-8.84287 -1.84366,-2.03722 -5.27986,0.79711 -7.13497,5.88543 -1.56897,4.3035 -2.06433,3.42098 -0.79427,-1.41542 1.29996,-4.95028 0.85265,-9.89967 -1.06866,-11.82098 l -1.05575,-1.05524 h -1.49397 c -4.92226,0 -5.51099,6.6544 -1.12189,12.6783 2.02149,2.77443 3.10309,5.29794 3.29489,7.68738 0.23504,2.92823 -0.15137,2.78864 -1.93735,-0.70021 -4.6234,-9.03155 -13.85652,-12.00844 -13.85652,-4.46743 0,3.67235 3.44678,6.10704 9.5219,6.72517 4.06637,0.41374 4.73756,0.79834 5.26634,3.01791 l 0.40359,1.69343 -2.05568,4.05712 c -1.83228,3.6161 -3.09112,6.95632 -3.77497,10.01696 l -0.22841,1.02112 -0.42116,-0.42167 c -0.7054,-0.70566 -0.4159,-3.24067 0.75706,-6.62854 l 1.11466,-3.21944 v -2.51819 c 0,-4.96956 -2.45464,-6.8156 -5.29115,-3.97909 l -1.32705,1.32757 -0.43925,2.11201 -0.43925,2.11254 0.41134,2.235 c 0.22608,1.22906 0.79906,3.26535 1.27331,4.52531 0.47426,1.25997 0.74561,2.23035 0.60307,2.15645 -1.77198,-0.91887 -3.48471,-1.4834 -5.40949,-1.78335 l -2.32854,-0.36277 -1.37253,0.6718 c -1.46543,0.71704 -2.95086,2.87651 -2.96106,4.30516 -0.0246,3.43368 3.63545,4.46289 9.66143,2.71663 5.02814,-1.4571 5.30641,-1.24753 5.62239,4.23333 0.11186,1.94028 0.29871,4.08341 0.41496,4.7625 l 0.21136,1.23455 -0.98598,-1.23455 c -2.72417,-3.41149 -5.73734,-5.28256 -8.51886,-5.28856 l -1.52653,-0.003 -1.00252,1.00304 c -2.20098,2.20093 -2.18598,5.74403 0.0331,7.87652 l 1.34721,1.29501 1.95182,0.40514 c 1.07355,0.22283 3.70848,0.35491 5.85545,0.29301 l 3.90364,-0.11266 1.02836,2.62672 c 1.19853,3.06228 1.11362,3.38473 -0.48421,1.83606 -3.91125,-3.79095 -11.16727,-2.98116 -11.16727,1.24643 0,2.76703 2.80848,3.79186 9.39064,3.42615 l 4.37389,-0.24288 0.74466,0.6687 c 0.40951,0.368 1.29909,1.54251 1.97662,2.60966 3.34515,5.26878 6.8828,9.13702 14.02912,15.33911 5.72373,4.96747 7.37641,6.50646 7.18819,6.69468 -0.41756,0.41756 -2.55855,-1.17645 -4.51445,-3.36103 -4.00983,-4.47864 -8.61826,-5.25255 -10.42882,-1.75132 -1.83858,3.55543 0.14163,5.30356 6.0079,5.30356 3.84272,0 8.22736,0.85639 7.18509,1.40353 -2.38716,1.25317 -7.2666,1.16552 -11.65148,-0.20929 l -2.68614,-0.84233 -0.54726,-1.49861 c -0.34891,-0.95641 -0.61317,-3.28735 -0.7307,-6.43837 -0.26617,-7.13615 -1.1713,-9.75812 -3.96307,-11.48354 l -1.25212,-0.77359 -1.47536,0.19792 c -2.77931,0.37271 -4.33425,3.53398 -3.41581,6.94479 0.42772,1.58841 1.33376,2.72023 6.24561,7.79901 4.86227,5.02751 4.74144,5.10851 -2.34353,1.56011 l -5.26117,-2.63498 -0.96273,-1.26297 -0.96325,-1.26246 0.45682,-3.45043 c 0.72928,-5.51006 -0.26891,-9.10299 -2.88407,-10.38128 l -1.30224,-0.63665 -1.41439,0.38085 c -0.8731,0.23511 -1.69074,0.76963 -2.13733,1.39681 l -0.72296,1.01545 0.008,2.0624 c 0.0113,3.00116 0.92512,4.66538 4.49016,8.17987 l 3.08715,3.04322 -1.03766,0.12402 c -0.57068,0.068 -1.72285,0.0206 -2.56005,-0.1049 l -1.52187,-0.22789 -2.48357,-3.10576 c -3.72726,-4.66137 -7.24193,-6.20272 -9.3462,-4.09845 -2.0107,2.01069 -0.7186,5.17053 2.82877,6.91689 l 2.24069,1.10277 3.11763,0.31936 c 6.67886,0.6833 6.7025,0.70025 3.38068,2.45515 l -2.37247,1.25315 -0.96893,1.5689 c -0.53303,0.86297 -1.06646,2.28328 -1.18494,3.1564 l -0.21498,1.5875 0.76533,0.97048 0.76533,0.96997 h 1.92908 c 3.9623,0 5.92053,-1.93865 7.2161,-7.14375 0.46317,-1.86088 0.94635,-3.08664 1.21698,-3.08664 0.2469,0 3.04547,1.29536 6.21874,2.8789 l 5.76967,2.87941 -1.05833,0.27027 c -0.58208,0.1487 -2.13522,0.53891 -3.45095,0.86713 l -2.3921,0.59686 -1.55391,1.50998 c -3.21012,3.11988 -2.07116,7.72544 2.02468,8.1871 2.92925,0.33016 4.44009,-1.05617 6.8771,-6.30917 0.78979,-1.70241 1.74476,-3.22903 2.15749,-3.44992 l 0.74052,-0.39636 2.08256,0.54002 c 1.14558,0.29685 2.49632,0.5395 3.00189,0.5395 1.13889,0 1.13898,0.08 10e-4,1.30483 -1.24171,1.33648 -2.18932,3.26598 -2.47168,5.03173 l -0.23358,1.46193 1.00097,1.04541 c 1.16837,1.21952 3.29346,1.89045 4.98264,1.57355 1.66936,-0.31317 3.03349,-2.34576 4.34237,-6.47144 1.20408,-3.79535 1.79375,-4.65139 3.20446,-4.65139 1.45019,0 2.00083,0.88382 7.41402,11.90108 2.69184,5.4786 5.21409,10.28097 5.60482,10.6717 l 5.2e-4,-5.2e-4 c 1.28726,1.28727 2.44223,0.27579 1.22318,-1.07125 -0.84318,-0.9317 -11.04207,-21.50153 -10.66085,-21.50153 0.16413,0 0.96647,0.35682 1.78336,0.79323 l 1.48518,0.79375 2.99878,-0.0269 2.99878,-0.0274 1.45883,-0.75292 c 2.32021,-1.19766 4.36201,-4.08669 4.36201,-6.17224 0,-6.13857 -6.66693,-6.12189 -13.48032,0.0336 -1.50875,1.36306 -1.54027,1.3468 -0.80718,-0.40772 2.14683,-5.13809 -1.50396,-10.85881 -5.00745,-7.84655 l -0.99012,0.85111 v 2.23604 c 0,1.22968 0.13644,2.92882 0.30282,3.77599 l 0.30231,1.54048 -4.09484,-3.6065 c -2.25218,-1.98359 -4.09484,-3.72352 -4.09484,-3.86591 0,-0.14239 0.91264,-0.45926 2.0283,-0.70435 4.28705,-0.94178 6.64903,-4.23227 4.19303,-5.84151 l -0.83458,-0.54673 -1.01751,0.3824 c -0.55977,0.21023 -1.77174,1.12138 -2.69337,2.02468 -0.92163,0.90329 -1.67587,1.52392 -1.67587,1.37925 0,-0.86034 2.14527,-4.25179 3.83956,-6.06992 2.6337,-2.8262 4.2994,-5.9931 4.50928,-8.57415 l 0.16227,-1.99988 -0.71675,-1.13688 c -1.51735,-2.40663 -4.20454,-1.56072 -5.87251,1.84847 l -0.9338,1.90944 0.046,4.19406 c 0.0775,7.05843 -0.91614,8.18006 -1.3808,1.55856 -0.46272,-6.59383 -1.7343,-8.90281 -4.90202,-8.90281 -2.78482,0 -4.98161,2.36197 -4.98161,5.35574 v 1.50999 l 4.24367,4.08088 4.24418,4.08038 0.19275,1.21801 c 0.10593,0.66981 0.0347,1.61454 -0.15813,2.09961 l -0.35088,0.88212 -3.30884,-3.35742 c -3.75317,-3.80813 -7.91229,-9.77396 -10.20816,-14.642 l -1.49397,-3.16725 -0.007,-2.2934 c -0.008,-2.58699 0.64103,-4.12752 2.78587,-6.61458 1.85568,-2.15178 1.94407,-2.0098 1.94407,3.13366 v 4.63227 l 0.70848,1.1467 c 1.29845,2.10093 4.00566,2.43881 5.18005,0.64648 l 0.55656,-0.84905 -0.2403,-2.34249 c -0.24665,-2.4074 -1.31849,-5.41427 -2.18695,-6.13503 -1.42091,-1.17925 -0.33015,-1.32331 1.18546,-0.15658 0.92163,0.70948 2.70757,1.79257 3.96875,2.40709 l 2.29288,1.11725 2.64584,-0.0207 c 1.73887,-0.0138 3.0294,-0.22079 3.76463,-0.6041 3.39044,-1.76763 3.51963,-6.59709 0.21962,-8.20777 l -1.33842,-0.65319 -3.175,-0.0119 c -2.13265,-0.008 -3.75392,0.18969 -4.93872,0.60203 -2.12355,0.73907 -5.11545,1.32578 -5.11545,1.00304 0,-0.37524 9.65596,-5.97888 11.33833,-6.57996 l 1.53841,-0.54932 1.5875,1.72806 c 3.74921,4.08167 6.16879,5.0163 9.83454,3.79874 3.90741,-1.29784 4.23703,-5.65969 0.55965,-7.40472 l -1.33686,-0.63458 -3.55844,0.2129 c -1.95732,0.117 -4.11441,0.31698 -4.79351,0.44442 l -1.23455,0.23151 0.70538,-0.7922 c 0.38805,-0.43579 1.79203,-1.4954 3.11971,-2.35489 4.25002,-2.75133 6.21846,-5.67205 6.22546,-9.23458 l 0.003,-1.87947 -1.03146,-1.03095 c -1.19676,-1.19676 -1.79281,-1.25567 -3.74603,-0.36845 -3.12174,1.41801 -4.39508,3.99843 -4.39508,8.9054 v 3.48454 l -1.36219,1.36219 c -1.43555,1.43555 -6.06007,4.3858 -6.37739,4.06849 -0.10231,-0.10231 0.50549,-0.76078 1.35083,-1.46296 1.11218,-0.92384 1.96377,-2.15345 3.08095,-4.44883 l 1.54409,-3.1719 v -1.85467 c 0,-4.46639 -2.3443,-6.56404 -5.18005,-4.63485 -2.29598,1.562 -2.96944,4.54679 -2.24844,9.96476 0.22653,1.70223 0.30783,3.9262 0.18087,4.94234 l -0.23048,1.84743 -1.3472,0.75706 c -6.04762,3.39895 -11.0986,7.56521 -12.77597,10.53734 -0.58865,1.04304 -1.19302,1.76666 -1.34307,1.60817 -0.31331,-0.33095 -1.04438,-4.83635 -1.04438,-6.4363 v -1.07384 l 2.08773,-1.05368 c 1.14834,-0.57968 3.27753,-1.37305 4.73149,-1.76268 7.04375,-1.88759 9.37237,-4.89065 7.3117,-9.4294 -2.69444,-5.93469 -10.23378,-1.77365 -12.90154,7.1205 -0.91459,3.04916 -1.35053,3.2693 -1.048,0.52916 0.79424,-7.19371 4.67909,-15.19419 10.83449,-22.31336 2.11138,-2.44197 2.40599,-2.46815 5.01416,-0.44287 2.3003,1.78623 4.73395,2.6479 7.4812,2.6479 h 1.86397 l 1.24695,-1.09502 1.24695,-1.09503 v -1.39733 c 0,-4.01631 -5.52305,-5.3825 -11.77758,-2.913 -1.21284,0.47888 -0.45557,-0.43848 2.1792,-2.63963 3.12211,-2.60827 3.39488,-2.62862 7.60109,-0.55811 6.97802,3.43499 12.93357,2.37279 12.93357,-2.30683 v -1.32602 l -1.07125,-1.1467 -1.07125,-1.1467 -2.8975,0.22479 c -1.72511,0.13395 -4.2333,0.66285 -6.19859,1.3069 -1.81555,0.59498 -3.39852,0.98416 -3.51761,0.86506 -0.2492,-0.24919 -0.38598,-0.14069 3.23391,-2.55126 l 2.76469,-1.84123 2.76675,0.0181 2.76624,0.0181 1.70068,-0.75034 c 1.94314,-0.85753 4.11108,-2.82347 4.71134,-4.27261 l 0.40876,-0.98754 -0.3974,-1.203541 c -1.25815,-3.812246 -8.19376,-1.411133 -10.84378,3.754291 l -0.64957,1.26659 -3.8101,2.48047 c -5.22378,3.40037 -5.35473,3.30821 -1.48467,-1.03973 1.4511,-1.63028 2.95906,-3.64657 3.35122,-4.48086 1.79935,-3.82795 -0.0692,-6.627877 -2.59416,-6.784085 z m -0.98702,1.191142 c 0.4203,-0.163184 0.19234,0.638567 -0.60255,2.517159 -0.56632,1.338438 -1.23083,3.147824 -1.47691,4.020944 -0.74783,2.65341 -1.38699,2.72796 -1.38699,0.16175 0,-2.62451 0.41188,-3.739067 1.99212,-5.388305 0.73629,-0.768431 1.22215,-1.213638 1.47433,-1.311548 z m 1.73013,0.286804 c 0.56267,0.0213 1.13155,1.231058 1.14205,2.59519 l 0.0114,1.459339 -1.38545,2.06861 c -1.69603,2.53218 -3.90622,4.75784 -3.90622,3.93361 0,-1.67483 3.03755,-9.457687 3.89899,-9.990086 0.0785,-0.0485 0.15888,-0.06971 0.23926,-0.06666 z m 11.88765,2.729032 c 0.32189,0.116364 -0.47002,0.968579 -2.29547,2.287717 -3.59504,2.59791 -3.85248,2.757 -3.85248,2.38022 0,-0.56162 2.99221,-3.33121 4.34806,-4.024565 1.01281,-0.517931 1.60675,-0.71319 1.79989,-0.643372 z m -35.08572,2.525947 c 0.16567,-0.0392 0.48777,0.15518 0.98547,0.52451 1.48206,1.09979 1.93271,2.91811 1.75907,7.09983 -0.20658,4.97469 -0.7484,5.27726 -1.24851,0.69711 -0.21819,-1.99823 -0.71443,-4.65566 -1.10329,-5.90506 -0.50935,-1.63658 -0.66885,-2.35106 -0.39274,-2.41639 z m 12.01271,0.26406 c 0.53686,-0.0852 1.58024,0.79745 2.28461,1.99937 0.98838,1.68658 1.06942,2.93689 0.0982,1.51515 -0.31633,-0.46306 -1.05652,-1.39085 -1.64487,-2.06189 -0.58835,-0.67104 -1.00912,-1.28066 -0.93482,-1.35496 0.0535,-0.0536 0.12019,-0.0855 0.19689,-0.0977 z m -13.39712,0.37983 c 0.77257,0 1.91724,4.35782 2.2934,8.73125 0.13768,1.60071 0.18987,2.90446 0.11627,2.89646 -0.27744,-0.0285 -2.36644,-3.07122 -3.11195,-4.53254 -1.2779,-2.5049 -0.82346,-7.09517 0.70228,-7.09517 z m 11.41429,7.41195 0.73949,0.004 -1.83503,1.67173 c -1.00945,0.91949 -2.15991,2.2272 -2.55643,2.90629 -0.82172,1.40731 -0.96396,0.90553 -0.23668,-0.8351 0.63694,-1.5244 2.94864,-3.75205 3.88865,-3.74705 z m 21.71547,0.31626 0.80099,0.42219 c 0.96433,0.50791 1.31746,0.99185 1.32446,1.8154 l 0.006,0.61753 -4.85087,-0.0351 c -2.66788,-0.0193 -5.2474,-0.14835 -5.73247,-0.28629 l -0.88211,-0.25063 2.46961,-0.73174 c 1.35819,-0.40251 3.45824,-0.91623 4.6669,-1.14153 z m -21.39197,1.17615 c 0.0552,-0.003 0.10007,0.0102 0.1328,0.0429 0.3536,0.35361 -0.3598,1.76012 -1.57458,3.10472 -1.19104,1.31834 -2.55178,2.32138 -2.55178,1.88103 0,-1.08427 3.16624,-4.97773 3.99356,-5.02864 z m -20.28249,1.74408 c 1.85163,-0.27399 6.11497,2.69537 7.44916,5.18832 0.73238,1.36845 0.22586,1.1529 -1.56631,-0.66663 -0.94629,-0.96074 -2.8418,-2.34403 -4.21215,-3.07371 l -2.49132,-1.32654 z m 34.68781,0.5426 c 0.77239,-0.0134 1.83232,-9e-4 3.20807,0.0284 5.39044,0.1149 6.12808,0.31974 4.6483,1.28932 -0.96289,0.6309 -4.48249,1.06093 -5.44153,0.66508 -0.29104,-0.12013 -1.3626,-0.5254 -2.38125,-0.90072 -2.08166,-0.76694 -2.35078,-1.04192 -0.0336,-1.08211 z m -36.76055,0.0966 1.50482,0.60203 c 2.71212,1.08518 4.31852,2.16031 6.99079,4.67827 l 2.63394,2.48202 -1.93993,-0.0388 c -6.32804,-0.12605 -10.84891,-3.35913 -9.53378,-6.81819 z m 30.46481,4.53409 c 2.14155,0.0674 4.23613,0.85448 4.62607,2.08308 l 0.25167,0.7922 -0.64131,-0.0486 c -0.35262,-0.0268 -1.7522,-0.33047 -3.1104,-0.67489 -1.35819,-0.34443 -3.09962,-0.73337 -3.87005,-0.86403 l -1.40095,-0.23772 0.5979,-0.33434 c 0.96024,-0.53738 2.26214,-0.75617 3.54707,-0.71572 z m -5.92936,1.72703 2.29289,0.24804 c 2.1924,0.23702 6.04262,1.02175 7.20989,1.46968 0.82861,0.31797 0.6688,0.76275 -0.48937,1.36167 -1.3713,0.70912 -2.09755,0.65813 -5.34076,-0.37568 -0.8903,-0.2838 -2.08093,-1.00809 -2.64584,-1.60972 z m 15.37478,5.85287 c 0.27748,0.0867 -0.13802,0.92392 -1.24592,2.86804 -0.86273,1.51389 -1.84644,3.52489 -2.18592,4.46898 h 5.2e-4 c -0.88124,2.45064 -1.32671,2.16528 -1.03715,-0.66456 0.29162,-2.84989 1.41737,-4.98033 3.22048,-6.09472 0.66538,-0.41133 1.0815,-0.62978 1.24799,-0.57774 z m -33.56178,0.22531 c 0.46316,-0.0528 1.04422,1.11046 1.22266,2.5771 0.16327,1.34186 0.0259,2.54928 -0.50539,4.44986 -0.40105,1.43457 -0.93639,3.00387 -1.18959,3.48712 l -0.46044,0.8785 -0.22479,-0.84129 c -0.57348,-2.14286 0.11721,-9.60088 0.9679,-10.45156 0.0598,-0.0598 0.12349,-0.0922 0.18965,-0.0997 z m -1.34669,0.0692 c 0.21067,0.0846 0.0936,0.79614 -0.28525,2.41123 -0.3643,1.5528 -0.48454,3.34242 -0.37414,5.55418 0.16494,3.30471 0.13816,3.56817 -0.28784,2.87889 -1.61732,-2.61688 -1.49733,-8.84316 0.19999,-10.37921 0.37652,-0.34074 0.62084,-0.51582 0.74724,-0.46509 z m 36.46238,0.29249 h 0.53381 v 1.82883 c 0,2.4225 -1.02321,4.45977 -3.24114,6.45387 -2.7318,2.45612 -2.95687,2.17375 -1.4025,-1.75648 1.20698,-3.05186 3.39492,-6.52622 4.10983,-6.52622 z m -11.50731,1.53944 c 0.57171,0.0762 1.10484,1.44358 1.10484,3.57446 v 2.13476 l -1.49913,2.96932 c -1.2308,2.43782 -2.38125,3.9201 -2.38125,3.06803 0,-0.63038 1.48764,-9.14984 1.81177,-10.37559 0.26379,-0.99756 0.62074,-1.41672 0.96377,-1.37098 z m -1.8526,0.43615 c 0.20397,0.19104 -0.0136,1.46243 -0.59273,4.85707 -0.40025,2.34591 -0.78915,4.32692 -0.86455,4.40232 -0.35098,0.35098 -0.58527,-1.97806 -0.47232,-4.69377 l 0.12454,-2.99775 0.96997,-0.96997 c 0.43848,-0.43842 0.71271,-0.71252 0.83509,-0.5979 z m -9.85625,7.73441 c 2.44939,-0.0105 2.65452,0.43157 0.73174,1.57872 v -5.2e-4 c -0.81304,0.48507 -2.96351,2.30614 -4.77852,4.04627 l -3.30006,3.16363 0.24753,-1.04697 c 0.42594,-1.80285 2.26146,-4.94876 3.71657,-6.36963 l 1.3963,-1.36374 z m -21.92631,3.36827 c 0.79987,-0.0213 1.79798,0.1103 3.0608,0.39274 l 1.86965,0.41807 -3.38274,0.40772 c -1.86044,0.22429 -3.56718,0.52167 -3.79253,0.66095 -0.77207,0.47716 -0.41969,-0.79997 0.37414,-1.35599 0.46895,-0.32847 1.07082,-0.50223 1.87068,-0.52349 z m 45.49955,1.29812 1.29553,0.54363 c 0.71252,0.29893 1.56981,0.96154 1.90479,1.47278 0.87832,1.34049 0.30854,1.53615 -2.49442,0.8568 -1.35819,-0.32918 -3.70797,-0.79667 -5.22139,-1.03922 -3.4165,-0.54756 -3.1283,-0.89908 1.16892,-1.42472 z m -11.50627,8.20466 c 2.89255,0.19707 4.98005,1.43244 4.98005,3.40083 0,0.28909 -0.98819,0.0142 -2.46961,-0.6873 l -1.5875,-0.75189 -4.58577,-0.14676 -4.58628,-0.14624 2.44998,-0.83613 c 2.03833,-0.69539 4.06359,-0.95075 5.79913,-0.83251 z m -32.31018,1.38596 1.70119,0.56483 c 1.88123,0.62484 4.97266,3.1894 5.8198,4.82761 0.77133,1.49158 0.60021,1.46945 -2.32285,-0.29611 -1.44175,-0.87082 -3.62133,-2.04597 -4.84364,-2.61172 -2.43025,-1.12485 -2.71131,-1.58876 -1.28881,-2.12959 z m 24.10344,1.01131 c 2.94456,0.0409 8.94092,0.36887 9.6914,0.59687 0.46733,0.14198 1.36076,0.56759 1.98541,0.94567 l 1.13533,0.6873 -0.42685,0.68368 c -0.23479,0.37596 -0.92831,0.92135 -1.54151,1.21233 -1.75315,0.83193 -5.44642,0.57901 -7.53494,-0.51625 -1.1375,-0.59653 -4.91509,-3.31038 -4.92889,-3.54087 -0.004,-0.0645 0.63853,-0.0824 1.62005,-0.0687 z m -26.41286,1.27589 c 1.77753,0.22898 10.8702,5.24204 10.47895,5.8751 -0.55345,0.89549 -7.71478,0.23414 -9.39633,-0.86765 -1.46761,-0.96162 -2.37361,-4.34508 -1.33531,-4.98678 0.0485,-0.03 0.13419,-0.0359 0.25269,-0.0207 z m 22.25446,0.96015 c 0.18401,0.0459 0.60073,0.5356 1.17202,1.44953 1.14912,1.83827 1.70439,3.78903 1.70739,5.99653 0.001,0.92163 -0.14763,1.67587 -0.33021,1.67587 -0.50899,0 -0.61112,-0.29969 -1.22525,-3.58738 -0.31418,-1.68192 -0.80881,-3.62679 -1.09916,-4.3217 -0.35981,-0.86115 -0.4088,-1.25877 -0.22479,-1.21285 z m -0.54984,1.53686 0.44907,1.05833 c 0.24696,0.58209 0.64264,2.2948 0.87902,3.80597 0.48614,3.10779 0.40679,3.39776 -0.62115,2.27842 -0.96993,-1.05593 -1.28461,-2.73188 -0.9679,-5.15059 z m -14.85439,8.31887 c 1.62887,-0.10375 3.55455,0.38328 4.89479,1.39423 1.1815,0.89121 0.85706,0.97918 -1.60248,0.43563 -1.1924,-0.26357 -3.11779,-0.39259 -4.40955,-0.29559 l -2.29289,0.1726 0.98961,-0.86764 c 0.57287,-0.50211 1.4432,-0.77698 2.42052,-0.83923 z m 31.77429,0.65991 0.48783,0.40463 c 0.77467,0.64292 0.58944,3.44063 -0.35967,5.43326 -0.94165,1.97696 -2.68098,4.42233 -2.68098,3.76927 0,-0.89117 1.43329,-6.80874 1.98024,-8.17572 z m -1.12293,0.0672 c 0.18235,0.0417 0.12887,0.4632 -0.20205,1.25522 -0.29998,0.71796 -0.79262,2.5039 -1.09503,3.96875 -0.77104,3.73481 -1.07181,4.09305 -1.37821,1.64073 -0.30295,-2.4247 0.16654,-4.30037 1.46244,-5.84047 0.61229,-0.72767 1.0305,-1.06594 1.21285,-1.02423 z m -10.23813,1.36116 c 1.80745,0 3.14164,2.51053 3.70261,6.96753 0.30776,2.44516 -0.17374,2.34723 -1.17667,-0.23926 -0.44602,-1.15024 -1.42518,-3.0413 -2.17558,-4.20233 -1.38018,-2.1354 -1.43436,-2.52594 -0.35036,-2.52594 z m -20.83542,0.0667 c 1.57339,-0.008 3.57333,0.24594 5.39036,0.84698 2.10774,0.69717 2.11772,1.04674 0.0388,1.3317 -2.69415,0.36927 -5.51222,0.22235 -6.91792,-0.3607 -2.57078,-1.06631 -1.13353,-1.80518 1.4888,-1.81798 z m 18.88876,0.99167 c 0.79921,0 2.86486,3.39178 4.05971,6.66574 0.59298,1.62484 1.02376,3.1169 0.95756,3.31556 -0.16615,0.49844 -4.40851,-3.16059 -5.83944,-5.03638 l -1.16995,-1.53376 0.22376,-0.91209 c 0.32046,-1.30513 1.16551,-2.49907 1.76836,-2.49907 z m -20.13107,6.35465 c 0.17938,-0.003 0.44562,0.0718 0.79995,0.19637 1.53731,0.54064 2.32822,2.33373 2.50373,5.67769 0.17099,3.25775 -0.25041,3.84886 -0.93069,1.30535 -0.24058,-0.8995 -0.98962,-2.82956 -1.66399,-4.28915 -1.00247,-2.16974 -1.24712,-2.88074 -0.709,-2.89026 z m -1.64382,0.27233 c 0.0629,-0.008 0.1235,0.0155 0.18035,0.0765 0.53185,0.57065 2.74828,5.46846 3.24011,7.16028 0.3203,1.1018 0.53185,2.43483 0.47025,2.96261 l -0.11213,0.95963 -1.8185,-1.85105 c -2.27521,-2.3161 -2.944,-3.70936 -2.944,-6.1314 0,-1.4864 0.5434,-3.11855 0.98392,-3.17656 z m 13.02556,2.85461 c 0.60712,0.0443 1.56065,0.57768 2.33009,1.42937 1.59519,1.76568 2.00049,3.18299 2.25309,7.87446 h 5.2e-4 c 0.1123,2.08579 0.11565,3.79253 0.008,3.79253 -0.86181,0 -5.19555,-10.51876 -5.19555,-12.6106 0,-0.36247 0.23983,-0.51235 0.6041,-0.48576 z m -1.83968,0.51366 c 0.32123,-0.0424 0.59716,0.76144 1.14256,2.71974 0.43375,1.55736 1.3479,4.04176 2.0314,5.52111 1.59034,3.44208 1.36281,3.58739 -1.23506,0.79013 -3.17788,-3.42177 -3.90327,-5.65393 -2.63447,-8.10752 0.29377,-0.56808 0.50283,-0.89802 0.69557,-0.92346 z m -20.79512,4.11603 c 1.60831,0 2.81555,0.64719 4.55166,2.44016 1.81824,1.8778 1.11563,1.82072 -2.71714,-0.22014 -3.38009,-1.79981 -3.72755,-2.22002 -1.83452,-2.22002 z m -1.54771,1.41077 c 0.54958,0 7.74163,3.80054 8.39639,4.43694 l 0.51677,0.50229 -1.92754,-0.0207 c -2.38355,-0.0251 -5.11361,-1.20186 -6.43733,-2.77502 -1.00314,-1.19216 -1.24659,-2.14354 -0.54829,-2.14354 z m 50.74264,2.46962 h 0.51987 c 1.4736,0 2.21218,3.85622 1.25832,6.57014 -1.3794,3.92463 -1.77819,3.42701 -1.77819,-2.21899 z m -0.7059,0.29403 v 3.38068 c 0,1.85942 -0.0731,3.38067 -0.16226,3.38067 -0.86583,0 -1.13252,-6.33471 -0.27854,-6.61613 z m -13.18007,3.46181 c 0.33447,0.0221 0.67651,0.0779 1.00821,0.1695 1.15393,0.31861 4.4111,2.91251 4.4111,3.51296 0,0.48696 -0.35292,0.3822 -2.46962,-0.73225 -1.06716,-0.56185 -2.77236,-1.21391 -3.78943,-1.44953 l -1.8495,-0.4284 0.3607,-0.43459 c 0.38917,-0.46892 1.32514,-0.70412 2.32854,-0.63769 z m 26.50743,0.66611 c 1.05688,-0.10156 1.91892,0.12402 2.54248,0.68833 0.9983,0.90346 0.63572,1.13185 -3.04168,1.91771 -1.75565,0.37518 -4.19688,1.09054 -5.42499,1.58957 -3.19044,1.29639 -3.46687,0.94084 -0.78858,-1.01493 2.64762,-1.93337 4.9513,-3.01142 6.71277,-3.18068 z m -29.91291,1.17874 1.67845,0.25114 c 1.86774,0.27954 6.088,2.10215 6.088,2.6293 0,0.32605 -3.7702,0.38562 -5.68957,0.0899 -1.18792,-0.18302 -2.58563,-1.64526 -2.29547,-2.40141 z m -17.97409,0.39636 c 0.83344,0 0.82828,-0.094 0.13694,2.574 -0.87835,3.38968 -1.74474,4.79217 -3.43338,5.55883 -1.94198,0.88164 -3.41892,0.90303 -3.41892,0.0496 0,-1.83316 5.21093,-8.18244 6.71536,-8.18244 z m -4.14807,1.58905 c 0.28055,0.0384 -0.22167,1.04173 -1.51722,3.15433 -2.0481,3.33972 -2.1084,3.39999 -2.1084,2.12441 0,-1.45189 0.86338,-3.09523 2.2779,-4.3372 0.72935,-0.64038 1.17939,-0.96459 1.34772,-0.94154 z m 17.20257,5.64978 c 0.51338,0.0326 0.1739,0.42928 -0.91571,1.29553 -0.76531,0.60842 -2.37564,2.11193 -3.57859,3.3414 -1.20294,1.22948 -2.24794,2.23552 -2.32234,2.23552 -0.39758,0 -0.60565,-0.60965 -0.60565,-1.77457 0,-2.10858 2.20341,-4.00775 5.5547,-4.78679 0.94413,-0.21947 1.55956,-0.33068 1.86759,-0.31109 z m 16.71991,0.21963 c 0.12786,0.0155 0.19947,0.0644 0.19947,0.15347 0,0.32173 -1.84305,2.07441 -2.92282,2.77968 -0.5403,0.3529 -1.79268,1.73139 -2.78278,3.06286 -0.99009,1.33148 -1.83113,2.42053 -1.86913,2.42053 -1.35297,0 -0.18772,-4.20064 1.6309,-5.87923 1.19415,-1.1022 4.84932,-2.64583 5.74436,-2.53731 z"
         id="path39" /><path
         d="m 524.5871,95.953833 c -0.028,-0.0018 -0.0614,0.0049 -0.10077,0.02015 -0.25218,0.09791 -0.73804,0.543124 -1.47433,1.311548 -1.58022,1.649223 -1.99212,2.763819 -1.99212,5.388309 0,2.56618 0.63917,2.49164 1.38699,-0.16175 0.24608,-0.87311 0.9106,-2.682522 1.47691,-4.020948 0.69553,-1.643753 0.95674,-2.462839 0.72968,-2.532662 -0.008,-0.0025 -0.017,-0.004 -0.0264,-0.0047 z m 1.62936,0.306958 c -0.0804,-0.003 -0.1608,0.01817 -0.23926,0.06666 -0.86143,0.532394 -3.89899,8.315279 -3.89899,9.990089 0,0.82422 2.21021,-1.40145 3.90622,-3.93361 l 1.38545,-2.06861 -0.0114,-1.459342 c -0.0105,-1.364119 -0.57939,-2.573891 -1.14205,-2.59519 z m 11.7967,2.715597 c -0.0367,-2.79e-4 -0.0799,0.0036 -0.1292,0.01189 -0.296,0.04974 -0.82014,0.256475 -1.57974,0.644922 -1.35585,0.69335 -4.34806,3.46294 -4.34806,4.02456 0,0.37677 0.25745,0.21768 3.85248,-2.38022 1.82544,-1.31913 2.61735,-2.171348 2.29547,-2.287712 -0.0241,-0.0087 -0.0543,-0.01316 -0.091,-0.01344 z m 1.98127,0.599963 c -0.64363,0.02724 -2.2438,1.142129 -6.20066,3.975469 -1.20493,0.8628 -2.19056,1.71812 -2.19056,1.90066 0,0.61032 3.99686,-0.1188 5.50922,-1.00511 1.85132,-1.08493 3.3104,-2.79572 3.3104,-3.88142 0,-0.630482 -0.0422,-1.005939 -0.4284,-0.989599 z m -24.91166,2.198319 c -0.0177,7.9e-4 -0.0349,0.002 -0.0517,0.005 -0.0767,0.0122 -0.14334,0.0441 -0.19689,0.0977 -0.0743,0.0743 0.34648,0.68392 0.93482,1.35496 0.58835,0.67103 1.32854,1.59883 1.64487,2.06189 0.97122,1.42173 0.89019,0.17141 -0.0982,-1.51515 -0.68235,-1.16436 -1.68299,-2.02905 -2.23294,-2.00453 z"
         style="fill:#ffffff;stroke:#ffffff;stroke-width:0.264583"
         id="path93" /><path
         d="m 503.08764,101.51215 c -0.0256,-0.002 -0.0485,-0.001 -0.0693,0.004 -0.2761,0.0653 -0.1166,0.77985 0.39274,2.41639 0.38885,1.24937 0.88511,3.90688 1.10329,5.90506 0.5001,4.58005 1.04193,4.27746 1.24851,-0.69711 0.17363,-4.18163 -0.27704,-6.00006 -1.75907,-7.09983 -0.43548,-0.32315 -0.73678,-0.51214 -0.91622,-0.52813 z m -1.45366,0.64751 c -1.52571,0 -1.98016,4.59032 -0.70228,7.09517 0.74549,1.46129 2.83452,4.504 3.11195,4.53254 0.0736,0.008 0.0214,-1.29579 -0.11627,-2.89646 -0.37615,-4.37334 -1.52085,-8.73125 -2.2934,-8.73125 z m 11.41429,7.41195 c -0.94,-0.005 -3.25172,2.22267 -3.88865,3.74705 -0.72727,1.74061 -0.58503,2.24239 0.23668,0.8351 0.39651,-0.67909 1.54699,-1.98681 2.55643,-2.90629 l 1.83503,-1.67173 z m 21.71547,0.31626 -2.1978,0.40979 c -1.20864,0.2253 -3.30873,0.73903 -4.6669,1.14153 l -2.46961,0.73174 0.88211,0.25063 c 0.48507,0.13794 3.06463,0.26695 5.73247,0.28629 l 4.85087,0.0351 -0.006,-0.61753 c -0.007,-0.82354 -0.36016,-1.30749 -1.32447,-1.8154 z m -21.39197,1.17615 c -0.82731,0.0509 -3.99356,3.94438 -3.99356,5.02864 0,0.44034 1.36076,-0.56271 2.55178,-1.88103 1.21476,-1.34457 1.92818,-2.75111 1.57458,-3.10472 -0.0327,-0.0327 -0.0776,-0.0463 -0.1328,-0.0429 z m -20.10214,1.72754 c -0.0624,0.002 -0.12248,0.008 -0.18035,0.0165 l -0.82062,0.12144 2.49132,1.32654 c 1.37034,0.72967 3.26586,2.11298 4.21215,3.07371 1.79215,1.81952 2.29868,2.03507 1.56631,0.66663 -1.25079,-2.33713 -5.07607,-5.0932 -7.07502,-5.20279 -0.0666,-0.004 -0.13138,-0.004 -0.19379,-0.002 z m 35.88515,0.55759 c -0.53349,-0.005 -0.9915,-0.005 -1.37769,0.002 -2.31715,0.0402 -2.04805,0.31518 0.0336,1.08211 1.01863,0.37531 2.09021,0.78059 2.38125,0.90072 0.95902,0.39584 4.47865,-0.0342 5.44153,-0.66508 1.47975,-0.96956 0.74205,-1.17443 -4.6483,-1.28932 -0.68786,-0.0147 -1.29689,-0.0249 -1.83038,-0.03 z m -38.13824,0.0982 -0.34416,0.90537 c -1.31512,3.45903 3.2058,6.69214 9.53378,6.81819 l 1.93993,0.0388 -2.63394,-2.48202 c -2.67225,-2.51794 -4.2787,-3.5931 -6.99079,-4.67827 z m 30.224,4.52944 c -1.20529,-0.007 -2.40605,0.21658 -3.30626,0.72037 l -0.5979,0.33434 1.40095,0.23772 c 0.77042,0.13065 2.51187,0.5196 3.87005,0.86403 1.35818,0.34441 2.75779,0.64808 3.1104,0.67489 l 0.64131,0.0486 -0.25167,-0.7922 c -0.38993,-1.22859 -2.48455,-2.01567 -4.62607,-2.08308 -0.0803,-0.003 -0.16046,-0.004 -0.24081,-0.005 z m -5.68855,1.73168 1.02681,1.09399 c 0.5649,0.60161 1.75555,1.32592 2.64584,1.60972 3.24315,1.03379 3.96948,1.08479 5.34076,0.37568 1.15815,-0.5989 1.31797,-1.04371 0.48937,-1.36167 -1.16724,-0.44792 -5.01753,-1.23266 -7.20989,-1.46968 z m 15.30088,5.84615 c -0.20027,0.0126 -0.5919,0.22456 -1.17409,0.58446 -1.80305,1.11435 -2.92886,3.24492 -3.22048,6.09472 -0.28955,2.82975 0.15594,3.11512 1.03715,0.66456 h -5.2e-4 c 0.33947,-0.94406 1.32322,-2.95514 2.18592,-4.46898 1.10786,-1.94406 1.52339,-2.78131 1.24592,-2.86804 -0.0208,-0.007 -0.0453,-0.009 -0.0739,-0.007 z m -33.44395,0.23048 c -0.0147,-7e-4 -0.0295,-1e-4 -0.0439,0.002 -0.0662,0.008 -0.12981,0.0399 -0.18965,0.0997 -0.85069,0.85068 -1.54138,8.30871 -0.9679,10.45156 l 0.22479,0.84129 0.46044,-0.8785 c 0.2532,-0.48324 0.78854,-2.05256 1.18959,-3.48712 0.53133,-1.90057 0.66866,-3.10801 0.50539,-4.44986 -0.17286,-1.4208 -0.7234,-2.55707 -1.17873,-2.57865 z m -1.44333,0.062 c -0.13659,0.004 -0.36507,0.17573 -0.69453,0.47387 -1.69731,1.53605 -1.8173,7.76234 -0.19999,10.37921 0.426,0.68928 0.45278,0.42581 0.28784,-2.87889 -0.1104,-2.21175 0.01,-4.00139 0.37414,-5.55418 0.3789,-1.61509 0.49592,-2.32666 0.28525,-2.41123 -0.0158,-0.006 -0.0332,-0.009 -0.0527,-0.009 z m 36.51509,0.30127 c -0.71489,0 -2.90289,3.47446 -4.10983,6.52622 -1.55432,3.9301 -1.32921,4.21252 1.4025,1.75648 2.21785,-1.99403 3.24114,-4.03145 3.24114,-6.45387 v -1.82883 z m -11.57191,1.53634 c -0.32282,0.0121 -0.65187,0.4389 -0.89917,1.37408 -0.32412,1.22571 -1.81177,9.74523 -1.81177,10.37559 0,0.85205 1.15049,-0.63028 2.38125,-3.06803 l 1.49913,-2.96932 v -2.13476 c 0,-2.13081 -0.53315,-3.49823 -1.10484,-3.57446 -0.0214,-0.003 -0.0431,-0.004 -0.0646,-0.003 z m -1.84123,0.41393 c -0.02,-0.003 -0.0423,5.7e-4 -0.0672,0.009 -0.1493,0.0493 -0.38583,0.28562 -0.71468,0.61443 l -0.96997,0.96997 -0.12454,2.99775 c -0.11295,2.71564 0.12135,5.04474 0.47232,4.69377 0.0754,-0.0754 0.46431,-2.05647 0.86455,-4.40232 0.57917,-3.39455 0.79669,-4.66603 0.59273,-4.85707 -0.0153,-0.0143 -0.0332,-0.0227 -0.0532,-0.0253 z m 13.77022,12.42612 -3.34657,0.40927 c -4.29709,0.52563 -4.58532,0.87718 -1.16892,1.42472 1.51338,0.24255 3.86324,0.71005 5.22139,1.03922 2.80288,0.67933 3.37272,0.48365 2.49442,-0.8568 -0.33497,-0.51122 -1.19229,-1.17386 -1.90479,-1.47278 z m -6.32054,2.4014 c -0.0815,10e-4 -0.15137,0.007 -0.20981,0.016 -0.46755,0.0757 -0.21998,0.41132 0.38499,1.06505 2.59495,2.80409 5.24879,3.4388 8.29768,1.98489 2.1532,-1.02679 1.21679,-1.52757 -4.77697,-2.55488 -1.6916,-0.28994 -2.77972,-0.46587 -3.41529,-0.50385 -0.10593,-0.006 -0.1991,-0.009 -0.2806,-0.007 z"
         style="fill:#ffffff;stroke:#ffffff;stroke-width:0.264583"
         id="path92" /><path
         d="m 509.26452,135.85837 c 2.44939,-0.0105 2.65452,0.43157 0.73174,1.57872 v -5.2e-4 c -0.81304,0.48507 -2.96351,2.30614 -4.77852,4.04627 l -3.30006,3.16363 0.24753,-1.04697 c 0.42594,-1.80284 2.26146,-4.94876 3.71657,-6.36963 l 1.3963,-1.36374 z m 2.67529,1.09813 0.48318,0.66094 c 0.64455,0.8815 0.61149,2.78111 -0.0713,4.10156 -0.65457,1.2658 -3.01863,2.45019 -6.88588,3.4494 -1.43781,0.37149 -2.93164,0.78995 -3.3197,0.93018 -1.09642,0.39619 5.02013,-5.70147 7.5427,-7.51944 z"
         style="fill:#ffffff;stroke:#ffffff;stroke-width:0.264583"
         id="path91" /><path
         d="m 487.33821,139.22664 c -0.79986,0.0213 -1.40174,0.19502 -1.87068,0.52349 -0.79383,0.55602 -1.14621,1.83315 -0.37414,1.35599 0.22535,-0.13928 1.93209,-0.43666 3.79253,-0.66095 l 3.38274,-0.40772 -1.86965,-0.41807 c -1.26282,-0.28243 -2.26093,-0.41399 -3.0608,-0.39274 z"
         style="fill:#ffffff;stroke:#ffffff;stroke-width:0.264583"
         id="path90" /><path
         d="m 490.92456,141.06322 c 1.27821,0.0617 2.39902,0.32616 3.29023,0.78704 1.57722,0.81561 1.32148,1.11578 -1.788,2.09806 -1.78937,0.56526 -3.66204,0.8971 -5.06067,0.8971 h -2.22002 l -0.58395,-0.64492 c -1.32674,-1.46606 -0.44308,-2.28794 3.1285,-2.9099 0.65734,-0.11447 1.2947,-0.18817 1.90582,-0.22117 0.45835,-0.0248 0.90201,-0.0268 1.32809,-0.006 z"
         style="fill:#ffffff;stroke:#ffffff;stroke-width:0.264583"
         id="path89" /><path
         d="m 489.02131,150.11538 -0.93431,0.35502 c -1.42249,0.54083 -1.14143,1.00474 1.28881,2.12959 1.22231,0.56575 3.40189,1.74091 4.84364,2.61172 2.92305,1.76556 3.09418,1.78769 2.32285,0.29611 -0.84714,-1.63821 -3.93857,-4.20277 -5.8198,-4.82761 z"
         style="fill:#ffffff;stroke:#ffffff;stroke-width:0.264583"
         id="path88" /><path
         d="m 486.71189,152.40258 c -0.1185,-0.0153 -0.20419,-0.009 -0.25269,0.0207 -1.0383,0.6417 -0.13229,4.02516 1.33531,4.98678 1.68155,1.10179 8.84288,1.76314 9.39633,0.86765 0.39125,-0.63306 -8.70142,-5.64612 -10.47895,-5.8751 z"
         style="fill:#ffffff;stroke:#ffffff;stroke-width:0.264583"
         id="path87" /><path
         d="m 493.56212,163.21846 c -0.97732,0.0623 -1.84765,0.33712 -2.42052,0.83923 l -0.98961,0.86764 2.29289,-0.1726 c 1.29176,-0.097 3.21715,0.032 4.40955,0.29559 2.45953,0.54355 2.78398,0.45558 1.60248,-0.43563 -1.34024,-1.01095 -3.26592,-1.49798 -4.89479,-1.39423 z"
         style="fill:#ffffff;stroke:#ffffff;stroke-width:0.264583"
         id="path86" /><path
         d="m 493.13993,165.37337 c -2.62233,0.0128 -4.05958,0.75167 -1.4888,1.81798 1.4057,0.58304 4.22377,0.72997 6.91792,0.3607 2.07896,-0.28496 2.06902,-0.63454 -0.0388,-1.3317 -1.81702,-0.60104 -3.81698,-0.85466 -5.39036,-0.84698 z"
         style="fill:#ffffff;stroke:#ffffff;stroke-width:0.264583"
         id="path85" /><path
         d="m 508.41651,154.89959 -0.26096,1.99213 c -0.31671,2.4187 -0.002,4.09466 0.9679,5.15059 1.02793,1.11933 1.10729,0.82937 0.62115,-2.27842 -0.23638,-1.51117 -0.63206,-3.22388 -0.87902,-3.80597 z"
         style="fill:#ffffff;stroke:#ffffff;stroke-width:0.264583"
         id="path84" /><path
         d="m 508.96635,153.36273 c -0.18401,-0.0459 -0.13502,0.3517 0.22479,1.21285 0.29035,0.69491 0.78498,2.63978 1.09916,4.3217 0.61413,3.28768 0.71626,3.58738 1.22525,3.58738 0.18258,0 0.33129,-0.75424 0.33021,-1.67587 -0.003,-2.2075 -0.55827,-4.15827 -1.70739,-5.99653 -0.57129,-0.91393 -0.98801,-1.40361 -1.17202,-1.44953 z"
         style="fill:#ffffff;stroke:#ffffff;stroke-width:0.264583"
         id="path83" /><path
         d="m 519.97963,148.71185 c -1.39733,0.0545 -2.91853,0.32854 -4.44727,0.85008 l -2.44998,0.83613 4.58628,0.14624 4.58577,0.14676 1.5875,0.75189 c 1.48142,0.70145 2.46961,0.97639 2.46961,0.6873 0,-1.96839 -2.08751,-3.20376 -4.98005,-3.40083 -0.43389,-0.0296 -0.88608,-0.0357 -1.35186,-0.0176 z"
         style="fill:#ffffff;stroke:#ffffff;stroke-width:0.264583"
         id="path82" /><path
         d="m 513.12475,151.12669 c -0.98152,-0.0136 -1.62392,0.004 -1.62005,0.0687 0.0138,0.23049 3.79139,2.94434 4.92889,3.54087 2.08852,1.09526 5.7818,1.34818 7.53494,0.51625 0.6132,-0.29098 1.30672,-0.83637 1.54151,-1.21233 l 0.42685,-0.68368 -1.13533,-0.6873 c -0.62465,-0.37808 -1.51808,-0.80369 -1.98541,-0.94567 -0.75048,-0.228 -6.74684,-0.55594 -9.6914,-0.59687 z"
         style="fill:#ffffff;stroke:#ffffff;stroke-width:0.264583"
         id="path81" /><path
         d="m 525.33641,163.87837 -0.57258,1.43144 c -0.54694,1.36697 -1.98024,7.28456 -1.98024,8.17572 0,0.65306 1.73933,-1.79232 2.68098,-3.76927 0.94911,-1.99263 1.13433,-4.79035 0.35967,-5.43326 z"
         style="fill:#ffffff;stroke:#ffffff;stroke-width:0.264583"
         id="path80" /><path
         d="m 524.21348,163.94555 c -0.18235,-0.0417 -0.60056,0.29656 -1.21285,1.02423 -1.29589,1.54009 -1.76539,3.41577 -1.46244,5.84047 0.3064,2.45231 0.60717,2.09408 1.37821,-1.64073 0.30241,-1.46485 0.79505,-3.25079 1.09503,-3.96875 0.33092,-0.79202 0.3844,-1.21352 0.20205,-1.25522 z"
         style="fill:#ffffff;stroke:#ffffff;stroke-width:0.264583"
         id="path79" /><path
         d="m 513.97535,165.30671 c -1.084,0 -1.02982,0.39054 0.35036,2.52594 0.7504,1.16103 1.72956,3.05209 2.17558,4.20233 1.00293,2.58648 1.48443,2.68442 1.17667,0.23926 -0.56097,-4.457 -1.89517,-6.96753 -3.70261,-6.96753 z"
         style="fill:#ffffff;stroke:#ffffff;stroke-width:0.264583"
         id="path78" /><path
         d="m 512.02869,166.36504 c -0.60284,0 -1.4479,1.19394 -1.76836,2.49907 l -0.22376,0.91209 1.16995,1.53376 c 1.43093,1.87578 5.67329,5.53482 5.83944,5.03638 0.0662,-0.19866 -0.36459,-1.69072 -0.95756,-3.31556 -1.19485,-3.27395 -3.2605,-6.66574 -4.05971,-6.66574 z"
         style="fill:#ffffff;stroke:#ffffff;stroke-width:0.264583"
         id="path77" /><path
         d="m 503.27936,175.84663 c -0.36427,-0.0266 -0.6041,0.12329 -0.6041,0.48576 0,2.09184 4.33374,12.6106 5.19555,12.6106 0.1079,0 0.1048,-1.70675 -0.008,-3.79253 h -5.2e-4 c -0.2526,-4.69147 -0.6579,-6.10878 -2.25309,-7.87446 -0.76944,-0.85169 -1.72297,-1.38506 -2.33009,-1.42937 z"
         style="fill:#ffffff;stroke:#ffffff;stroke-width:0.264583"
         id="path76" /><path
         d="m 501.43968,176.36029 c -0.19274,0.0254 -0.4018,0.35538 -0.69557,0.92346 -1.2688,2.45359 -0.54341,4.68575 2.63447,8.10752 2.59786,2.79726 2.8254,2.65194 1.23506,-0.79013 -0.6835,-1.47935 -1.59765,-3.96376 -2.0314,-5.52111 -0.5454,-1.9583 -0.82133,-2.76212 -1.14256,-2.71974 z"
         style="fill:#ffffff;stroke:#ffffff;stroke-width:0.264583"
         id="path75" /><path
         d="m 491.89762,172.71969 c -0.53812,0.01 -0.29346,0.72052 0.709,2.89026 0.67437,1.45959 1.42341,3.38965 1.66399,4.28915 0.68027,2.5435 1.10168,1.9524 0.93069,-1.30535 -0.17551,-3.34396 -0.96642,-5.13705 -2.50373,-5.67769 -0.35432,-0.12461 -0.62057,-0.19954 -0.79995,-0.19637 z"
         style="fill:#ffffff;stroke:#ffffff;stroke-width:0.264583"
         id="path74" /><path
         d="m 490.2538,172.99202 c -0.44052,0.058 -0.98392,1.69016 -0.98392,3.17656 0,2.42203 0.6688,3.81531 2.944,6.1314 l 1.8185,1.85105 0.11213,-0.95963 c 0.0616,-0.52778 -0.14995,-1.86081 -0.47025,-2.96261 -0.49183,-1.69182 -2.70826,-6.58963 -3.24011,-7.16028 -0.0568,-0.061 -0.11742,-0.0848 -0.18035,-0.0765 z"
         style="fill:#ffffff;stroke:#ffffff;stroke-width:0.264583"
         id="path73" /><path
         d="m 480.64456,180.47632 c -1.89302,0 -1.54557,0.42021 1.83452,2.22002 3.83276,2.04086 4.53538,2.09794 2.71714,0.22014 -1.7361,-1.79296 -2.94335,-2.44016 -4.55166,-2.44016 z"
         style="fill:#ffffff;stroke:#ffffff;stroke-width:0.264583"
         id="path72" /><path
         d="m 479.09685,181.88709 c -0.69829,0 -0.45485,0.95138 0.54829,2.14354 1.32372,1.57316 4.05379,2.7499 6.43733,2.77502 l 1.92754,0.0207 -0.51677,-0.50229 c -0.65476,-0.6364 -7.84681,-4.43694 -8.39639,-4.43694 z"
         style="fill:#ffffff;stroke:#ffffff;stroke-width:0.264583"
         id="path71" /><path
         d="m 490.42588,191.94281 c -0.16833,-0.0231 -0.61837,0.30116 -1.34772,0.94154 -1.41452,1.24197 -2.2779,2.88532 -2.2779,4.3372 0,1.27558 0.0603,1.2153 2.1084,-2.12441 1.29555,-2.1126 1.79777,-3.11592 1.51722,-3.15433 z"
         style="fill:#ffffff;stroke:#ffffff;stroke-width:0.264583"
         id="path70" /><path
         d="m 494.57395,190.35376 c -1.50443,0 -6.71536,6.34928 -6.71536,8.18244 0,0.85342 1.47694,0.83202 3.41892,-0.0496 1.68863,-0.76666 2.55503,-2.16915 3.43338,-5.55883 0.69134,-2.66797 0.6965,-2.574 -0.13694,-2.574 z"
         style="fill:#ffffff;stroke:#ffffff;stroke-width:0.264583"
         id="path69" /><path
         d="m 507.62845,197.59259 c 0.51338,0.0326 0.1739,0.42928 -0.91571,1.29553 -0.76531,0.60842 -2.37564,2.11193 -3.57859,3.3414 -1.20294,1.22948 -2.24794,2.23552 -2.32234,2.23552 -0.39758,0 -0.60565,-0.60965 -0.60565,-1.77457 0,-2.10858 2.20341,-4.00775 5.5547,-4.78679 0.94413,-0.21949 1.55956,-0.33069 1.86759,-0.31109 z m 1.42678,0.52245 c 0.58873,0 -1.93383,5.32745 -3.0825,6.5102 l -1.21439,1.25108 h -1.37356 c -1.81198,0 -2.0264,-0.47646 -0.88729,-1.9699 0.98337,-1.28927 6.08132,-5.79138 6.55774,-5.79138 z"
         style="fill:#ffffff;stroke:#ffffff;stroke-width:0.264583"
         id="path68" /><path
         d="m 515.95352,188.11255 c -1.0034,-0.0664 -1.93937,0.16877 -2.32854,0.63769 l -0.3607,0.43459 1.8495,0.4284 c 1.01707,0.23562 2.72227,0.88768 3.78943,1.44953 2.1167,1.11445 2.46962,1.21921 2.46962,0.73225 0,-0.60045 -3.25717,-3.19435 -4.4111,-3.51296 -0.3317,-0.0916 -0.67374,-0.14736 -1.00821,-0.1695 z"
         style="fill:#ffffff;stroke:#ffffff;stroke-width:0.264583"
         id="path67" /><path
         d="m 512.54804,189.9574 -0.21859,0.56895 c -0.29016,0.75615 1.10755,2.21839 2.29547,2.40141 1.91937,0.2957 5.68957,0.23611 5.68957,-0.0899 0,-0.52715 -4.22026,-2.34976 -6.088,-2.6293 z"
         style="fill:#ffffff;stroke:#ffffff;stroke-width:0.264583"
         id="path66" /><path
         d="m 524.34836,197.81222 c 0.12787,0.0155 0.19947,0.0645 0.19947,0.15347 0,0.32173 -1.84305,2.07441 -2.92282,2.77968 -0.5403,0.3529 -1.79268,1.73139 -2.78278,3.06286 -0.99009,1.33148 -1.83113,2.42053 -1.86913,2.42053 -1.35297,0 -0.18771,-4.20064 1.6309,-5.87923 1.19415,-1.1022 4.84932,-2.64583 5.74436,-2.53731 z m 0.29869,1.18494 -0.24598,1.34307 c -0.4027,2.19866 -1.65505,5.12459 -2.59674,6.06629 -0.91053,0.91053 -2.60352,1.16971 -3.5848,0.54881 l -0.50746,-0.32091 1.03663,-1.51361 c 1.00343,-1.46557 3.34295,-3.97027 5.06119,-5.41827 z"
         style="fill:#ffffff;stroke:#ffffff;stroke-width:0.264583"
         id="path65" /><path
         d="m 529.13359,184.65074 -0.4408,0.14522 c -0.85398,0.28142 -0.58729,6.61613 0.27854,6.61613 0.0892,0 0.16226,-1.52126 0.16226,-3.38067 z"
         style="fill:#ffffff;stroke:#ffffff;stroke-width:0.264583"
         id="path64" /><path
         d="m 529.83949,184.35671 v 4.35115 c 0,5.646 0.39879,6.14361 1.77819,2.21899 0.95386,-2.71392 0.21528,-6.57014 -1.25832,-6.57014 z"
         style="fill:#ffffff;stroke:#ffffff;stroke-width:0.264583"
         id="path63" /><path
         d="m 543.21646,188.76419 c -0.23919,-0.0157 -0.49129,-0.0109 -0.75551,0.0145 -1.76147,0.16926 -4.06516,1.24731 -6.71277,3.18068 -2.67829,1.95577 -2.40186,2.31132 0.78858,1.01493 1.22811,-0.49903 3.66934,-1.21439 5.42499,-1.58957 3.6774,-0.78586 4.03998,-1.01425 3.04168,-1.91771 -0.46767,-0.42323 -1.06943,-0.65575 -1.78697,-0.7028 z"
         style="fill:#ffffff;stroke:#ffffff;stroke-width:0.264583"
         id="path62" /><path
         d="m 545.42459,191.41209 c 1.39698,0 -0.74277,4.07667 -2.81068,5.35471 l -1.23869,0.76533 -2.68097,0.11679 -2.68149,0.11627 -1.87792,-0.87488 c -1.03297,-0.48124 -1.78752,-1.02148 -1.6769,-1.20045 0.59306,-0.95958 10.65081,-4.27777 12.96665,-4.27777 z"
         style="fill:#ffffff;stroke:#ffffff;stroke-width:0.264583"
         id="path61" /><path
         style="fill:#ffffff;stroke:#ffffff;stroke-width:0.264583"
         d="m 520.23332,183.23861 2.05409,-0.36249 1.48019,-0.90623 1.38954,-1.69162 0.18124,-0.84581 z"
         id="path94" /><path
         style="fill:#ffffff;stroke:#ffffff;stroke-width:0.264583"
         d="m 520.35416,181.87927 1.57077,-1.87286 1.54059,-1.05727 1.29892,-0.39269 z"
         id="path95" /></g></g></svg>
