<svg width="455" height="759" viewBox="0 0 455 759" fill="none" xmlns="http://www.w3.org/2000/svg">
<g opacity="0.23">
<g clip-path="url(#clip0_2470_8676)">
<path d="M-101.911 194.007C-96.8226 189.405 -88.2169 187.5 -77.4078 191.358L-69.0686 194.335L-59.5161 206.503L-49.9634 218.671L-52.5673 208.337C-56.4084 193.096 -51.5535 180.866 -42.0841 181.931C-32.969 182.956 -30.3221 197.206 -35.9483 214.966C-38.6052 223.352 -39.4289 229.216 -38.3577 232.136L-36.729 236.57L-25.4973 236.821C-12.2225 237.119 32.3098 241.858 41.969 244.001C50.6137 245.919 50.5776 244.85 41.7105 236.191L34.4503 229.102L18.154 230.405C-7.04811 232.422 -24.1886 225.009 -23.406 212.432C-22.6346 200.037 -2.50431 200.365 18.3933 213.114C36.0677 223.896 35.3302 219.382 17.2097 205.874C-1.33738 192.048 -13.7085 173.3 -12.3361 161.096L-11.5805 154.392L-6.30204 150.18C11.0892 136.305 31.9271 158.157 33.4 191.813C34.0784 207.314 37.3703 219.279 43.4282 228.262C50.852 239.27 51.8237 237.688 48.2994 220.326C39.1761 175.384 63.407 138.839 84.664 165.483C95.0158 178.458 89.7007 196.776 69.9786 216.085C56.7776 229.009 55.4904 232.26 59.8788 241.593L63.2263 248.713L81.9259 257.253C98.5929 264.865 112.456 273.118 123.5 282.004L127.185 284.968L127.485 282.291C127.988 277.809 119.819 269.669 106.125 261.005L93.1114 252.772L86.013 243.875C72.0046 226.317 75.4736 212.875 93.4912 214.901L101.922 215.851L109.428 222.075L116.934 228.301L121.781 237.357C124.447 242.337 128.163 251.146 130.039 256.935C131.915 262.724 133.691 266.917 133.986 266.254C137.657 258.013 142.117 251.19 148.072 244.705L155.277 236.859L162.02 235.364C169.219 233.766 180.554 237.209 184.617 242.228C194.383 254.29 184.353 268.244 158.14 279.06C136.267 288.086 135.875 289.611 150.208 309.866C155.282 317.037 160.663 325.136 162.166 327.863L164.9 332.82L164.903 325.679C164.912 305.947 170.284 290.842 180.094 282.98L185.479 278.667L191.849 279.385C205.829 280.957 215.764 293.517 213.935 307.307L212.825 315.68L207.071 322.613C203.906 326.427 194.969 334.321 187.209 340.154L173.099 350.76L176.87 362.94C181.267 377.138 182.476 378.038 183.756 368.062C186.889 343.642 214.809 326.05 226.726 340.987C234.525 350.763 227.491 362.301 203.205 379.563L187.066 391.034L186.32 395.496C185.911 397.95 186.078 404.608 186.693 410.288C189.726 438.333 188.13 461.972 180.364 504.03C174.143 537.715 172.642 547.811 173.838 547.946C176.49 548.244 179.562 536.577 180.314 523.345C181.857 496.218 195.958 480.493 212.224 487.76C228.743 495.139 226.674 506.898 205.947 523.434C192.37 534.266 179.292 549.651 184.517 548.647C196.484 546.345 213.477 532.281 225.094 515.063L232.21 504.515L229.92 497.678C228.456 493.315 222.82 484.335 214.353 472.87C195.177 446.907 190.984 435.091 195.984 421.125L198.228 414.863L203.998 411.403C214.869 404.886 229.274 411.672 235.643 426.312C238.61 433.129 238.599 439.682 235.561 471.472C232.553 502.942 233.209 502.887 248.239 470.379L259.4 446.238L259.241 439.062L259.086 431.886L247.745 420.983C229.637 403.571 223.036 388.062 228.672 376.174L231.478 370.254L237.549 367.613C241.297 365.982 245.692 365.566 249.038 366.523L254.455 368.073L260.24 375.382C268.66 386.018 270.123 394.474 267.434 416.94L265.105 436.395L269.12 433.908C271.328 432.54 275.266 429.124 277.87 426.321L282.604 421.226L282.625 403.252C282.654 376.276 290.727 360.923 304.094 362.426C316.866 363.862 321.208 378.669 313.597 394.838L308.789 405.051L298.674 414.967C277.002 436.208 276.966 436.335 293.65 433.171L305.565 430.911L313.41 433.723C317.726 435.27 323.615 438.784 326.494 441.535L331.729 446.538L331.761 452.124L331.791 457.709L324.975 463.147C310.975 474.316 298.592 472.986 279.342 458.248C272.46 452.978 267.298 450.01 266.341 450.772C265.469 451.468 259.233 463.934 252.485 478.474L240.216 504.911L244.717 502.883C247.193 501.767 253.78 498.768 259.354 496.219L269.488 491.585L279.235 492.539C299.371 494.514 308.33 513.996 295.16 527.173C285.741 536.597 276.495 535.957 253.077 524.267C245.488 520.479 237.81 517.777 235.729 518.16L231.996 518.847L226.16 526.625C222.949 530.903 218.861 535.568 217.074 536.993C213.051 540.204 213.276 540.486 220.749 541.606C228.904 542.828 237.691 546.974 243.666 552.417L248.612 556.924L248.022 563.439C247.332 571.041 241.715 579.402 234.853 583.044C228.072 586.643 217.523 583.307 201.269 572.42C186.316 562.404 181.82 561.042 176.835 565.018C171.711 569.106 172.257 573.781 184.188 627.966C190.12 654.911 194.746 678.988 194.467 681.47C193.547 689.647 186.612 689.328 187.122 681.133C187.475 675.464 165.526 574.038 164.179 575.113C163.599 575.575 161.77 579.098 160.114 582.942L157.104 589.933L146.433 598.291L135.761 606.648L128.484 608.1C116.91 610.408 101.552 605.957 95.6735 598.588C78.3698 576.899 101.972 558.165 143.397 560.708C152.57 561.271 152.635 561.124 145.099 556.992C123.031 544.889 119.804 514.386 140.673 515.153L146.571 515.369L152.874 523.27C156.34 527.614 160.648 534.002 162.448 537.464L165.722 543.759L170.024 519.474C172.39 506.117 173.995 494.776 173.594 494.273C173.193 493.77 169.075 495.222 164.442 497.501C146.641 506.259 129.02 501.291 133.161 488.682L134.569 484.398L139.242 482.88C141.812 482.045 148.663 481.848 154.465 482.442C160.268 483.035 164.682 483.102 164.274 482.591C161.849 479.551 144.709 473.616 133.598 471.968C116.326 469.407 101.514 462.913 93.4969 454.385L87.2861 447.776L86.614 441.739C85.1911 428.959 97.0699 424.373 112.573 431.716L121.255 435.831L132.915 450.779C152.537 475.936 159.21 477.098 142.187 452.393C125.234 427.792 123.219 416.049 134.411 407.12C144.25 399.27 158.67 401.423 167.109 412L171.365 417.335L167.875 443.716L164.381 470.096L167.134 474.943C168.648 477.608 171.562 480.745 173.611 481.916L177.337 484.043L179.564 462.854C182.09 438.819 179.968 406.017 174.357 382.346L170.708 366.944L164.268 358.821C157.004 349.658 150.368 346.045 135.78 343.304C123.158 340.932 123.245 341.683 137.744 359.856L150.802 376.222L151.531 382.271C152.865 393.354 144.253 402.179 135.051 399.157L130.691 397.726L124.937 388.772C119.023 379.571 114.334 365.926 115.371 360.931C117.067 352.759 112.807 355.325 110.741 363.719C109.484 368.824 106.227 377.685 103.504 383.411L98.5517 393.822L89.1452 401.207C82.9626 406.06 77.8193 408.967 74.1411 409.685C57.1794 412.997 43.1095 396.297 50.2288 381.304L53.1163 375.224L64.3008 366.232C71.8133 360.192 78.0988 356.32 83.4472 354.437C93.0334 351.063 105.258 344.702 104.348 343.562C103.291 342.236 53.3785 349.656 45.7401 352.274L38.7562 354.67L38.0183 365.251C36.2773 390.24 30.3631 400.363 13.9792 406.394C-3.4848 412.823 -16.9447 398.341 -8.87083 381.81L-5.93628 375.799L7.23633 366.521C14.4817 361.417 22.6669 356.043 25.4255 354.579L30.44 351.917L25.7146 351.106C23.1152 350.66 15.1679 350.874 8.05416 351.58C-14.7175 353.839 -29.9055 349.068 -39.9725 336.501L-45.281 329.869L-44.5428 323.319C-43.6879 315.717 -41.748 313.829 -32.346 311.458C-17.3192 307.668 -5.54644 313.196 8.28558 330.533L18.108 342.844L26.7606 343.818C35.8793 344.843 60.5348 342.231 60.7615 340.215C60.8346 339.566 56.831 338.952 51.865 338.854C45.3313 338.725 38.8564 336.781 28.4389 331.82L14.0423 324.966L8.81425 318.413C-3.77583 302.633 -1.40595 288.613 14.0514 287.436C26.5665 286.482 37.3596 295.13 50.0846 316.305C54.0825 322.958 60.0644 331.045 63.3773 334.277L69.3992 340.155L76.2931 339.032C107.242 333.994 136.832 334.476 151.136 340.249C156.156 342.275 160.331 343.128 160.415 342.145C160.589 340.092 150.472 322.113 145.962 316.46L142.935 312.666L132.588 314.828C126.897 316.017 117.138 319.216 110.902 321.938C80.6946 335.124 64.002 331.077 58.4886 309.232C51.2796 280.669 89.6467 274.118 124.144 298.023C135.97 306.218 138.131 305.767 129.338 296.939C106.254 273.761 69.9759 256.444 28.1599 248.642C13.8165 245.966 12.7018 246.704 9.19559 261.212C6.10333 274.007 -0.0662719 283.911 -9.77281 291.655L-16.3585 296.91L-23.8509 296.556L-31.3433 296.202L-35.2822 291.265C-46.6035 277.074 -30.9409 256.679 -1.88134 247.773C3.75373 246.047 -1.50772 244.94 -17.0215 244.59C-35.4049 244.175 -36.4259 244.872 -45.4508 264.044C-60.4226 295.851 -84.4587 308.886 -97.6499 292.352L-101.388 287.667L-100.835 280.595L-100.283 273.524L-89.4117 266.151C-82.939 261.761 -72.5861 256.56 -63.8269 253.295C-55.7351 250.28 -49.0453 247.193 -48.9602 246.436C-48.7822 244.853 -47.993 244.851 -67.5777 246.538L-82.5361 247.826L-92.2604 255.689L-101.983 263.55L-110.107 265.693C-119.39 268.141 -132.591 267.306 -138.797 263.878L-143.025 261.541L-145.013 256.169C-151.314 239.153 -120.041 228.086 -96.1176 238.866L-90.2521 241.51L-69.7982 239.534C-41.7565 236.823 -41.5538 236.129 -67.4836 231.676C-77.2061 230.006 -88.2176 227.133 -91.9549 225.29C-109.103 216.838 -110.392 201.676 -101.911 194.007ZM-95.0663 195.433C-97.0113 196.041 -93.9459 198.232 -85.8419 202.628C-80.0681 205.761 -72.6198 210.281 -69.2892 212.672C-59.1674 219.939 -56.6991 218.401 -63.9328 209.334C-71.3309 200.061 -75.928 197.284 -86.1602 195.911C-90.9278 195.272 -93.8993 195.068 -95.0663 195.433ZM-100.371 201.323C-102.299 202.985 -100.899 208.863 -97.0903 213.712L-93.017 218.9L-82.2907 222.304C-69.1605 226.469 -55.0778 228.103 -57.4011 225.191C-62.1222 219.273 -94.7932 200.338 -99.3375 200.885C-99.7516 200.935 -100.095 201.086 -100.371 201.323ZM-134.679 244.475C-135.489 245.794 -130.288 246.573 -120.12 246.088C-100.095 245.133 -98.7371 244.969 -99.7992 243.638C-101.382 241.654 -119.761 240.303 -126.506 241.675C-131.545 242.7 -134.194 243.684 -134.679 244.475ZM-3.59474 154.499C-4.29058 154.827 -4.88059 156.422 -5.59797 159.13C-7.73421 167.193 -4.20097 174.888 8.20017 189.173C22.953 206.167 25.7202 205.709 14.5764 188.117C9.71462 180.442 3.97707 169.654 1.82911 164.143C-0.984537 156.925 -2.43504 153.951 -3.59474 154.499ZM-45.2935 189.294C-47.4305 190.506 -48.6289 196.566 -47.7295 202.798C-46.4674 211.543 -43.2294 216.189 -43.8055 208.428C-43.9932 205.9 -43.9932 200.535 -43.806 196.506C-43.6188 192.477 -43.8506 189.137 -44.3225 189.084C-44.6626 189.045 -44.9881 189.12 -45.2935 189.294ZM3.11173 152.871C0.3821 155.049 8.62182 173.672 19.6208 190.185C23.6465 196.229 27.1372 200.982 27.3747 200.746C28.2746 199.864 27.0784 183.225 25.5932 175.96C23.0473 163.507 8.50245 148.57 3.11173 152.871ZM-16.3239 211.234L-18.9254 213.333L-7.7295 214.066C-1.57103 214.47 6.18 215.847 9.49523 217.129C16.3655 219.785 15.4537 217.611 7.97747 213.511C1.42999 209.92 -13.0168 208.567 -16.3239 211.234ZM-92.157 273.564L-93.7971 277.314C-95.7726 281.826 -95.6559 284.532 -93.3591 287.461L-91.6398 289.66L-74.5996 275.862C-65.2279 268.273 -56.4777 260.546 -55.1527 258.691L-52.7427 255.32L-63.5309 259.696C-69.4642 262.102 -78.3321 266.207 -83.2376 268.818L-92.157 273.564ZM-13.26 217.419C-13.4634 217.564 -13.5848 217.737 -13.6083 217.945C-13.8608 220.191 -7.37552 223.149 0.706756 224.476C8.63111 225.776 16.2663 225.485 15.025 223.929C11.9686 220.098 -10.1934 215.267 -13.26 217.419ZM63.318 166.408C56.0035 170.659 49.3105 193.168 51.6239 205.737C52.8937 212.637 54.0757 210.447 55.2788 198.967C55.914 192.905 58.712 182.674 61.4968 176.233L66.5598 164.524L63.318 166.408ZM-57.7108 266.105C-60.4776 268.234 -64.1873 271.266 -68.9655 275.248C-87.687 290.849 -89.7158 293.652 -81.7544 292.906C-76.5739 292.421 -62.9263 284.019 -60.6537 279.917C-59.964 278.672 -57.3203 274.22 -54.7792 270.022C-49.5862 261.445 -49.4105 259.715 -57.7108 266.105ZM72.4432 162.823L68.8234 169.192C62.3 180.672 59.6549 188.998 57.3111 205.427L55.0013 221.622L61.7461 216.016C83.7489 197.733 90.6083 173.566 76.2111 165.052L72.4432 162.823ZM-22.4135 264.719C-29.79 270.994 -34.9719 279.679 -32.8864 285.119L-31.5425 288.627L-29.4136 286.648C-28.2433 285.559 -24.1543 280.541 -20.3264 275.496C-16.4986 270.45 -11.4421 264.167 -9.08836 261.534L-4.80867 256.745L-7.86363 257.249C-12.7711 258.057 -17.9876 260.954 -22.4135 264.719ZM3.40414 254.107L-3.99794 261.447C-11.076 268.464 -22.4673 282.09 -25.3288 286.963C-27.3601 290.422 -25.5419 291.543 -19.7616 290.394C-12.9176 289.034 -10.4954 286.807 -1.9507 274.012C0.394885 270.5 2.56005 264.585 2.86007 260.866L3.40414 254.107ZM-34.4193 318.125C-35.1553 319.214 -31.3273 321.001 -21.9327 324.747C-14.6171 327.663 -5.47276 331.996 -1.61206 334.374C8.4095 340.549 9.17714 338.286 0.177182 329.104C-8.88657 319.857 -18.8694 315.503 -28.3814 316.649C-31.8918 317.071 -33.9778 317.472 -34.4193 318.125ZM84.7956 224.316C83.0103 225.435 84.2364 231.183 87.7402 236.868C90.9458 242.069 94.8348 245.948 102.069 251.165C107.53 255.103 113.845 259.139 116.102 260.132L120.205 261.938L118.628 258.332C114.614 249.145 91.1503 224.741 85.7468 224.134C85.3669 224.091 85.0505 224.156 84.7956 224.316ZM89.7487 220.764C89.2429 221.657 91.6622 223.841 97.5535 228.479C103.218 232.939 108.687 238.923 114.532 247.049C123.265 259.19 124.102 260.045 123.664 256.409C122.002 242.604 104.027 220.944 93.6999 220.301C91.4091 220.158 90.0523 220.229 89.7487 220.764ZM-38.2548 324.579L-40.1409 326.084L-34.9857 332.546C-28.157 341.105 -18.7993 345.419 -5.34185 346.212C11.2335 347.19 11.2329 345.557 -5.33769 336.053C-18.2049 328.672 -35.7289 322.564 -38.2548 324.579ZM6.74187 297.581C4.93671 299.462 6.90766 305.796 12.9143 313.325L18.9319 320.867L32.5985 327.133C43.8189 332.277 52.0621 334.271 49.6603 331.26C47.8833 329.033 18.6122 303.125 14.0118 299.708C10.2678 296.927 7.82492 296.453 6.74187 297.581ZM14.5169 293.9C14.3347 295.15 18.6875 299.029 30.3026 309.39C38.3296 316.55 45.2876 322.453 45.7665 322.507C47.996 322.758 42.2586 313.869 34.2044 304.592L25.3141 294.351L19.1528 293.659C16.3677 293.346 14.6262 293.15 14.5169 293.9ZM71.143 293.444C62.4592 300.311 62.9807 302.451 73.0079 301.084C77.2478 300.506 89.9776 300.877 101.296 301.909L121.873 303.784L118.047 300.783C111.46 295.614 96.1073 289.673 86.9609 288.754L78.1833 287.872L71.143 293.444ZM158.107 243.537C155.221 245.717 152.066 248.995 148.4 253.553L142.973 260.3L156.074 252.206C163.279 247.754 170.148 243.993 171.337 243.85C175.41 243.36 170.564 239.841 166.192 240.114C163.61 240.275 160.993 241.358 158.107 243.537ZM1.00829 376.38L-2.03663 381.953C-3.71146 385.018 -4.8726 389.775 -4.61504 392.526C-3.93967 399.738 -1.37491 398.823 6.61347 388.522C10.4843 383.53 17.4687 375.255 22.1321 370.132C32.6598 358.567 30.6505 358.137 13.986 368.393L1.00829 376.38ZM64.7898 372.934C55.1254 381.784 51.2323 392.034 56.7809 398.988C57.5957 400.01 60.3123 396.253 63.569 389.598L67.0583 382.467L82.8472 369.022L98.639 355.577L87.6259 359.529C78.4639 362.818 70.5885 367.625 64.7898 372.934ZM182.854 286.754L178.436 293.545C173.55 301.055 169.857 318.831 171.482 327.007C172.961 334.451 173.503 333.891 178.854 319.413C181.493 312.272 185.882 301.976 188.606 296.532C194.021 285.707 193.707 283.276 187.156 285.375L182.854 286.754ZM100.543 358.271C90.2548 366.716 69.9931 384.777 67.9842 387.698C66.7332 389.517 64.7763 393.54 63.635 396.636L61.5612 402.265L64.9966 403.477C66.886 404.144 70.8736 404.116 73.8604 403.415C82.3997 401.413 94.7356 390.108 99.0274 380.351C101.365 375.037 107.062 354.8 106.461 353.947C106.293 353.708 103.972 355.456 100.543 358.271ZM197.461 288.325C191.826 294.145 173.831 337.488 176.998 338.621C181.478 340.225 204.916 317.702 207.751 309.069C210.226 301.534 203.89 287.026 198.412 287.686C198.156 287.716 197.837 287.937 197.461 288.325ZM121.539 354.449C121.018 355.13 120.926 358.035 121.484 362.875C122.605 372.609 126.143 381.066 132.355 388.874C134.949 392.133 137.6 394.379 138.245 393.865C140.044 392.43 139.56 391.083 132.462 377.736C128.831 370.908 125.096 362.642 124.163 359.368C123.007 355.311 122.059 353.768 121.539 354.449ZM127.814 358.329L129.21 363.335C129.978 366.087 133.408 373.254 136.833 379.26C143.876 391.61 144.973 392.411 145.45 385.559C145.9 379.094 142.288 372.285 134.351 364.632L127.814 358.329ZM203.746 345.849C197.699 350.074 192.268 357.223 190.382 364.573C188.72 371.052 190.114 370.449 197.272 361.595C200.742 357.303 207.181 351.419 212.019 348.121L220.606 342.267L214.664 341.991C211.225 341.832 207.375 343.314 203.746 345.849ZM93.3422 437.748L92.7593 440.552C91.8346 445.008 100.375 454.371 109.346 458.735C118.245 463.066 131.284 466.803 129.443 464.496C126.931 461.347 105.186 444.479 99.4002 441.191L93.3422 437.748ZM97.4992 434.82C96.9724 435.481 98.3497 436.82 101.751 438.685C104.835 440.376 111.61 445.298 116.808 449.621C130.06 460.643 132.132 461.061 126.302 451.533C120.538 442.112 113.592 436.808 104.672 435.02C100.457 434.175 98.0259 434.159 97.4992 434.82ZM137.509 410.769C131.123 415.864 133.486 428.495 144.068 445.824C149.873 455.331 151.298 453.627 147.551 441.662C145.884 436.34 144.013 426.899 143.392 420.681C142.249 409.246 141.339 407.714 137.509 410.769ZM211.313 352.273C205.731 356.68 199.381 363.215 194.655 370.46C189.173 378.865 190.123 380.128 198.272 375.275C208.832 368.985 218.374 360.522 221.697 354.5C227.775 343.486 220.614 344.926 211.313 352.273ZM147.371 409.021C144.547 411.274 146.81 429.081 151.817 444.016C154.302 451.429 156.986 457.915 157.779 458.43C159.771 459.723 164.446 434.836 164.214 424.175L164.025 415.458L160.663 412.866C155.852 409.158 149.501 407.322 147.371 409.021ZM236.41 374.727C235.768 375.222 235.038 376.237 234.137 377.676C230.23 383.919 232.49 392.484 241.296 404.794C249.875 416.786 253.03 417.687 248.264 406.782C246.578 402.926 243.784 393.995 242.052 386.937C239.478 376.446 238.338 373.244 236.41 374.727ZM242.986 371.056C242.741 371.205 242.593 371.458 242.564 371.834C242.294 375.35 248.269 398.902 251.3 406.266C253.274 411.062 256.284 416.368 257.99 418.059L261.091 421.134L262.298 409.467C263.808 394.871 262.244 388.063 255.416 379.505C251.226 374.254 244.706 370.019 242.986 371.056ZM205.011 417.858C202.991 419.726 201.125 424.299 200.807 429.477C200.148 440.212 202.712 446.362 215.044 463.65C220.526 471.336 225.324 477.377 225.704 477.074C228.749 474.644 214.41 425.263 208.514 417.873C207.492 416.592 206.223 416.738 205.011 417.858ZM212.959 414.488C211.704 415.243 212.995 418.861 216.588 427.318C219.446 434.043 223.219 445.397 224.974 452.551C229.058 469.195 230.271 469.067 231.565 451.861C233.148 430.813 229.418 420.882 218.019 415.79C215.38 414.611 213.711 414.034 212.959 414.488ZM298.034 370.412C292.352 374.946 289.91 380.635 288.831 391.864C287.7 403.624 290.021 401.442 297.81 383.427C304.679 367.54 304.722 365.076 298.034 370.412ZM307.479 371.034C305.537 372.583 290.84 406.284 290.32 410.378L289.91 413.61L296.662 408.103C305.013 401.296 311.342 389.442 311.584 380.153C311.768 373.113 309.946 369.065 307.479 371.034ZM135.158 522.795L133.321 524.261C128.114 528.415 136.375 544.121 147.395 551.021C163.332 560.999 163.338 558.117 147.423 538.169L135.158 522.795ZM138.48 521.844L148.01 533.789C153.252 540.359 157.798 545.527 158.113 545.276C161.172 542.835 144.258 519.702 140.447 521.115L138.48 521.844ZM194.807 496.923C193.687 497.944 192.636 499.105 191.722 500.364C188.543 504.742 184.347 523.088 186.039 525.21C187.412 526.93 188.364 525.565 192.701 515.661C194.888 510.668 199.074 503.557 202.004 499.858L207.331 493.131L204.831 492.612C202.134 492.052 198.164 493.86 194.807 496.923ZM103.029 573.997C99.0081 576.617 96.5983 579.844 95.9858 583.596C95.0053 589.602 96.9302 589.387 112.138 581.797C119.399 578.174 130.041 573.82 135.787 572.121C150.713 567.708 150.688 565.673 135.712 566.312C120.907 566.945 109.729 569.629 103.029 573.997ZM212.039 493.841L206.817 499.46C201.005 505.713 191.232 524.049 192.718 525.911C193.637 527.063 207.126 516.646 213.074 510.191C216.755 506.195 217.572 497.089 214.415 495.235L212.039 493.841ZM276.662 444.576C273.717 446.925 273.471 446.578 283.434 454.056C296.092 463.556 303.107 466.069 311.234 464.018C320.581 461.659 325.859 457.571 323.454 454.556C318.286 448.079 281.977 440.335 276.662 444.576ZM295.797 438.497C294.914 439.424 299.517 441.553 310.049 445.365C326.7 451.392 327.083 451.435 323.487 446.928C319.394 441.798 311.712 438.426 303.213 438.025C298.831 437.818 296.327 437.941 295.797 438.497ZM250.943 506.95C249.221 508.513 251.539 508.957 257.831 508.947C262.25 508.939 272.177 509.712 279.893 510.665C287.609 511.618 294.137 512.227 294.4 512.017C295.805 510.896 294.821 508.156 291.538 504.04C285.594 496.59 272.455 496.091 258.419 502.785C254.464 504.671 251.976 506.013 250.943 506.95ZM192.488 554.857C192.08 555.273 191.965 555.647 192.216 555.962C193.123 557.099 204.575 558.096 210.378 557.544C213.282 557.268 221.592 558.608 228.844 560.521C236.095 562.435 242.137 563.912 242.271 563.805C247.051 559.991 231.093 548.434 219.936 547.63C212.61 547.101 195.344 551.951 192.488 554.857Z" fill="black"/>
<path d="M-3.84927 154.681C-3.76446 154.602 -3.68071 154.541 -3.59313 154.5C-2.43355 153.952 -0.982852 156.926 1.83072 164.144C3.97863 169.655 9.71633 180.443 14.578 188.118C25.7216 205.71 22.9542 206.168 8.20177 189.174C-4.19908 174.889 -7.73268 167.194 -5.59649 159.131C-4.96877 156.762 -4.43819 155.243 -3.84927 154.681ZM3.11205 152.871C8.50266 148.57 23.0477 163.508 25.5935 175.96C27.0787 183.224 28.2748 199.864 27.375 200.746C27.1375 200.982 23.6468 196.228 19.6211 190.185C8.62236 173.673 0.382489 155.049 3.11205 152.871ZM-16.3236 211.234C-13.0165 208.567 1.43076 209.921 7.97815 213.512C15.4542 217.611 16.3661 219.785 9.4959 217.129C6.18071 215.848 -1.57042 214.47 -7.72883 214.067L-18.9248 213.333L-16.3236 211.234ZM-92.1567 273.564L-83.2363 268.817C-78.3309 266.206 -69.4629 262.101 -63.5296 259.695L-52.7414 255.319L-55.1515 258.691C-56.4765 260.545 -65.2269 268.273 -74.5984 275.861L-91.6385 289.659L-93.3579 287.46C-95.6546 284.531 -95.771 281.825 -93.7956 277.313L-92.1567 273.564ZM-13.2597 217.419C-10.1931 215.267 11.9689 220.098 15.0253 223.929C16.2665 225.485 8.63127 225.776 0.707031 224.476C-7.37507 223.149 -13.8606 220.191 -13.608 217.945C-13.5846 217.737 -13.4643 217.563 -13.2597 217.419ZM62.6345 166.858C62.8606 166.689 63.0898 166.541 63.3182 166.408L66.56 164.523L61.497 176.233C58.7122 182.674 55.9143 192.905 55.279 198.967C54.076 210.447 52.8939 212.636 51.6241 205.737C49.4553 193.954 55.2018 173.433 61.9556 167.411C62.1796 167.209 62.4084 167.027 62.6345 166.858ZM-62.5825 269.983C-60.7117 268.461 -59.0934 267.17 -57.7092 266.106C-49.409 259.717 -49.5846 261.447 -54.7775 270.024C-57.3186 274.222 -59.9624 278.674 -60.6521 279.919C-62.9247 284.021 -76.5723 292.423 -81.7527 292.908C-89.714 293.654 -87.685 290.85 -68.9638 275.25C-66.5749 273.259 -64.453 271.505 -62.5825 269.983ZM72.4437 162.824L76.2117 165.052C90.6087 173.567 83.7493 197.734 61.7467 216.017L55.0019 221.622L57.3116 205.428C59.6555 188.999 62.3006 180.672 68.824 169.193L72.4437 162.824ZM-21.5754 264.024C-17.3366 260.602 -12.4638 258.007 -7.86312 257.249L-4.80817 256.745L-9.08786 261.534C-11.4416 264.167 -16.4981 270.45 -20.3259 275.496C-24.1538 280.541 -28.2429 285.56 -29.4131 286.648L-31.5419 288.628L-32.8859 285.119C-34.9714 279.679 -29.7893 270.994 -22.413 264.719C-22.1377 264.482 -21.8565 264.254 -21.5754 264.024ZM3.40459 254.107L2.86052 260.867C2.56047 264.585 0.395285 270.5 -1.95028 274.012C-10.4948 286.807 -12.9173 289.035 -19.7612 290.395C-25.5413 291.543 -27.3597 290.422 -25.3283 286.963C-22.4669 282.09 -11.0754 268.464 -3.99748 261.447L3.40459 254.107ZM-34.1767 317.893C-33.4335 317.373 -31.4524 317.018 -28.3809 316.649C-18.8693 315.504 -8.88589 319.858 0.177618 329.105C9.17729 338.286 8.40787 340.55 -1.61337 334.376C-5.47394 331.997 -14.6169 327.664 -21.9322 324.747C-31.3265 321.001 -35.1547 319.214 -34.4189 318.125C-34.3651 318.042 -34.2833 317.967 -34.1767 317.893ZM84.6365 224.434C84.6865 224.39 84.7404 224.351 84.7972 224.318C85.0537 224.159 85.3683 224.093 85.7483 224.135C91.1519 224.743 114.615 249.147 118.63 258.334L120.207 261.94L116.104 260.134C113.847 259.141 107.532 255.105 102.071 251.167C94.8362 245.95 90.9473 242.071 87.7417 236.869C84.3475 231.362 83.0886 225.794 84.6365 224.434ZM89.9109 220.585C90.4047 220.214 91.696 220.177 93.7005 220.301C104.027 220.944 122.002 242.604 123.664 256.409C124.102 260.045 123.265 259.19 114.532 247.049C108.688 238.923 103.218 232.94 97.554 228.48C91.6626 223.841 89.2433 221.657 89.7493 220.764C89.7882 220.699 89.842 220.64 89.9109 220.585ZM-38.2543 324.58C-35.7285 322.565 -18.204 328.673 -5.33719 336.053C11.2329 345.558 11.2335 347.19 -5.34131 346.213C-18.7982 345.419 -28.1567 341.105 -34.9852 332.546L-40.1404 326.084L-38.2543 324.58ZM6.96201 297.388C8.13671 296.521 10.5024 297.102 14.0123 299.709C18.6126 303.126 47.8839 329.033 49.6608 331.26C52.0626 334.271 43.8191 332.277 32.599 327.133L18.9324 320.868L12.9148 313.325C6.90837 305.797 4.9374 299.462 6.7424 297.582C6.80955 297.511 6.88324 297.446 6.96201 297.388ZM14.6341 293.661C14.6963 293.594 14.7851 293.544 14.8969 293.503C15.5633 293.257 17.0654 293.425 19.1541 293.66L25.3154 294.352L34.2055 304.593C42.2596 313.869 47.9972 322.759 45.7679 322.508C45.2889 322.454 38.3305 316.551 30.3037 309.391C18.6887 299.03 14.3361 295.151 14.5182 293.901C14.532 293.807 14.5707 293.726 14.6341 293.661ZM1.00883 376.381L13.9865 368.393C30.6506 358.138 32.66 358.567 22.1327 370.132C17.4693 375.255 10.4847 383.531 6.61398 388.522C-1.37418 398.823 -3.9392 399.738 -4.61453 392.526C-4.87207 389.776 -3.7109 385.018 -2.03612 381.953L1.00883 376.381ZM30.1097 367.049C30.4005 366.822 30.6641 366.647 30.8959 366.514C32.7613 365.463 32.8328 367.347 32.5381 371.362C31.274 388.584 23.6867 398.307 8.81601 401.765C-1.68601 404.207 0.210721 399.798 18.4919 379.273C23.6514 373.48 27.0001 369.791 29.1387 367.865C29.496 367.545 29.8161 367.271 30.1097 367.049Z" fill="#515D3C" stroke="#515D3C" stroke-width="0.999999"/>
<path d="M71.1434 293.444C62.4597 300.311 62.9811 302.451 73.0083 301.084C77.2482 300.506 89.978 300.877 101.296 301.909L121.873 303.784L118.048 300.783C111.461 295.614 96.1077 289.672 86.9614 288.754L78.1838 287.872L71.1434 293.444ZM64.7866 304.865L64.9426 308.562C65.1501 313.493 70.6216 320.112 76.7561 322.853C82.637 325.48 94.3282 323 110.808 315.63C116.936 312.889 123.393 310.157 125.16 309.558C130.15 307.868 91.3511 303.565 77.3138 304.253L64.7866 304.865Z" fill="#515D3C" stroke="#515D3C" stroke-width="0.999999"/>
<path d="M158.108 243.538C160.994 241.359 163.61 240.276 166.193 240.115C170.565 239.841 175.41 243.36 171.337 243.851C170.148 243.994 163.28 247.754 156.074 252.206L142.973 260.301L148.4 253.554C152.066 248.996 155.222 245.718 158.108 243.538Z" fill="#515D3C" stroke="#515D3C" stroke-width="0.999999"/>
<path d="M150.613 260.136C146.271 263.957 143.057 268.051 141.207 272.191C137.934 279.519 139.683 279.859 153.438 274.564C161.354 271.517 168.906 267.411 173.847 263.468L181.691 257.211L181.936 253.286C182.491 244.366 177.053 243.953 162.68 251.823C160.035 253.272 157.576 254.808 155.323 256.414C153.634 257.619 152.06 258.861 150.613 260.136Z" fill="#515D3C" stroke="#515D3C" stroke-width="0.999999"/>
<path d="M182.855 286.754L187.157 285.375C193.707 283.276 194.022 285.708 188.606 296.532C185.882 301.977 181.494 312.273 178.855 319.414C173.504 333.891 172.961 334.452 171.482 327.007C169.857 318.831 173.551 301.056 178.436 293.546L182.855 286.754Z" fill="#515D3C" stroke="#515D3C" stroke-width="0.999999"/>
<path d="M197.461 288.325C197.837 287.937 198.157 287.718 198.412 287.686C203.89 287.027 210.226 301.535 207.751 309.07C204.916 317.703 181.478 340.226 176.998 338.622C173.832 337.488 191.826 294.145 197.461 288.325Z" fill="#515D3C" stroke="#515D3C" stroke-width="0.999999"/>
<path d="M203.747 345.85C207.375 343.315 211.225 341.832 214.665 341.992L220.607 342.268L212.019 348.121C207.182 351.42 200.743 357.303 197.273 361.595C190.115 370.449 188.721 371.053 190.383 364.573C192.268 357.224 197.699 350.075 203.747 345.85Z" fill="#515D3C" stroke="#515D3C" stroke-width="0.999999"/>
<path d="M211.313 352.273C220.614 344.926 227.775 343.485 221.697 354.499C218.374 360.522 208.832 368.985 198.272 375.274C190.123 380.128 189.173 378.865 194.655 370.46C199.381 363.214 205.732 356.681 211.313 352.273Z" fill="#515D3C" stroke="#515D3C" stroke-width="0.999999"/>
<path d="M127.814 358.33L134.351 364.633C142.288 372.286 145.9 379.095 145.45 385.559C144.973 392.412 143.876 391.611 136.833 379.26C133.408 373.255 129.979 366.088 129.21 363.335L127.814 358.33Z" fill="#515D3C" stroke="#515D3C" stroke-width="0.999999"/>
<path d="M121.539 354.45C122.06 353.769 123.007 355.312 124.163 359.369C125.096 362.643 128.831 370.909 132.462 377.737C139.56 391.084 140.044 392.431 138.245 393.865C137.6 394.38 134.949 392.134 132.355 388.875C126.143 381.067 122.606 372.609 121.484 362.875C120.926 358.036 121.018 355.131 121.539 354.45Z" fill="#515D3C" stroke="#515D3C" stroke-width="0.999999"/>
<path d="M69.5171 369.062C74.6078 365.316 80.7549 361.996 87.6264 359.53L98.6394 355.578L82.8476 369.022L67.0588 382.468L63.5694 389.599C60.3126 396.253 57.5962 400.01 56.7813 398.989C51.2327 392.034 55.1259 381.785 64.7902 372.935C66.2398 371.607 67.8204 370.311 69.5171 369.062Z" fill="#515D3C" stroke="#515D3C" stroke-width="0.999999"/>
<path d="M100.544 358.271C103.974 355.457 106.293 353.708 106.462 353.947C107.063 354.801 101.366 375.038 99.0281 380.352C94.7363 390.109 82.4003 401.413 73.8611 403.416C70.8743 404.116 66.8866 404.144 64.9973 403.477L61.5619 402.265L63.6357 396.637C64.777 393.54 66.7339 389.518 67.9848 387.699C69.9937 384.778 90.2557 366.716 100.544 358.271Z" fill="#515D3C" stroke="#515D3C" stroke-width="0.999999"/>
<path d="M93.3426 437.748L99.4006 441.191C105.186 444.479 126.931 461.347 129.443 464.496C131.284 466.803 118.246 463.066 109.346 458.736C100.376 454.371 91.835 445.008 92.7597 440.553L93.3426 437.748Z" fill="#515D3C" stroke="#515D3C" stroke-width="0.999999"/>
<path d="M97.4988 434.82C98.0256 434.159 100.457 434.175 104.671 435.02C113.591 436.808 120.537 442.112 126.302 451.533C132.132 461.061 130.059 460.643 116.807 449.621C111.61 445.298 104.835 440.376 101.751 438.685C98.3493 436.82 96.9721 435.481 97.4988 434.82Z" fill="#515D3C" stroke="#515D3C" stroke-width="0.999999"/>
<path d="M137.51 410.769C141.34 407.714 142.249 409.246 143.392 420.681C144.014 426.899 145.885 436.34 147.551 441.662C151.298 453.627 149.873 455.331 144.068 445.824C133.486 428.495 131.124 415.864 137.51 410.769Z" fill="#515D3C" stroke="#515D3C" stroke-width="0.999999"/>
<path d="M147.371 409.022C149.501 407.322 155.852 409.159 160.663 412.867L164.025 415.459L164.215 424.176C164.446 434.837 159.772 459.723 157.78 458.43C156.986 457.915 154.302 451.429 151.817 444.017C146.81 429.081 144.547 411.275 147.371 409.022Z" fill="#515D3C" stroke="#515D3C" stroke-width="0.999999"/>
<path d="M205.011 417.859C206.223 416.738 207.493 416.592 208.514 417.872C214.411 425.263 228.75 474.644 225.705 477.073C225.324 477.378 220.524 471.339 215.043 463.651C202.711 446.363 200.149 440.212 200.808 429.477C201.126 424.298 202.991 419.727 205.011 417.859Z" fill="#515D3C" stroke="#515D3C" stroke-width="0.999999"/>
<path d="M212.959 414.488C213.712 414.034 215.381 414.611 218.02 415.79C229.419 420.883 233.148 430.814 231.566 451.862C230.272 469.068 229.058 469.196 224.975 452.551C223.219 445.398 219.446 434.043 216.589 427.318C212.996 418.862 211.705 415.244 212.959 414.488Z" fill="#515D3C" stroke="#515D3C" stroke-width="0.999999"/>
<path d="M236.41 374.727C238.339 373.245 239.478 376.445 242.052 386.937C243.784 393.995 246.578 402.926 248.263 406.782C253.03 417.686 249.874 416.786 241.296 404.793C232.49 392.484 230.229 383.919 234.137 377.675C235.038 376.236 235.767 375.221 236.41 374.727Z" fill="#515D3C" stroke="#515D3C" stroke-width="0.999999"/>
<path d="M242.986 371.056C244.706 370.019 251.227 374.254 255.417 379.505C262.244 388.063 263.809 394.871 262.299 409.467L261.091 421.134L257.99 418.059C256.285 416.368 253.275 411.062 251.3 406.266C248.269 398.902 242.294 375.35 242.565 371.834C242.593 371.459 242.74 371.204 242.986 371.056Z" fill="#515D3C" stroke="#515D3C" stroke-width="0.999999"/>
<path d="M298.034 370.412C304.722 365.076 304.679 367.54 297.81 383.427C290.021 401.442 287.7 403.624 288.831 391.864C289.91 380.636 292.352 374.946 298.034 370.412Z" fill="#515D3C" stroke="#515D3C" stroke-width="0.999999"/>
<path d="M307.479 371.033C309.946 369.065 311.768 373.113 311.584 380.152C311.342 389.442 305.013 401.295 296.662 408.103L289.91 413.61L290.32 410.378C290.84 406.284 305.537 372.583 307.479 371.033Z" fill="#515D3C" stroke="#515D3C" stroke-width="0.999999"/>
<path d="M295.797 438.498C296.326 437.941 298.831 437.819 303.213 438.025C311.711 438.426 319.394 441.799 323.487 446.928C327.082 451.435 326.699 451.392 310.049 445.366C299.516 441.553 294.914 439.424 295.797 438.498Z" fill="#515D3C" stroke="#515D3C" stroke-width="0.999999"/>
<path d="M276.662 444.576C281.978 440.335 318.286 448.079 323.454 454.556C325.86 457.571 320.581 461.659 311.234 464.018C303.107 466.069 296.093 463.556 283.434 454.056C273.471 446.578 273.718 446.925 276.662 444.576Z" fill="#515D3C" stroke="#515D3C" stroke-width="0.999999"/>
<path d="M250.943 506.951C249.221 508.513 251.539 508.958 257.83 508.947C262.249 508.939 272.177 509.712 279.893 510.665C287.609 511.618 294.137 512.227 294.4 512.017C295.805 510.896 294.821 508.156 291.538 504.04C285.594 496.59 272.455 496.091 258.418 502.785C254.464 504.671 251.976 506.013 250.943 506.951ZM247.375 512.818C245.295 514.478 269.225 526.19 276.617 527.131L284.434 528.128L289.287 524.256C295.689 519.149 295.104 516.861 286.869 514.795C279.761 513.012 249.058 511.476 247.375 512.818Z" fill="#515D3C" stroke="#515D3C" stroke-width="0.999999"/>
<path d="M194.806 496.922C198.164 493.859 202.134 492.052 204.831 492.612L207.33 493.13L202.003 499.857C199.074 503.557 194.887 510.667 192.7 515.661C188.363 525.565 187.412 526.93 186.039 525.209C184.346 523.088 188.543 504.742 191.722 500.363C192.635 499.105 193.687 497.943 194.806 496.922Z" fill="#515D3C" stroke="#515D3C" stroke-width="0.999999"/>
<path d="M212.039 493.841L214.415 495.236C217.572 497.089 216.755 506.196 213.074 510.191C207.126 516.646 193.637 527.063 192.718 525.911C191.232 524.049 201.006 505.713 206.817 499.46L212.039 493.841Z" fill="#515D3C" stroke="#515D3C" stroke-width="0.999999"/>
<path d="M192.487 554.858C192.079 555.273 191.964 555.648 192.215 555.962C193.122 557.099 204.575 558.096 210.378 557.544C213.281 557.268 221.592 558.608 228.844 560.521C236.095 562.435 242.136 563.912 242.271 563.805C247.051 559.991 231.093 548.434 219.936 547.63C212.61 547.102 195.344 551.951 192.487 554.858ZM194.772 559.886L199.427 563.938C207.048 570.571 219.72 577.379 225.702 578.051C231.486 578.702 238.198 574.845 239.915 569.886L240.803 567.321L232.874 564.895C225.197 562.546 209.871 560.291 199.719 560.018L194.772 559.886Z" fill="#515D3C" stroke="#515D3C" stroke-width="0.999999"/>
<path d="M138.48 521.845L140.447 521.115C144.258 519.702 161.172 542.836 158.113 545.276C157.798 545.528 153.251 540.359 148.01 533.789L138.48 521.845Z" fill="#515D3C" stroke="#515D3C" stroke-width="0.999999"/>
<path d="M135.157 522.795L147.422 538.168C163.338 558.117 163.331 560.999 147.395 551.021C136.374 544.121 128.114 528.414 133.32 524.26L135.157 522.795Z" fill="#515D3C" stroke="#515D3C" stroke-width="0.999999"/>
<path d="M100.318 576.076C101.119 575.346 102.023 574.652 103.028 573.997C109.729 569.63 120.907 566.945 135.711 566.313C150.687 565.673 150.713 567.709 135.786 572.122C130.04 573.82 119.399 578.174 112.138 581.798C96.9299 589.387 95.005 589.602 95.9854 583.596C96.4448 580.783 97.9154 578.265 100.318 576.076Z" fill="#515D3C" stroke="#515D3C" stroke-width="0.999999"/>
<path d="M99.9806 591.656C95.0448 595.593 114.096 603.965 125.005 602.652L131.539 601.864L141.341 594.72L151.143 587.572L155.312 579.187C157.605 574.575 158.748 570.539 157.852 570.219C153.052 568.5 108.163 585.127 99.9806 591.656Z" fill="#515D3C" stroke="#515D3C" stroke-width="0.999999"/>
<path d="M165.946 491.766L157.667 496.276L149.882 497.246L140.204 495.186L137.18 492.709L165.946 491.766Z" fill="#515D3C" stroke="#515D3C" stroke-width="0.999999"/>
<path d="M161.688 487.305L150.859 485.115L142.435 485.722L136.739 487.996L161.688 487.305Z" fill="#515D3C" stroke="#515D3C" stroke-width="0.999999"/>
</g>
</g>
<defs>
<clipPath id="clip0_2470_8676">
<rect width="314.5" height="568.601" fill="white" transform="matrix(-0.781699 0.623656 0.623656 0.781699 67.4102 58.8789)"/>
</clipPath>
</defs>
</svg>
