<svg width="331" height="300" viewBox="0 0 331 300" fill="none" xmlns="http://www.w3.org/2000/svg">
<g clipPath="url(#clip0_2658_8009)">
<g clipPath="url(#clip1_2658_8009)">
<path d="M326.961 2.52057C326.129 1.76849 316.449 5.98129 314.038 8.14548C309.604 12.1243 311.066 13.0165 315.985 9.33358C321.741 5.02362 323.003 5.82339 317.423 10.2453L313.207 13.5871L317.36 12.4495C319.644 11.8239 322.531 10.4821 323.772 9.46769C325.732 7.86651 327.827 3.30306 326.961 2.52057Z" fill="white" stroke="white"/>
<path d="M287.73 10.7749L284.968 11.8102C278.571 14.2072 273.91 21.097 274.593 27.1445L274.926 30.0896L276.906 26.2933C279.283 21.7354 283.435 15.65 282.555 18.0157C282.212 18.9377 281.059 21.236 279.993 23.123C277.884 26.8553 276.795 30.4445 277.805 30.3303C278.154 30.2908 279.899 29.112 281.682 27.7105L284.922 25.1611L286.6 20.3921C287.523 17.7688 288.155 14.5312 288.004 13.1982L287.73 10.7749Z" fill="white" stroke="white"/>
<path d="M308.634 41.8322C308.121 41.8902 305.416 42.9074 302.623 44.0927L297.542 46.2479L294.852 49.778C291.363 54.3551 292.344 55.036 296.852 51.1656C302.147 46.619 302.681 47.3881 297.89 52.6604L293.666 57.3064L297.485 55.979C299.586 55.2492 302.286 53.8354 303.485 52.837C305.85 50.8671 310.158 41.6599 308.634 41.8322Z" fill="white" stroke="white"/>
<path d="M278.383 64.6615C277.54 64.8271 276.639 65.0766 275.886 65.3688L273.147 66.4313L275.35 66.9773L277.554 67.5232L280.001 66.064L282.451 64.6046L280.538 64.4555C280.012 64.4146 279.226 64.4959 278.383 64.6615Z" fill="white" stroke="white"/>
<path d="M288.007 64.7259C286.148 64.765 284.387 65.225 282.746 66.1049L280.728 67.1878L286.662 67.6021L292.597 68.0146L287.528 68.7148L282.458 69.415L283.329 70.5226L284.199 71.6287L289.775 70.4084C292.842 69.7373 295.869 68.7813 296.503 68.2834L297.655 67.3784L293.849 65.8719C291.822 65.0692 289.865 64.6868 288.007 64.7259Z" fill="white" stroke="white"/>
<path d="M249.983 42.0404C247.767 42.291 242.152 48.9565 241.112 52.5721C240.603 54.3429 240.467 56.8606 240.81 58.1672L241.435 60.543L244.758 53.4709C249.291 43.824 250.143 45.4077 245.795 55.4002C243.871 59.8211 242.32 63.6391 242.347 63.8837C242.49 65.1454 246.146 61.0639 247.79 57.8076C248.829 55.7519 250.073 51.3275 250.555 47.9742L251.432 41.8765L249.983 42.0404Z" fill="white" stroke="white"/>
<path d="M230.275 61.2716L230.656 64.7713C230.864 66.6961 230.655 69.0366 230.19 69.9724L229.344 71.674L228.827 67.2457C228.542 64.8101 228.753 62.4695 229.294 62.0444L230.275 61.2716Z" fill="white" stroke="white"/>
<path d="M227.523 56.3563C226.912 56.4254 225.896 58.2628 225.262 60.4385L224.11 64.3937L225.123 66.6096L226.134 68.8257L226.65 65.3408C226.933 63.4241 227.599 61.5141 228.131 61.0958C229.427 60.0778 228.929 56.1974 227.523 56.3563Z" fill="white" stroke="white"/>
<path d="M193.182 67.0954C192.868 66.8455 189.222 67.826 185.079 69.2741L177.545 71.9059L172.732 77.9484L167.917 83.9911L166.763 89.2529L165.609 94.5161L167.828 92.3363C169.049 91.1371 173.896 86.2658 178.598 81.5115C188.344 71.6571 191.016 70.56 182.526 79.899C179.42 83.3165 174.123 89.4382 170.755 93.5015L164.632 100.889L174.194 95.5167L183.758 90.143L187.554 85.02L191.35 79.8955L192.55 73.7221C193.21 70.3268 193.496 67.3453 193.182 67.0954Z" fill="white" stroke="white"/>
<path d="M257.59 112.655L253.667 113.889L249.747 115.124L251.957 115.741C253.173 116.081 255.747 116.214 257.676 116.037L261.181 115.716L260.682 116.771L260.184 117.828L256.181 117.752L252.176 117.677L255.002 118.99C258.423 120.579 261.635 120.364 265.046 118.318C268.613 116.179 268.148 115.376 262.503 113.921L257.59 112.655Z" fill="white" stroke="white"/>
<path d="M236.109 93.897L232.837 95.7505C229.621 97.5719 224.602 103.356 225.571 104.123C225.843 104.339 228.554 103.088 231.596 101.347C234.638 99.6051 238.08 98.0909 239.245 97.9806L241.363 97.7803L235.371 101.596L229.379 105.413L234.238 104.464L239.097 103.514L242.585 100.172C244.503 98.3331 246.032 96.4656 245.982 96.0222C245.931 95.5789 243.69 94.9191 241 94.5562L236.109 93.897Z" fill="white" stroke="white"/>
<path d="M155.498 158.863C154.208 159.031 153.014 159.259 152.092 159.542C148.836 160.543 141.915 166.351 142.974 167.195C143.202 167.376 145.64 166.385 148.391 164.992C151.143 163.599 154.906 161.993 156.755 161.422L160.118 160.384L160.217 161.258C160.271 161.739 157.434 163.284 153.913 164.692C150.393 166.1 145.949 168.34 144.038 169.67L140.565 172.087L146.911 171.404L153.258 170.722L158.249 167.056C163.417 163.261 166.178 160.034 165.035 159.123C164.119 158.394 159.37 158.357 155.498 158.863Z" fill="white" stroke="white"/>
<path d="M178.331 172.094C174.732 172.634 170.939 173.67 167.961 175.048C165.215 176.318 163.218 177.555 163.523 177.798C163.828 178.042 167.65 178.547 172.017 178.922C180.331 179.637 194.03 182.144 193.469 182.848C193.289 183.073 187.792 182.666 181.253 181.943C174.715 181.22 168.473 180.865 167.381 181.154L165.395 181.681L172.415 185.705C176.276 187.918 181.06 190.146 183.048 190.655L186.662 191.581L191.359 190.517C193.943 189.931 198.519 188.866 201.53 188.15C204.54 187.434 206.966 186.516 206.92 186.112C206.751 184.616 190.591 172.945 187.531 172.109C185.333 171.508 181.93 171.553 178.331 172.094Z" fill="white" stroke="white"/>
<path d="M132.853 191.397C131.431 191.496 129.979 191.669 128.839 191.893L124.697 192.707L135.098 195.762C147.283 199.34 147.213 200.83 135.011 197.613L126.668 195.412L127.794 197.044C129.52 199.546 132.89 201.69 137.132 202.987L140.98 204.164L147.063 203.519C150.408 203.163 153.1 202.466 153.044 201.969C152.988 201.472 150.117 198.939 146.664 196.342L140.385 191.619L136.683 191.35C135.666 191.275 134.275 191.298 132.853 191.397Z" fill="white" stroke="white"/>
<path d="M79.8291 184.108L83.3834 187.138C85.3383 188.804 88.5923 190.949 90.6141 191.905C92.6358 192.861 94.3391 194.072 94.3983 194.596C94.5335 195.791 86.9672 192.697 83.4541 190.12C82.0094 189.061 80.8834 188.689 80.9517 189.293C81.1652 191.182 85.9789 195.45 89.3459 196.736C92.4293 197.913 100.426 199.129 101.073 198.519C101.243 198.359 100.231 196.504 98.825 194.398C94.3199 187.647 90.7425 185.434 82.7675 184.465L79.8291 184.108Z" fill="white" stroke="white"/>
<path d="M106.732 159.727L103.68 160.767C102.001 161.34 99.4954 163.293 98.1123 165.107L95.5982 168.405L101.372 165.7C104.548 164.211 108.177 163.05 109.437 163.117L111.73 163.241L106.507 165.549C101.07 167.952 95.0174 171.66 95.1153 172.526C95.1465 172.802 97.0901 172.811 99.4349 172.546L103.698 172.064L108.388 168.882C113.293 165.555 116.49 162.732 116.387 161.817C116.353 161.521 114.167 160.929 111.529 160.502L106.732 159.727Z" fill="white" stroke="white"/>
<path d="M193.447 122.033L184.155 123.563L174.863 125.092L170.51 128.007C168.116 129.611 164.398 132.525 162.249 134.485L158.342 138.049L161.485 137.694C163.214 137.498 168.464 135.702 173.152 133.701C177.839 131.7 181.924 130.262 182.228 130.504C182.909 131.047 176.674 134.222 165.214 139.168L163.682 139.829L167.544 140.845L171.405 141.859L175.421 140.872C177.63 140.329 180.71 139.033 182.267 137.991C185.724 135.677 190.443 129.608 192.168 125.257L193.447 122.033Z" fill="white" stroke="white"/>
<path d="M124.089 144.722C124.116 144.957 126.681 146.344 129.79 147.804C132.899 149.264 135.468 150.687 135.5 150.967C135.604 151.888 130.695 150.571 127.496 148.819C123.722 146.752 123.507 148.22 127.195 150.884C130.703 153.418 132.357 153.755 137.33 152.946L141.535 152.262L141.344 151.213C141.025 149.459 132.265 145.197 128.025 144.732C125.833 144.491 124.063 144.487 124.089 144.722Z" fill="white" stroke="white"/>
<path d="M125.101 80.775C123.674 80.8578 112.856 87.6716 108.272 91.3737C105.77 93.3953 102.669 97.1083 101.385 99.6252L99.0495 104.202L99.0905 109.752L99.1317 115.304L103.11 107.895C106.891 100.856 115.653 89.0618 115.845 90.7558C115.894 91.1933 113.278 95.691 110.031 100.751C102.478 112.519 98.0415 123.543 103.125 117.913C104.302 116.609 108.254 113.126 111.905 110.172C121.527 102.389 126.4 93.7949 126.052 85.2215C125.952 82.7514 125.523 80.7504 125.101 80.775Z" fill="white" stroke="white"/>
<path d="M81.9186 126.559C81.0297 125.851 69.6712 134.204 67.3648 137.262C64.6852 140.814 62.3175 147.606 62.6779 150.706C62.7951 151.742 63.6559 154.43 64.5845 156.68L66.2736 160.772L66.9946 155.873C67.3912 153.179 68.4768 148.959 69.4066 146.498C71.2998 141.488 78.5186 130.892 78.7934 132.72C78.8908 133.368 77.2949 136.573 75.2467 139.841C71.7051 145.492 68.4955 154.876 68.8954 158.412L69.0808 160.052L73.5539 156.006L78.0255 151.961L79.6802 147.553C81.1559 143.622 82.8925 127.335 81.9186 126.559Z" fill="white" stroke="white"/>
<path d="M20.9941 115.913L22.3222 120.946C24.1823 127.99 27.8618 133.915 32.4174 137.204C37.9263 141.182 38.6031 140.578 34.2507 135.568C30.8367 131.638 27.3132 126.101 28.1651 126.005C28.3561 125.983 31.1031 129.044 34.2695 132.807C37.4358 136.571 40.1811 139.634 40.3709 139.612C40.9872 139.542 37.6701 127.49 36.3063 124.844C34.9293 122.173 31.2292 119.764 24.7695 117.334L20.9941 115.913Z" fill="white" stroke="white"/>
<path d="M16.9863 147.315L21.0894 151.384C25.7384 155.994 29.6054 157.882 33.4534 157.418L36.0943 157.099L33.9499 156.066C32.7704 155.498 30.4407 154.067 28.7725 152.885L25.7394 150.734L33.3674 153.62L40.9953 156.504L39.2304 154.404C38.2605 153.25 35.5804 151.101 33.2738 149.63L29.0806 146.955L23.0334 147.135L16.9863 147.315Z" fill="white" stroke="white"/>
<path d="M-4.07562 131.015C-4.3076 131.04 -4.49057 131.122 -4.60962 131.271C-4.92843 131.671 -5.03423 135.136 -4.84612 138.971L-4.50461 145.944L-2.74487 148.512L-0.986677 151.079L-1.2844 143.703L-1.58366 136.327L-0.387462 139.805C0.27045 141.718 1.00226 144.994 1.23875 147.086L1.66877 150.889L2.86833 148.641C3.52821 147.404 4.18966 144.622 4.33819 142.459L4.60849 138.525L3.05089 135.928C1.58665 133.486 -2.45122 130.838 -4.07562 131.015Z" fill="white" stroke="white"/>
<path d="M35.5178 180.001C34.3395 180.126 33.1569 180.345 32.113 180.666C25.6316 182.657 17.9168 190.439 18.3784 194.521L18.502 195.615L24.2483 194.965C27.408 194.608 31.2715 193.657 32.8353 192.851C36.0325 191.203 42.3527 185.443 41.6117 184.853C41.3465 184.642 39.1168 185.447 36.6577 186.643C30.5516 189.611 24.4779 191.656 24.3784 190.776C24.3332 190.376 28.1787 188.279 32.9239 186.118C37.6693 183.956 41.7597 181.748 42.0137 181.21C42.5355 180.104 39.053 179.629 35.5178 180.001Z" fill="white" stroke="white"/>
<path d="M25.8601 229.888L26.2408 239.954L26.6215 250.02L28.6699 253.698C30.8024 257.525 37.9346 265.146 39.2442 264.998C39.6577 264.951 40.34 263.55 40.7613 261.883C43.357 251.612 43.3497 247.558 40.721 241.043C39.3134 237.554 31.4784 229.624 30.5683 230.766C30.3542 231.035 31.838 235.57 33.8644 240.846C35.8907 246.121 37.625 251.46 37.7197 252.709L37.8919 254.981L36.6934 252.44C36.034 251.042 33.8055 245.995 31.7398 241.224C29.6743 236.452 27.5054 231.95 26.9217 231.219L25.8601 229.888Z" fill="white" stroke="white"/>
<path d="M5.00606 213.735L3.10715 219.188L1.20669 224.64L2.33696 230.684L3.46706 236.725L6.47973 240.249L9.49394 243.772L11.0954 241.306C11.9765 239.95 13.1589 236.16 13.722 232.886L14.7458 226.933L12.3415 221.661C11.0195 218.761 9.44273 215.722 8.83657 214.908L7.73441 213.427L8.43218 219.889C8.81643 223.443 9.03619 228.717 8.92159 231.609L8.71323 236.868L6.85964 225.301L5.00606 213.735Z" fill="white" stroke="white"/>
<path d="M328.266 0.000376176L326.947 0.162089C326.221 0.251401 323.14 1.29744 320.101 2.48562L314.576 4.64569L311.89 7.87098C310.413 9.64542 309.024 12.0137 308.803 13.1333C308.582 14.253 306.944 16.4006 305.163 17.9062C296.975 24.8271 285.214 35.1919 281.039 39.1659L276.448 43.5349L276.051 40.0169L275.653 36.4988L282.303 28.7697L288.954 21.0406L289.308 15.6466C289.503 12.6805 289.302 9.95883 288.861 9.59826C288.421 9.23769 285.884 9.94295 283.225 11.1656L278.391 13.3886L275.726 17.2184L273.061 21.0484L272.93 26.4578C272.859 29.4332 273.152 32.3161 273.583 32.8641C274.014 33.412 274.318 36.3647 274.259 39.426L274.153 44.9927L266.192 56.6995C258.494 68.0235 254.303 72.8644 249.14 76.3959C246.483 78.2131 230.17 84.9628 227.782 85.2327C225.707 85.4674 240.462 67.5851 244.618 64.8285C249.179 61.8038 251.548 56.8319 252.767 47.7276L253.764 40.2802L252.687 39.4234L251.612 38.5648L249.113 39.8526C245.544 41.692 240.639 47.1277 239.239 50.7941C238.581 52.5196 238.182 56.5888 238.353 59.8364L238.665 65.7416L236.926 68.3769C234.371 72.2528 231.084 76.2952 230.426 76.3696C229.056 76.5245 229.688 73.4109 231.427 71.4388L233.324 69.2859L232.827 64.9589C232.558 62.5782 231.634 58.9024 230.782 56.7907L229.233 52.9512L227.774 53.1161C225.651 53.3562 222.651 58.7136 222.353 62.7982L222.097 66.326L224.791 70.4014C228.328 75.7493 228.477 78.5507 225.459 82.969L222.97 86.6128L212.53 88.9584C198.12 92.1966 192.013 94.7583 177.391 103.696C166.24 110.512 157.25 115.089 156.379 114.395C156.219 114.267 157.953 111.717 160.233 108.727L164.378 103.292L171.71 99.5381C182.285 94.1232 186.191 91.3878 189.438 87.1267C193.386 81.9449 195.52 75.8069 195.553 69.5343L195.582 64.2508L193.058 64.5519C191.669 64.7175 187.602 65.9038 184.02 67.1875L177.507 69.5219L173.222 73.2449L168.935 76.9681L166.698 82.0119C165.468 84.7865 163.895 90.1827 163.204 94.0042L161.948 100.952L158.919 106.012L155.889 111.072L151.044 114.418L146.198 117.765L135.677 121.257C126.612 124.264 113.866 130.246 108.936 133.806C108.12 134.395 104.403 137.055 100.677 139.717L93.9003 144.558L95.5001 140.216C96.38 137.829 97.638 133.266 98.2961 130.078L99.4931 124.283L104.497 119.701C107.248 117.181 111.83 113.25 114.678 110.966C124.034 103.462 128.569 94.7935 128.615 84.3234L128.643 78.2872L126.704 77.785L124.765 77.2813L115.291 83.603C110.081 87.0797 104.659 91.259 103.244 92.8912C97.3354 99.703 95.2845 107.758 96.5683 119.111L97.2737 125.35L95.8517 131.747C95.0694 135.267 93.4795 140.287 92.3191 142.903L90.2097 147.66L85.0846 152.264C82.2666 154.796 77.4769 159.549 74.4404 162.825C71.4037 166.101 68.6605 168.575 68.3452 168.324C67.0287 167.275 69.044 163.995 75.2439 157.09L81.8181 149.768L83.0648 142.472C83.7502 138.461 84.3174 132.685 84.3249 129.637L84.3381 124.095L83.3093 123.609C81.6012 122.803 67.8681 133.039 64.7803 137.42L61.8947 141.512L61.0946 146.461L60.2944 151.408L62.7429 157.473C65.8091 165.067 66.3717 169.779 64.5997 173.035C61.5284 178.678 57.7251 175.522 54.0638 164.293C52.5825 159.75 49.3236 152.591 46.8215 148.383L42.2728 140.734L41.8328 136.842C40.6367 126.265 35.7397 119.805 26.1497 116.157L20.5961 114.045L19.82 115.017L19.0456 115.991L21.7079 124.155L24.372 132.321L27.2614 135.35C28.8505 137.017 32.4796 139.497 35.3261 140.862L40.5012 143.344L43.4412 147.295C46.9857 152.058 51.3841 161.415 50.9699 163.31L50.6712 164.677L45.9482 158.787C39.8335 151.164 35.9812 147.885 30.8601 145.943L26.7097 144.369L20.3255 145.091L13.9413 145.813L14.0693 146.945C14.2739 148.754 24.0897 157.59 27.1674 158.736C28.7109 159.31 32.3896 159.849 35.343 159.931C42.9252 160.144 46.91 162.295 51.3232 168.556L53.2056 171.224L48.3282 169.696C43.2298 168.098 33.3622 167.22 16.5405 166.87L6.56338 166.664L4.20256 164.271L1.83997 161.88L1.4448 158.385C1.22746 156.463 1.49928 154.538 2.04776 154.106C2.59624 153.675 3.78022 151.364 4.67882 148.971L6.31175 144.619L5.79116 140.087L5.2673 135.552L1.06256 132.013C-1.2504 130.067 -3.76042 128.544 -4.51565 128.629L-5.88911 128.785L-6.41502 134.91C-7.13924 143.351 -6.7828 145.379 -3.59473 150.962L-0.822131 155.816L-0.832317 158.818L-0.842503 161.821L-3.05979 158.383C-8.57337 149.833 -16.0559 135.246 -17.8936 129.468C-20.501 121.268 -24.1715 116.271 -30.2592 112.63C-35.8163 109.307 -40.5789 108.242 -49.4451 108.343L-55.5942 108.413L-55.383 110.28C-55.0577 113.158 -44.9894 126.789 -39.9989 131.109C-35.3158 135.163 -32.1879 136.564 -22.0309 139.16L-15.8556 140.737L-10.2343 150.48C-7.14223 155.838 -3.30638 161.585 -1.71118 163.251L1.18919 166.281L-3.04229 165.82C-5.36982 165.566 -9.65018 164.844 -12.5532 164.215C-20.0288 162.595 -56.3878 148.742 -59.8879 146.18C-61.4928 145.005 -64.8487 143.077 -67.3462 141.897C-69.8436 140.716 -72.5067 139.152 -73.2641 138.421C-75.4279 136.334 -79.4091 125.031 -80.0851 119.053C-80.4228 116.066 -81.5372 112.116 -82.5628 110.275L-84.4278 106.929L-90.3213 104.779L-96.2146 102.63L-97.3721 103.836L-98.5312 105.041L-97.4392 109.983C-96.8387 112.701 -95.2333 116.504 -93.8709 118.434L-91.3931 121.942L-85.8957 124.848L-80.3998 127.753L-78.5523 132.304C-77.5366 134.806 -76.9098 137.108 -77.1583 137.42C-77.4068 137.732 -79.5405 137.551 -81.9007 137.017C-84.261 136.484 -89.6825 135.608 -93.9485 135.07L-101.704 134.092L-105.955 127.636L-110.206 121.181L-113.262 119.486C-114.943 118.554 -118.461 117.556 -121.082 117.267C-133.141 115.936 -138.34 115.625 -138.802 116.205C-139.077 116.55 -136.034 120.961 -132.039 126.007L-124.775 135.181L-121.126 136.793C-117.599 138.351 -112.975 138.419 -106.424 137.01C-99.5098 135.521 -72.6465 141.234 -65.8376 145.641L-63.5263 147.136L-68.9055 146.913C-71.8636 146.79 -86.3068 148.181 -101.003 150.006L-127.724 153.324L-139.258 152.533C-145.603 152.097 -153.314 151.708 -156.395 151.668L-161.997 151.596L-164.407 148.485C-165.733 146.775 -168.019 141.658 -169.487 137.113L-172.157 128.849L-175.613 124.959L-179.069 121.067L-184.481 119.064L-189.894 117.061L-197.58 117.868L-205.267 118.676L-206.376 120.061L-207.485 121.447L-202.95 127.766C-200.455 131.242 -195.856 135.989 -192.729 138.314L-187.044 142.542L-182.722 143.421C-175.402 144.911 -168.232 147.953 -166.163 150.447L-164.19 152.825L-171.839 154.399L-179.488 155.973L-190.259 153.443C-204.491 150.1 -210.69 146.748 -223.349 135.542C-229.155 130.403 -238.277 122.786 -243.62 118.617L-253.336 111.037L-259.995 108.4L-266.654 105.762L-269.136 102.588C-270.502 100.842 -272.176 97.5494 -272.857 95.2711C-274.45 89.9416 -278.531 83.5903 -281.696 81.5134C-287.293 77.8399 -296.997 75.3974 -296.734 77.728C-296.695 78.0717 -293.992 82.3465 -290.729 87.2269L-284.797 96.1004L-281.778 97.7523C-280.117 98.6612 -277.773 99.5925 -276.568 99.8214C-275.363 100.05 -273.621 101.19 -272.696 102.355L-271.014 104.474L-272.986 103.963C-274.071 103.681 -280.882 102.449 -288.122 101.225L-301.287 98.9985L-304.856 95.8328C-306.82 94.0916 -309.996 91.0326 -311.915 89.036L-315.406 85.4066L-321.107 83.4966L-326.809 81.5867L-331.701 82.1305L-336.594 82.6727L-337.6 84.2073L-338.606 85.7434L-329.401 92.3745C-318.996 99.8699 -317.569 100.379 -304.814 101.146L-295.635 101.697L-279.065 106.19C-269.952 108.661 -260.4 111.774 -257.84 113.107C-252.337 115.972 -246.698 119.684 -245.461 121.258L-244.578 122.381L-249.138 122.299C-251.646 122.254 -256.974 120.924 -260.98 119.346L-268.264 116.478L-275.887 118.033C-284.339 119.759 -286.529 120.625 -286.354 122.17C-286.239 123.192 -277.632 129.69 -273.149 132.139L-270.865 133.386L-266.531 132.816L-262.198 132.245L-255.519 128.129L-248.838 124.012L-244.273 124.704L-239.708 125.395L-233.653 130.792C-230.322 133.76 -223.859 139.179 -219.292 142.834L-210.987 149.477L-202.002 153.458C-192.126 157.833 -192.058 158.411 -201.669 156.274L-208.054 154.856L-215.674 155.717L-223.294 156.579L-230.299 161.133C-234.151 163.638 -237.836 166.499 -238.487 167.493L-239.67 169.3L-238.044 170.093C-237.149 170.529 -232.84 171.933 -228.467 173.212L-220.517 175.535L-215.116 174.925L-209.715 174.314L-205.861 171.766C-203.742 170.364 -200.062 167.107 -197.685 164.529L-193.363 159.841L-172.901 157.986L-152.438 156.131L-141.48 156.998C-135.452 157.475 -129.398 157.75 -128.028 157.608L-125.537 157.35L-127.944 159.716C-129.269 161.017 -130.76 162.138 -131.257 162.207C-131.754 162.276 -136.183 165.871 -141.099 170.195C-146.016 174.52 -152.373 179.816 -155.225 181.964L-160.412 185.869L-163.379 186.204C-167.741 186.698 -173.027 185.274 -179.961 181.739L-186.112 178.603L-192.017 179.284L-197.92 179.962L-201.662 182.369L-205.405 184.776L-205.19 186.671L-204.976 188.567L-196.753 190.949C-187.067 193.754 -185.001 193.648 -178.452 190.015L-173.526 187.283L-169.3 188.231L-165.075 189.178L-171.994 192.881C-181.157 197.785 -191.576 201.124 -201.286 202.265C-214.471 203.815 -233.48 207.916 -241.849 211.015C-246.194 212.625 -253.287 214.618 -257.613 215.445C-267.127 217.263 -271.775 219.313 -275.077 223.147C-278.117 226.676 -280.631 234.072 -279.518 236.214L-278.703 237.786L-275.609 237.436C-273.907 237.243 -269.369 235.714 -265.522 234.037L-258.527 230.988L-252.34 223.115L-246.154 215.242L-240.597 213.356C-231.861 210.393 -220.181 207.415 -218.09 207.618L-216.184 207.803L-221.265 210.201C-228.41 213.573 -232.486 216.988 -234.474 221.266C-236.256 225.101 -236.199 231.332 -234.375 232.193C-232.655 233.005 -222.651 226.607 -219.964 222.978C-218.596 221.131 -217.212 217.889 -216.887 215.774C-216.563 213.658 -215.737 210.946 -215.052 209.746L-213.807 207.565L-198.938 204.537L-184.068 201.507L-177.281 198.397C-170.508 195.293 -155.322 186.019 -153.628 183.951C-152.39 182.439 -151.071 182.424 -150.902 183.92C-150.824 184.609 -151.496 187.264 -152.395 189.821L-154.031 194.469L-159.557 199.863L-165.084 205.257L-167.243 211.327C-168.43 214.665 -169.535 219.219 -169.697 221.445L-169.993 225.493L-168.024 225.275C-166.942 225.156 -162.541 223.162 -158.244 220.842L-150.433 216.623L-147.725 212.732L-145.018 208.842L-144.907 204.233L-144.796 199.626L-147.003 193.574L-149.212 187.521L-148.341 183.555L-147.473 179.588L-140.782 173.241C-137.102 169.751 -130.774 164.699 -126.717 162.015L-119.341 157.137L-98.8496 153.83L-78.3579 150.525L-67.9469 151.656L-57.5345 152.788L-42.7359 158.217C-28.4088 163.473 -25.3796 165.247 -29.8724 165.755C-34.1095 166.234 -44.8454 171.981 -54.4299 178.901L-64.1873 185.946L-68.8825 185.948L-73.5775 185.949L-77.721 183.342C-80.0004 181.908 -84.2632 179.392 -87.1931 177.751L-92.5191 174.767L-99.0758 175.934L-105.633 177.098L-106.801 178.621L-107.97 180.143L-105.156 181.595C-103.608 182.395 -99.7461 184.869 -96.5735 187.092L-90.8049 191.135L-81.8117 189.59C-76.8655 188.74 -71.5935 188.222 -70.0967 188.44L-67.3767 188.835L-74.9324 193.023C-79.0882 195.326 -85.2804 198.082 -88.6928 199.147L-94.8973 201.084L-102.362 199.181C-111.314 196.9 -114.963 197.176 -120.018 200.52C-124.411 203.426 -129.874 208.931 -129.72 210.298C-129.662 210.81 -126.736 212.187 -123.218 213.358L-116.821 215.485L-111 214.899L-105.178 214.311L-102.211 212.14C-100.58 210.945 -97.2785 208.188 -94.875 206.011L-90.505 202.053L-84.2395 200.003L-77.9738 197.956L-68.3981 191.715L-58.8224 185.476L-61.1531 191.768L-63.4844 198.058L-67.6237 200.519C-69.9005 201.872 -72.6499 203.943 -73.7326 205.12C-75.8997 207.475 -79.6197 221.274 -78.4789 222.725L-77.7626 223.637L-74.9986 222.633C-69.7938 220.743 -64.676 216.711 -63.0617 213.225C-62.1738 211.308 -61.2653 206.802 -61.0432 203.211L-60.6397 196.682L-57.4339 189.351L-54.2294 182.017L-49.7846 178.72C-43.1395 173.791 -34.9765 169.639 -28.1704 167.728L-22.0996 166.024L-15.8937 167.414C-7.98581 169.185 8.79359 170.966 13.19 170.499C15.0466 170.301 16.9129 170.582 17.3379 171.123C17.763 171.663 17.675 172.156 17.143 172.216C16.6109 172.276 14.1647 174.254 11.7062 176.613C6.66064 181.454 -0.67927 192.685 -6.67669 204.742C-11.139 213.712 -12.8857 215.533 -19.5101 218.105L-24.0053 219.849L-32.8086 218.511L-41.6118 217.171L-46.3338 218.366C-48.9307 219.023 -53.3591 221.027 -56.1744 222.819L-61.2934 226.076L-63.6938 230.781C-65.0147 233.368 -66.1343 237.342 -66.1814 239.612L-66.2684 243.74L-61.639 243.184C-53.6303 242.221 -42.0429 238.99 -38.7873 236.811C-37.0651 235.658 -33.461 231.937 -30.7786 228.543L-25.9014 222.372L-21.8557 221.217C-19.6304 220.582 -16.6886 219.616 -15.3176 219.069L-12.825 218.075L-14.8641 222.496C-21.853 237.649 -29.514 246.609 -45.1163 257.882L-54.5182 264.676L-63.2326 268.09C-74.9795 272.693 -77.8917 274.42 -82.2739 279.382L-86.0097 283.61L-87.4245 289.308C-88.2033 292.441 -88.8979 297.555 -88.9673 300.671L-89.0935 306.338L-87.582 307.79L-86.0647 309.241L-84.462 308.365C-83.5803 307.884 -80.5537 306.376 -77.7354 305.013C-69.6085 301.082 -64.6147 297.409 -60.9358 292.661L-57.5188 288.25L-53.1924 275.985L-48.8677 263.72L-40.9594 258.171C-36.6099 255.12 -30.6601 249.953 -27.7373 246.688L-22.4243 240.752L-22.2649 242.161C-22.1773 242.937 -22.6799 247.006 -23.383 251.203C-24.9187 260.372 -24.4602 265.573 -21.6733 270.582C-19.4015 274.665 -12.9091 280.531 -10.9119 280.305L-9.66234 280.164L-8.71982 273.146C-8.20148 269.286 -7.93438 264.739 -8.12626 263.042C-8.5952 258.895 -11.8215 252.439 -15.6615 247.967L-18.8113 244.301L-19.2175 240.708L-19.6237 237.116L-16.69 231.839C-15.0774 228.937 -12.2606 223.261 -10.4302 219.227C-4.11934 205.318 3.8365 190.305 6.73635 186.834L9.64389 183.353L9.54401 188.657C9.48921 191.575 8.70717 195.321 7.80677 196.98C6.90628 198.64 5.82421 202.375 5.40174 205.281C4.97928 208.188 3.53902 212.991 2.20064 215.956C-0.670989 222.318 -1.48134 228.064 -0.123271 232.449C1.17819 236.651 4.85102 242.208 7.65824 244.223L9.92313 245.849L11.3946 243.8C12.2039 242.674 13.5913 239.341 14.4778 236.395L16.0897 231.039L15.5583 226.339L15.0269 221.64L11.1454 215.716C6.62119 208.812 6.37618 207.542 8.41693 201.572L9.93936 197.117L10.3953 200.277C11.0526 204.837 14.2746 211.861 19.0559 219.158L23.2218 225.517L23.8323 237.434L24.4413 249.352L26.2692 253.632L28.097 257.913L33.3891 262.609L38.6799 267.305L40.2068 266.814L41.735 266.323L43.4618 259.167L45.1905 252.014L44.585 246.73L43.9793 241.444L41.4885 237.28L38.9991 233.114L32.8742 229.306L26.7509 225.497L23.1208 220.535C21.1245 217.806 17.9429 212.558 16.0497 208.872L12.607 202.169L12.0935 193.662L11.5818 185.155L12.9703 181.153L14.3573 177.151L18.6672 174.352L22.9756 171.555L28.7157 170.906C35.2612 170.166 45.1033 171.341 50.9842 173.564L54.9864 175.077L50.2543 176.998L45.5207 178.92L40.7155 178.143L35.9104 177.366L31.7563 178.56C24.0337 180.78 15.0928 190.847 16.5818 195.644L17.1179 197.376L24.1908 196.892L31.2634 196.406L35.848 193.582L40.4326 190.758L44.1361 185.163L47.8379 179.566L52.4515 178.331C54.989 177.652 57.8732 177.307 58.862 177.563L60.6602 178.03L58.2628 181.765C54.7321 187.268 49.6795 196.755 49.7845 197.683C50.0098 199.676 51.9015 197.904 54.0559 193.684C55.3472 191.155 57.9083 186.986 59.7472 184.422L63.0905 179.759L68.1859 183.742L73.2814 187.725L73.1121 186.227C73.019 185.404 70.9955 183.141 68.6148 181.197L64.2851 177.662L66.0345 176.754L67.7839 175.846L71.0893 178.365C72.9074 179.752 75.4266 182.782 76.687 185.099C81.3557 193.68 83.4347 196.293 87.1239 198.207C91.0672 200.252 99.2846 201.088 101.932 199.713L103.468 198.915L99.3005 192.763L95.1327 186.61L91.8229 185.078C90.002 184.234 86.1756 183.255 83.3202 182.903L78.1274 182.262L74.9679 178.965C73.2302 177.152 72.0591 175.64 72.3642 175.605C72.6694 175.571 76.7837 176.601 81.5084 177.891C86.233 179.182 93.2984 180.838 97.2086 181.572L104.319 182.907L110.62 186.559C114.085 188.568 120.905 193.486 125.773 197.489L134.626 204.767L138.984 205.437C144.341 206.263 154.446 205.194 156.44 203.591L157.912 202.406L150.84 196.671C146.951 193.517 142.087 190.438 140.033 189.828L136.297 188.718L129.233 189.517L122.169 190.315L116.985 187.795C114.134 186.409 111.414 184.781 110.94 184.178L110.077 183.083L115.76 182.964C118.885 182.899 129.508 182.213 139.367 181.439L157.293 180.033L161.332 181.593C163.553 182.452 168.233 185.042 171.732 187.351L178.096 191.549L183.842 192.554L189.587 193.557L199.937 190.516C205.63 188.843 210.254 187.177 210.213 186.813C210.172 186.45 206.277 182.89 201.557 178.902L192.976 171.651L188.862 170.487L184.75 169.321L178.114 170.098L171.475 170.874L165.64 174.082L159.805 177.29L144.829 178.386L129.852 179.482L133.66 176.95L137.469 174.418L143.004 174.443L148.541 174.468L153.736 172.264L158.931 170.059L163.807 165.22C166.489 162.559 168.61 159.737 168.521 158.948L168.358 157.512L163.528 156.86C156.722 155.942 152.347 156.667 147.62 159.493L143.527 161.94L140.018 167.369L136.509 172.797L131.47 176.216L126.432 179.634L117.953 180.407L109.477 181.181L99.6724 179.479C94.2799 178.543 89.6062 177.569 89.2875 177.315C87.8266 176.151 92.1565 174.568 98.4573 173.961L105.373 173.295L109.35 170.588C111.537 169.099 114.607 166.562 116.174 164.95L119.023 162.02L117.521 160.576C115.665 158.793 107.12 157.541 104.601 158.684C103.58 159.146 101.49 160.163 99.9556 160.943L97.166 162.361L93.9866 167.904L90.809 173.448L87.3731 174.503L83.9387 175.558L77.5221 174.384C73.9927 173.738 70.6815 172.93 70.165 172.591C68.1695 171.279 94.7098 146.118 102.905 141.551C106.879 139.337 111.994 138.562 114.928 139.731C116.063 140.182 119.034 143.399 121.533 146.88L126.077 153.21L130.152 154.607L134.228 156.006L138.373 154.965C140.653 154.393 142.981 153.345 143.546 152.635L144.575 151.344L139.909 147.651L135.244 143.957L128.819 143.051C123.109 142.246 117.462 139.823 118.439 138.598C118.635 138.351 124.14 138.737 130.67 139.454C137.201 140.172 145.634 140.726 149.411 140.688C153.188 140.65 160.325 141.416 165.271 142.389L174.265 144.159L179.648 141.717C182.609 140.373 185.93 138.325 187.028 137.164C190.527 133.466 195.63 124.112 195.375 121.863L195.13 119.692L184.22 121.418L173.311 123.146L168.952 126.41C166.555 128.205 162.198 131.67 159.271 134.11L153.952 138.545L150.226 138.954C148.177 139.179 140.185 138.637 132.466 137.751C124.747 136.864 116.26 136.369 113.606 136.651L108.782 137.165L110.654 135.774C116.089 131.739 126.858 127.129 144.459 121.303L164.067 114.813L176.65 106.977L189.236 99.1434L192.399 99.954C194.14 100.4 198.964 102.944 203.121 105.609C216.442 114.149 226.799 117.651 240.384 118.207L247.991 118.518L253.024 120.506C255.793 121.598 259.433 122.337 261.114 122.147C264.281 121.789 270.872 117.311 270.683 115.645C270.532 114.305 262.817 111.562 258.264 111.23L254.44 110.952L250.63 113.075C245.819 115.756 241.205 116.279 232.847 115.093C226.769 114.231 215.53 110.75 215.41 109.693C215.382 109.445 219.303 108.966 224.122 108.626C228.942 108.286 234.823 107.302 237.194 106.439L241.505 104.871L245.379 100.713C247.51 98.4268 249.202 96.0929 249.138 95.5271C248.935 93.7345 241.545 92.2424 235.986 92.871L230.627 93.4769L225.126 100.469L219.623 107.463L215.499 107.297C210.27 107.088 208.676 106.466 200.312 101.365L193.484 97.1985L196.383 96.0489C197.979 95.4169 204.91 93.5239 211.786 91.842C238.805 85.2325 250.101 80.4787 258.285 72.2741C260.136 70.4182 263.034 68.4715 264.724 67.9484L267.797 66.9972L272.245 68.1927C274.691 68.8502 278.624 70.3603 280.983 71.5471L285.271 73.7046L288.19 73.2899C292.276 72.7098 299.621 68.5875 299.438 66.9761C299.289 65.6545 289.659 62.184 286.955 62.477C286.19 62.5595 286.846 61.763 288.413 60.7062C289.981 59.6494 293.374 58.5457 295.952 58.2541C304.267 57.3139 309.954 51.3426 310.35 43.1346L310.538 39.2351L307.029 40.3752C305.098 41.0024 301.88 42.1358 299.877 42.8933L296.234 44.2712L293.877 47.4986C292.58 49.2739 290.67 52.5987 289.633 54.8866L287.746 59.0456L284.481 60.5471C280.562 62.3492 264.944 66.2472 264.156 65.6195C263.85 65.3754 265.998 61.7299 268.928 57.5178C274.605 49.359 287.735 35.5473 300.502 24.3048L308.291 17.446L315.595 15.0535C326.607 11.4454 329.273 8.91069 328.572 2.71345L328.266 0.000376176ZM326.961 2.52071C327.827 3.3032 325.733 7.86665 323.773 9.46783C322.531 10.4822 319.645 11.8241 317.36 12.4496L313.208 13.5872L317.423 10.2454C323.003 5.82353 321.742 5.02376 315.985 9.33372C311.067 13.0166 309.604 12.1244 314.038 8.14562C316.45 5.98143 326.129 1.76863 326.961 2.52071ZM287.73 10.7753L288.004 13.1986C288.155 14.5316 287.523 17.7692 286.6 20.3925L284.922 25.1615L281.682 27.7109C279.899 29.1123 278.154 30.2912 277.805 30.3307C276.795 30.4449 277.885 26.8557 279.993 23.1234C281.059 21.2364 282.212 18.9381 282.555 18.0161C283.436 15.6504 279.283 21.7358 276.906 26.2937L274.927 30.09L274.594 27.1449C273.91 21.0974 278.571 14.2075 284.968 11.8106L287.73 10.7753ZM-295.132 78.306L-292.965 78.6193C-287.996 79.3357 -277.534 86.5663 -277.2 89.5191C-277.123 90.1982 -276.672 91.5925 -276.199 92.6176C-275.726 93.6427 -276.445 93.162 -277.796 91.5483C-280.723 88.0503 -288.778 81.794 -288.627 83.1361C-288.568 83.6544 -287.285 85.1702 -285.776 86.5039C-284.267 87.8375 -281.516 90.8041 -279.662 93.097C-275.655 98.0549 -276.768 98.6096 -282.591 94.5574L-286.819 91.6151L-290.977 84.9607L-295.132 78.306ZM-336.115 84.4895L-331.018 84.564C-324.701 84.6556 -318.633 86.8871 -313.986 90.829L-310.433 93.8429L-318.063 90.7271C-327.078 87.0459 -329.326 87.6062 -320.664 91.3756C-317.385 92.8028 -313.138 95.0137 -311.228 96.2883C-307.565 98.732 -307.799 98.9588 -313.294 98.2878C-318.256 97.6819 -323.51 94.9129 -330.209 89.3733L-336.115 84.4895ZM249.983 42.0407L251.433 41.8768L250.555 47.9745C250.073 51.3279 248.829 55.7523 247.791 57.8079C246.146 61.0642 242.49 65.1458 242.347 63.884C242.32 63.6395 243.871 59.8215 245.795 55.4005C250.143 45.408 249.292 43.8244 244.758 53.4712L241.435 60.5433L240.81 58.1675C240.467 56.8609 240.603 54.3433 241.112 52.5724C242.152 48.9569 247.767 42.2913 249.983 42.0407ZM308.634 41.8324C310.157 41.6601 305.849 50.8673 303.484 52.8372C302.286 53.8356 299.586 55.2494 297.485 55.9792L293.666 57.3066L297.889 52.6606C302.681 47.3883 302.147 46.6192 296.852 51.1658C292.344 55.0362 291.362 54.3553 294.852 49.7782L297.542 46.2482L302.623 44.0929C305.416 42.9076 308.121 41.8904 308.634 41.8324ZM227.523 56.3562C228.928 56.1974 229.426 60.0777 228.131 61.0957C227.599 61.514 226.933 63.424 226.649 65.3407L226.134 68.8256L225.123 66.6095L224.11 64.3936L225.262 60.4384C225.896 58.2627 226.912 56.4253 227.523 56.3562ZM-273.287 119.51C-268.491 118.941 -264.859 119.636 -260.457 121.726L-255.633 124.016L-263.633 124.274C-268.033 124.416 -273.324 124.505 -275.389 124.471L-279.142 124.409L-273.099 125.773C-269.776 126.523 -264.912 126.942 -262.289 126.702L-257.521 126.266L-259.992 128.076C-261.351 129.071 -264.413 130.122 -266.794 130.412L-271.124 130.941L-275.587 128.39C-278.042 126.988 -281.034 124.956 -282.234 123.876L-284.415 121.913L-278.542 120.494C-276.613 120.029 -274.885 119.7 -273.287 119.51ZM193.182 67.0956C193.496 67.3455 193.211 70.327 192.55 73.7223L191.351 79.8957L187.555 85.0202L183.759 90.1432L174.195 95.5169L164.632 100.889L170.755 93.5017C174.123 89.4384 179.42 83.3167 182.527 79.8992C191.016 70.5602 188.345 71.6572 178.599 81.5117C173.896 86.266 169.05 91.1373 167.829 92.3365L165.61 94.5163L166.763 89.253L167.917 83.9913L172.732 77.9486L177.545 71.9061L185.08 69.2743C189.223 67.8262 192.869 66.8457 193.182 67.0956ZM-96.7405 105.601L-93.8344 105.99C-87.6262 106.823 -83.1706 110.69 -82.5994 115.741L-82.41 117.417L-85.9956 113.486C-90.4709 108.58 -93.5135 106.971 -89.6584 111.549C-88.0981 113.403 -85.6324 116.872 -84.1777 119.259C-82.723 121.646 -81.703 123.813 -81.9113 124.074C-82.1196 124.336 -84.38 123.348 -86.9346 121.88C-91.7633 119.106 -93.6592 116.422 -95.5959 109.621L-96.7405 105.601ZM125.101 80.775C125.523 80.7506 125.952 82.7515 126.052 85.2216C126.4 93.795 121.527 102.389 111.905 110.172C108.254 113.126 104.302 116.609 103.125 117.913C98.0417 123.543 102.478 112.519 110.031 100.751C113.278 95.6911 115.894 91.1934 115.845 90.7559C115.653 89.0619 106.891 100.856 103.11 107.895L99.1319 115.304L99.0907 109.752L99.0497 104.202L101.385 99.6253C102.67 97.1084 105.77 93.3954 108.273 91.3738C112.856 87.6717 123.674 80.8578 125.101 80.775ZM278.383 64.6616C279.226 64.496 280.012 64.4146 280.538 64.4555L282.45 64.6046L280.001 66.064L277.553 67.5233L275.35 66.9774L273.147 66.4313L275.886 65.3689C276.639 65.0767 277.539 64.8272 278.383 64.6616ZM-200.546 119.835C-196.451 119.448 -189.755 119.785 -186.439 120.75C-184.411 121.341 -181.101 123.201 -179.083 124.885L-175.414 127.947L-173.236 133.08C-170.109 140.45 -170.314 140.796 -175.144 136.294C-179.142 132.568 -188.485 127.242 -193.037 126.095C-197.089 125.073 -194.478 127.288 -186.839 131.353L-178.896 135.582L-175.117 139.931C-173.039 142.323 -171.484 144.274 -171.66 144.265C-171.837 144.257 -175.11 143.364 -178.934 142.282L-185.886 140.314L-191.043 136.477C-193.879 134.366 -198.22 130.09 -200.688 126.974L-205.174 121.308L-203.555 120.467C-202.989 120.173 -201.912 119.964 -200.546 119.835ZM288.006 64.726C289.865 64.6869 291.821 65.0693 293.849 65.872L297.654 67.3785L296.502 68.2835C295.869 68.7813 292.842 69.7374 289.775 70.4085L284.198 71.6287L283.328 70.5227L282.458 69.4151L287.527 68.7149L292.597 68.0147L286.661 67.6021L280.727 67.1879L282.745 66.105C284.387 65.2251 286.148 64.7651 288.006 64.726ZM-135.94 117.56L-133.999 118.08C-132.932 118.365 -129.453 118.731 -126.268 118.895C-123.083 119.058 -118.763 119.856 -116.667 120.668L-112.858 122.144L-109.07 127.336C-106.986 130.192 -105.563 132.56 -105.907 132.599C-106.785 132.699 -116.111 128.61 -121.98 125.551C-127.287 122.787 -129.731 123.205 -125.205 126.103C-123.687 127.075 -119.283 129.358 -115.418 131.178C-111.553 132.998 -108.335 134.841 -108.265 135.275C-108.012 136.837 -115.102 136.805 -119.472 135.223C-124.118 133.542 -124.774 132.907 -131.723 123.357L-135.94 117.56ZM-53.2389 110.29L-47.1699 110.318L-41.0993 110.345L-35.5549 112.597C-32.5048 113.836 -28.2472 116.49 -26.0947 118.497L-22.1818 122.146L-19.6641 128.338C-18.2792 131.744 -17.3042 134.732 -17.4989 134.976C-17.6936 135.22 -20.5249 132.606 -23.7905 129.167C-29.256 123.411 -41.9247 113.804 -40.6606 116.374C-40.3598 116.985 -36.3871 120.622 -31.8319 124.455C-24.0247 131.025 -18.1175 136.856 -17.9727 138.136C-17.851 139.213 -19.508 138.849 -27.3054 136.083C-31.5993 134.561 -36.5564 132.109 -38.3219 130.636C-41.5508 127.941 -52.9266 113.053 -53.1298 111.255L-53.2389 110.29ZM20.9944 115.913L24.7698 117.334C31.2294 119.764 34.9295 122.173 36.3066 124.845C37.6704 127.491 40.9875 139.543 40.3711 139.613C40.1813 139.634 37.436 136.572 34.2697 132.808C31.1034 129.044 28.3563 125.983 28.1653 126.005C27.3134 126.101 30.837 131.638 34.251 135.568C38.6033 140.579 37.9265 141.182 32.4176 137.204C27.8621 133.915 24.1825 127.99 22.3225 120.946L20.9944 115.913ZM236.109 93.8967L241 94.5559C243.689 94.9188 245.931 95.5786 245.981 96.0219C246.032 96.4653 244.503 98.3328 242.585 100.171L239.097 103.514L234.238 104.463L229.379 105.413L235.37 101.596L241.363 97.78L239.245 97.9803C238.079 98.0906 234.637 99.6048 231.596 101.346C228.554 103.088 225.843 104.338 225.571 104.123C224.602 103.356 229.621 97.5716 232.837 95.7502L236.109 93.8967ZM-4.07573 131.015C-2.45134 130.839 1.58654 133.486 3.05078 135.929L4.60838 138.525L4.33808 142.459C4.18955 144.623 3.5281 147.405 2.86822 148.641L1.66866 150.889L1.23865 147.086C1.00215 144.994 0.270342 141.718 -0.387569 139.805L-1.58377 136.327L-1.2845 143.703L-0.986785 151.079L-2.74498 148.512L-4.50472 145.945L-4.84623 138.972C-5.03433 135.136 -4.92854 131.671 -4.60973 131.271C-4.49068 131.122 -4.30774 131.04 -4.07573 131.015ZM-221.182 158.481L-215.115 157.878C-211.779 157.546 -207.078 157.666 -204.669 158.146L-200.287 159.018L-202.956 160.477C-204.424 161.28 -210.689 163.385 -216.88 165.153L-228.136 168.368L-223.627 168.186C-219.392 168.015 -204.44 164.102 -199.951 161.989L-197.919 161.032L-201.719 165.301L-205.518 169.569L-210.553 171.738C-213.322 172.931 -215.862 173.906 -216.197 173.904C-218.584 173.89 -227.55 171.941 -232.046 170.458L-237.464 168.671L-233.632 165.889C-231.525 164.358 -227.863 162.065 -225.492 160.794L-221.182 158.481ZM81.9182 126.559C82.8921 127.335 81.1555 143.622 79.6798 147.552L78.0251 151.961L73.5535 156.006L69.0804 160.051L68.895 158.412C68.4951 154.875 71.7047 145.492 75.2463 139.841C77.2945 136.572 78.8904 133.368 78.793 132.72C78.518 130.891 71.2994 141.487 69.4062 146.498C68.4764 148.959 67.3908 153.178 66.9942 155.873L66.2732 160.772L64.5841 156.68C63.6555 154.43 62.7947 151.742 62.6775 150.706C62.3174 147.606 64.6848 140.814 67.3644 137.261C69.6708 134.203 81.0293 125.851 81.9182 126.559ZM257.59 112.655L262.504 113.921C268.149 115.376 268.614 116.179 265.046 118.318C261.635 120.363 258.423 120.579 255.002 118.99L252.176 117.677L256.181 117.752L260.184 117.828L260.682 116.771L261.181 115.716L257.676 116.037C255.748 116.214 253.174 116.081 251.958 115.741L249.747 115.124L253.668 113.889L257.59 112.655ZM193.448 122.032L192.169 125.257C190.444 129.608 185.724 135.677 182.267 137.991C180.711 139.033 177.63 140.329 175.421 140.871L171.405 141.859L167.544 140.845L163.683 139.829L165.214 139.168C176.674 134.221 182.91 131.047 182.228 130.504C181.924 130.262 177.84 131.7 173.152 133.701C168.464 135.701 163.215 137.498 161.486 137.694L158.342 138.049L162.249 134.485C164.398 132.525 168.116 129.61 170.51 128.007L174.863 125.092L184.155 123.563L193.448 122.032ZM16.9862 147.316L23.0334 147.136L29.0805 146.955L33.2737 149.63C35.5803 151.101 38.2604 153.25 39.2303 154.405L40.9952 156.504L33.3673 153.62L25.7393 150.734L28.7724 152.885C30.4406 154.067 32.7703 155.498 33.9498 156.066L36.0942 157.099L33.4533 157.418C29.6053 157.882 25.7383 155.995 21.0893 151.384L16.9862 147.316ZM124.089 144.721C124.062 144.487 125.833 144.491 128.025 144.731C132.265 145.196 141.025 149.459 141.344 151.212L141.535 152.262L137.33 152.946C132.356 153.755 130.703 153.417 127.195 150.883C123.507 148.22 123.721 146.751 127.496 148.818C130.695 150.57 135.604 151.888 135.5 150.967C135.468 150.687 132.899 149.263 129.79 147.803C126.681 146.343 124.116 144.956 124.089 144.721ZM-191.766 180.849C-188.555 180.486 -181.067 182.249 -180.937 183.399C-180.896 183.764 -182.418 184.153 -184.319 184.263C-186.22 184.373 -189.191 184.72 -190.922 185.034L-194.069 185.605L-191.332 186.153C-189.826 186.455 -186.594 186.522 -184.151 186.304C-178.582 185.809 -177.317 187.206 -181.51 189.221C-185.947 191.353 -187.181 191.35 -194.735 189.193C-198.386 188.151 -201.492 187.309 -201.638 187.323C-201.783 187.338 -201.955 186.879 -202.02 186.305C-202.185 184.844 -195.462 181.267 -191.766 180.849ZM-98.4159 177.258C-94.8503 176.979 -90.4816 177.87 -87.6055 179.649C-83.9378 181.917 -83.8881 181.901 -90.5123 180.681L-95.7061 179.726L-95.602 180.647C-95.5446 181.154 -93.1505 182.085 -90.2822 182.716C-87.4138 183.348 -83.2991 184.588 -81.1384 185.471L-77.2103 187.077L-80.0249 187.44C-81.5734 187.64 -83.4499 188.092 -84.194 188.447C-86.7931 189.683 -94.1475 187.052 -99.2595 183.057L-104.412 179.029L-101.628 177.936C-100.703 177.573 -99.6046 177.351 -98.4159 177.258ZM106.732 159.727L111.529 160.502C114.167 160.929 116.353 161.521 116.387 161.817C116.49 162.732 113.293 165.555 108.388 168.882L103.698 172.064L99.435 172.546C97.0902 172.811 95.1466 172.802 95.1155 172.526C95.0175 171.66 101.071 167.952 106.507 165.549L111.73 163.241L109.438 163.118C108.177 163.05 104.548 164.212 101.372 165.7L95.5983 168.405L98.1124 165.107C99.4955 163.293 102.001 161.34 103.68 160.767L106.732 159.727ZM155.499 158.863C159.37 158.358 164.119 158.394 165.035 159.124C166.178 160.035 163.417 163.262 158.249 167.056L153.258 170.723L146.911 171.404L140.565 172.087L144.038 169.67C145.949 168.34 150.393 166.101 153.914 164.692C157.435 163.284 160.271 161.739 160.217 161.259L160.118 160.384L156.756 161.423C154.907 161.993 151.143 163.599 148.391 164.992C145.64 166.385 143.202 167.376 142.974 167.195C141.916 166.351 148.837 160.543 152.092 159.543C153.014 159.26 154.208 159.031 155.499 158.863ZM-149.402 193.723L-148.067 197.709L-146.734 201.694L-147.342 205.707C-148.183 211.257 -151.979 215.384 -160.023 219.497C-163.79 221.423 -167.077 223.021 -167.326 223.05C-168.373 223.168 -165.787 212.726 -163.822 208.9C-162.649 206.616 -159.563 202.834 -156.962 200.493L-152.235 196.239L-154.676 201.841C-156.019 204.922 -158.263 209.677 -159.663 212.408C-161.063 215.14 -161.955 217.576 -161.646 217.822C-160.759 218.529 -152.818 204.252 -151.024 198.724L-149.402 193.723ZM35.5176 180.001C39.0527 179.628 42.5352 180.104 42.0134 181.209C41.7594 181.747 37.669 183.955 32.9237 186.117C28.1784 188.279 24.3329 190.375 24.3781 190.775C24.4776 191.655 30.5513 189.611 36.6574 186.642C39.1165 185.446 41.3463 184.641 41.6114 184.852C42.3524 185.443 36.0322 191.202 32.835 192.85C31.2712 193.656 27.4077 194.607 24.248 194.964L18.5018 195.614L18.3782 194.521C17.9165 190.438 25.6313 182.656 32.1127 180.665C33.1566 180.344 34.3392 180.125 35.5176 180.001ZM-221.085 211.796L-224.775 216.597C-229.325 222.519 -228.227 222.673 -222.611 216.901L-218.417 212.591L-219.009 216.106C-219.792 220.761 -222.027 223.764 -226.894 226.702C-231.988 229.777 -233.485 229.952 -233.761 227.508C-234.134 224.21 -230.243 218.26 -225.546 214.945L-221.085 211.796ZM-112.483 199.78C-111.148 199.662 -107.817 200.194 -105.081 200.963L-100.105 202.36L-107.417 203.973C-111.439 204.859 -115.391 206.11 -116.202 206.754L-117.675 207.924L-107.199 206.059L-96.7219 204.195L-99.1161 206.53C-100.433 207.814 -102.489 209.529 -103.683 210.341C-104.877 211.153 -108.387 212.069 -111.482 212.377L-117.108 212.938L-122.097 211.371L-127.084 209.802L-124.684 207.42C-120.835 203.598 -115.107 200.012 -112.483 199.78ZM-254.758 216.968L-262.579 222.157C-270.518 227.426 -272.42 229.905 -265.613 226.112C-263.562 224.969 -259.516 222.814 -256.623 221.324L-251.36 218.613L-256.356 224.512L-261.352 230.41L-265.156 231.897C-267.249 232.715 -270.947 233.932 -273.374 234.6L-277.786 235.814L-277.924 234.6C-277.999 233.933 -277.059 231.315 -275.834 228.783L-273.607 224.179L-269.399 221.784C-267.085 220.466 -262.844 218.843 -259.975 218.177L-254.758 216.968ZM178.332 172.093C181.931 171.553 185.334 171.508 187.532 172.109C190.592 172.945 206.752 184.616 206.921 186.112C206.966 186.516 204.541 187.434 201.531 188.15C198.52 188.866 193.944 189.931 191.36 190.517L186.663 191.581L183.048 190.655C181.061 190.146 176.276 187.918 172.416 185.705L165.396 181.681L167.382 181.154C168.473 180.865 174.716 181.22 181.254 181.943C187.792 182.665 193.29 183.073 193.469 182.848C194.031 182.144 180.332 179.636 172.017 178.922C167.651 178.547 163.829 178.041 163.524 177.798C163.219 177.555 165.216 176.318 167.961 175.048C170.94 173.67 174.733 172.634 178.332 172.093ZM79.8299 184.108L82.7683 184.464C90.7433 185.433 94.3207 187.647 98.8259 194.398C100.231 196.504 101.244 198.359 101.073 198.519C100.427 199.129 92.4301 197.912 89.3467 196.735C85.9797 195.45 81.1661 191.181 80.9525 189.293C80.8842 188.688 82.0102 189.061 83.4549 190.12C86.968 192.697 94.5343 195.791 94.3991 194.596C94.3399 194.072 92.6366 192.86 90.6149 191.904C88.5931 190.949 85.3391 188.804 83.3842 187.137L79.8299 184.108ZM-66.4051 202.125C-65.7447 202.215 -66.7752 204.38 -69.4985 208.789C-71.8488 212.594 -73.4938 215.927 -73.1554 216.197C-72.8171 216.466 -70.374 213.656 -67.7251 209.951L-62.9087 203.214L-63.3043 206.47C-63.9613 211.887 -66.1745 215.767 -69.913 218.049C-71.865 219.241 -74.2912 220.768 -75.3032 221.445L-77.143 222.677L-76.7818 219.063C-76.1724 212.966 -73.6386 207.841 -69.4186 204.169C-67.8061 202.766 -66.8013 202.072 -66.4051 202.125ZM132.853 191.397C134.275 191.299 135.666 191.276 136.684 191.35L140.385 191.62L146.664 196.342C150.117 198.94 152.988 201.472 153.044 201.969C153.101 202.466 150.408 203.164 147.063 203.519L140.98 204.164L137.132 202.987C132.89 201.69 129.52 199.546 127.794 197.044L126.669 195.412L135.011 197.613C147.213 200.83 147.284 199.34 135.098 195.762L124.697 192.707L128.839 191.893C129.979 191.669 131.431 191.496 132.853 191.397ZM5.00639 213.735L6.85997 225.301L8.71356 236.868L8.92192 231.609C9.03653 228.717 8.81676 223.443 8.43251 219.889L7.73474 213.427L8.8369 214.908C9.44306 215.723 11.0198 218.761 12.3418 221.661L14.7461 226.933L13.7223 232.886C13.1592 236.16 11.9768 239.95 11.0958 241.306L9.49427 243.772L6.48006 240.249L3.46739 236.725L2.33729 230.684L1.20702 224.641L3.10748 219.188L5.00639 213.735ZM-42.8041 219.62L-39.134 219.887C-35.3192 220.165 -33.8702 221.86 -37.0991 222.266C-40.7709 222.728 -58.2455 234.811 -56.85 235.923C-56.5688 236.147 -52.7491 233.986 -48.3615 231.121C-40.6828 226.106 -31.459 221.849 -30.2914 222.779C-29.9827 223.025 -31.8286 225.902 -34.3924 229.172L-39.0537 235.118L-43.988 236.762C-46.7022 237.667 -52.4028 239.146 -56.6546 240.05L-64.3852 241.694L-63.9894 238.745C-62.9214 230.781 -57.1362 224.577 -47.7513 221.33L-42.8041 219.62ZM25.8603 229.889L26.9219 231.219C27.5057 231.95 29.6746 236.452 31.7401 241.224C33.8058 245.995 36.0343 251.042 36.6937 252.44L37.8922 254.981L37.72 252.709C37.6254 251.46 35.891 246.121 33.8647 240.846C31.8383 235.57 30.3545 231.035 30.5686 230.766C31.4787 229.624 39.3137 237.554 40.7213 241.043C43.35 247.558 43.3573 251.612 40.7616 261.883C40.3403 263.55 39.658 264.952 39.2444 264.998C37.9349 265.146 30.8027 257.525 28.6702 253.698L26.6218 250.02L26.2411 239.954L25.8603 229.889ZM-19.6668 247.866L-18.3232 248.502C-17.5838 248.851 -15.5663 251.447 -13.8412 254.271L-10.7059 259.405L-10.2373 263.635C-9.98224 265.962 -10.1086 270.252 -10.5234 273.171L-11.2782 278.479L-14.9889 275.106C-17.0298 273.251 -19.472 270.054 -20.417 268.001L-22.1362 264.267L-22.0487 258.19L-21.961 252.114L-20.9245 254.137C-20.3541 255.25 -19.2626 258.62 -18.4987 261.624C-17.735 264.628 -16.5933 267.329 -15.9616 267.627L-14.8118 268.17L-15.8653 264.138C-16.4447 261.921 -17.5371 257.353 -18.2928 253.987L-19.6668 247.866ZM-59.9892 268.894L-65.7328 275.559C-71.6623 282.439 -82.9519 299.157 -81.5623 299C-81.1307 298.951 -76.9686 293.943 -72.3136 287.87C-64.2354 277.333 -54.977 267.552 -53.896 268.413C-52.8166 269.273 -57.66 283.195 -61.0446 288.963L-64.6052 295.031L-69.8025 298.164C-72.661 299.887 -77.4089 302.554 -80.3532 304.09L-85.7066 306.883L-86.444 305.466C-87.4182 303.59 -86.3599 292.358 -84.8102 288.126C-81.9472 280.309 -77.12 275.957 -66.4098 271.541L-59.9892 268.894Z" fill="#565656"/>
</g>
</g>
<defs>
<clipPath id="clip0_2658_8009">
<rect width="331" height="300" fill="white"/>
</clipPath>
<clipPath id="clip1_2658_8009">
<rect width="360.549" height="260.73" fill="white" transform="translate(-30 40.5107) rotate(-6.45121)"/>
</clipPath>
</defs>
</svg>
