<svg width="57" height="68" viewBox="0 0 57 68" fill="none" xmlns="http://www.w3.org/2000/svg">
<path d="M28.2661 30.3444C26.567 30.3444 24.9375 29.6695 23.7361 28.468C22.5347 27.2666 21.8597 25.6371 21.8597 23.938C21.8597 22.2389 22.5347 20.6094 23.7361 19.408C24.9375 18.2065 26.567 17.5316 28.2661 17.5316C29.9652 17.5316 31.5947 18.2065 32.7962 19.408C33.9976 20.6094 34.6726 22.2389 34.6726 23.938C34.6726 24.7793 34.5068 25.6124 34.1849 26.3896C33.8629 27.1669 33.391 27.8731 32.7962 28.468C32.2013 29.0629 31.495 29.5348 30.7178 29.8568C29.9405 30.1787 29.1074 30.3444 28.2661 30.3444ZM28.2661 6C23.5087 6 18.9461 7.88989 15.582 11.2539C12.218 14.6179 10.3281 19.1805 10.3281 23.938C10.3281 37.3915 28.2661 57.2514 28.2661 57.2514C28.2661 57.2514 46.2041 37.3915 46.2041 23.938C46.2041 19.1805 44.3142 14.6179 40.9502 11.2539C37.5862 7.88989 33.0236 6 28.2661 6Z" fill="white"/>
</svg>
