<?xml version="1.0" encoding="UTF-8" standalone="no"?>
<!-- Created with Inkscape (http://www.inkscape.org/) -->

<svg
   version="1.1"
   id="svg1"
   width="637.91046"
   height="371.58789"
   viewBox="0 0 637.91046 371.58789"
   xmlns="http://www.w3.org/2000/svg"
   xmlns:svg="http://www.w3.org/2000/svg">
  <defs
     id="defs1" />
  <g
     id="g1"
     transform="translate(-446.99469,-2444.0222)">
    <g
       id="g2"
       transform="translate(11.691238,-1136.9729)">
      <path
         d="m 516.52615,2417.6073 c -0.57974,-0.1366 -0.16547,0.3486 1.03125,1.3418 0.8383,0.6957 1.52344,2.0542 1.52344,3.0195 0,0.9653 0.675,2.3153 1.5,3 0.825,0.6847 1.5,1.8097 1.5,2.5 0,0.6903 -0.675,1.8153 -1.5,2.5 -0.84602,0.7022 -1.5,2.8821 -1.5,5 0,2.118 0.65398,4.2979 1.5,5 0.825,0.6847 1.5,1.7239 1.5,2.3086 0,1.7325 -4.21075,5.6914 -6.05274,5.6914 -0.93678,0 -2.26257,0.675 -2.94726,1.5 -0.68469,0.825 -2.03469,1.5 -3,1.5 -0.96531,0 -2.31531,0.675 -3,1.5 -0.68469,0.825 -1.99593,1.5 -2.91406,1.5 -0.91814,0 -3.65691,2.025 -6.08594,4.5 -2.42903,2.475 -5.19541,4.5 -6.14844,4.5 -0.95303,0 -1.98832,0.4117 -2.29883,0.9141 -0.88413,1.4305 -8.95891,5.0859 -11.23437,5.0859 -1.12717,0 -3.19338,0.9 -4.5918,2 -1.43795,1.1311 -4.05625,2 -6.02734,2 -2.17554,0 -3.70125,0.5637 -4.06055,1.5 -0.37634,0.9808 -1.93414,1.5 -4.5,1.5 -2.56586,0 -4.12365,0.5193 -4.5,1.5 -0.31658,0.825 -1.56785,1.5 -2.7793,1.5 -3.80807,0 -5.85937,2.8135 -5.85937,8.0332 0,2.9779 0.55415,5.1819 1.5,5.9668 0.825,0.6847 1.5,2.0058 1.5,2.9356 0,0.9297 1.35,2.9836 3,4.5644 1.65,1.5808 3,3.8669 3,5.0801 0,1.2133 0.675,2.4647 1.5,2.7813 0.825,0.3165 1.5,1.6665 1.5,3 0,1.3334 0.675,2.6834 1.5,3 0.825,0.3165 1.5,1.6665 1.5,3 0,1.3334 0.675,2.6834 1.5,3 0.825,0.3165 1.5,1.6665 1.5,3 0,1.3334 0.675,2.6834 1.5,3 0.825,0.3165 1.5,1.5107 1.5,2.6543 0,1.1435 1.19117,3.1825 2.64648,4.5312 2.22016,2.0576 3.64836,2.4531 8.87696,2.4531 4.31918,0 6.6137,0.4604 7.47656,1.5 0.68469,0.825 2.63312,1.5 4.33008,1.5 2.20897,0 4.16196,1.052 6.87695,3.7032 3.4268,3.3461 3.79297,4.2025 3.79297,8.8925 0,3.6909 0.43328,5.3563 1.5,5.7657 0.825,0.3165 1.5,1.5158 1.5,2.664 0,1.1483 1.3822,3.3509 3.07226,4.8946 2.98822,2.7293 3.06636,3.0235 2.81641,10.6933 -0.24871,7.6318 0.95704,12.3867 3.14258,12.3867 0.52907,0 2.81102,1.6698 5.07031,3.711 4.05807,3.6662 4.10254,3.7821 3.68555,9.5469 -0.42107,5.8212 -0.44174,5.8564 -9.10352,14.5585 -8.08552,8.1232 -8.68359,9.0049 -8.68359,12.8301 0,2.4314 0.61215,4.6167 1.5,5.3535 2.5559,2.1212 1.8339,6.377 -1.5,8.8418 -2.61801,1.9356 -3,2.8363 -3,7.0801 0,3.4003 0.45121,5.037 1.5,5.4395 1.09571,0.4204 1.5,2.1447 1.5,6.3984 0,5.5806 -0.18747,6.0078 -4.5,10.2402 -3.45778,3.3936 -4.5,5.1507 -4.5,7.586 0,1.7431 -0.675,3.7293 -1.5,4.414 -2.17268,1.8032 -2.00692,9.9086 0.23633,11.5489 1.64896,1.2057 1.64896,1.3673 0,3.1894 -1.17309,1.2963 -1.73633,3.5816 -1.73633,7.041 0,3.0065 -0.51763,5.4505 -1.25195,5.92 -2.19367,1.4023 -5.70716,9.7402 -5.09375,12.0859 0.50807,1.9429 1.24502,2.2148 5.99414,2.2148 3.89061,0 5.57665,0.4223 5.99023,1.5 0.36886,0.9613 1.90996,1.5 4.29297,1.5 2.65305,0 4.37804,0.702 6.01953,2.4493 2.73396,2.9101 2.11777,5.5507 -1.29687,5.5507 -1.32492,0 -2.96961,0.675 -3.6543,1.5 -0.68469,0.825 -2.03469,1.5 -3,1.5 -0.96531,0 -2.31531,0.675 -3,1.5 -0.68469,0.825 -2.03469,1.5 -3,1.5 -0.96531,0 -2.31531,0.675 -3,1.5 -0.68469,0.825 -2.01244,1.5 -2.94922,1.5 -0.93678,0 -2.69243,1.0539 -3.90234,2.3418 -2.10788,2.2438 -2.18784,3.0276 -1.92383,18.75 l 0.27539,16.4082 5.5,0.2911 c 6.74921,0.3563 7.85975,1.6092 7.23047,8.1582 -0.26246,2.7314 -0.21026,5.6596 0.11523,6.5078 0.45332,1.1813 2.18898,1.5429 7.42188,1.5429 7.90184,0 9.23242,-0.8941 9.23242,-6.2011 0,-3.0857 -0.36266,-3.7989 -1.92774,-3.7989 -2.13841,0 -6.07226,-4.4099 -6.07226,-6.8066 0,-2.1374 2.96216,-5.1934 5.0332,-5.1934 0.94742,0 2.30004,-0.6979 3.00781,-1.5507 1.80249,-2.1719 6.3492,-1.4694 6.80079,1.0507 0.1971,1.1 1.29068,3.0125 2.43164,4.25 1.75744,1.9062 3.10694,2.25 8.82421,2.25 h 6.74805 l 27.82617,-16.1406 c 15.30485,-8.877 36.15314,-20.9502 46.32813,-26.8301 10.17499,-5.8799 27.72501,-16.0227 39,-22.539 40.94688,-23.665 70.95187,-40.947 92.5,-53.2754 66.25189,-37.9051 100.9542,-58.0905 101.18359,-58.8555 0.14181,-0.4729 -4.56623,-3.5895 -10.46289,-6.9258 -19.46723,-11.0144 -87.62434,-50.1099 -126.7207,-72.6875 -78.03969,-45.0667 -119.90809,-69.2647 -152.41211,-88.0879 -25.23061,-14.6111 -35.90337,-20.6096 -37.64258,-21.0195 z"
         style="fill:#004fee"
         id="path17" />
      <path
         d="m 562.01834,2524.869 c -0.38442,-0.622 -1.62587,1.7336 -2.75977,5.2344 -1.13391,3.5008 -5.26286,16.3778 -9.17578,28.6152 l -7.11523,22.25 H 528.5242 c -13.60923,0 -14.44336,0.1107 -14.44336,1.9317 0,1.0629 0.85893,2.206 1.9082,2.539 1.04928,0.3331 3.74077,2.5955 5.98242,5.0274 3.97842,4.3161 4.06394,4.5589 3.58399,10.1992 -0.27043,3.178 -0.77058,6.6624 -1.11328,7.7422 -0.46401,1.462 0.33736,2.7699 3.14257,5.125 l 3.76758,3.1621 -3.6289,11.3867 c -1.99623,6.2624 -6.06132,18.9242 -9.03321,28.1367 -2.97187,9.2125 -5.11186,16.7383 -4.75586,16.7246 0.35599,-0.014 11.12812,-7.6637 23.93946,-17 12.81133,-9.3363 23.55258,-16.9746 23.86914,-16.9746 0.31657,0 11.14079,7.6811 24.05273,17.0704 12.91193,9.3893 23.66051,16.8863 23.88672,16.6601 0.22621,-0.2262 -3.68797,-12.942 -8.69922,-28.2578 -8.69317,-26.5688 -9.02755,-27.9098 -7.25781,-29.2148 1.02017,-0.7523 11.8969,-8.6551 24.16992,-17.5625 l 22.31445,-16.1954 -29.83789,-0.2636 -29.83789,-0.2657 -8.9082,-27.4687 c -4.89954,-15.1084 -9.22301,-27.9796 -9.60742,-28.6016 z"
         style="fill:#ffffff;stroke:#ffffff;stroke-width:0.533603"
         id="path15" />
      <path
         d="m 570.17849,2765.2108 19.40235,-11.1992 89,-0.029 c 87.64959,-0.027 89.04552,-0.057 92,-2.0488 2.23599,-1.5074 4.40196,-1.9742 8.50781,-1.8301 3.02981,0.1063 6.55984,-0.3695 7.84375,-1.0566 3.26981,-1.75 6.98493,-0.5797 7.74219,2.4375 l 0.62305,2.4843 h 304.78516 304.7871 l 3.1055,-2.9023 c 1.7082,-1.5957 3.1055,-3.3614 3.1055,-3.9258 0,-2.1025 5.4107,-5.3393 8.0449,-4.8125 4.0168,0.8034 9.3087,-0.8049 12.2148,-3.7109 1.8337,-1.8337 3.703,-2.6485 6.0723,-2.6485 5.0919,0 5.8356,-1.5584 5.0781,-10.6425 -0.8206,-9.8404 0.8303,-18.7129 3.8809,-20.8497 2.9611,-2.074 6.0547,-1.8883 8.209,0.4922 3.2277,3.5666 6.2569,2.6026 8.6425,-2.75 1.1644,-2.6125 2.5079,-5.5313 2.9864,-6.4863 0.4785,-0.955 0.8805,-3.43 0.8926,-5.5 0.012,-2.07 0.912,-5.7255 2,-8.123 1.0879,-2.3976 1.9785,-4.9172 1.9785,-5.5997 0,-0.6824 1.4158,-3.1967 3.1465,-5.5859 2.5763,-3.5564 3.1655,-5.3496 3.25,-9.8984 l 0.1035,-5.5567 -357.5957,-0.5 -357.59381,-0.5 41.33984,-23.8535 c 22.73714,-13.1188 41.13864,-24.178 40.89258,-24.5762 -0.24607,-0.3981 -18.70672,-11.2634 -41.02539,-24.1464 l -40.58008,-23.4239 407.23246,-0.2519 c 270.2854,-0.1668 407.5695,-0.5871 408.2344,-1.252 0.5509,-0.5509 1.023,-3.3641 1.0488,-6.25 0.04,-4.4583 0.3851,-5.3956 2.2969,-6.2344 2.76,-1.2108 2.927,-4.0804 0.3183,-5.4765 -3.2232,-1.725 -3.4405,-4.6765 -0.7031,-9.5742 l 2.5137,-4.4961 -3.002,-6.4121 c -2.8676,-6.1281 -2.9299,-6.5482 -1.4277,-9.4532 0.8646,-1.6719 2.5786,-3.5602 3.8105,-4.1953 4.5015,-2.3206 6.7403,-5.1687 6.7403,-8.5781 0,-3.6176 -2.0034,-4.4018 -5.1446,-2.0117 -1.4278,1.0863 -1.4608,1.5043 -0.25,3.1601 1.8381,2.5139 1.7679,3.1521 -0.6054,5.5254 -2.5405,2.5405 -3.4452,2.511 -5.961,-0.1894 -2.6156,-2.8075 -2.6214,-5.8469 -0.012,-6.5293 1.3615,-0.3561 1.8501,-1.0902 1.4863,-2.2363 -0.298,-0.9391 1.04,-4.7415 2.9727,-8.4493 1.9326,-3.7077 3.5283,-7.4954 3.5469,-8.4179 0.019,-0.9226 0.8722,-3.4512 1.8965,-5.6172 2.7573,-5.8306 0.961,-9.5606 -4.6036,-9.5606 -2.9671,0 -3.623,0.4657 -4.8769,3.4668 -0.797,1.9074 -1.4492,4.6074 -1.4492,6 0,3.7419 -4.2024,3.462 -7,-0.4668 -2.5509,-3.5824 -3.1936,-3.657 -7.041,-0.8125 -2.0659,1.5274 -2.959,3.0414 -2.959,5.0157 0,2.2337 -0.7167,3.1716 -3.4121,4.457 -3.0973,1.477 -3.7677,1.4855 -7.2559,0.09 -2.1139,-0.8458 -6.9912,-1.8742 -10.8379,-2.2832 -8.9052,-0.9468 -15.1704,-4.27 -20.0078,-10.6133 -3.3611,-4.4073 -4.0771,-4.8535 -7.7793,-4.8535 -2.7826,0 -4.7973,0.676 -6.3418,2.1269 -2.8056,2.6358 -5.1566,1.8855 -6.6719,-2.1289 l -1.1328,-2.998 H 1043.4676 590.29373 l -1.93945,-1.1192 h -0.92579 c 29.60422,17.1265 58.14266,33.6331 119.15235,68.8653 39.09636,22.5775 107.25347,61.6731 126.7207,72.6875 5.89666,3.3363 10.6047,6.4528 10.46289,6.9258 -0.22939,0.765 -34.9317,20.9504 -101.18359,58.8554 -21.54813,12.3285 -51.55312,29.6105 -92.5,53.2754 -11.27499,6.5163 -28.82501,16.6592 -39,22.5391 -9.18239,5.3063 -27.16019,15.7196 -41.8086,24.2129 z"
         style="fill:#ffffff;stroke:#ffffff;stroke-width:0.533603"
         id="path14" />
      <path
         style="fill:#ed0000"
         d="m 546.25498,2809.6539 c -2.75319,-2.9306 -2.7271,-3.8176 0.19298,-6.5608 2.28162,-2.1435 2.72139,-2.1878 12.15134,-1.223 5.38122,0.5505 10.20814,1.4251 10.72649,1.9434 1.56884,1.5689 0.37537,4.6347 -1.93272,4.9649 -1.19194,0.1705 -2.70494,0.958 -3.36222,1.75 -0.83774,1.0094 -3.34885,1.44 -8.39831,1.44 -6.2365,0 -7.49506,-0.3106 -9.37756,-2.3145 z m 134.82569,-8.5648 -2.5,-0.7262 2.71101,-1.7867 c 1.49105,-0.9827 2.99218,-2.6726 3.33584,-3.7554 0.45393,-1.4302 1.35352,-1.8844 3.28899,-1.6605 2.39016,0.2764 2.66416,0.7195 2.66416,4.3081 0,3.8717 -0.11224,4.0056 -3.5,4.1734 -1.925,0.095 -4.625,-0.1533 -6,-0.5527 z m -110.5,-2.1207 c -1.1,-0.4727 -3.31805,-0.8911 -4.929,-0.9297 -5.04949,-0.1212 -9.56915,-2.2524 -9.58828,-4.5212 -0.0305,-3.6206 -4.22212,-6.5491 -9.37367,-6.5491 -3.04974,0 -5.20687,-0.5921 -6.3761,-1.75 -1.68558,-1.6693 -0.5906,-2.4291 23.75,-16.4788 l 25.51705,-14.7287 89,-0.028 c 87.64968,-0.027 89.04552,-0.059 92,-2.0503 2.23599,-1.5073 4.40291,-1.9732 8.50876,-1.8291 3.02981,0.1063 6.55923,-0.3689 7.84314,-1.056 3.26981,-1.75 6.98402,-0.5812 7.74128,2.4359 l 0.62364,2.4848 h 304.78591 304.7858 l 3.1057,-2.9012 c 1.7082,-1.5957 3.1058,-3.363 3.1058,-3.9274 0,-2.1025 5.4113,-5.3392 8.0455,-4.8123 4.0168,0.8034 9.3083,-0.8038 12.2144,-3.7099 1.8337,-1.8337 3.7029,-2.6492 6.0722,-2.6492 5.0919,0 5.835,-1.5574 5.0775,-10.6416 -0.8206,-9.8403 0.8315,-18.7134 3.8821,-20.8502 2.9611,-2.074 6.054,-1.8887 8.2083,0.4918 3.2277,3.5665 6.2574,2.6025 8.643,-2.75 1.1644,-2.6125 2.5085,-5.5314 2.987,-6.4864 0.4785,-0.9551 0.8799,-3.4301 0.892,-5.5 0.012,-2.07 0.912,-5.7252 2,-8.1228 1.0879,-2.3976 1.978,-4.9176 1.978,-5.6 0,-0.6824 1.416,-3.1955 3.1467,-5.5847 2.5763,-3.5564 3.1655,-5.3512 3.25,-9.9 l 0.1033,-5.5561 -357.5946,-0.5 -357.59462,-0.5 41.34029,-23.8525 c 22.73716,-13.1188 41.13897,-24.1782 40.89291,-24.5763 -0.24607,-0.3981 -18.70815,-11.2645 -41.02685,-24.1475 l -40.57945,-23.4237 407.23242,-0.2512 c 270.2857,-0.1668 407.5692,-0.5881 408.2341,-1.253 0.5509,-0.5509 1.0229,-3.3629 1.0487,-6.2487 0.04,-4.4584 0.3853,-5.3955 2.2971,-6.2342 2.76,-1.2109 2.9264,-4.0805 0.3177,-5.4767 -3.2232,-1.725 -3.4397,-4.6765 -0.7023,-9.5743 l 2.5132,-4.4967 -3.001,-6.413 c -2.8676,-6.1281 -2.9311,-6.548 -1.4289,-9.4529 0.8646,-1.672 2.5798,-3.5596 3.8117,-4.1946 4.5015,-2.3207 6.7396,-5.1696 6.7396,-8.579 0,-3.6176 -2.0037,-4.4006 -5.1449,-2.0105 -1.4278,1.0864 -1.4608,1.5035 -0.25,3.1594 1.8381,2.5138 1.7682,3.1521 -0.6051,5.5254 -2.5405,2.5404 -3.4452,2.5118 -5.961,-0.1886 -2.6156,-2.8074 -2.6207,-5.8465 -0.011,-6.529 1.3615,-0.356 1.85,-1.0915 1.4862,-2.2377 -0.298,-0.939 1.0393,-4.7409 2.972,-8.4487 1.9326,-3.7077 3.5291,-7.4961 3.5477,-8.4187 0.019,-0.9225 0.8721,-3.4495 1.8964,-5.6156 2.7573,-5.8306 0.9608,-9.5617 -4.6038,-9.5617 -2.9671,0 -3.6236,0.4668 -4.8775,3.4679 -0.797,1.9073 -1.449,4.6073 -1.449,6 0,3.7418 -4.2024,3.4609 -7,-0.4679 -2.5509,-3.5824 -3.193,-3.6565 -7.0405,-0.8119 -2.0659,1.5274 -2.9595,3.0419 -2.9595,5.0161 0,2.2338 -0.7172,3.1702 -3.4126,4.4555 -3.0973,1.477 -3.7678,1.4853 -7.256,0.09 -2.1139,-0.8458 -6.9907,-1.8724 -10.8374,-2.2814 -8.9052,-0.9469 -15.1695,-4.2699 -20.0069,-10.6132 -3.3611,-4.4073 -4.078,-4.8547 -7.7802,-4.8547 -2.7826,0 -4.7971,0.6756 -6.3416,2.1266 -2.8056,2.6357 -5.157,1.8855 -6.6723,-2.1288 l -1.1315,-2.9978 h -453.174 -453.17405 l -32.85674,-18.9505 c -18.07121,-10.4228 -34.76924,-20.0867 -37.10674,-21.4754 l -4.25,-2.5249 v -9.2967 -9.2967 l 8.25,-8.1286 c 5.46447,-5.3841 10.18469,-9.0276 13.98003,-10.7911 3.15151,-1.4643 5.99057,-3.084 6.30901,-3.5993 0.31845,-0.5152 4.99734,-0.9368 10.39753,-0.9368 7.50764,0 10.11154,-0.353 11.06343,-1.5 1.58782,-1.9132 5.39457,-1.9344 6.96778,-0.039 0.96777,1.1661 5.38475,1.5537 21.87244,1.9194 11.36288,0.252 22.09711,0.4967 23.85385,0.5438 1.75674,0.047 3.4708,0.5334 3.80902,1.0806 0.33822,0.5473 1.67641,0.995 2.97377,0.995 2.50766,0 12.03991,4.4091 13.04374,6.0334 0.32859,0.5316 1.41578,0.9666 2.41597,0.9666 1.0002,0 2.37874,0.675 3.06343,1.5 0.68469,0.825 2.06743,1.5 3.07275,1.5 1.00533,0 2.24687,0.7487 2.75897,1.6638 0.75084,1.3417 2.28389,1.6199 7.91859,1.4372 5.55695,-0.1803 7.11026,0.093 7.5872,1.3362 0.50903,1.3265 3.00556,1.5628 16.50866,1.5628 12.92133,0 16.14272,0.2817 17.15383,1.5 1.6219,1.9543 8.3781,1.9543 10,0 0.82579,-0.995 3.06583,-1.5 6.65383,-1.5 3.88546,0 5.57106,-0.4225 5.98454,-1.5 0.45437,-1.184 2.52816,-1.5 9.84617,-1.5 7.02056,0 9.57271,0.3641 10.51546,1.5 0.70213,0.846 2.88207,1.5 5,1.5 2.11793,0 4.29787,-0.654 5,-1.5 1.83096,-2.2061 31.16904,-2.2061 33,0 0.70379,0.848 2.88379,1.5 5.01546,1.5 2.42912,0 3.97534,0.5337 4.34617,1.5 0.37634,0.9808 1.93414,1.5 4.5,1.5 2.56586,0 4.12365,0.5193 4.5,1.5 0.37634,0.9808 1.93414,1.5 4.5,1.5 2.56586,0 4.12365,0.5193 4.5,1.5 0.46261,1.2056 2.70124,1.5 11.4039,1.5 10.77738,0 10.83983,-0.014 13.28138,-2.9576 2.74443,-3.3089 8.28479,-4.2263 9.31472,-1.5424 0.89186,2.3242 2.9961,1.7847 5.68528,-1.4576 2.44427,-2.9471 2.49308,-2.9578 13.58065,-3 8.63279,-0.033 11.40665,-0.3787 12.37244,-1.5424 1.82357,-2.1972 28.17643,-2.1972 30,0 0.86377,1.0408 3.15985,1.5 7.5,1.5 4.34015,0 6.63623,0.4592 7.5,1.5 2.20381,2.6555 5.97722,1.8638 7.14984,-1.5 0.87667,-2.5148 1.57875,-3 4.341,-3 2.00656,0 3.52028,0.5866 3.87079,1.5 0.3758,0.9794 1.93242,1.5 4.48454,1.5 2.25466,0 4.43578,0.6348 5.15383,1.5 0.94247,1.1356 3.49319,1.5 10.5,1.5 7.0068,0 9.5575,0.3644 10.5,1.5 0.6847,0.825 2.0347,1.5 3,1.5 0.9653,0 2.3153,0.675 3,1.5 0.9229,1.1121 3.3838,1.5 9.5155,1.5 6.4291,0 8.3987,0.334 8.8461,1.5 0.4408,1.1486 2.3302,1.5 8.06453,1.5 h 7.4889 l 5.8923,-5.9658 5.8922,-5.9659 11.4002,-0.2841 11.4003,-0.2842 0.3164,-2.75 c 0.3561,-3.0948 3.1028,-3.7572 5.1836,-1.25 0.6847,0.825 2.0347,1.5 3,1.5 0.9653,0 2.3153,0.675 3,1.5 0.9229,1.1121 3.3838,1.5 9.5155,1.5 6.4291,0 8.3987,0.334 8.8461,1.5 0.808,2.1055 11.891,2.1055 13.6384,0 0.6847,-0.825 1.8097,-1.5 2.5,-1.5 0.6903,0 1.8153,0.675 2.5,1.5 0.6847,0.825 2.0347,1.5 3,1.5 0.9653,0 2.3153,0.675 3,1.5 0.6847,0.825 2.0347,1.5 3,1.5 0.9653,0 2.3153,0.675 3,1.5 0.9774,1.1777 3.771,1.5 13,1.5 9.229,0 12.0226,-0.3223 13,-1.5 1.7559,-2.1157 15.2441,-2.1157 17,0 0.6847,0.825 2.0347,1.5 3,1.5 0.9653,0 2.3153,0.675 3,1.5 0.6847,0.825 2.0347,1.5 3,1.5 0.9653,0 2.3255,0.6873 3.0226,1.5273 1.045,1.2591 3.6485,1.4786 14.8287,1.25 13.5468,-0.277 13.5617,-0.2799 14.1466,-2.7773 0.5433,-2.3202 1.0679,-2.5212 7.2938,-2.7957 l 6.7083,-0.2957 v 3.5105 c 0,2.5435 -0.5788,3.8203 -2.1014,4.6352 -2.0868,1.1168 -2.0821,1.1448 0.6871,4.0351 2.1908,2.2868 3.6666,2.9106 6.8856,2.9106 3.6205,0 4.7037,-0.6143 9.3129,-5.2815 2.8687,-2.9047 5.2158,-6.0689 5.2158,-7.0313 0,-3.3763 3.0229,-3.0707 6.8798,0.6954 3.3261,3.2478 3.7473,4.2185 3.8163,8.7945 0.092,6.1019 2.6293,8.7649 8.3849,8.8007 2.757,0.017 3.8806,0.5819 4.8829,2.4547 0.716,1.3379 1.0312,3.1379 0.7004,4 -1.6417,4.2781 2.7815,5.9397 8.2642,3.1045 4.5594,-2.3578 4.4285,-4.0275 -0.6518,-8.3157 -5.6158,-4.7401 -5.3249,-6.6871 1.1438,-7.6571 3.5227,-0.5283 4.5795,-1.1095 4.5795,-2.5185 0,-2.1696 -1.9023,-3.0457 -6.6132,-3.0457 -3.8262,0 -5.3884,-2.0882 -3.3762,-4.5127 0.8092,-0.9751 3.0651,-1.4873 6.5501,-1.4873 4.5099,0 5.8138,0.4548 8.6004,3 2.0938,1.9123 4.3536,3 6.233,3 1.6216,0 3.717,0.6956 4.6564,1.5457 1.2484,1.1298 4.1597,1.5838 10.8212,1.6874 8.599,0.1338 9.2654,0.3005 11.8079,2.9544 1.482,1.5469 3.4838,2.8125 4.4485,2.8125 0.9646,0 1.9846,0.3733 2.2665,0.8295 0.6723,1.0877 8.3524,0.6176 11.8554,-0.7256 1.5125,-0.5799 2.7642,-1.628 2.7816,-2.3292 0.017,-0.7011 1.1208,-2.5122 2.452,-4.0247 2.2804,-2.5909 2.9079,-2.75 10.846,-2.75 6.2694,0 8.7441,0.3839 9.6704,1.5 0.7872,0.9485 2.9932,1.5 6,1.5 3.0068,0 5.2128,0.5515 6,1.5 0.7803,0.9402 2.9821,1.5 5.8999,1.5 2.5864,0 5.6386,0.6889 6.8683,1.5502 1.5292,1.0711 3.9803,1.4574 7.9315,1.25 5.1676,-0.2713 5.7743,-0.541 6.3003,-2.8002 0.5221,-2.2425 1.1464,-2.5302 6.0626,-2.7931 4.9847,-0.2666 5.7445,-0.018 8.3961,2.75 1.6035,1.6737 3.7096,3.0431 4.6803,3.0431 0.9706,0 3.2943,1.575 5.1639,3.5 3.3282,3.427 3.5666,3.5 11.4257,3.5 5.8076,0 8.3606,0.4026 9.2351,1.4563 0.7822,0.9425 3.5596,1.5599 7.8725,1.75 5.8752,0.2589 6.699,0.5399 6.9612,2.3747 0.1636,1.1445 2.7503,4.5034 5.7483,7.4641 l 5.4508,5.3831 4.7861,-4.7141 c 3.705,-3.6492 5.5125,-4.7141 8.0017,-4.7141 3.0891,0 3.2157,0.1587 3.2157,4.0314 0,4.5508 2.4112,6.4943 4.5049,3.6311 0.8238,-1.1267 2.6765,-1.6625 5.7484,-1.6625 5.0237,0 5.7467,0.8397 5.7467,6.6741 0,2.0568 0.87,4.611 2.1011,6.1682 1.7847,2.2576 2.8721,2.6577 7.2236,2.6577 4.3442,0 5.1734,0.3039 5.4575,2 0.745,4.4488 1.1766,4.7724 3.137,2.3515 1.5962,-1.9713 2.8264,-2.3515 7.6082,-2.3515 4.831,0 5.9542,0.3553 7.3383,2.321 6.5795,9.3443 11.5803,12.2195 24.6343,14.1633 13.4787,2.007 13.6375,1.9871 14.9495,-1.8694 1.3783,-4.0516 6.1131,-8.1031 9.4777,-8.1099 1.505,0 3.4842,1.2298 5.2093,3.245 l 2.7822,3.25 0.041,-2.7821 c 0.022,-1.5302 0.6926,-4.3427 1.4896,-6.25 1.3783,-3.2988 1.6917,-3.4679 6.4274,-3.4679 4.2335,0 5.3004,0.4093 7.13,2.7352 1.3994,1.7792 1.9806,3.6144 1.6625,5.25 -0.8112,4.1716 -6.2966,18.517 -8.1791,21.39 -2.1712,3.3137 -1.3841,4.3646 1.668,2.2268 3.3605,-2.3538 5.7466,-1.9836 6.9082,1.0717 1.9656,5.1699 -0.188,9.2544 -7.9893,15.1524 -3.6911,2.7905 -3.7619,4.1537 -0.5546,10.6739 3.0184,6.136 3.0382,6.9526 0.294,12.1338 l -2.1894,4.1338 2.6866,3.1929 c 3.4426,4.0913 3.3861,5.7311 -0.2698,7.8293 -2.6526,1.5224 -2.9576,2.2114 -2.9676,6.7035 -0.01,2.7537 -0.064,6.5817 -0.1283,8.5067 -0.064,1.925 -0.019,4.85 0.1015,6.5 0.1204,1.65 -0.461,4.7603 -1.2918,6.9118 -1.1726,3.0363 -2.3775,4.2448 -5.384,5.3997 -5.2416,2.0136 -9.2822,5.1553 -12.8733,10.0096 -1.65,2.2304 -3.7875,4.266 -4.75,4.5235 -0.9625,0.2575 -1.75,1.4103 -1.75,2.5618 0,1.1515 -0.9317,3.0253 -2.0704,4.164 -1.6559,1.6559 -3.1075,2.0148 -7.25,1.7927 l -5.1796,-0.2777 -0.2921,7.7073 c -0.2429,6.4119 -0.5791,7.7339 -2,7.8657 -3.4698,0.3219 -5.6816,-0.2534 -6.4837,-1.6867 -0.5013,-0.8959 -2.3213,-1.4717 -4.6514,-1.4717 -2.1826,0 -4.363,-0.6447 -5.0728,-1.5 -1.3944,-1.6802 -9.9869,-2.1021 -11.55,-0.5671 -0.5885,0.5779 -3.2332,0.4154 -6.95,-0.427 -3.3,-0.7479 -8.25,-1.2802 -11,-1.1829 -4.2903,0.1519 -5.0436,0.4827 -5.3069,2.3304 -0.1923,1.3495 0.5441,2.7495 1.9725,3.75 2.8344,1.9853 4.7089,2.0201 6.8015,0.1263 1.121,-1.0144 2.773,-1.2839 5.3288,-0.8691 3.2561,0.5284 3.7041,0.9427 3.7041,3.4258 0,4.7046 -7.4351,13.9136 -11.2334,13.9136 -2.3645,0 -5.7666,4.4425 -5.7666,7.5301 0,2.11 -1.2718,4.1924 -4.6636,7.636 -3.8246,3.8829 -4.4459,4.9971 -3.4534,6.1929 2.0851,2.5125 0.2622,11.2242 -3.5269,16.8548 -1.8458,2.7429 -3.3561,5.7418 -3.3561,6.6642 0,0.9223 -0.6082,2.5646 -1.3515,3.6495 -0.7434,1.0849 -1.6181,4.3006 -1.9439,7.1461 -0.3258,2.8455 -1.009,5.9955 -1.5184,7 -0.5094,1.0045 -1.8861,3.9789 -3.0594,6.6098 -1.2579,2.8207 -3.0531,5.1237 -4.3749,5.6127 -2.4824,0.9183 -7.0247,-0.315 -8.7306,-2.3705 -1.7026,-2.0515 -4.7849,-0.6424 -5.9584,2.7238 -0.5846,1.677 -1.0629,8.0871 -1.0629,14.2448 0,12.6989 -0.6942,14.0951 -7.5625,15.2097 -2.2435,0.364 -4.6802,1.6293 -5.925,3.0765 -1.7838,2.0738 -3.2622,2.5403 -9.4549,2.9834 -6.9123,0.4945 -7.4018,0.6879 -8.3938,3.316 -0.5794,1.5349 -2.0908,3.3459 -3.3586,4.0245 -1.2679,0.6785 -2.3052,1.824 -2.3052,2.5456 0,1.843 -4.4028,2.7401 -6.8968,1.4053 -1.7969,-0.9616 -2.6841,-0.561 -6.455,2.915 -2.4045,2.2164 -5.1232,4.0298 -6.0414,4.0298 -0.9183,0 -1.9286,0.675 -2.2452,1.5 -0.4332,1.129 -2.2504,1.5 -7.3461,1.5 -4.7984,0 -7.1332,0.4369 -8.0155,1.5 -0.9707,1.1696 -3.7064,1.5 -12.4194,1.5 -11.1609,0 -11.1774,0 -13.6275,2.9576 -1.7206,2.0745 -3.3489,2.9577 -5.4531,2.9577 -2.1042,0 -3.7325,-0.8832 -5.4531,-2.9577 -1.3517,-1.6297 -3.4363,-2.9576 -4.643,-2.9576 -1.2045,0 -2.4489,-0.675 -2.7655,-1.5 -0.3166,-0.825 -1.6597,-1.5 -2.9846,-1.5 -1.3249,0 -2.9691,-0.675 -3.6538,-1.5 -0.6847,-0.825 -2.2023,-1.4995 -3.3724,-1.499 -2.6791,0 -12.3882,9.1969 -13.2232,12.5238 -0.4471,1.7816 -1.3001,2.4752 -3.0442,2.4752 -1.3326,0 -2.682,0.675 -2.9986,1.5 -0.4269,1.1127 -2.1948,1.5 -6.8461,1.5 -4.3539,0 -6.6511,-0.4585 -7.5155,-1.5 -0.6847,-0.825 -2.0347,-1.5 -3,-1.5 -0.9653,0 -2.3153,-0.675 -3,-1.5 -1.6219,-1.9543 -8.3781,-1.9543 -10,0 -0.6847,0.825 -2.0347,1.5 -3,1.5 -0.9653,0 -2.3153,0.675 -3,1.5 -0.6847,0.825 -2.0347,1.5 -3,1.5 -0.9653,0 -2.3153,0.675 -3,1.5 -0.6847,0.825 -2.3289,1.5 -3.6538,1.5 -1.3249,0 -2.668,0.675 -2.9846,1.5 -0.4068,1.0601 -2.0608,1.5 -5.64,1.5 -4.6917,0 -5.3796,0.3289 -9.3468,4.4694 -2.3553,2.4581 -5.4098,4.7522 -6.7876,5.0981 -1.3778,0.3458 -3.0287,1.2596 -3.6686,2.0306 -1.6688,2.0108 -14.2326,1.9333 -15.9186,-0.098 -1.8327,-2.2083 -13.8955,-2.0409 -17.884,0.2482 -2.9706,1.7049 -3.1646,1.6863 -7.8295,-0.75 -2.6308,-1.374 -5.3322,-3.1732 -6.0031,-3.9982 -1.4391,-1.7696 -1.6251,-5.9117 -0.3557,-7.9173 1.1691,-1.847 11.5892,-1.5491 18.8092,0.5379 5.4189,1.5663 7.2631,1.2741 7.2631,-1.1508 0,-0.8793 -2.642,-2.2147 -7.0015,-3.5389 -3.8508,-1.1696 -7.2523,-2.5326 -7.559,-3.0287 -0.9813,-1.5879 -7.3918,-0.9672 -11.4633,1.11 -2.472,1.261 -4.1773,2.9408 -4.5686,4.5 -0.3434,1.3683 -1.1955,2.4878 -1.8936,2.4878 -0.698,0 -1.8293,0.675 -2.514,1.5 -1.6083,1.9379 -7.3917,1.9379 -9,0 -1.714,-2.0652 -8.869,-2.005 -9.6696,0.081 -0.4947,1.2892 -2.027,1.5275 -8.294,1.2901 -6.6764,-0.253 -8.0566,-7e-4 -10.4966,1.9186 -5.074,3.9912 -7.31,2.5993 -7.7296,-4.8119 -0.2792,-4.9304 -0.5523,-5.5123 -2.7311,-5.8201 -1.3315,-0.1881 -3.5692,-1.6506 -4.9727,-3.25 -1.4035,-1.5994 -3.3366,-2.908 -4.2958,-2.908 -0.9591,0 -3.3132,-1.5693 -5.2311,-3.4872 -3.2778,-3.2778 -3.7752,-3.4499 -8.2834,-2.8654 -2.6378,0.3421 -5.5065,1.2363 -6.3748,1.9872 -0.8683,0.751 -2.4556,1.3654 -3.5274,1.3654 -1.0717,0 -3.0968,1.3086 -4.5003,2.908 -1.4035,1.5994 -3.6412,3.0619 -4.9727,3.25 -1.6309,0.2304 -2.527,1.0898 -2.7459,2.6336 -0.4166,2.9371 -6.654,9.2084 -9.1586,9.2084 -1.0544,0 -2.2769,0.616 -2.7167,1.369 -1.8307,3.134 -5.0586,2.8436 -9.1136,-0.8198 -2.1607,-1.9521 -4.8383,-3.5492 -5.9503,-3.5492 -1.112,0 -2.2808,-0.675 -2.5974,-1.5 -0.3166,-0.825 -1.6666,-1.5 -3,-1.5 -1.3334,0 -2.6834,-0.675 -3,-1.5 -0.4054,-1.0565 -2.0535,-1.5 -5.5737,-1.5 -4.3602,0 -5.417,-0.4304 -8.2814,-3.3722 -1.8058,-1.8547 -4.2456,-5.1172 -5.4216,-7.25 -1.4505,-2.6304 -2.9348,-3.9754 -4.614,-4.1811 -1.3616,-0.1668 -3.746,-1.6293 -5.2988,-3.25 -2.721,-2.8402 -3.1525,-2.9467 -11.93603,-2.9467 -5.7545,0 -9.5551,-0.4423 -10.3129,-1.2 -0.9333,-0.9334 -1.4667,-0.9334 -2.4,0 -0.66,0.66 -3.3049,1.2 -5.8776,1.2 -2.9378,0 -5.1405,0.5578 -5.9224,1.5 -0.6847,0.825 -2.0347,1.5 -3,1.5 -0.9653,0 -2.3153,0.675 -3,1.5 -0.6847,0.825 -2.0347,1.5 -3,1.5 -0.9653,0 -2.3153,0.675 -3,1.5 -0.6847,0.825 -2.32891,1.5 -3.65383,1.5 -1.32492,0 -2.66796,0.675 -2.98454,1.5 -0.43497,1.1335 -2.26748,1.5 -7.5,1.5 -5.23253,0 -7.06504,0.3665 -7.5,1.5 -0.37083,0.9663 -1.91705,1.5 -4.34617,1.5 -2.13167,0 -4.31167,0.652 -5.01546,1.5 -0.84268,1.0153 -3.1043,1.5 -7,1.5 -3.8957,0 -6.15732,-0.4847 -7,-1.5 -0.76211,-0.9183 -2.95472,-1.5 -5.65383,-1.5 -2.99657,0 -4.59333,0.4805 -4.98454,1.5 -0.82123,2.1401 -5.99319,1.8684 -8.29744,-0.4358 -1.06469,-1.0647 -2.07719,-3.6522 -2.25,-5.75 l -0.31449,-3.8142 -7.37017,-0.2962 c -5.34265,-0.2148 -7.81853,0.1007 -9,1.1467 -0.89641,0.7937 -2.5101,1.6043 -3.58598,1.8015 -1.10155,0.2019 -2.21218,1.4484 -2.54218,2.8532 -0.55578,2.3661 -0.99318,2.51 -8.47869,2.7902 -6.29498,0.2356 -8.06774,-0.017 -8.75752,-1.25 -0.47566,-0.85 -1.91933,-1.5454 -3.20816,-1.5454 -1.28883,0 -2.60234,-0.675 -2.91893,-1.5 -0.37634,-0.9807 -1.93414,-1.5 -4.5,-1.5 -2.56586,0 -4.12365,-0.5193 -4.5,-1.5 -0.31658,-0.825 -1.63053,-1.5 -2.91989,-1.5 -1.2994,0 -3.62538,-1.3372 -5.21848,-3 -1.5808,-1.65 -3.63489,-3 -4.56465,-3 -0.92975,0 -2.25066,-0.675 -2.93535,-1.5 -1.77373,-2.1372 -2.91145,-1.8631 -3.98482,0.9601 -1.28804,3.3878 -4.88869,6.8024 -6.51493,6.1784 -0.73982,-0.2839 -1.49253,-1.5562 -1.67269,-2.8274 -0.2176,-1.5353 -0.99896,-2.3111 -2.32756,-2.3111 -1.58333,0 -2.10417,0.8333 -2.5,4 -0.48733,3.8987 -0.60753,4.0078 -4.7447,4.3072 -3.54584,0.2567 -4.65718,-0.1378 -6.75,-2.396 -2.59417,-2.7991 -3.0809,-4.955 -1.63397,-7.2373 0.80038,-1.2624 -0.70185,-7.3378 -2.17986,-8.8158 -0.37357,-0.3735 -1.52969,0.09 -2.56917,1.0312 -1.51581,1.3718 -2.91467,1.5745 -7.06625,1.0237 -9.12808,-1.2108 -12.36782,2.4469 -11.0711,12.4995 0.48527,3.7619 1.35641,5.9455 2.85662,7.1603 2.80639,2.2725 2.72298,2.9272 -0.37295,2.9272 -1.39227,0 -2.79041,0.675 -3.10699,1.5 -0.31659,0.825 -1.56107,1.5 -2.76553,1.5 -1.20668,0 -3.29133,1.3279 -4.64301,2.9576 -1.90781,2.3003 -3.29363,2.9671 -6.23447,3 -2.40861,0.027 -3.99035,0.5869 -4.35699,1.5424 -0.8215,2.1408 -12.60758,2.1135 -14.38927,-0.033 -1.68375,-2.0288 -3.28385,-1.384 -3.98911,1.6074 -0.55246,2.3433 -0.8998,2.4323 -10.20685,2.6136 -7.335,0.1429 -9.91975,-0.1555 -10.82811,-1.25 -0.7368,-0.8878 -3.04397,-1.4377 -6.03199,-1.4377 h -4.83882 l -1.53874,-5.1815 c -0.84631,-2.8498 -1.53874,-5.6214 -1.53874,-6.159 0,-0.5377 -2.12769,-2.931 -4.7282,-5.3185 -7.02924,-6.4536 -11.72868,-5.462 -11.08633,2.3392 0.29921,3.6337 0.50811,3.8442 4.28785,4.3198 3.69159,0.4645 4.10007,0.8423 5.76111,5.3275 0.98328,2.6551 1.54159,5.2259 1.24067,5.7128 -0.30092,0.4869 -2.56731,0.8447 -5.03643,0.7951 -3.8724,-0.078 -4.95504,0.3895 -7.87845,3.3996 -3.04714,3.1376 -4.1145,3.5612 -10.57695,4.198 -3.9533,0.3895 -7.81679,0.9496 -8.58554,1.2446 -0.83383,0.32 -1.39773,-0.1016 -1.39773,-1.0449 0,-0.8698 -1.2375,-2.2251 -2.75,-3.012 -1.5125,-0.7869 -3.84094,-2.5984 -5.17431,-4.0257 -1.33338,-1.4272 -3.24588,-2.595 -4.25,-2.595 -2.92999,0 -5.82569,-3.6413 -5.82569,-7.3257 0,-2.236 -0.80247,-4.0796 -2.44912,-5.6265 -3.28872,-3.0896 -5.55088,-2.103 -5.55088,2.4208 0,2.8289 -0.3861,3.5314 -1.94098,3.5314 -1.06754,0 -2.2191,-0.45 -2.55902,-1 -0.33992,-0.55 -1.51684,-1 -2.61539,-1 -1.09854,0 -3.26289,-1.3856 -4.80967,-3.0791 -3.49981,-3.8318 -8.36775,-3.8834 -8.90451,-0.094 -0.24667,1.7413 -0.74973,2.1475 -2,1.615 -0.91874,-0.3913 -3.87792,-1.2376 -6.57597,-1.8808 -3.51625,-0.8381 -5.13557,-1.7911 -5.71778,-3.365 -0.71402,-1.9301 -1.54539,-2.1956 -6.87584,-2.1956 -4.46738,0 -6.21514,0.3949 -6.63921,1.5 -0.31659,0.825 -1.53996,1.5078 -2.71862,1.5173 -2.87908,0.023 -6.64301,4.1629 -6.64301,7.3063 0,1.7621 -0.69007,2.7559 -2.25,3.2402 -4.24336,1.3175 -7.75,4.4867 -7.75,7.0043 0,3.1629 2.20582,3.1352 5.40909,-0.068 3.76473,-3.7647 4.59091,-3.1541 4.59091,3.393 0,4.4512 -0.38702,6.0415 -1.58179,6.5 -0.86998,0.3338 -1.65748,0.5754 -1.75,0.5367 -0.0925,-0.039 -1.06821,-0.457 -2.16821,-0.9297 z M 1582.5807,2499.8988 c 0,-0.7717 -0.7875,-1.5547 -1.75,-1.74 -1.7237,-0.332 -2.4363,1.7899 -1.0625,3.1638 1.0482,1.0482 2.8125,0.155 2.8125,-1.4238 z M 623.96115,2792.089 c -1.31408,-1.0336 -3.28726,-2.0507 -4.38486,-2.2602 -2.18573,-0.4171 -3.30535,-4.4507 -1.68514,-6.0709 0.59692,-0.5969 3.95166,-0.7013 8.58467,-0.2672 7.49978,0.7028 7.60485,0.7515 7.60485,3.5226 0,1.8445 -0.90524,3.522 -2.63486,4.8825 -3.24856,2.5553 -4.44254,2.5862 -7.48466,0.1932 z m -30.88048,-9.9059 c 0,-2.9871 3.99157,-4.5318 9.09974,-3.5216 3.4153,0.6754 4.40026,1.3108 4.40026,2.8385 0,1.7342 -0.80297,2.0036 -6.75,2.2641 -6.04056,0.2646 -6.75,0.098 -6.75,-1.581 z m 288.66667,-1.8814 c -1.18597,-1.1859 -0.70707,-5.0549 0.77829,-6.2876 0.79472,-0.6596 2.48222,-1.0522 3.75,-0.8725 1.86954,0.2651 2.36368,1.0353 2.61541,4.0768 0.30272,3.6576 0.22678,3.75 -3.08334,3.75 -1.86653,0 -3.6937,-0.3 -4.06036,-0.6667 z m -104.91667,-11.4134 c -2.3208,-1.3517 -2.21613,-2.4592 0.25,-2.645 1.36378,-0.1027 2,0.4658 2,1.7872 0,2.2262 0.0601,2.2033 -2.25,0.8578 z m -2.39326,-8.4326 c -0.82513,-2.1503 1.45222,-4.4873 4.37269,-4.4873 1.85474,0 2.33068,0.401 1.87756,1.5818 -0.33385,0.87 -0.60699,2.22 -0.60699,3 0,1.927 -4.89902,1.8449 -5.64326,-0.095 z"
         id="path2" />
      <g
         id="g21">
        <path
           d="m 478.52963,3116.1588 c 17.67851,35.0208 -18.41579,44.8956 -44.01522,55.6622 l -17.70234,7.4453 -2.17595,22.061 0.30452,8.8964 c 0,0 13.26719,14.2747 21.77442,20.5976 9.89386,7.3534 16.7451,15.6117 24.09764,24.4778 6.97571,8.4117 14.76755,17.2611 12.85484,30.3588 0.98345,3.8607 1.37083,19.2731 -3.20171,39.1349 -3.60831,15.6734 -12.75191,34.8413 -10.23173,48.292 -7.02616,12.2477 -0.94786,20.1777 0.0359,30.5683 0.31722,3.3505 4.05416,5.4416 5.5519,9.3887 3.14702,8.2935 4.5179,18.5428 0.42678,22.1027 -10.9878,9.561 -14.71307,11.0778 -18.10355,19.1925 -2.95333,7.0683 -4.31868,16.1565 -0.81199,22.9673 4.64729,9.0261 14.65516,20.5976 25.40044,16.8058 -14.50288,-38.5204 34.06795,5.4378 48.40397,-24.7274 94.82129,-54.9151 190.25065,-108.8156 284.63037,-164.5032 -108.66459,-63.6226 -217.74748,-126.5307 -327.23828,-188.7207 z"
           style="fill:#004fee"
           id="path18" />
        <path
           d="m 524.02182,3223.4205 c -3.5263,4.1904 -4.13869,10.9796 -6.30553,16.2658 -4.25628,13.2754 -8.4978,26.5555 -12.74525,39.8338 -9.29735,0.1892 -18.66178,-0.4766 -27.90512,0.5203 -2.42698,5.0089 8.5096,7.291 9.9179,12.6144 3.35959,6.1924 -4.32303,14.9544 2.6044,19.4298 1.56249,1.6425 4.97921,2.7479 3.05408,5.4009 -5.45086,17.5839 -11.56884,34.9675 -16.52947,52.6973 1.05982,2.2808 7.58283,-4.8231 10.65375,-6.21 12.35933,-8.7696 24.41015,-17.9875 36.97985,-26.4527 16.25643,10.8357 31.49165,23.1931 47.93945,33.7305 -4.78235,-18.4456 -12.09351,-36.1795 -16.73048,-54.6608 1.40187,-6.0254 9.89772,-8.0863 14.10467,-12.5055 11.04952,-8.0235 22.10203,-16.0429 33.15315,-24.0642 -19.89194,-0.1753 -39.78386,-0.3518 -59.67578,-0.5293 -6.14381,-18.6983 -11.93843,-37.5205 -18.51562,-56.0703 z"
           style="fill:#ffffff;stroke:#ffffff;stroke-width:0.533603"
           id="path19" />
        <path
           d="m 532.18197,3463.7623 c 27.69224,-20.7151 64.2938,-7.9133 96.21343,-11.1849 41.40435,1.2247 83.10276,-0.7337 124.12925,-3.033 38.56046,6.0807 78.24332,1.6062 117.38521,2.976 h 496.96354 c 14.8132,-13.8664 49.8538,-18.6598 39.4932,-46.7168 29.5686,2.9009 48.2282,-66.4895 6.3129,-51.8208 l -688.28463,-0.9624 c 22.61794,-16.9963 72.04027,-33.3275 77.18022,-51.4838 -19.59959,-13.6288 -79.89795,-42.5651 -70.18245,-44.5273 269.69856,-0.4603 539.40176,0.4887 809.09606,-1.4928 4.792,-17.6582 12.3195,-68.1565 7.7266,-60.5682 -3.0582,3.7649 -3.6178,3.0546 -4.2542,2.4727 -2.0198,-1.8466 4.4152,-19.3903 4.0502,-28.9567 -0.4944,-12.9601 -10.1115,0.2176 -13.6532,3.3127 -41.3157,17.5263 -67.5919,-24.9992 -110.0895,-14.2564 H 552.29721 c 83.7292,50.4097 169.661,97.0823 253.4707,147.3594 -90.35572,53.8866 -184.45741,105.4838 -273.58594,158.8823 z"
           style="fill:#ffffff;stroke:#ffffff;stroke-width:0.533603"
           id="path20" />
        <path
           style="fill:#ed0000"
           d="m 532.58415,3497.5199 c -59.8423,-13.9845 18.56618,-53.0612 46.07789,-45.0384 57.94019,0.026 116.32804,1.4353 173.86273,-2.9375 38.56052,6.08 78.24315,1.606 117.38494,2.9757 h 496.96299 c 14.8138,-13.8659 49.8534,-18.6593 39.4943,-46.7163 29.5686,2.8997 48.2274,-66.4898 6.3123,-51.8213 l -696.28434,-0.9624 c 22.61844,-16.9956 72.04123,-33.3263 77.18096,-51.4829 -19.59953,-13.6291 -79.8997,-42.5665 -70.18324,-44.5282 269.69842,-0.4599 547.40152,0.4901 817.09572,-1.4931 4.7911,-17.6574 13.1021,-67.6178 7.7261,-60.5672 -18.7167,24.5466 18.5588,-57.5015 -13.8563,-23.1718 -41.3158,17.5277 -67.5909,-24.9994 -110.0885,-14.2564 H 552.29763 c -22.13414,-21.7748 -86.55578,-27.461 -69.86622,-65.9031 29.57935,-30.7983 81.57173,-21.9604 118.68087,-10.5226 37.22372,19.6555 82.18443,8.7124 122.095,6.109 39.08141,12.1914 77.39419,12.9591 116.95303,2.9912 37.5761,0.1263 73.12292,-0.8914 109.25738,11.6171 33.10361,-0.057 61.78051,-23.8067 97.62831,-7.6567 32.5853,4.2639 68.687,9.7475 101.3676,9.5283 20.6948,-6.1848 31.8082,14.4682 37.0876,0.6593 3.0384,0.027 9.5407,14.4983 17.2014,15.5865 6.2858,0.8928 16.1576,-0.1492 17.1175,-8.3531 2.1989,-3.2758 40.2708,14.5308 55.0872,4.5039 34.4642,-8.2581 69.6442,0.2132 103.9941,6.3779 26.8808,16.4528 45.5564,14.8488 69.4839,23.0402 17.7547,19.6319 63.9157,35.3559 87.5452,22.5888 25.7888,-25.4979 8.5306,23.4713 14.3454,35.4625 -8.4663,32.2843 1.2811,84.3255 -45.2761,100.1383 1.3089,24.9309 -64.4614,-5.515 -44.037,13.6232 -1.6104,15.1467 -30.169,55.5334 -33.7515,84.4922 -29.2984,3.9866 -16.8345,45.3108 -51.4893,46.2831 -34.1706,33.712 -84.7973,7.5509 -117.2254,29.5653 -34.1021,-12.8164 -68.2039,30.1168 -98.7743,23.7306 -6.8111,-1.4228 -29.7266,-12.6318 -19.8683,-12.7753 16.5425,-0.2409 8.0065,-5.1871 4.045,-8.2033 -2.7606,-2.1019 -10.2112,-1.3401 -20.6341,1.9557 -21.9595,15.0536 -51.829,2.8752 -51.829,2.8752 0,0 -3.9007,-13.7217 -8.6637,-17.8424 0,0 -58.7305,15.5969 -74.87257,10.9695 -16.14209,-4.6274 -19.12142,-16.2314 -19.12142,-16.2314 -7.76569,-3.1653 -33.8292,10.3421 -41.90882,11.0663 -34.36512,3.0803 -52.4566,17.743 -81.68676,-7.4804 -32.02922,15.3874 -58.56772,-14.2951 -90.92518,-4.5978 -4.15765,-29.0952 -29.58348,6.1185 -24.03665,15.0417 -30.91294,19.0435 -63.97513,10.7839 -83.84325,-7.704 24.16406,31.3024 -42.99761,33.8434 -48.75083,2.4671 -18.33053,10.6872 -66.51468,-17.216 -64.44079,19.9261 8.9359,-4.2201 5.06135,11.6005 -0.60138,6.6709 z m 203.85674,-38.5127 c 3.63062,-14.1651 10.75259,7.0806 0,0 z"
           id="path21" />
      </g>
      <g
         id="g25"
         transform="matrix(0.56154365,0,0,0.86110736,202.46718,936.95575)">
        <path
           d="m 478.52963,3116.1588 c 17.67851,35.0208 -18.41579,44.8956 -44.01522,55.6622 l -17.70234,7.4453 -2.17595,22.061 0.30452,8.8964 c 0,0 13.26719,14.2747 21.77442,20.5976 9.89386,7.3534 16.7451,15.6117 24.09764,24.4778 6.97571,8.4117 14.76755,17.2611 12.85484,30.3588 0.98345,3.8607 1.37083,19.2731 -3.20171,39.1349 -3.60831,15.6734 -12.75191,34.8413 -10.23173,48.292 -7.02616,12.2477 -0.94786,20.1777 0.0359,30.5683 0.31722,3.3505 4.05416,5.4416 5.5519,9.3887 3.14702,8.2935 4.5179,18.5428 0.42678,22.1027 -10.9878,9.561 -14.71307,11.0778 -18.10355,19.1925 -2.95333,7.0683 -4.31868,16.1565 -0.81199,22.9673 4.64729,9.0261 14.65516,20.5976 25.40044,16.8058 -14.50288,-38.5204 34.06795,5.4378 48.40397,-24.7274 94.82129,-54.9151 190.25065,-108.8156 284.63037,-164.5032 -108.66459,-63.6226 -217.74748,-126.5307 -327.23828,-188.7207 z"
           style="fill:#004fee"
           id="path22" />
        <path
           d="m 542.11585,3223.498 c -4.86054,4.186 -5.70464,10.9681 -8.69135,16.2487 -5.86673,13.2615 -11.71311,26.5277 -17.56767,39.7921 -12.81518,0.189 -25.72283,-0.4761 -38.46357,0.5198 -3.34528,5.0036 11.72937,7.2833 13.67053,12.6011 4.63076,6.1859 -5.95873,14.9388 3.58983,19.4095 2.15369,1.6408 6.86319,2.745 4.20965,5.3952 -7.5133,17.5655 -15.94614,34.9309 -22.78372,52.6421 1.46082,2.2784 10.45194,-4.818 14.6848,-6.2035 17.03573,-8.7604 33.64622,-17.9686 50.97192,-26.425 22.40737,10.8244 43.40714,23.1688 66.07829,33.6952 -6.59185,-18.4263 -16.66933,-36.1416 -23.06079,-54.6035 1.9323,-6.0191 13.64272,-8.0779 19.44145,-12.4924 15.23033,-8.0151 30.46478,-16.0261 45.69731,-24.039 -27.41845,-0.1751 -54.83688,-0.3515 -82.2553,-0.5288 -8.46844,-18.6787 -16.45557,-37.4812 -25.52138,-56.0115 z"
           style="fill:#ffffff;stroke:#ffffff;stroke-width:0.626143"
           id="path23" />
        <path
           d="m 532.18197,3463.7623 c 27.69224,-20.7151 64.2938,-7.9133 96.21343,-11.1849 41.40435,1.2247 83.10276,-0.7337 124.12925,-3.033 38.56046,6.0807 78.24332,1.6062 117.38521,2.976 h 496.96354 c 14.8132,-13.8664 49.8538,-18.6598 39.4932,-46.7168 29.5686,2.9009 48.2282,-66.4895 6.3129,-51.8208 l -688.28463,-0.9624 c 22.61794,-16.9963 72.04027,-33.3275 77.18022,-51.4838 -19.59959,-13.6288 -79.89795,-42.5651 -70.18245,-44.5273 269.69856,-0.4603 539.40176,0.4887 809.09606,-1.4928 4.792,-17.6582 12.3195,-68.1565 7.7266,-60.5682 -3.0582,3.7649 -3.6178,3.0546 -4.2542,2.4727 -2.0198,-1.8466 4.4152,-19.3903 4.0502,-28.9567 -0.4944,-12.9601 -10.1115,0.2176 -13.6532,3.3127 -41.3157,17.5263 -67.5919,-24.9992 -110.0895,-14.2564 H 552.29721 c 83.7292,50.4097 169.661,97.0823 253.4707,147.3594 -90.35572,53.8866 -184.45741,105.4838 -273.58594,158.8823 z"
           style="fill:#ffffff;stroke:#ffffff;stroke-width:0.533603"
           id="path24" />
        <path
           style="fill:#ed0000"
           d="m 532.58415,3497.5199 c -59.8423,-13.9845 18.56618,-53.0612 46.07789,-45.0384 57.94019,0.026 116.32804,1.4353 173.86273,-2.9375 38.56052,6.08 78.24315,1.606 117.38494,2.9757 h 496.96299 c 14.8138,-13.8659 49.8534,-18.6593 39.4943,-46.7163 29.5686,2.8997 48.2274,-66.4898 6.3123,-51.8213 l -696.28434,-0.9624 c 22.61844,-16.9956 72.04123,-33.3263 77.18096,-51.4829 -19.59953,-13.6291 -79.8997,-42.5665 -70.18324,-44.5282 269.69842,-0.4599 547.40152,0.4901 817.09572,-1.4931 4.7911,-17.6574 13.1021,-67.6178 7.7261,-60.5672 -18.7167,24.5466 18.5588,-57.5015 -13.8563,-23.1718 -41.3158,17.5277 -67.5909,-24.9994 -110.0885,-14.2564 H 552.29763 c -22.13414,-21.7748 -86.55578,-27.461 -69.86622,-65.9031 29.57935,-30.7983 81.57173,-21.9604 118.68087,-10.5226 37.22372,19.6555 82.18443,8.7124 122.095,6.109 39.08141,12.1914 77.39419,12.9591 116.95303,2.9912 37.5761,0.1263 73.12292,-0.8914 109.25738,11.6171 33.10361,-0.057 61.78051,-23.8067 97.62831,-7.6567 32.5853,4.2639 68.687,9.7475 101.3676,9.5283 20.6948,-6.1848 31.8082,14.4682 37.0876,0.6593 3.0384,0.027 9.5407,14.4983 17.2014,15.5865 6.2858,0.8928 16.1576,-0.1492 17.1175,-8.3531 2.1989,-3.2758 40.2708,14.5308 55.0872,4.5039 34.4642,-8.2581 69.6442,0.2132 103.9941,6.3779 26.8808,16.4528 45.5564,14.8488 69.4839,23.0402 17.7547,19.6319 63.9157,35.3559 87.5452,22.5888 25.7888,-25.4979 8.5306,23.4713 14.3454,35.4625 -8.4663,32.2843 1.2811,84.3255 -45.2761,100.1383 1.3089,24.9309 -64.4614,-5.515 -44.037,13.6232 -1.6104,15.1467 -30.169,55.5334 -33.7515,84.4922 -29.2984,3.9866 -16.8345,45.3108 -51.4893,46.2831 -34.1706,33.712 -84.7973,7.5509 -117.2254,29.5653 -34.1021,-12.8164 -68.2039,30.1168 -98.7743,23.7306 -6.8111,-1.4228 -29.7266,-12.6318 -19.8683,-12.7753 16.5425,-0.2409 8.0065,-5.1871 4.045,-8.2033 -2.7606,-2.1019 -10.2112,-1.3401 -20.6341,1.9557 -21.9595,15.0536 -51.829,2.8752 -51.829,2.8752 0,0 -3.9007,-13.7217 -8.6637,-17.8424 0,0 -58.7305,15.5969 -74.87257,10.9695 -16.14209,-4.6274 -19.12142,-16.2314 -19.12142,-16.2314 -7.76569,-3.1653 -33.8292,10.3421 -41.90882,11.0663 -34.36512,3.0803 -52.4566,17.743 -81.68676,-7.4804 -32.02922,15.3874 -58.56772,-14.2951 -90.92518,-4.5978 -4.15765,-29.0952 -29.58348,6.1185 -24.03665,15.0417 -30.91294,19.0435 -63.97513,10.7839 -83.84325,-7.704 24.16406,31.3024 -42.99761,33.8434 -48.75083,2.4671 -18.33053,10.6872 -66.51468,-17.216 -64.44079,19.9261 8.9359,-4.2201 5.06135,11.6005 -0.60138,6.6709 z m 203.85674,-38.5127 c 3.63062,-14.1651 10.75259,7.0806 0,0 z"
           id="path25" />
      </g>
    </g>
  </g>
</svg>
